<?xml version="1.0" standalone="no"?>
<!DOCTYPE svg PUBLIC "-//W3C//DTD SVG 1.1//EN" "http://www.w3.org/Graphics/SVG/1.1/DTD/svg11.dtd" >
<svg>
<metadata>
Created by FontForge 20090914 at Sun Nov 22 20:42:17 2015
 By www-data
Copyright (c) 2008 by NORM, Dimitri Bruni, Manuel Krebs. www.lineto.com. All rights reserved.
</metadata>
<defs>
<font id="Replica-Bold" horiz-adv-x="580" >
  <font-face 
    font-family="Replica-Bold"
    font-weight="400"
    font-stretch="normal"
    units-per-em="1000"
    panose-1="2 0 5 3 3 0 0 2 0 4"
    ascent="790"
    descent="-210"
    x-height="499.999"
    cap-height="700"
    bbox="-50 -210.004 1560 900.002"
    underline-thickness="20"
    underline-position="-130"
    unicode-range="U+000D-U+FB04"
  />
<missing-glyph horiz-adv-x="660" 
d="M580 10l-10 -10h-480l-10 10v680l10 10h480l10 -10v-680zM110 660v-620l10 -10h420l10 10v620l-10 10h-420z" />
    <glyph glyph-name="uniFB00" unicode="ff" horiz-adv-x="740" 
d="M370 700l10 -9.99805v-100l-10 -10h-80c-20 0 -30 -10 -30 -30v-40l10 -10h180l10 10v40c0 51.333 16 89.166 48 113.499s72.667 36.5 122 36.5h80l10 -10v-100l-10 -10h-80c-20 0 -30 -10 -30 -30v-40l10 -10h90l10 -10v-100l-10 -10h-90l-10 -10v-360l-10 -10h-120
l-10 10v360l-10 10h-180l-10 -10v-360l-10 -10h-120l-10 10v360l-10 10h-70l-10 10v100l10 10h70l10 10v40c0 51.333 16 89.166 48 113.499s72.667 36.5 122 36.5h80z" />
    <glyph glyph-name="fi" unicode="fi" horiz-adv-x="660" 
d="M600 590l-10 -10h-120l-10 10v100l10 10h120l10 -10v-100zM270 500l320 0.000976562l10 -10v-480l-10 -10h-120l-10 10v360l-10 10h-180l-10 -10v-360l-10 -10h-120l-10 10v360l-10 10h-70l-10 10v100l10 10h70l10 10v40c0 51.333 16 89.166 48 113.499
s72.667 36.5 122 36.5h80l10 -10v-100l-10 -10h-80c-20 0 -30 -10 -30 -30v-40z" />
    <glyph glyph-name="fl" unicode="fl" horiz-adv-x="660" 
d="M270 500l180 0.000976562l10 10v180l10 10h120l10 -10v-680l-10 -10h-120l-10 10v360l-10 10h-180l-10 -10v-360l-10 -10h-120l-10 10v360l-10 10h-70l-10 10v100l10 10h70l10 10v40c0 51.333 16 89.166 48 113.499s72.667 36.5 122 36.5h80l10 -10v-100l-10 -10h-80
c-20 0 -30 -10 -30 -30v-40z" />
    <glyph glyph-name="uniFB03" unicode="ffi" horiz-adv-x="1000" 
d="M370 700l10 -9.99805v-100l-10 -10h-80c-20 0 -30 -10 -30 -30v-40l10 -10h180l10 10v40c0 51.333 16 89.166 48 113.499s72.667 36.5 122 36.5h80l10 -10v-100l-10 -10h-80c-20 0 -30 -10 -30 -30v-40l10 -10h320l10 -10v-480l-10 -10h-120l-10 10v360l-10 10h-180
l-10 -10v-360l-10 -10h-120l-10 10v360l-10 10h-180l-10 -10v-360l-10 -10h-120l-10 10v360l-10 10h-70l-10 10v100l10 10h70l10 10v40c0 51.333 16 89.166 48 113.499s72.667 36.5 122 36.5h80zM940 590.002l-10 -10h-120l-10 10v100l10 10h120l10 -10v-100z" />
    <glyph glyph-name="uniFB04" unicode="ffl" horiz-adv-x="1000" 
d="M370 700l10 -9.99805v-100l-10 -10h-80c-20 0 -30 -10 -30 -30v-40l10 -10h180l10 10v40c0 51.333 16 89.166 48 113.499s72.667 36.5 122 36.5h80l10 -10v-100l-10 -10h-80c-20 0 -30 -10 -30 -30v-40l10 -10h180l10 10v180l10 10h120l10 -10v-680l-10 -10h-120l-10 10
v360l-10 10h-180l-10 -10v-360l-10 -10h-120l-10 10v360l-10 10h-180l-10 -10v-360l-10 -10h-120l-10 10v360l-10 10h-70l-10 10v100l10 10h70l10 10v40c0 51.333 16 89.166 48 113.499s72.667 36.5 122 36.5h80z" />
    <glyph glyph-name=".notdef" horiz-adv-x="660" 
d="M580 10l-10 -10h-480l-10 10v680l10 10h480l10 -10v-680zM110 660v-620l10 -10h420l10 10v620l-10 10h-420z" />
    <glyph glyph-name=".null" horiz-adv-x="0" 
 />
    <glyph glyph-name=".null" horiz-adv-x="0" 
 />
    <glyph glyph-name="CR" unicode="&#xd;" horiz-adv-x="0" 
 />
    <glyph glyph-name="space" unicode=" " horiz-adv-x="260" 
 />
    <glyph glyph-name="exclam" unicode="!" horiz-adv-x="400" 
d="M270 470l-20 -230l-10 -10h-80l-10 10l-20 230v220l10 10h120l10 -10v-220zM280 10l-10 -10h-140l-10 10v130l10 10h140l10 -10v-130z" />
    <glyph glyph-name="quotedbl" unicode="&#x22;" horiz-adv-x="540" 
d="M460 400l-10 -10h-120l-10 10v290l10 10h120l10 -10v-290zM220 400l-10 -10h-120l-10 10v290l10 10h120l10 -10v-290z" />
    <glyph glyph-name="numbersign" unicode="#" horiz-adv-x="650" 
d="M570 210l-10 -10h-90l-10 -10l-50 -180l-10 -10h-70l-10 10v100l20 80l-10 10h-90l-10 -10l-50 -180l-10 -10h-70l-10 10v100l20 80l-10 10h-60l-10 10v80l10 10h90l10 10l20 80l-10 10h-60l-10 10v80l10 10h90l10 10l50 180l10 10h70l10 -10v-100l-20 -80l10 -10h90
l10 10l50 180l10 10h70l10 -10v-100l-20 -80l10 -10h60l10 -10v-80l-10 -10h-90l-10 -10l-20 -80l10 -10h60l10 -10v-80zM280 390l-20 -80l10 -10h90l10 10l20 80l-10 10h-90z" />
    <glyph glyph-name="dollar" unicode="$" horiz-adv-x="660" 
d="M620 200c0 -53.333 -19.332 -99.333 -57.999 -138s-96 -62.667 -172 -72l-10 -10v-60l-10 -10h-80l-10 10v60l-10 10c-73.333 10 -130 35.5 -170 76.5s-60 92.167 -60 153.5l10 10h120l10 -10c0 -63.333 30 -100 90 -110l10 10v180l-10 10
c-72 16.667 -126.667 40.667 -164 72s-56 77.333 -56 138c0 56 21.5 100.333 64.5 133s94.833 51.667 155.5 57l10 10v60l10 10h80l10 -10v-60l10 -10c62 -10.667 110.833 -33.667 146.5 -69s53.5 -82.333 53.5 -141l-10 -10h-120l-10 10c0 24 -4.83301 42 -14.5 54
s-24.834 20.667 -45.501 26l-10 -10v-140l10 -10c153.333 -30.667 230 -104 230 -220zM480.001 200c0 28 -7.83301 48.501 -23.5 61.501s-37.834 22.5 -66.501 28.5l-10 -10v-160l10 -10c26.667 5.33301 48.334 15.666 65.001 30.999s25 35 25 59zM190.001 520.001
c0 -40 26.667 -66.667 80 -80l10 10v130l-10 10c-18.667 0 -36.667 -6 -54 -18s-26 -29.333 -26 -52z" />
    <glyph glyph-name="percent" unicode="%" horiz-adv-x="940" 
d="M220 330c-58 0 -102.5 17.333 -133.5 52s-46.5 80.667 -46.5 138s15.5 103.333 46.5 138s75.5 52 133.5 52s102.5 -17.333 133.5 -52s46.5 -80.667 46.5 -138s-15.5 -103.333 -46.5 -138s-75.5 -52 -133.5 -52zM170 520c0 -53.333 16.667 -80 50 -80s50 26.667 50 80
s-16.667 80 -50 80s-50 -26.667 -50 -80zM700 590l-380 -580l-10 -10h-60l-10 10v100l380 580l10 10h60l10 -10v-100zM720 -10c-58 0 -102.5 17.333 -133.5 52s-46.5 80.667 -46.5 138s15.5 103.333 46.5 138s75.5 52 133.5 52s102.5 -17.333 133.5 -52
s46.5 -80.667 46.5 -138s-15.5 -103.333 -46.5 -138s-75.5 -52 -133.5 -52zM670 180c0 -53.333 16.667 -80 50 -80s50 26.667 50 80s-16.667 80 -50 80s-50 -26.667 -50 -80z" />
    <glyph glyph-name="ampersand" unicode="&#x26;" horiz-adv-x="760" 
d="M690 10l-9.99902 -10h-50l-20 10l-50 50h-10c-58.667 -46.667 -132 -70 -220 -70c-80.667 0 -142.5 20.167 -185.5 60.5s-64.5 90.166 -64.5 149.499c0 54 12 96 36 126s55.333 54.667 94 74v10c-40 40 -60 83.333 -60 130c0 48.667 16.833 89.167 50.5 121.5
s83.5 48.5 149.5 48.5c59.333 0 104.166 -16.5 134.499 -49.5s45.5 -69.833 45.5 -110.5c0 -68.667 -33.333 -125.334 -100 -170.001v-10l110 -110h10c9.33301 18.667 15 36.334 17 53.001s3 42.334 3 77.001l10 10h110l10 -10c0 -38.667 -0.5 -67.667 -1.5 -87
s-5.33301 -42.5 -13 -69.5s-19.5 -51.5 -35.5 -73.5v-10l40 -40v-100zM400.001 540c0 33.333 -20.0029 49.9971 -60.0029 49.9971s-60 -16.667 -60 -50c0 -9.33301 2.33301 -18.666 7 -27.999s9.83398 -17.166 15.501 -23.499s14.834 -15.833 27.501 -28.5h10
c13.333 8.66699 23.333 15.667 30 21s13.334 13.333 20.001 24s10 22.334 10 35.001zM459.998 149.997v10.001l-150 150h-10c-29.333 -14.667 -50 -30.334 -62 -47.001s-18 -37.667 -18 -63c0 -26 9.83301 -47.5 29.5 -64.5s46.5 -25.5 80.5 -25.5
c60 0 103.333 13.333 130 40z" />
    <glyph glyph-name="quotesingle" unicode="'" horiz-adv-x="300" 
d="M220 400l-10 -10h-120l-10 10v290l10 10h120l10 -10v-290z" />
    <glyph glyph-name="parenleft" unicode="(" horiz-adv-x="450" 
d="M80 250v70c0 16.667 1.83301 35.667 5.5 57s6.5 36.833 8.5 46.5s8.5 24.167 19.5 43.5s19.833 33.5 26.5 42.5s20.667 25.333 42 49s39.333 42.834 54 57.501l74 74l20 10h30l10 -10v-100l-60.5 -61c-11.667 -12 -25 -27.667 -40 -47s-24.333 -33.833 -28 -43.5
s-8 -25.167 -13 -46.5s-7.66699 -41.5 -8 -60.5s-0.5 -46.167 -0.5 -81.5s0.166992 -62.5 0.5 -81.5s3 -39.167 8 -60.5s9.33301 -36.833 13 -46.5s13 -24.167 28 -43.5s28.333 -35 40 -47l60.5 -61v-100l-10 -10h-30l-20 10l-94.5 94.5
c-18.333 18.333 -38.833 41.666 -61.5 69.999s-36.834 48.333 -42.501 60s-12.167 30.5 -19.5 56.5s-11.166 49 -11.499 69s-0.5 50 -0.5 90z" />
    <glyph glyph-name="parenright" unicode=")" horiz-adv-x="450" 
d="M370 250c0 -40 -0.166992 -70 -0.5 -90s-4.16602 -43 -11.499 -69s-13.833 -44.833 -19.5 -56.5s-19.834 -31.667 -42.501 -60s-43.167 -51.666 -61.5 -69.999l-94.5 -94.5l-20 -10h-30l-10 10v100l60.5 61c11.667 12 25 27.667 40 47s24.333 33.833 28 43.5
s8 25.167 13 46.5s7.66699 41.5 8 60.5s0.5 46.167 0.5 81.5s-0.166992 62.5 -0.5 81.5s-3 39.167 -8 60.5s-9.33301 36.833 -13 46.5s-13 24.167 -28 43.5s-28.333 35 -40 47l-60.5 61v100l10 10h30l20 -10l74 -74c14.667 -14.667 32.667 -33.834 54 -57.501
s35.333 -40 42 -49s15.5 -23.167 26.5 -42.5s17.5 -33.833 19.5 -43.5s4.83301 -25.167 8.5 -46.5s5.5 -40.333 5.5 -57v-70z" />
    <glyph glyph-name="asterisk" unicode="*" horiz-adv-x="590" 
d="M300 270h-10l-10 10v160h-10l-110 -110h-10l-10 10v10l110 110v10h-160l-10 10v10l10 10h160v10l-110 110v10l10 10h10l110 -110h10v160l10 10h10l10 -10v-160h10l110 110h10l10 -10v-10l-110 -110v-10h160l10 -10v-10l-10 -10h-160v-10l110 -110v-10l-10 -10h-10
l-110 110h-10v-160z" />
    <glyph glyph-name="plus" unicode="+" horiz-adv-x="620" 
d="M560 200l-10 -10h-170l-10 -10v-170l-10 -10h-100l-10 10v170l-10 10h-170l-10 10v100l10 10h170l10 10v170l10 10h100l10 -10v-170l10 -10h170l10 -10v-100z" />
    <glyph glyph-name="comma" unicode="," horiz-adv-x="320" 
d="M240 0l-10 -30l-80 -100l-20 -10h-60v20l60 100v10l-10 10h-30l-10 10v130l10 10h140l10 -10v-140z" />
    <glyph glyph-name="hyphen" unicode="-" horiz-adv-x="430" 
d="M370 210l-10 -10h-290l-10 10v100l10 10h290l10 -10v-100z" />
    <glyph glyph-name="period" unicode="." horiz-adv-x="320" 
d="M240 10l-10 -10h-140l-10 10v130l10 10h140l10 -10v-130z" />
    <glyph glyph-name="slash" unicode="/" horiz-adv-x="510" 
d="M470 590l-340 -580l-10 -10h-70l-10 10v100l340 580l10 10h70l10 -10v-100z" />
    <glyph glyph-name="zero" unicode="0" horiz-adv-x="600" 
d="M40 350c0 124 23.333 215 70 273s110 87 190 87s143.333 -29 190 -87s70 -149 70 -273s-23.333 -215 -70 -273s-110 -87 -190 -87s-143.333 29 -190 87s-70 149 -70 273zM180 350c0 -87.333 9.66699 -149.166 29 -185.499s49.666 -54.5 90.999 -54.5
s71.666 18.167 90.999 54.5s29 98.166 29 185.499s-9.66699 149.166 -29 185.499s-49.666 54.5 -90.999 54.5s-71.666 -18.167 -90.999 -54.5s-29 -98.166 -29 -185.499z" />
    <glyph glyph-name="one" unicode="1" horiz-adv-x="410" 
d="M320 0h-120l-10 10v510h-10l-80 -80h-50l-10 10v100l140 140l20 10h120l10 -10v-680z" />
    <glyph glyph-name="two" unicode="2" horiz-adv-x="570" 
d="M530 10l-10.001 -9.99805h-470l-10 10v110l10 20l180 150c57.333 48 95 85.333 113 112s27 56 27 88c0 30.667 -7.66699 55 -23 73s-37.666 27 -66.999 27c-37.333 0 -63.333 -8.5 -78 -25.5s-22 -41.833 -22 -74.5l-10 -10h-120l-10 10c0 29.333 4.16699 56.5 12.5 81.5
s21.5 48.167 39.5 69.5s43 38.166 75 50.499s69.667 18.5 113 18.5c72 0 128.333 -20.333 169 -61s61 -90.334 61 -149.001c0 -52.667 -12.333 -97.5 -37 -134.5s-69 -82.167 -133 -135.5l-120 -100v-10h300l10 -10v-100z" />
    <glyph glyph-name="three" unicode="3" horiz-adv-x="570" 
d="M530 230c0 -68 -23.001 -125 -69.001 -171s-109.667 -69 -191 -69c-75.333 0 -134.166 19.833 -176.499 59.5s-63.5 86.5 -63.5 140.5l10 10h120l10 -10c0 -22 8.5 -40.833 25.5 -56.5s41.833 -23.5 74.5 -23.5c38.667 0 68.334 11 89.001 33s31 51 31 87
c0 39.333 -9 69.166 -27 89.499s-42.333 30.5 -73 30.5c-12 0 -23 -1.66699 -33 -5s-17 -6.66602 -21 -9.99902l-6 -5h-50l-10 10v90l140 140v10h-240l-10 10v100l10 10h410l10 -10v-100l-10 -20l-130 -120v-10c47.333 0 89.166 -19.5 125.499 -58.5s54.5 -89.5 54.5 -151.5
z" />
    <glyph glyph-name="four" unicode="4" horiz-adv-x="570" 
d="M490 10l-10 -10h-120l-10 10v180l-10 10h-310l-10 10v110l10 20l300 350l20 10h130l10 -10v-680zM350 330v200h-10l-170 -200v-10h170z" />
    <glyph glyph-name="five" unicode="5" horiz-adv-x="600" 
d="M550 250c0 -82 -20.8379 -145.833 -62.5049 -191.5s-104.167 -68.5 -187.5 -68.5c-73.333 0 -130.333 17.833 -171 53.5s-63.667 84.5 -69 146.5l10 10h120l10 -10c4.66699 -29.333 14.834 -50 30.501 -62s38.834 -18 69.501 -18c36.667 0 64.167 9.66699 82.5 29
s27.5 53 27.5 101c0 36.667 -8.33301 65.834 -25 87.501s-41.667 32.5 -75 32.5c-49.333 0 -86 -20 -110 -60l-20 -10l-100 10l-10 10l20 380l10 10h410l10 -10v-100l-10 -10h-280l-10 -10l-10 -140h10c0.666992 1.33301 1.83398 3.16602 3.50098 5.49902
s5.83398 6.33301 12.501 12s14.167 10.667 22.5 15s19.833 8.33301 34.5 12s30.334 5.5 47.001 5.5c64 0 115 -21.667 153 -65s57 -98.333 57 -165z" />
    <glyph glyph-name="six" unicode="6" horiz-adv-x="590" 
d="M310 590c-23.333 0 -43.001 -5.66699 -59.001 -17s-27.333 -26.333 -34 -45s-11.167 -35.667 -13.5 -51s-3.5 -31 -3.5 -47h10c2 2.66699 5.5 6.33398 10.5 11.001s17.833 10.667 38.5 18s44.334 11 71.001 11c61.333 0 113.333 -21.333 156 -64s64 -98 64 -166
c0 -74.667 -22.333 -135 -67 -181s-102.334 -69 -173.001 -69c-92.667 0 -159.167 29.167 -199.5 87.5s-60.5 149.166 -60.5 272.499c0 114 21.5 202.5 64.5 265.5s108.167 94.5 195.5 94.5c68 0 122 -15.5 162 -46.5s62.667 -72.167 68 -123.5l-10 -10h-120l-10 10
c-5.33301 16.667 -14.666 29.167 -27.999 37.5s-34 12.5 -62 12.5zM409.999 230c0 36.667 -8.33301 65.834 -25 87.501s-41.667 32.5 -75 32.5c-73.333 0 -110 -40 -110 -120s36.667 -120 110 -120c30 0 54.167 11.167 72.5 33.5s27.5 51.166 27.5 86.499z" />
    <glyph glyph-name="seven" unicode="7" horiz-adv-x="530" 
d="M500 580l-280 -570l-10 -10h-80l-10 10v100l230 460v10h-300l-10 10v100l10 10h440l10 -10v-110z" />
    <glyph glyph-name="eight" unicode="8" 
d="M180 210c0 -28 9 -51.667 27 -71s45.667 -29 83 -29s65 9.66699 83 29s27 43 27 71c0 30.667 -9.66699 55 -29 73s-46.333 27 -81 27s-61.667 -9 -81 -27s-29 -42.333 -29 -73zM200 510c0 -26 7.8291 -47.5 23.4961 -64.5s37.834 -25.5 66.501 -25.5
s50.834 8.5 66.501 25.5s23.5 38.5 23.5 64.5c0 19.333 -7.16699 37.5 -21.5 54.5s-37.166 25.5 -68.499 25.5s-54.166 -8.5 -68.499 -25.5s-21.5 -35.167 -21.5 -54.5zM39.9961 210c0 40.667 9 74.5 27 101.5s39 46.5 63 58.5v10c-46.667 31.333 -70 78 -70 140
c0 52.667 20.333 97.5 61 134.5s97 55.5 169 55.5s128.333 -18.5 169 -55.5s61 -81.833 61 -134.5c0 -62 -23.333 -108.667 -70 -140v-10c24 -12 45 -31.5 63 -58.5s27 -60.833 27 -101.5c0 -60 -21.667 -111.667 -65 -155s-105 -65 -185 -65s-141.667 21.667 -185 65
s-65 95 -65 155z" />
    <glyph glyph-name="nine" unicode="9" horiz-adv-x="590" 
d="M280 110c23.333 0 43 5.66699 59 17s27.333 26.333 34 45s11.167 35.667 13.5 51s3.5 31 3.5 47h-10c-2.66699 -2.66699 -7 -6.33398 -13 -11.001s-19.333 -10.667 -40 -18s-43 -11 -67 -11c-60.667 0 -112.5 22.833 -155.5 68.5s-64.5 102.834 -64.5 171.501
c0 74 22.667 132.5 68 175.5s106 64.5 182 64.5c83.333 0 145.833 -29.667 187.5 -89s62.5 -143 62.5 -251c0 -128.667 -20.167 -224.167 -60.5 -286.5s-106.833 -93.5 -199.5 -93.5c-67.333 0 -119.5 15.333 -156.5 46s-58.167 72 -63.5 124l10 10h120l10 -10
c11.333 -33.333 38 -50 80 -50zM180 470c0 -39.333 9 -69.168 27 -89.501s42.333 -30.5 73 -30.5c73.333 0 110 40 110 120c0 42 -10 72.5 -30 91.5s-46.667 28.5 -80 28.5c-30.667 0 -55 -10.167 -73 -30.5s-27 -50.166 -27 -89.499z" />
    <glyph glyph-name="colon" unicode=":" horiz-adv-x="320" 
d="M240 360l-10 -10h-140l-10 10v130l10 10h140l10 -10v-130zM240 10l-10 -10h-140l-10 10v130l10 10h140l10 -10v-130z" />
    <glyph glyph-name="semicolon" unicode=";" horiz-adv-x="320" 
d="M240 360l-10 -10h-140l-10 10v130l10 10h140l10 -10v-130zM240 0l-10 -30l-80 -100l-20 -10h-60v20l60 100v10l-10 10h-30l-10 10v130l10 10h140l10 -10v-140z" />
    <glyph glyph-name="less" unicode="&#x3c;" 
d="M70 290l10 20l360 190h50l10 -10v-90l-10 -20l-250 -120v-20l250 -120l10 -20v-90l-10 -10h-50l-360 190l-10 20v80z" />
    <glyph glyph-name="equal" unicode="=" horiz-adv-x="600" 
d="M520 310l-10 -10h-420l-10 10v100l10 10h420l10 -10v-100zM520 90l-10 -10h-420l-10 10v100l10 10h420l10 -10v-100z" />
    <glyph glyph-name="greater" unicode="&#x3e;" 
d="M510 210l-10 -20l-360 -190h-50l-10 10v90l10 20l250 120v20l-250 120l-10 20v90l10 10h50l360 -190l10 -20v-80z" />
    <glyph glyph-name="question" unicode="?" horiz-adv-x="640" 
d="M560 510c0 -41.333 -9.66699 -75.833 -29 -103.5s-46.333 -53.167 -81 -76.5c-29.333 -19.333 -48.333 -35.666 -57 -48.999s-13 -30.333 -13 -51l-10 -10h-120l-10 10c0 66.667 30 120 90 160c32 21.333 55 40.666 69 57.999s21 38 21 62c0 22 -8.5 40.833 -25.5 56.5
s-41.833 23.5 -74.5 23.5c-35.333 0 -60.833 -8.5 -76.5 -25.5s-23.5 -45.167 -23.5 -84.5l-10 -10h-120l-10 10c0 69.333 19.667 125 59 167s99.666 63 180.999 63c80.667 0 140.834 -18.5 180.501 -55.5s59.5 -85.167 59.5 -144.5zM390 10l-10 -10h-140l-10 10v130l10 10
h140l10 -10v-130z" />
    <glyph glyph-name="at" unicode="@" horiz-adv-x="940" 
d="M470 370c-53.333 0 -80 -40 -80 -120s26.667 -120 80 -120s80 40 80 120s-26.667 120 -80 120zM550 430l10 29.9971l10 10h90l10 -10v-300c0 -33.333 13.333 -50 40 -50c20 0 33.333 9.5 40 28.5s10 56.167 10 111.5c0 94 -24.333 169.167 -73 225.5s-121 84.5 -217 84.5
c-90.667 0 -161.667 -30.333 -213 -91s-77 -133.667 -77 -219c0 -89.333 25.5 -163.333 76.5 -222s122.167 -88 213.5 -88c63.333 0 120 10 170 30h20l10 -10v-80c-55.333 -33.333 -122 -50 -200 -50c-123.333 0 -222.5 39.5 -297.5 118.5s-112.5 179.5 -112.5 301.5
c0 124.667 38.167 225.834 114.5 303.501s174.833 116.5 295.5 116.5c125.333 0 225 -37.667 299 -113s111 -177.666 111 -306.999c0 -160 -60 -240 -180 -240c-53.333 0 -93.333 20 -120 60h-10c-2.66699 -4 -7 -8.66699 -13 -14s-19.333 -12.666 -40 -21.999
s-43 -14 -67 -14c-52.667 0 -97.5 20.333 -134.5 61s-55.5 97 -55.5 169c0 74.667 17.667 131.667 53 171s77.666 59 126.999 59c20.667 0 39.334 -4.16699 56.001 -12.5s28 -16.833 34 -25.5l10 -12h10z" />
    <glyph glyph-name="A" unicode="A" horiz-adv-x="650" 
d="M630 10l-10 -10h-90l-10 10l-50 130l-20 10h-250l-20 -10l-50 -130l-10 -10h-90l-10 10v100l230 580l10 10h130l10 -10l230 -580v-100zM420 280l-90 240h-10l-90 -240l10 -10h170z" />
    <glyph glyph-name="B" unicode="B" horiz-adv-x="670" 
d="M630 190c0 -65.333 -19.333 -113.332 -58 -143.999s-86 -46 -142 -46h-340l-10 10v680l10 10h320c56 0 103.333 -14.833 142 -44.5s58 -74.834 58 -135.501c0 -36.667 -8.33301 -68.5 -25 -95.5s-41.667 -45.167 -75 -54.5v-10c80 -20 120 -76.667 120 -170zM470 500.001
c0 26.667 -6.16699 46.667 -18.5 60s-32.833 20 -61.5 20h-160l-10 -10v-140l10 -10h160c28 0 48.333 7.66699 61 23s19 34.333 19 57zM490 210.001c0 60 -33.333 90 -100 90h-160l-10 -10v-160l10 -10h160c66.667 0 100 30 100 90z" />
    <glyph glyph-name="C" unicode="C" horiz-adv-x="710" 
d="M380 110c80.667 0 130.667 33.3301 150 99.9971l10 10h120l10 -10c-10 -69.333 -40.667 -123.333 -92 -162s-117.333 -58 -198 -58c-107.333 0 -190.833 33 -250.5 99s-89.5 153 -89.5 261s29.833 195 89.5 261s143.167 99 250.5 99c80 0 145.833 -18.667 197.5 -56
s82.5 -88.666 92.5 -153.999l-10 -10h-120l-10 10c-20 60 -70 90 -150 90c-67.333 0 -117.5 -21.667 -150.5 -65s-49.5 -101.666 -49.5 -174.999s16.5 -131.666 49.5 -174.999s83.167 -65 150.5 -65z" />
    <glyph glyph-name="D" unicode="D" horiz-adv-x="690" 
d="M650 350c0 -114.667 -26.5 -201.667 -79.5 -261s-139.833 -89 -260.5 -89h-220l-10 10v680l10 10h220c120.667 0 207.5 -29.667 260.5 -89s79.5 -146.333 79.5 -261zM510 350c0 81.333 -14.333 140 -43 176s-77.667 54 -147 54h-90l-10 -10v-440l10 -10h90
c69.333 0 118.333 18 147 54s43 94.667 43 176z" />
    <glyph glyph-name="E" unicode="E" horiz-adv-x="630" 
d="M570 10l-10 -10h-470l-10 10v680l10 10h470l10 -10v-100l-10 -10h-330l-10 -10v-140l10 -10h310l10 -10v-100l-10 -10h-310l-10 -10v-160l10 -10h330l10 -10v-100z" />
    <glyph glyph-name="F" unicode="F" horiz-adv-x="590" 
d="M550 590l-10 -10h-310l-10 -10v-150l10 -10h290l10 -10v-100l-10 -10h-290l-10 -10v-270l-10 -10h-120l-10 10v680l10 10h450l10 -10v-100z" />
    <glyph glyph-name="G" unicode="G" horiz-adv-x="740" 
d="M680 10l-9.99902 -10h-90l-10 10l-10 50h-10c-46.667 -46.667 -106.667 -70 -180 -70c-99.333 0 -179.166 33.5 -239.499 100.5s-90.5 153.5 -90.5 259.5c0 106.667 30.833 193.334 92.5 260.001s144.167 100 247.5 100c91.333 0 161.166 -20.333 209.499 -61
s78.5 -90.334 90.5 -149.001l-10 -10h-120l-10 10c-8.66699 17.333 -17.334 31.5 -26.001 42.5s-24.667 21.667 -48 32s-52 15.5 -86 15.5c-63.333 0 -112.5 -22 -147.5 -66s-52.5 -102 -52.5 -174s17.5 -130 52.5 -174s84.167 -66 147.5 -66
c52.667 0 92.5 12.833 119.5 38.5s40.5 59.5 40.5 101.5l-10 10h-170l-10 10v100l10 10h310l10 -10v-360z" />
    <glyph glyph-name="H" unicode="H" horiz-adv-x="730" 
d="M650 10l-10 -10h-120l-10 10v280l-10 10h-270l-10 -10v-280l-10 -10h-120l-10 10v680l10 10h120l10 -10v-260l10 -10h270l10 10v260l10 10h120l10 -10v-680z" />
    <glyph glyph-name="I" unicode="I" horiz-adv-x="300" 
d="M220 10l-10 -10h-120l-10 10v680l10 10h120l10 -10v-680z" />
    <glyph glyph-name="J" unicode="J" horiz-adv-x="550" 
d="M470 690v-470.001c0 -77.333 -20.167 -135 -60.5 -173s-96.833 -57 -169.5 -57c-74 0 -129.167 20.833 -165.5 62.5s-54.5 90.834 -54.5 147.501v10l10 10h120l10 -10v-10c0 -60 26.667 -90 80 -90c28 0 50 7.33301 66 22s24 40.667 24 78v480l10 10h120z" />
    <glyph glyph-name="K" unicode="K" horiz-adv-x="640" 
d="M620 10l-10 -10h-70l-20 10l-220 270h-10l-70 -70v-200l-10 -10h-120l-10 10v680l10 10h120l10 -10v-290h10l290 290l20 10h50l10 -10v-100l-200 -200v-10l220 -270v-100z" />
    <glyph glyph-name="L" unicode="L" horiz-adv-x="560" 
d="M550 10l-10 -10h-450l-10 10v680l10 10h120l10 -10v-560l10 -10h310l10 -10v-100z" />
    <glyph glyph-name="M" unicode="M" horiz-adv-x="910" 
d="M830 10l-10 -10h-120l-10 10v390h-10l-160 -390l-10 -10h-110l-10 10l-160 390h-10v-390l-10 -10h-120l-10 10v680l10 10h150l10 -10l200 -490h10l200 490l10 10h150l10 -10v-680z" />
    <glyph glyph-name="N" unicode="N" horiz-adv-x="750" 
d="M80 690l10 10h140l20 -10l270 -460h10v460l10 10h120l10 -10v-680l-10 -10h-140l-20 10l-270 460h-10v-460l-10 -10h-120l-10 10v680z" />
    <glyph glyph-name="O" unicode="O" horiz-adv-x="760" 
d="M580 350c0 72 -17.5 130 -52.5 174s-84.167 66 -147.5 66s-112.5 -22 -147.5 -66s-52.5 -102 -52.5 -174s17.5 -130 52.5 -174s84.167 -66 147.5 -66s112.5 22 147.5 66s52.5 102 52.5 174zM720 350c0 -106.667 -30.833 -193.334 -92.5 -260.001
s-144.167 -100 -247.5 -100s-185.833 33.333 -247.5 100s-92.5 153.334 -92.5 260.001s30.833 193.334 92.5 260.001s144.167 100 247.5 100s185.833 -33.333 247.5 -100s92.5 -153.334 92.5 -260.001z" />
    <glyph glyph-name="P" unicode="P" horiz-adv-x="680" 
d="M660 490c0 -68 -21.833 -120 -65.5 -156s-101.834 -54 -174.501 -54h-190l-10 -10v-260l-10 -10h-120l-10 10v680l10 10h330c72.667 0 130.834 -18 174.501 -54s65.5 -88 65.5 -156zM520 490c0 33.333 -8.5 56.668 -25.5 70.001s-41.833 20 -74.5 20h-190l-10 -10v-160
l10 -10h190c32.667 0 57.5 6.66699 74.5 20s25.5 36.666 25.5 69.999z" />
    <glyph glyph-name="Q" unicode="Q" horiz-adv-x="760" 
d="M40 350c0 108 29.833 194.999 89.5 260.999s143.167 99 250.5 99s190.833 -33 250.5 -99s89.5 -153 89.5 -261c0 -73.333 -13.333 -136.666 -40 -189.999v-20l30 -30v-100l-10 -10h-70l-40 40h-10c-55.333 -33.333 -122 -50 -200 -50c-107.333 0 -190.833 33 -250.5 99
s-89.5 153 -89.5 261zM180 349.999c0 -73.333 16.5 -131.667 49.5 -175s83.167 -65 150.5 -65c40 0 73.333 6.66699 100 20v20l-80 80h-100l-10 10v90l10 10h170l20 -10l70 -70h10c6.66699 20 10 50 10 90c0 73.333 -16.5 131.666 -49.5 174.999s-83.167 65 -150.5 65
s-117.5 -21.667 -150.5 -65s-49.5 -101.666 -49.5 -174.999z" />
    <glyph glyph-name="R" unicode="R" horiz-adv-x="700" 
d="M660 490c0 -52.667 -14.333 -96.5 -43 -131.5s-64.334 -57.833 -107.001 -68.5v-10l130 -170v-100l-10 -10h-60l-20 10l-200 260l-20 10h-100l-10 -10v-260l-10 -10h-120l-10 10v680l10 10h330c72.667 0 130.834 -18 174.501 -54s65.5 -88 65.5 -156zM520 490
c0 33.333 -8.5 56.668 -25.5 70.001s-41.833 20 -74.5 20h-190l-10 -10v-160l10 -10h190c32.667 0 57.5 6.66699 74.5 20s25.5 36.666 25.5 69.999z" />
    <glyph glyph-name="S" unicode="S" horiz-adv-x="660" 
d="M620 200c0 -60.667 -23.6689 -110.832 -71.002 -150.499s-120.333 -59.5 -219 -59.5c-96 0 -168.333 21.167 -217 63.5s-73 97.833 -73 166.5l10 10h120l10 -10c0 -36.667 12.167 -64.167 36.5 -82.5s65.5 -27.5 123.5 -27.5c93.333 0 140 30 140 90
c0 34.667 -12.167 59.167 -36.5 73.5s-72.166 26.5 -143.499 36.5c-37.333 5.33301 -70.166 12.666 -98.499 21.999s-54.333 21.833 -78 37.5s-41.834 36.167 -54.501 61.5s-19 55 -19 89c0 54.667 22.667 100 68 136s112.666 54 201.999 54
c90.667 0 158.334 -19.167 203.001 -57.5s67 -89.166 67 -152.499l-10 -10h-120l-10 10c0 31.333 -10.167 54.166 -30.5 68.499s-56.833 21.5 -109.5 21.5c-80 0 -120 -23.333 -120 -70c0 -30 12.333 -51.667 37 -65s72.334 -25 143.001 -35
c166.667 -24 250 -97.333 250 -220z" />
    <glyph glyph-name="T" unicode="T" horiz-adv-x="620" 
d="M600 590l-10 -10h-200l-10 -10v-560l-10 -10h-120l-10 10v560l-10 10h-200l-10 10v100l10 10h560l10 -10v-100z" />
    <glyph glyph-name="U" unicode="U" horiz-adv-x="720" 
d="M640 690v-420c0 -90 -24.167 -159.167 -72.5 -207.5s-117.5 -72.5 -207.5 -72.5s-159.167 24.167 -207.5 72.5s-72.5 117.5 -72.5 207.5v420l10 10h120l10 -10v-420c0 -106.667 46.667 -160 140 -160s140 53.333 140 160v420l10 10h120z" />
    <glyph glyph-name="V" unicode="V" horiz-adv-x="650" 
d="M620 590l-220 -580l-10 -10h-130l-10 10l-220 580v100l10 10h90l10 -10l180 -490h10l180 490l10 10h90l10 -10v-100z" />
    <glyph glyph-name="W" unicode="W" horiz-adv-x="950" 
d="M410 700h130l10 -10l130 -460h10l100 460l10 10h100l10 -10v-100l-150 -580l-10 -10h-130l-10 10l-130 480h-10l-130 -480l-10 -10h-130l-10 10l-150 580v100l10 10h100l10 -10l100 -460h10l130 460z" />
    <glyph glyph-name="X" unicode="X" horiz-adv-x="670" 
d="M630 10l-10 -10h-70l-20 10l-190 250h-10l-190 -250l-20 -10h-70l-10 10v100l200 250v10l-190 220v100l10 10h70l20 -10l180 -220h10l180 220l20 10h70l10 -10v-100l-190 -220v-10l200 -250v-100z" />
    <glyph glyph-name="Y" unicode="Y" horiz-adv-x="600" 
d="M570 590l-200 -330v-250l-10 -10h-120l-10 10v250l-200 330v100l10 10h70l20 -10l160 -270h20l160 270l20 10h70l10 -10v-100z" />
    <glyph glyph-name="Z" unicode="Z" horiz-adv-x="620" 
d="M570 10l-10 -10h-500l-10 10v110l10 20l320 430v10h-310l-10 10v100l10 10h470l10 -10v-110l-10 -20l-320 -430v-10h340l10 -10v-100z" />
    <glyph glyph-name="bracketleft" unicode="[" horiz-adv-x="410" 
d="M330 -190l-10 -10h-230l-10 10v880l10 10h230l10 -10v-100l-10 -10h-90l-10 -10v-640l10 -10h90l10 -10v-100z" />
    <glyph glyph-name="backslash" unicode="\" horiz-adv-x="510" 
d="M380 10l-340 580v100l10 10h70l10 -10l340 -580v-100l-10 -10h-70z" />
    <glyph glyph-name="bracketright" unicode="]" horiz-adv-x="410" 
d="M90 -200l-10 10v100l10 10h90l10 10v640l-10 10h-90l-10 10v100l10 10h230l10 -10v-880l-10 -10h-230z" />
    <glyph glyph-name="asciicircum" unicode="^" 
d="M510 240l-10 -10h-70l-20 10l-110 270h-20l-110 -270l-20 -10h-70l-10 10v100l160 350l10 10h100l10 -10l160 -350v-100z" />
    <glyph glyph-name="underscore" unicode="_" 
d="M540 -110l-10 -10h-480l-10 10v100l10 10h480l10 -10v-100z" />
    <glyph glyph-name="grave" unicode="`" horiz-adv-x="500" 
d="M310 570l-10 -10h-90l-20 10l-110 100v20l10 10h100l20 -10l100 -100v-20z" />
    <glyph glyph-name="a" unicode="a" horiz-adv-x="520" 
d="M470 10l-9.99902 -9.99609h-110l-10 10l-10 20h-10c-2.66699 -2.66699 -7 -6.33398 -13 -11.001s-18.5 -10.667 -37.5 -18s-38.833 -11 -59.5 -11c-55.333 0 -99.166 14.167 -131.499 42.5s-48.5 67.5 -48.5 117.5c0 28.667 5.16699 53.667 15.5 75
s23.166 37.833 38.499 49.5s33.5 21.167 54.5 28.5s40.167 12 57.5 14s35.333 3 54 3c12 0 23.833 -0.833008 35.5 -2.5s20.5 -3.5 26.5 -5.5l8 -2l10 10v10c0 25.333 -4.16699 41.666 -12.5 48.999s-27.5 11 -57.5 11c-13.333 0 -23.5 -0.333008 -30.5 -1
s-14.5 -3.33398 -22.5 -8.00098s-13.667 -11.667 -17 -21l-10 -10h-120l-10 10c0 37.333 17 71.666 51 102.999s87 47 159 47c77.333 0 131.666 -18.667 162.999 -56s47 -95.333 47 -174v-270zM330.001 200.004l-9.99902 10c-13.333 6.66699 -33.333 10 -60 10
c-60 0 -90 -20 -90 -60c0 -33.333 23.333 -50 70 -50c25.333 0 46.666 6.66699 63.999 20s26 30 26 50v20z" />
    <glyph glyph-name="b" unicode="b" horiz-adv-x="590" 
d="M560 250c0 -78 -21.1641 -140.832 -63.4971 -188.499s-94.5 -71.5 -156.5 -71.5c-26.667 0 -50.834 4.16699 -72.501 12.5s-36.834 16.833 -45.501 25.5l-12 12h-10l-10 -30l-10 -10h-110l-10 10v680l10 10h120l10 -10v-230h10c2.66699 4 7.16699 8.66699 13.5 14
s20.666 12.666 42.999 21.999s46.833 14 73.5 14c62 0 114.167 -23.833 156.5 -71.5s63.5 -110.5 63.5 -188.5zM420.003 250.001c0 93.333 -36.667 140 -110 140s-110 -46.667 -110 -140s36.667 -140 110 -140s110 46.667 110 140z" />
    <glyph glyph-name="c" unicode="c" horiz-adv-x="540" 
d="M170 250c0 -44.667 9.5 -79.167 28.5 -103.5s46.167 -36.5 81.5 -36.5c48.667 0 78.667 16.667 90 50l10 10h120l10 -10c-9.33301 -56.667 -35.166 -99.167 -77.499 -127.5s-93.166 -42.5 -152.499 -42.5c-75.333 0 -135.833 23.5 -181.5 70.5s-68.5 110.167 -68.5 189.5
s22.833 142.5 68.5 189.5s106.167 70.5 181.5 70.5c59.333 0 110.166 -14.167 152.499 -42.5s68.166 -70.833 77.499 -127.5l-10 -10h-120l-10 10c-11.333 33.333 -41.333 50 -90 50c-35.333 0 -62.5 -12.167 -81.5 -36.5s-28.5 -58.833 -28.5 -103.5z" />
    <glyph glyph-name="d" unicode="d" horiz-adv-x="590" 
d="M30 250c0 78 21.1641 140.832 63.4971 188.499s94.5 71.5 156.5 71.5c26.667 0 50.834 -4.16699 72.501 -12.5s36.834 -16.833 45.501 -25.5l12 -12h10v230l10 10h120l10 -10v-680l-10 -10h-110l-10 10l-10 30h-10c-2.66699 -4 -7.16699 -8.66699 -13.5 -14
s-20.666 -12.666 -42.999 -21.999s-46.833 -14 -73.5 -14c-62 0 -114.167 23.833 -156.5 71.5s-63.5 110.5 -63.5 188.5zM169.997 249.999c0 -93.333 36.667 -140 110 -140s110 46.667 110 140s-36.667 140 -110 140s-110 -46.667 -110 -140z" />
    <glyph glyph-name="e" unicode="e" horiz-adv-x="540" 
d="M510 250l-0.00488281 -40l-10 -10h-310l-10 -10c0 -16 8 -33.333 24 -52s41.333 -28 76 -28c36.667 0 60 10 70 30l10 10h120l10 -10c-2.66699 -16.667 -8.16699 -33 -16.5 -49s-20.166 -32 -35.499 -48s-36.666 -28.833 -63.999 -38.5s-58.666 -14.5 -93.999 -14.5
c-80.667 0 -142.5 24.667 -185.5 74s-64.5 111.333 -64.5 186c0 74 20.833 135.833 62.5 185.5s100.834 74.5 177.501 74.5s135.834 -24.833 177.501 -74.5s62.5 -111.5 62.5 -185.5zM349.995 300l10 10c0 4 -1 9.66699 -3 17s-5.83301 16.166 -11.5 26.499s-15 19 -28 26
s-28.833 10.5 -47.5 10.5s-34.5 -3.5 -47.5 -10.5s-22.333 -15.667 -28 -26s-9.5 -19.166 -11.5 -26.499s-3 -13 -3 -17l10 -10h160z" />
    <glyph glyph-name="f" unicode="f" horiz-adv-x="410" 
d="M380 700l10 -9.99902v-100l-10 -10h-90c-20 0 -30 -10 -30 -30v-40l10 -10h100l10 -10v-100l-10 -10h-100l-10 -10v-360l-10 -10h-120l-10 10v360l-10 10h-70l-10 10v100l10 10h70l10 10v40c0 51.333 16 89.166 48 113.499s72.667 36.5 122 36.5h90z" />
    <glyph glyph-name="g" unicode="g" horiz-adv-x="590" 
d="M530 490l-0.00292969 -440c0 -86 -23.167 -150.833 -69.5 -194.5s-106.5 -65.5 -180.5 -65.5c-59.333 0 -107.833 13.667 -145.5 41s-59.167 63.666 -64.5 108.999l10 10h120l10 -10c10 -20 33.333 -30 70 -30c73.333 0 110 43.333 110 130h-10
c-2.66699 -4 -7.16699 -8.66699 -13.5 -14s-20.666 -12.666 -42.999 -21.999s-46.833 -14 -73.5 -14c-62 0 -114.167 23.833 -156.5 71.5s-63.5 110.5 -63.5 188.5s21.167 140.833 63.5 188.5s94.5 71.5 156.5 71.5c26.667 0 50.834 -4.16699 72.501 -12.5
s36.834 -16.833 45.501 -25.5l12 -12h10l10 30l10 10h110zM169.997 250c0 -93.333 36.667 -140 110 -140s110 46.667 110 140s-36.667 140 -110 140s-110 -46.667 -110 -140z" />
    <glyph glyph-name="h" unicode="h" horiz-adv-x="590" 
d="M530 10l-9.99902 -10h-120l-10 10v290c0 60 -26.667 90 -80 90c-73.333 0 -110 -43.333 -110 -130v-250l-10 -10h-120l-10 10v680l10 10h120l10 -10v-230h10c33.333 33.333 76.666 50 129.999 50c59.333 0 105.833 -18.167 139.5 -54.5s50.5 -84.833 50.5 -145.5v-300z
" />
    <glyph glyph-name="i" unicode="i" horiz-adv-x="260" 
d="M200 590l-10 -10h-120l-10 10v100l10 10h120l10 -10v-100zM200 10l-10 -10h-120l-10 10v480l10 10h120l10 -10v-480z" />
    <glyph glyph-name="j" unicode="j" horiz-adv-x="260" 
d="M200 490v-510c0 -58 -14 -99.167 -42 -123.5s-70.667 -36.5 -128 -36.5h-60l-10 10v100l10 10h50c14.667 0 25 3 31 9s9 16.333 9 31v510l10 10h120zM200 590l-10 -10h-120l-10 10v100l10 10h120l10 -10v-100z" />
    <glyph glyph-name="k" unicode="k" horiz-adv-x="540" 
d="M510 10l-10 -10h-60l-20 10l-140 150h-10l-60 -60l-10 -20v-70l-10 -10h-120l-10 10v680l10 10h120l10 -10v-400h10l200 200l20 10h60l10 -10v-100l-120 -120v-10l130 -150v-100z" />
    <glyph glyph-name="l" unicode="l" horiz-adv-x="260" 
d="M200 10l-10 -10h-120l-10 10v680l10 10h120l10 -10v-680z" />
    <glyph glyph-name="m" unicode="m" horiz-adv-x="870" 
d="M820 10l-10.0029 -9.99902h-120l-10 10v290c0 60 -26.667 90 -80 90c-60 0 -90 -36.667 -90 -110v-270l-10 -10h-120l-10 10v290c0 60 -26.667 90 -80 90c-60 0 -90 -36.667 -90 -110v-270l-10 -10h-120l-10 10v480l10 10h110l10 -10l10 -30h10
c0.666992 1.33301 1.83398 3.16602 3.50098 5.49902s5.83398 6.33301 12.501 12s14.167 10.667 22.5 15s19.833 8.33301 34.5 12s30.334 5.5 47.001 5.5c62 0 108.667 -23.333 140 -70h10l5 7.5c2 3 7.33301 8.5 16 16.5s18.167 15.167 28.5 21.5s24.5 12 42.5 17
s37.333 7.5 58 7.5c60.667 0 107.5 -17.167 140.5 -51.5s49.5 -83.833 49.5 -148.5v-300z" />
    <glyph glyph-name="n" unicode="n" 
d="M530 10l-9.99902 -10h-120l-10 10v290c0 60 -26.667 90 -80 90c-73.333 0 -110 -43.333 -110 -130v-250l-10 -10h-120l-10 10v480l10 10h110l10 -10l10 -30h10c33.333 33.333 76.666 50 129.999 50c59.333 0 105.833 -18.167 139.5 -54.5s50.5 -84.833 50.5 -145.5v-300z
" />
    <glyph glyph-name="o" unicode="o" horiz-adv-x="560" 
d="M530 250c0 -79.333 -22.833 -142.5 -68.5 -189.5s-106.167 -70.5 -181.5 -70.5s-135.833 23.5 -181.5 70.5s-68.5 110.167 -68.5 189.5s22.833 142.5 68.5 189.5s106.167 70.5 181.5 70.5s135.833 -23.5 181.5 -70.5s68.5 -110.167 68.5 -189.5zM390 250
c0 44.667 -9.5 79.167 -28.5 103.5s-46.167 36.5 -81.5 36.5s-62.5 -12.167 -81.5 -36.5s-28.5 -58.833 -28.5 -103.5s9.5 -79.167 28.5 -103.5s46.167 -36.5 81.5 -36.5s62.5 12.167 81.5 36.5s28.5 58.833 28.5 103.5z" />
    <glyph glyph-name="p" unicode="p" horiz-adv-x="590" 
d="M560 250c0 -78 -21.1641 -140.832 -63.4971 -188.499s-94.5 -71.5 -156.5 -71.5c-26.667 0 -50.834 4.16699 -72.501 12.5s-36.834 16.833 -45.501 25.5l-12 12h-10v-230l-10 -10h-120l-10 10v680l10 10h110l10 -10l10 -30h10c2.66699 4 7.16699 8.66699 13.5 14
s20.666 12.666 42.999 21.999s46.833 14 73.5 14c62 0 114.167 -23.833 156.5 -71.5s63.5 -110.5 63.5 -188.5zM420.003 250.001c0 93.333 -36.667 140 -110 140s-110 -46.667 -110 -140s36.667 -140 110 -140s110 46.667 110 140z" />
    <glyph glyph-name="q" unicode="q" horiz-adv-x="590" 
d="M30 250c0 78 21.1641 140.832 63.4971 188.499s94.5 71.5 156.5 71.5c26.667 0 50.834 -4.16699 72.501 -12.5s36.834 -16.833 45.501 -25.5l12 -12h10l10 30l10 10h110l10 -10v-680l-10 -10h-120l-10 10v230h-10c-2.66699 -4 -7.16699 -8.66699 -13.5 -14
s-20.666 -12.666 -42.999 -21.999s-46.833 -14 -73.5 -14c-62 0 -114.167 23.833 -156.5 71.5s-63.5 110.5 -63.5 188.5zM169.997 249.999c0 -93.333 36.667 -140 110 -140s110 46.667 110 140s-36.667 140 -110 140s-110 -46.667 -110 -140z" />
    <glyph glyph-name="r" unicode="r" horiz-adv-x="410" 
d="M390 390l-10.001 -10.001h-70c-39.333 0 -67.5 -10.333 -84.5 -31s-25.5 -53.667 -25.5 -99v-240l-10 -10h-120l-10 10v480l10 10h110l10 -10l10 -30h10c1.33301 2.66699 4 6.33398 8 11.001s15.333 10.667 34 18s41.334 11 68.001 11h60l10 -10v-100z" />
    <glyph glyph-name="s" unicode="s" horiz-adv-x="500" 
d="M470 150c0 -44.667 -18.001 -82.4951 -54.001 -113.495s-91.333 -46.5 -166 -46.5c-68.667 0 -122.5 15.667 -161.5 47s-58.5 72.333 -58.5 123l10 10h120l10 -10c0 -18.667 6.66699 -31.667 20 -39s33.333 -11 60 -11c53.333 0 80 13.333 80 40
c0 5.33301 -0.666992 10.166 -2 14.499s-4 8 -8 11l-10 7.5c-2.66699 2 -7.83398 3.83301 -15.501 5.5l-18 4c-4.33301 1 -11.833 2.33301 -22.5 4s-18.667 2.83398 -24 3.50098c-126.667 21.333 -190 74.666 -190 159.999c0 43.333 17.333 79.166 52 107.499
s87.334 42.5 158.001 42.5c62.667 0 113.334 -13 152.001 -39s58 -63 58 -111l-10 -10h-120l-10 10c0 20 -23.333 30 -70 30c-25.333 0 -43.333 -3 -54 -9s-16 -16.333 -16 -31c0 -8 1.83301 -14.5 5.5 -19.5s10.5 -9.16699 20.5 -12.5s18.333 -5.83301 25 -7.5
s18.167 -3.5 34.5 -5.5s27.833 -3.66699 34.5 -5c16.667 -2.66699 30.5 -5.33398 41.5 -8.00098s25.5 -7.66699 43.5 -15s32.5 -15.833 43.5 -25.5s20.667 -23.334 29 -41.001s12.5 -37.834 12.5 -60.501z" />
    <glyph glyph-name="t" unicode="t" horiz-adv-x="420" 
d="M250 370v-219.999c0 -20 10 -30 30 -30h90l10 -10v-100l-10 -10h-90c-49.333 0 -90 12.167 -122 36.5s-48 62.166 -48 113.499v220l-10 10h-70l-10 10v100l10 10h70l10 10v90l10 10h120l10 -10v-90l10 -10h110l10 -10v-100l-10 -10h-110z" />
    <glyph glyph-name="u" unicode="u" horiz-adv-x="570" 
d="M50 490l10.0029 9.99805h120l10 -10v-290c0 -60 26.667 -90 80 -90c33.333 0 58.333 10.833 75 32.5s25 50.834 25 87.501v260l10 10h120l10 -10v-480l-10 -10h-110l-10 10l-10 30h-10c-0.666992 -1.33301 -1.83398 -3.16602 -3.50098 -5.49902
s-5.83398 -6.33301 -12.501 -12s-14.167 -10.667 -22.5 -15s-19.833 -8.33301 -34.5 -12s-30.334 -5.5 -47.001 -5.5c-59.333 0 -105.833 18.167 -139.5 54.5s-50.5 84.833 -50.5 145.5v300z" />
    <glyph glyph-name="v" unicode="v" horiz-adv-x="530" 
d="M500 390l-170 -380l-10 -10h-110l-10 10l-170 380v100l10 10h90l10 -10l120 -310h10l120 310l10 10h90l10 -10v-100z" />
    <glyph glyph-name="w" unicode="w" horiz-adv-x="790" 
d="M750 390l-120 -380l-10 -10h-130l-10 10l-80 300h-10l-80 -300l-10 -10h-130l-10 10l-120 380v100l10 10h90l10 -10l80 -280h10l80 280l10 10h130l10 -10l80 -280h10l80 280l10 10h90l10 -10v-100z" />
    <glyph glyph-name="x" unicode="x" horiz-adv-x="510" 
d="M480 10l-10 -10h-60l-20 10l-130 160h-10l-130 -160l-20 -10h-60l-10 10v100l120 140v10l-110 130v100l10 10h60l20 -10l120 -150h10l120 150l20 10h60l10 -10v-100l-110 -130v-10l120 -140v-100z" />
    <glyph glyph-name="y" unicode="y" horiz-adv-x="530" 
d="M500 390l-160 -400.001c-11.333 -28 -22 -50.667 -32 -68s-23.333 -33.666 -40 -48.999s-37 -26.333 -61 -33s-53 -10 -87 -10h-50l-10 10v100l10 10h50c24 0 40.333 2.66699 49 8s15.667 16 21 32v10l-160 390v100l10 10h90l10 -10l120 -340h10l120 340l10 10h90l10 -10
v-100z" />
    <glyph glyph-name="z" unicode="z" horiz-adv-x="520" 
d="M480 10l-10 -10h-420l-10 10v110l10 20l230 230v10h-220l-10 10v100l10 10h400l10 -10v-110l-10 -20l-230 -230v-10h240l10 -10v-100z" />
    <glyph glyph-name="braceleft" unicode="{" horiz-adv-x="470" 
d="M240 260v-20.002c46.667 -9.33301 70 -49.333 70 -120v-160c0 -14.667 3 -25 9 -31s16.333 -9 31 -9h30l10 -10v-100l-10 -10h-60c-42 0 -77.5 11.333 -106.5 34s-43.5 61.334 -43.5 116.001v170c0 28.667 -6.66699 49.167 -20 61.5s-33.333 18.5 -60 18.5l-10 10v80
l10 10c26.667 0 46.667 6.16699 60 18.5s20 32.833 20 61.5v170c0 54.667 14.5 93.334 43.5 116.001s64.5 34 106.5 34h60l10 -10v-100l-10 -10h-30c-14.667 0 -25 -3 -31 -9s-9 -16.333 -9 -31v-160c0 -70.667 -23.333 -110.667 -70 -120z" />
    <glyph glyph-name="bar" unicode="|" horiz-adv-x="380" 
d="M260 -190l-10 -10h-120l-10 10v880l10 10h120l10 -10v-880z" />
    <glyph glyph-name="braceright" unicode="}" horiz-adv-x="470" 
d="M230 240v20.002c-46.667 9.33301 -70 49.333 -70 120v160c0 14.667 -3 25 -9 31s-16.333 9 -31 9h-30l-10 10v100l10 10h60c42 0 77.5 -11.333 106.5 -34s43.5 -61.334 43.5 -116.001v-170c0 -28.667 6.66699 -49.167 20 -61.5s33.333 -18.5 60 -18.5l10 -10v-80l-10 -10
c-26.667 0 -46.667 -6.16699 -60 -18.5s-20 -32.833 -20 -61.5v-170c0 -54.667 -14.5 -93.334 -43.5 -116.001s-64.5 -34 -106.5 -34h-60l-10 10v100l10 10h30c14.667 0 25 3 31 9s9 16.333 9 31v160c0 70.667 23.333 110.667 70 120z" />
    <glyph glyph-name="asciitilde" unicode="~" horiz-adv-x="660" 
d="M70 170l-10 10.001c0 53.333 14 96.666 42 129.999s70.667 50 128 50c24.667 0 48.667 -4.66699 72 -14s42 -19.666 56 -30.999s28.5 -21.666 43.5 -30.999s27.833 -14 38.5 -14c26.667 0 40 16.667 40 50l10 10h100l10 -10c0 -52 -15 -95 -45 -129s-71.667 -51 -125 -51
c-24.667 0 -48.667 4.66699 -72 14s-42 19.666 -56 30.999s-28.5 21.666 -43.5 30.999s-27.833 14 -38.5 14c-26.667 0 -40 -16.667 -40 -50l-10 -10h-100z" />
    <glyph glyph-name="uni00A0" unicode="&#xa0;" horiz-adv-x="260" 
 />
    <glyph glyph-name="exclamdown" unicode="&#xa1;" horiz-adv-x="400" 
d="M130 30l20 230l10 10h80l10 -10l20 -230v-220l-10 -10h-120l-10 10v220zM120 490l10 10h140l10 -10v-130l-10 -10h-140l-10 10v130z" />
    <glyph glyph-name="cent" unicode="&#xa2;" horiz-adv-x="540" 
d="M170 250c0 -74.667 23.333 -118 70 -130l10 10v240l-10 10c-46.667 -12 -70 -55.333 -70 -130zM250 -60v40l-10 10c-62.667 10.667 -113.334 38.5 -152.001 83.5s-58 103.833 -58 176.5s19.333 131.5 58 176.5s89.334 72.833 152.001 83.5l10 10v40l10 10h40l10 -10v-40
l10 -10c46.667 -6 88.834 -23.167 126.501 -51.5s58.834 -67.833 63.501 -118.5l-10 -10h-120l-10 10c-8.66699 26.667 -25.334 40 -50.001 40l-10 -10v-240l10 -10c24.667 0 41.334 13.333 50.001 40l10 10h120l10 -10c-4.66699 -50.667 -25.834 -90.167 -63.501 -118.5
s-79.834 -45.5 -126.501 -51.5l-10 -10v-40l-10 -10h-40z" />
    <glyph glyph-name="sterling" unicode="&#xa3;" horiz-adv-x="640" 
d="M490 290l-9.99902 -9.99805h-210l-10 -10v-60c0 -40 -13.333 -66.667 -40 -80v-10h380l10 -10v-100l-10 -10h-560l-10 10v100l10 10h10c46.667 0 70 30 70 90v60l-10 10h-60l-10 10v80l10 10h60l10 10v90c0 68.667 19.167 124.167 57.5 166.5s95.833 63.5 172.5 63.5
c72 0 126.667 -19.333 164 -58s56 -89.334 56 -152.001l-10 -10h-120l-10 10c0 33.333 -6.66699 56.666 -20 69.999s-33.333 20 -60 20c-30.667 0 -53.334 -8.5 -68.001 -25.5s-22 -45.167 -22 -84.5v-90l10 -10h210l10 -10v-80z" />
    <glyph glyph-name="currency" unicode="&#xa4;" horiz-adv-x="680" 
d="M570 370c20 -26.667 30 -66.667 30 -120c0 -24 -2.5 -46 -7.5 -66s-9.83301 -34 -14.5 -42l-8 -12v-10l70 -70v-10l-90 -90h-10l-70 70h-10c-26.667 -20 -66.667 -30 -120 -30c-24 0 -46 2.5 -66 7.5s-34 9.83301 -42 14.5l-12 8h-10l-70 -70h-10l-90 90v10l70 70v10
c-20 26.667 -30 66.667 -30 120c0 24 2.5 46 7.5 66s9.83301 34 14.5 42l8 12v10l-70 70v10l90 90h10l70 -70h10c26.667 20 66.667 30 120 30c24 0 46 -2.5 66 -7.5s34 -9.83301 42 -14.5l12 -8h10l70 70h10l90 -90v-10l-70 -70v-10zM340 110
c41.333 0 71.666 13.5 90.999 40.5s29 60.167 29 99.5c0 40 -9.66699 73.333 -29 100s-49.666 40 -90.999 40s-71.666 -13.333 -90.999 -40s-29 -60 -29 -100c0 -39.333 9.66699 -72.5 29 -99.5s49.666 -40.5 90.999 -40.5z" />
    <glyph glyph-name="yen" unicode="&#xa5;" horiz-adv-x="620" 
d="M380 110v-100l-10 -10h-120l-10 10v100l-10 10h-120l-10 10v80l10 10h120l10 10l-20 40l-20 10h-120l-10 10v80l10 10h70v10l-110 200v100l10 10h70l20 -10l160 -310h20l160 310l20 10h70l10 -10v-100l-110 -200v-10h70l10 -10v-80l-10 -10h-120l-20 -10l-20 -40l10 -10
h120l10 -10v-80l-10 -10h-120z" />
    <glyph glyph-name="brokenbar" unicode="&#xa6;" horiz-adv-x="380" 
d="M260 420l-10 -10h-120l-10 10v270l10 10h120l10 -10v-270zM260 10l-10 -10h-120l-10 10v270l10 10h120l10 -10v-270z" />
    <glyph glyph-name="section" unicode="&#xa7;" horiz-adv-x="660" 
d="M180 290c0 -19.333 4.5 -35.3311 13.5 -47.998s22.667 -22.667 41 -30s36.666 -13.166 54.999 -17.499s41.5 -9.5 69.5 -15.5s51.667 -12.333 71 -19h10c26.667 8.66699 40 28.667 40 60c0 15.333 -4.5 28.666 -13.5 39.999s-22.833 21.166 -41.5 29.499
s-36.667 15.166 -54 20.499s-40.666 11.833 -69.999 19.5s-53 14.5 -71 20.5h-10c-26.667 -8.66699 -40 -28.667 -40 -60zM530 100.002l0.000976562 -10c40 -26.667 60 -66.667 60 -120c0 -56.667 -21 -100.834 -63 -132.501s-104.333 -47.5 -187 -47.5
c-85.333 0 -153.333 17.167 -204 51.5s-76 87.166 -76 158.499l10 10h120l10 -10c0 -30.667 11 -53.334 33 -68.001s57.667 -22 107 -22c42 0 70.833 6 86.5 18s23.5 29.333 23.5 52c0 14.667 -7.5 27.334 -22.5 38.001s-34.667 19.5 -59 26.5s-51 14 -80 21
s-58 15.833 -87 26.5s-55.667 23.334 -80 38.001s-44 34.834 -59 60.501s-22.5 55.5 -22.5 89.5c0 36.667 9.16699 66 27.5 88s39.166 36 62.499 42v10c-40 26.667 -60 66.667 -60 120c0 51.333 22.667 92.5 68 123.5s109.333 46.5 192 46.5c78 0 140.833 -18 188.5 -54
s71.5 -88 71.5 -156l-10 -10h-120l-10 10c0 60 -43.333 90 -130 90c-73.333 0 -110 -20 -110 -60c0 -20 14 -36.833 42 -50.5s62.167 -26 102.5 -37s80.666 -23.833 120.999 -38.5s74.5 -36.667 102.5 -66s42 -65.333 42 -108c0 -36.667 -9.16699 -66 -27.5 -88
s-39.166 -36 -62.499 -42z" />
    <glyph glyph-name="dieresis" unicode="&#xa8;" horiz-adv-x="560" 
d="M450 590l-10 -10h-110l-10 10v100l10 10h110l10 -10v-100zM240 590l-10 -10h-110l-10 10v100l10 10h110l10 -10v-100z" />
    <glyph glyph-name="copyright" unicode="&#xa9;" horiz-adv-x="840" 
d="M60 350c0 100 35 185 105 255s155 105 255 105s185 -35 255 -105s105 -155 105 -255s-35 -185 -105 -255s-155 -105 -255 -105s-185 35 -255 105s-105 155 -105 255zM340 350c0 -66.667 26.667 -100 80 -100c38.667 0 62 16.667 70 50l10 10h80l10 -10
c-4.66699 -46.667 -23.167 -81.667 -55.5 -105s-70.5 -35 -114.5 -35c-52.667 0 -95.834 16.167 -129.501 48.5s-50.5 79.5 -50.5 141.5s16.833 109.167 50.5 141.5s76.834 48.5 129.501 48.5c44 0 82.167 -11.667 114.5 -35s50.833 -58.333 55.5 -105l-10 -10h-80l-10 10
c-8 33.333 -31.333 50 -70 50c-53.333 0 -80 -33.333 -80 -100zM170 350c0 -76 23.167 -138.333 69.5 -187s106.5 -73 180.5 -73s134.167 24.333 180.5 73s69.5 111 69.5 187s-23.167 138.333 -69.5 187s-106.5 73 -180.5 73s-134.167 -24.333 -180.5 -73
s-69.5 -111 -69.5 -187z" />
    <glyph glyph-name="ordfeminine" unicode="&#xaa;" 
d="M250 330c-44.667 0 -84.167 16.501 -118.5 49.501s-51.5 79.833 -51.5 140.5s17.167 107.5 51.5 140.5s73.833 49.5 118.5 49.5c14.667 0 28.667 -2.5 42 -7.5s23 -9.83301 29 -14.5l9 -8h10v10l10 10h100l10 -10v-210c0 -20 6.66699 -30 20 -30h10l10 -10v-90l-10 -10
h-60c-26.667 0 -50 10 -70 30h-10c-2 -2.66699 -5.33301 -6.33398 -10 -11.001s-15.667 -10.667 -33 -18s-36.333 -11 -57 -11zM200 520.001c0 -27.333 7.16699 -47.5 21.5 -60.5s30.5 -19.5 48.5 -19.5c46.667 0 70 26.667 70 80s-23.333 80 -70 80
c-18 0 -34.167 -6.5 -48.5 -19.5s-21.5 -33.167 -21.5 -60.5zM490 270.001l-10 -10h-360l-10 10v10l10 10h360l10 -10v-10z" />
    <glyph glyph-name="guillemotleft" unicode="&#xab;" horiz-adv-x="790" 
d="M400 40l-10 -10h-120l-20 10l-160 160l-10 20v60l10 20l160 160l20 10h120l10 -10v-40l-170 -160v-20l170 -160v-40zM710 40l-10 -10h-120l-20 10l-160 160l-10 20v60l10 20l160 160l20 10h120l10 -10v-40l-170 -160v-20l170 -160v-40z" />
    <glyph glyph-name="logicalnot" unicode="&#xac;" 
d="M500 90l-10 -10h-100l-10 10v100l-10 10h-300l-10 10v100l10 10h420l10 -10v-220z" />
    <glyph glyph-name="uni00AD" unicode="&#xad;" horiz-adv-x="430" 
d="M370 210l-10 -10h-290l-10 10v100l10 10h290l10 -10v-100z" />
    <glyph glyph-name="registered" unicode="&#xae;" horiz-adv-x="840" 
d="M490 410c0 20 -10 30 -30 30h-80l-10 -10v-40l10 -10h80c20 0 30 10 30 30zM530 300l50 -70.001v-50l-10 -10h-50l-20 10l-70 100l-20 10h-30l-10 -10v-100l-10 -10h-80l-10 10v340l10 10h180c40.667 0 72.5 -10.167 95.5 -30.5s34.5 -50.166 34.5 -89.499
c0 -46.667 -20 -80 -60 -100v-10zM60 349.999c0 100 35 185 105 255s155 105 255 105s185 -35 255 -105s105 -155 105 -255s-35 -185 -105 -255s-155 -105 -255 -105s-185 35 -255 105s-105 155 -105 255zM170 349.999c0 -76 23.167 -138.333 69.5 -187s106.5 -73 180.5 -73
s134.167 24.333 180.5 73s69.5 111 69.5 187s-23.167 138.333 -69.5 187s-106.5 73 -180.5 73s-134.167 -24.333 -180.5 -73s-69.5 -111 -69.5 -187z" />
    <glyph glyph-name="macron" unicode="&#xaf;" horiz-adv-x="500" 
d="M430 580l-10 -10h-340l-10 10v90l10 10h340l10 -10v-90z" />
    <glyph glyph-name="degree" unicode="&#xb0;" 
d="M80 500c0 60 20 110 60 150s90 60 150 60s110 -20 150 -60s60 -90 60 -150s-20 -110 -60 -150s-90 -60 -150 -60s-110 20 -150 60s-60 90 -60 150zM210 500c0 -60 26.667 -90 80 -90s80 30 80 90s-26.667 90 -80 90s-80 -30 -80 -90z" />
    <glyph glyph-name="plusminus" unicode="&#xb1;" 
d="M510 290l-10 -10h-140l-10 -10v-80l-10 -10h-100l-10 10v80l-10 10h-140l-10 10v100l10 10h140l10 10v80l10 10h100l10 -10v-80l10 -10h140l10 -10v-100zM510 10l-10 -10h-420l-10 10v100l10 10h420l10 -10v-100z" />
    <glyph glyph-name="twosuperior" unicode="&#xb2;" horiz-adv-x="380" 
d="M340 350l-10 -10h-270l-10 10v80l10 20l100 60c40 24 60 47.333 60 70c0 20 -10 30 -30 30s-30 -10 -30 -30l-10 -10h-90l-10 10c0 40.667 12.167 72.5 36.5 95.5s58.833 34.5 103.5 34.5s79.167 -11.5 103.5 -34.5s36.5 -54.833 36.5 -95.5
c0 -32 -9.16699 -57 -27.5 -75s-45.833 -36.333 -82.5 -55v-10h110l10 -10v-80z" />
    <glyph glyph-name="threesuperior" unicode="&#xb3;" horiz-adv-x="370" 
d="M140 490l-9.99902 10v60l30 30v10h-100l-10 10v80l10 10h240l10 -10v-80l-10 -20l-30 -30v-10c1.33301 0 3.5 -0.5 6.5 -1.5s7.83301 -3.5 14.5 -7.5s12.667 -8.83301 18 -14.5s10.166 -14.5 14.499 -26.5s6.5 -25.333 6.5 -40c0 -37.333 -13 -68.333 -39 -93
s-63 -37 -111 -37c-44 0 -78.333 11 -103 33s-37 51 -37 87l10 10h90l10 -10c0 -13.333 10 -20 30 -20c26.667 0 40 13.333 40 40c0 20 -10 30 -30 30c-2.66699 0 -5.66699 -0.833008 -9 -2.5s-6 -3.5 -8 -5.5l-3 -2h-30z" />
    <glyph glyph-name="acute" unicode="&#xb4;" horiz-adv-x="500" 
d="M360 670l-110 -100l-20 -10h-90l-10 10v20l100 100l20 10h100l10 -10v-20z" />
    <glyph glyph-name="mu" unicode="&#xb5;" horiz-adv-x="640" 
d="M420 30h-10c-2 -2.66699 -5.33301 -6.33398 -10 -11.001s-14.667 -10.667 -30 -18s-32 -11 -50 -11s-34.5 3.33301 -49.5 10s-25.5 13.334 -31.5 20.001l-9 10h-10v-220l-10 -10h-120l-10 10v680l10 10h120l10 -10v-250c0 -36.667 8.33301 -65.834 25 -87.501
s41.667 -32.5 75 -32.5s58.333 10.833 75 32.5s25 50.834 25 87.501v250l10 10h120l10 -10v-480l-10 -10h-110l-10 10z" />
    <glyph glyph-name="paragraph" unicode="&#xb6;" horiz-adv-x="770" 
d="M420 -190l-10.001 -10h-120l-10 10v480l-10 10c-63.333 0 -114.166 16.667 -152.499 50s-57.5 83.333 -57.5 150c0 67.333 19.667 117.5 59 150.5s93 49.5 161 49.5h430l10 -10v-100l-10 -10h-60l-10 -10v-760l-10 -10h-120l-10 10v760l-10 10h-60l-10 -10v-760z" />
    <glyph glyph-name="periodcentered" unicode="&#xb7;" horiz-adv-x="320" 
d="M240 200l-10 -10h-140l-10 10v130l10 10h140l10 -10v-130z" />
    <glyph glyph-name="cedilla" unicode="&#xb8;" horiz-adv-x="500" 
d="M210 -100h-10.002l-10 10v10l80 80h40l-70 -70h10c13.333 6.66699 26.666 10 39.999 10c16.667 0 30.834 -5.83301 42.501 -17.5s17.5 -29.167 17.5 -52.5c0 -24.667 -9.16699 -44.167 -27.5 -58.5s-42.5 -21.5 -72.5 -21.5c-20 0 -36.167 2.83301 -48.5 8.5
s-26.166 16.167 -41.499 31.5v10l10 10h10c9.33301 -9.33301 18.833 -15 28.5 -17s23.5 -3 41.5 -3c33.333 0 50 13.333 50 40s-16.667 40 -50 40c-13.333 0 -26.666 -3.33301 -39.999 -10z" />
    <glyph glyph-name="onesuperior" unicode="&#xb9;" horiz-adv-x="360" 
d="M50 350v80l10 10h70l10 10v110h-10l-30 -30h-30l-10 10v80l70 70l20 10h90l10 -10v-240l10 -10h50l10 -10v-80l-10 -10h-250z" />
    <glyph glyph-name="ordmasculine" unicode="&#xba;" horiz-adv-x="540" 
d="M270 330c-54.667 0 -100 18 -136 54s-54 81.333 -54 136s18 100 54 136s81.333 54 136 54s100 -18 136 -54s54 -81.333 54 -136s-18 -100 -54 -136s-81.333 -54 -136 -54zM200 520c0 -27.333 7.16699 -47.5 21.5 -60.5s30.5 -19.5 48.5 -19.5s34.167 6.5 48.5 19.5
s21.5 33.167 21.5 60.5s-7.16699 47.5 -21.5 60.5s-30.5 19.5 -48.5 19.5s-34.167 -6.5 -48.5 -19.5s-21.5 -33.167 -21.5 -60.5zM430 270l-10 -10h-300l-10 10v10l10 10h300l10 -10v-10z" />
    <glyph glyph-name="guillemotright" unicode="&#xbb;" horiz-adv-x="790" 
d="M400 30l-10 10v40l170 160v20l-170 160v40l10 10h120l20 -10l160 -160l10 -20v-60l-10 -20l-160 -160l-20 -10h-120zM90 30l-10 10v40l170 160v20l-170 160v40l10 10h120l20 -10l160 -160l10 -20v-60l-10 -20l-160 -160l-20 -10h-120z" />
    <glyph glyph-name="onequarter" unicode="&#xbc;" horiz-adv-x="870" 
d="M670 590l-380 -580l-10 -10h-60l-10 10v100l380 580l10 10h60l10 -10v-100zM50 350v80l10 10h70l10 10v110h-10l-30 -30h-30l-10 10v80l70 70l20 10h90l10 -10v-240l10 -10h50l10 -10v-80l-10 -10h-250zM770 10l-10 -10h-90l-10 10v40l-10 10h-180l-10 10v90l10 20
l170 170l20 10h100l10 -10v-340zM660 170v60h-10l-60 -60v-10h60z" />
    <glyph glyph-name="onehalf" unicode="&#xbd;" horiz-adv-x="880" 
d="M670 590l-380 -580l-10 -10h-60l-10 10v100l380 580l10 10h60l10 -10v-100zM50 350v80l10 10h70l10 10v110h-10l-30 -30h-30l-10 10v80l70 70l20 10h90l10 -10v-240l10 -10h50l10 -10v-80l-10 -10h-250zM820 10l-10 -10h-270l-10 10v80l10 20l100 60
c40 24 60 47.333 60 70c0 20 -10 30 -30 30s-30 -10 -30 -30l-10 -10h-90l-10 10c0 40.667 12.167 72.5 36.5 95.5s58.833 34.5 103.5 34.5s79.167 -11.5 103.5 -34.5s36.5 -54.833 36.5 -95.5c0 -32 -9.16699 -57 -27.5 -75s-45.833 -36.333 -82.5 -55v-10h110l10 -10v-80z
" />
    <glyph glyph-name="threequarters" unicode="&#xbe;" horiz-adv-x="870" 
d="M670 590l-380 -580l-10 -10h-60l-10 10v100l380 580l10 10h60l10 -10v-100zM770 10l-10 -10h-90l-10 10v40l-10 10h-180l-10 10v90l10 20l170 170l20 10h100l10 -10v-340zM660 170v60h-10l-60 -60v-10h60zM150 490l-9.99902 10v60l30 30v10h-100l-10 10v80l10 10h240
l10 -10v-80l-10 -20l-30 -30v-10c1.33301 0 3.5 -0.5 6.5 -1.5s7.83301 -3.5 14.5 -7.5s12.667 -8.83301 18 -14.5s10.166 -14.5 14.499 -26.5s6.5 -25.333 6.5 -40c0 -37.333 -13 -68.333 -39 -93s-63 -37 -111 -37c-44 0 -78.333 11 -103 33s-37 51 -37 87l10 10h90
l10 -10c0 -13.333 10 -20 30 -20c26.667 0 40 13.333 40 40c0 20 -10 30 -30 30c-2.66699 0 -5.66699 -0.833008 -9 -2.5s-6 -3.5 -8 -5.5l-3 -2h-30z" />
    <glyph glyph-name="questiondown" unicode="&#xbf;" horiz-adv-x="640" 
d="M80 -10c0 41.333 9.66699 75.833 29 103.5s46.333 53.167 81 76.5c29.333 19.333 48.333 35.666 57 48.999s13 30.333 13 51l10 10h120l10 -10c0 -66.667 -30 -120 -90 -160c-32 -21.333 -55 -40.666 -69 -57.999s-21 -38 -21 -62c0 -22 8.5 -40.833 25.5 -56.5
s41.833 -23.5 74.5 -23.5c35.333 0 60.833 8.5 76.5 25.5s23.5 45.167 23.5 84.5l10 10h120l10 -10c0 -69.333 -19.667 -125 -59 -167s-99.666 -63 -180.999 -63c-80.667 0 -140.834 18.5 -180.501 55.5s-59.5 85.167 -59.5 144.5zM250 490l10 10h140l10 -10v-130l-10 -10
h-140l-10 10v130z" />
    <glyph glyph-name="Agrave" unicode="&#xc0;" horiz-adv-x="650" 
d="M630 10l-10 -10h-90l-10 10l-50 130l-20 10h-250l-20 -10l-50 -130l-10 -10h-90l-10 10v100l230 580l10 10h130l10 -10l230 -580v-100zM420 280l-90 240h-10l-90 -240l10 -10h170zM430 770l-10 -10h-90l-20 10l-110 100v20l10 10h100l20 -10l100 -100v-20z" />
    <glyph glyph-name="Aacute" unicode="&#xc1;" horiz-adv-x="650" 
d="M630 10l-10 -10h-90l-10 10l-50 130l-20 10h-250l-20 -10l-50 -130l-10 -10h-90l-10 10v100l230 580l10 10h130l10 -10l230 -580v-100zM420 280l-90 240h-10l-90 -240l10 -10h170zM450 870l-110 -100l-20 -10h-90l-10 10v20l100 100l20 10h100l10 -10v-20z" />
    <glyph glyph-name="Acircumflex" unicode="&#xc2;" horiz-adv-x="650" 
d="M500 770l-10 -10h-80l-20 10l-60 50h-10l-60 -50l-20 -10h-80l-10 10v20l100 100l20 10h110l20 -10l100 -100v-20zM630 10l-10 -10h-90l-10 10l-50 130l-20 10h-250l-20 -10l-50 -130l-10 -10h-90l-10 10v100l230 580l10 10h130l10 -10l230 -580v-100zM420 280l-90 240
h-10l-90 -240l10 -10h170z" />
    <glyph glyph-name="Atilde" unicode="&#xc3;" horiz-adv-x="650" 
d="M630 10l-10 -10h-90l-10 10l-50 130l-20 10h-250l-20 -10l-50 -130l-10 -10h-90l-10 10v100l230 580l10 10h130l10 -10l230 -580v-100zM420 280l-90 240h-10l-90 -240l10 -10h170zM390 740c-22.667 0 -42.834 5.83301 -60.501 17.5s-32.667 23.334 -45 35.001
s-23.833 17.5 -34.5 17.5c-20 0 -30 -13.333 -30 -40l-10 -10h-50l-10 10c0 38.667 10.333 68.334 31 89.001s47 31 79 31c22.667 0 42.834 -5.83301 60.501 -17.5s32.667 -23.334 45 -35.001s23.833 -17.5 34.5 -17.5c20 0 30 13.333 30 40l10 10h50l10 -10
c0 -38.667 -10.333 -68.334 -31 -89.001s-47 -31 -79 -31z" />
    <glyph glyph-name="Adieresis" unicode="&#xc4;" horiz-adv-x="650" 
d="M630 10l-10 -10h-90l-10 10l-50 130l-20 10h-250l-20 -10l-50 -130l-10 -10h-90l-10 10v100l230 580l10 10h130l10 -10l230 -580v-100zM420 280l-90 240h-10l-90 -240l10 -10h170zM500 770l-10 -10h-110l-10 10v100l10 10h110l10 -10v-100zM280 770l-10 -10h-110l-10 10
v100l10 10h110l10 -10v-100z" />
    <glyph glyph-name="Aring" unicode="&#xc5;" horiz-adv-x="650" 
d="M320 780h10c26.667 0 40 10 40 30s-13.333 30 -40 30h-10c-26.667 0 -40 -10 -40 -30s13.333 -30 40 -30zM330 720h-10c-32 0 -58.333 7.83301 -79 23.5s-31 37.834 -31 66.501s10.333 50.834 31 66.501s47 23.5 79 23.5h10c32 0 58.333 -7.83301 79 -23.5
s31 -37.834 31 -66.501s-10.333 -50.834 -31 -66.501s-47 -23.5 -79 -23.5zM630 10l-10 -10h-90l-10 10l-50 130l-20 10h-250l-20 -10l-50 -130l-10 -10h-90l-10 10v100l230 580l10 10h130l10 -10l230 -580v-100zM420 280l-90 240h-10l-90 -240l10 -10h170z" />
    <glyph glyph-name="AE" unicode="&#xc6;" horiz-adv-x="990" 
d="M470 10v110l-10 10h-260l-20 -10l-60 -110l-10 -10h-80l-10 10v100l320 580l10 10h570l10 -10v-100l-10 -10h-300l-10 -10v-140l10 -10h280l10 -10v-100l-10 -10h-280l-10 -10v-160l10 -10h300l10 -10v-100l-10 -10h-440zM470 260v310l-10 10h-20l-10 -10l-170 -310
l10 -10h190z" />
    <glyph glyph-name="Ccedilla" unicode="&#xc7;" horiz-adv-x="710" 
d="M410 -10l-20.001 -10.0039l-50 -50h10c13.333 6.66699 26.666 10 39.999 10c16.667 0 30.834 -5.83301 42.501 -17.5s17.5 -29.167 17.5 -52.5c0 -24.667 -9.16699 -44.167 -27.5 -58.5s-42.5 -21.5 -72.5 -21.5c-20 0 -36.167 2.83301 -48.5 8.5
s-26.166 16.167 -41.499 31.5v10l10 10h10c6 -6 13 -10.667 21 -14s15 -5.16602 21 -5.49902s15.333 -0.5 28 -0.5c33.333 0 50 13.333 50 40s-16.667 40 -50 40c-13.333 0 -26.666 -3.33301 -39.999 -10h-10l-10 10v10l60 60v10c-87.333 5.33301 -160.833 38.5 -220.5 99.5
s-89.5 147.833 -89.5 260.5c0 108 29.833 195 89.5 261s143.167 99 250.5 99c80 0 145.833 -18.667 197.5 -56s82.5 -88.666 92.5 -153.999l-10 -10h-120l-10 10c-20 60 -70 90 -150 90c-67.333 0 -117.5 -21.667 -150.5 -65s-49.5 -101.666 -49.5 -174.999
s16.5 -131.666 49.5 -174.999s83.167 -65 150.5 -65c80.667 0 130.667 33.333 150 100l10 10h120l10 -10c-4.66699 -36 -15.167 -68 -31.5 -96s-36.833 -50.333 -61.5 -67s-50.834 -29.667 -78.501 -39s-57.167 -15.333 -88.5 -18z" />
    <glyph glyph-name="Egrave" unicode="&#xc8;" horiz-adv-x="630" 
d="M570 10l-10 -10h-470l-10 10v680l10 10h470l10 -10v-100l-10 -10h-330l-10 -10v-140l10 -10h310l10 -10v-100l-10 -10h-310l-10 -10v-160l10 -10h330l10 -10v-100zM420 770l-10 -10h-90l-20 10l-110 100v20l10 10h100l20 -10l100 -100v-20z" />
    <glyph glyph-name="Eacute" unicode="&#xc9;" horiz-adv-x="630" 
d="M570 10l-10 -10h-470l-10 10v680l10 10h470l10 -10v-100l-10 -10h-330l-10 -10v-140l10 -10h310l10 -10v-100l-10 -10h-310l-10 -10v-160l10 -10h330l10 -10v-100zM460 870l-110 -100l-20 -10h-90l-10 10v20l100 100l20 10h100l10 -10v-20z" />
    <glyph glyph-name="Ecircumflex" unicode="&#xca;" horiz-adv-x="630" 
d="M570 10l-10 -10h-470l-10 10v680l10 10h470l10 -10v-100l-10 -10h-330l-10 -10v-140l10 -10h310l10 -10v-100l-10 -10h-310l-10 -10v-160l10 -10h330l10 -10v-100zM500 770l-10 -10h-80l-20 10l-60 50h-10l-60 -50l-20 -10h-80l-10 10v20l100 100l20 10h110l20 -10
l100 -100v-20z" />
    <glyph glyph-name="Edieresis" unicode="&#xcb;" horiz-adv-x="630" 
d="M570 10l-10 -10h-470l-10 10v680l10 10h470l10 -10v-100l-10 -10h-330l-10 -10v-140l10 -10h310l10 -10v-100l-10 -10h-310l-10 -10v-160l10 -10h330l10 -10v-100zM500 790l-10 -10h-110l-10 10v100l10 10h110l10 -10v-100zM280 790l-10 -10h-110l-10 10v100l10 10h110
l10 -10v-100z" />
    <glyph glyph-name="Igrave" unicode="&#xcc;" horiz-adv-x="300" 
d="M220 10l-10 -10h-120l-10 10v680l10 10h120l10 -10v-680zM240 770l-10 -10h-90l-20 10l-110 100v20l10 10h100l20 -10l100 -100v-20z" />
    <glyph glyph-name="Iacute" unicode="&#xcd;" horiz-adv-x="300" 
d="M220 10l-10 -10h-120l-10 10v680l10 10h120l10 -10v-680zM290 870l-110 -100l-20 -10h-90l-10 10v20l100 100l20 10h100l10 -10v-20z" />
    <glyph glyph-name="Icircumflex" unicode="&#xce;" horiz-adv-x="300" 
d="M220 10l-10 -10h-120l-10 10v680l10 10h120l10 -10v-680zM330 770l-10 -10h-80l-20 10l-60 50h-20l-60 -50l-20 -10h-80l-10 10v20l100 100l20 10h120l20 -10l100 -100v-20z" />
    <glyph glyph-name="Idieresis" unicode="&#xcf;" horiz-adv-x="300" 
d="M220 10l-10 -10h-120l-10 10v680l10 10h120l10 -10v-680zM320 790l-10 -10h-110l-10 10v100l10 10h110l10 -10v-100zM110 790l-10 -10h-110l-10 10v100l10 10h110l10 -10v-100z" />
    <glyph glyph-name="Eth" unicode="&#xd0;" horiz-adv-x="690" 
d="M0 300v100l10 10h60l10 10v270l10 10h220c120.667 0 207.5 -29.667 260.5 -89s79.5 -146.333 79.5 -261s-26.5 -201.667 -79.5 -261s-139.833 -89 -260.5 -89h-220l-10 10v270l-10 10h-60zM510 350c0 81.333 -14.333 140 -43 176s-77.667 54 -147 54h-90l-10 -10v-150
l10 -10h130l10 -10v-100l-10 -10h-130l-10 -10v-150l10 -10h90c69.333 0 118.333 18 147 54s43 94.667 43 176z" />
    <glyph glyph-name="Ntilde" unicode="&#xd1;" horiz-adv-x="750" 
d="M80 690l10 10h140l20 -10l270 -460h10v460l10 10h120l10 -10v-680l-10 -10h-140l-20 10l-270 460h-10v-460l-10 -10h-120l-10 10v680zM440 740c-22.667 0 -42.834 5.83301 -60.501 17.5s-32.667 23.334 -45 35.001s-23.833 17.5 -34.5 17.5c-20 0 -30 -13.333 -30 -40
l-10 -10h-50l-10 10c0 38.667 10.333 68.334 31 89.001s47 31 79 31c22.667 0 42.834 -5.83301 60.501 -17.5s32.667 -23.334 45 -35.001s23.833 -17.5 34.5 -17.5c20 0 30 13.333 30 40l10 10h50l10 -10c0 -38.667 -10.333 -68.334 -31 -89.001s-47 -31 -79 -31z" />
    <glyph glyph-name="Ograve" unicode="&#xd2;" horiz-adv-x="760" 
d="M580 350c0 72 -17.5 130 -52.5 174s-84.167 66 -147.5 66s-112.5 -22 -147.5 -66s-52.5 -102 -52.5 -174s17.5 -130 52.5 -174s84.167 -66 147.5 -66s112.5 22 147.5 66s52.5 102 52.5 174zM720 350c0 -106.667 -30.833 -193.334 -92.5 -260.001
s-144.167 -100 -247.5 -100s-185.833 33.333 -247.5 100s-92.5 153.334 -92.5 260.001s30.833 193.334 92.5 260.001s144.167 100 247.5 100s185.833 -33.333 247.5 -100s92.5 -153.334 92.5 -260.001zM480 770l-10 -10h-90l-20 10l-110 100v20l10 10h100l20 -10l100 -100
v-20z" />
    <glyph glyph-name="Oacute" unicode="&#xd3;" horiz-adv-x="760" 
d="M580 350c0 72 -17.5 130 -52.5 174s-84.167 66 -147.5 66s-112.5 -22 -147.5 -66s-52.5 -102 -52.5 -174s17.5 -130 52.5 -174s84.167 -66 147.5 -66s112.5 22 147.5 66s52.5 102 52.5 174zM720 350c0 -106.667 -30.833 -193.334 -92.5 -260.001
s-144.167 -100 -247.5 -100s-185.833 33.333 -247.5 100s-92.5 153.334 -92.5 260.001s30.833 193.334 92.5 260.001s144.167 100 247.5 100s185.833 -33.333 247.5 -100s92.5 -153.334 92.5 -260.001zM510 870l-110 -100l-20 -10h-90l-10 10v20l100 100l20 10h100l10 -10
v-20z" />
    <glyph glyph-name="Ocircumflex" unicode="&#xd4;" horiz-adv-x="760" 
d="M580 350c0 72 -17.5 130 -52.5 174s-84.167 66 -147.5 66s-112.5 -22 -147.5 -66s-52.5 -102 -52.5 -174s17.5 -130 52.5 -174s84.167 -66 147.5 -66s112.5 22 147.5 66s52.5 102 52.5 174zM720 350c0 -106.667 -30.833 -193.334 -92.5 -260.001
s-144.167 -100 -247.5 -100s-185.833 33.333 -247.5 100s-92.5 153.334 -92.5 260.001s30.833 193.334 92.5 260.001s144.167 100 247.5 100s185.833 -33.333 247.5 -100s92.5 -153.334 92.5 -260.001zM560 770l-10 -10h-80l-20 10l-60 50h-20l-60 -50l-20 -10h-80l-10 10
v20l100 100l20 10h120l20 -10l100 -100v-20z" />
    <glyph glyph-name="Otilde" unicode="&#xd5;" horiz-adv-x="760" 
d="M580 350c0 72 -17.5 130 -52.5 174s-84.167 66 -147.5 66s-112.5 -22 -147.5 -66s-52.5 -102 -52.5 -174s17.5 -130 52.5 -174s84.167 -66 147.5 -66s112.5 22 147.5 66s52.5 102 52.5 174zM720 350c0 -106.667 -30.833 -193.334 -92.5 -260.001
s-144.167 -100 -247.5 -100s-185.833 33.333 -247.5 100s-92.5 153.334 -92.5 260.001s30.833 193.334 92.5 260.001s144.167 100 247.5 100s185.833 -33.333 247.5 -100s92.5 -153.334 92.5 -260.001zM450 740c-22.667 0 -42.834 5.83301 -60.501 17.5
s-32.667 23.334 -45 35.001s-23.833 17.5 -34.5 17.5c-20 0 -30 -13.333 -30 -40l-10 -10h-50l-10 10c0 38.667 10.333 68.334 31 89.001s47 31 79 31c22.667 0 42.834 -5.83301 60.501 -17.5s32.667 -23.334 45 -35.001s23.833 -17.5 34.5 -17.5c20 0 30 13.333 30 40
l10 10h50l10 -10c0 -38.667 -10.333 -68.334 -31 -89.001s-47 -31 -79 -31z" />
    <glyph glyph-name="Odieresis" unicode="&#xd6;" horiz-adv-x="760" 
d="M580 350c0 72 -17.5 130 -52.5 174s-84.167 66 -147.5 66s-112.5 -22 -147.5 -66s-52.5 -102 -52.5 -174s17.5 -130 52.5 -174s84.167 -66 147.5 -66s112.5 22 147.5 66s52.5 102 52.5 174zM720 350c0 -106.667 -30.833 -193.334 -92.5 -260.001
s-144.167 -100 -247.5 -100s-185.833 33.333 -247.5 100s-92.5 153.334 -92.5 260.001s30.833 193.334 92.5 260.001s144.167 100 247.5 100s185.833 -33.333 247.5 -100s92.5 -153.334 92.5 -260.001zM550 790l-10 -10h-110l-10 10v100l10 10h110l10 -10v-100zM340 790
l-10 -10h-110l-10 10v100l10 10h110l10 -10v-100z" />
    <glyph glyph-name="multiply" unicode="&#xd7;" horiz-adv-x="610" 
d="M550 80l-70 -70h-10l-160 160h-10l-160 -160h-10l-70 70v10l160 160v10l-160 160v10l70 70h10l160 -160h10l160 160h10l70 -70v-10l-160 -160v-10l160 -160v-10z" />
    <glyph glyph-name="Oslash" unicode="&#xd8;" horiz-adv-x="760" 
d="M150 70h-9.99902l-40 -40l-20 -10h-10l-10 10v50l40 40v10c-40 60 -60 133.333 -60 220c0 106.667 30.833 193.334 92.5 260.001s144.167 100 247.5 100c93.333 0 166.666 -26.667 219.999 -80h10l50 50l20 10h10l10 -10v-50l-40 -40v-20c40 -60 60 -133.333 60 -220
c0 -106.667 -30.833 -193.334 -92.5 -260.001s-144.167 -100 -247.5 -100c-89.333 0 -166 26.667 -230 80zM250.001 180l0.000976562 -20c33.333 -33.333 76.666 -50 129.999 -50c63.333 0 112.5 22 147.5 66s52.5 102 52.5 174c0 53.333 -6.66699 93.333 -20 120h-20z
M200.002 230h9.99902l300 300v10c-33.333 33.333 -76.666 50 -129.999 50c-63.333 0 -112.5 -22 -147.5 -66s-52.5 -102 -52.5 -174c0 -53.333 6.66699 -93.333 20 -120z" />
    <glyph glyph-name="Ugrave" unicode="&#xd9;" horiz-adv-x="720" 
d="M640 690v-420c0 -90 -24.167 -159.167 -72.5 -207.5s-117.5 -72.5 -207.5 -72.5s-159.167 24.167 -207.5 72.5s-72.5 117.5 -72.5 207.5v420l10 10h120l10 -10v-420c0 -106.667 46.667 -160 140 -160s140 53.333 140 160v420l10 10h120zM450 770l-10 -10h-90l-20 10
l-110 100v20l10 10h100l20 -10l100 -100v-20z" />
    <glyph glyph-name="Uacute" unicode="&#xda;" horiz-adv-x="720" 
d="M640 690v-420c0 -90 -24.167 -159.167 -72.5 -207.5s-117.5 -72.5 -207.5 -72.5s-159.167 24.167 -207.5 72.5s-72.5 117.5 -72.5 207.5v420l10 10h120l10 -10v-420c0 -106.667 46.667 -160 140 -160s140 53.333 140 160v420l10 10h120zM500 870l-110 -100l-20 -10h-90
l-10 10v20l100 100l20 10h100l10 -10v-20z" />
    <glyph glyph-name="Ucircumflex" unicode="&#xdb;" horiz-adv-x="720" 
d="M640 690v-420c0 -90 -24.167 -159.167 -72.5 -207.5s-117.5 -72.5 -207.5 -72.5s-159.167 24.167 -207.5 72.5s-72.5 117.5 -72.5 207.5v420l10 10h120l10 -10v-420c0 -106.667 46.667 -160 140 -160s140 53.333 140 160v420l10 10h120zM540 770l-10 -10h-80l-20 10
l-60 50h-20l-60 -50l-20 -10h-80l-10 10v20l100 100l20 10h120l20 -10l100 -100v-20z" />
    <glyph glyph-name="Udieresis" unicode="&#xdc;" horiz-adv-x="720" 
d="M640 690v-420c0 -90 -24.167 -159.167 -72.5 -207.5s-117.5 -72.5 -207.5 -72.5s-159.167 24.167 -207.5 72.5s-72.5 117.5 -72.5 207.5v420l10 10h120l10 -10v-420c0 -106.667 46.667 -160 140 -160s140 53.333 140 160v420l10 10h120zM530 790l-10 -10h-110l-10 10v100
l10 10h110l10 -10v-100zM310 790l-10 -10h-110l-10 10v100l10 10h110l10 -10v-100z" />
    <glyph glyph-name="Yacute" unicode="&#xdd;" horiz-adv-x="600" 
d="M570 590l-200 -330v-250l-10 -10h-120l-10 10v250l-200 330v100l10 10h70l20 -10l160 -270h20l160 270l20 10h70l10 -10v-100zM440 870l-110 -100l-20 -10h-90l-10 10v20l100 100l20 10h100l10 -10v-20z" />
    <glyph glyph-name="Thorn" unicode="&#xde;" horiz-adv-x="640" 
d="M220 10l-10 -10h-120l-10 10v680l10 10h120l10 -10v-130l10 -10h140c71.333 0 127.5 -17.333 168.5 -52s61.5 -84 61.5 -148c0 -63.333 -21.5 -112.5 -64.5 -147.5s-98.167 -52.5 -165.5 -52.5h-140l-10 -10v-130zM460 350c0 26.667 -6.66699 46.667 -20 60
s-36.666 20 -69.999 20h-140l-10 -10v-140l10 -10h140c33.333 0 56.666 6.66699 69.999 20s20 33.333 20 60z" />
    <glyph glyph-name="germandbls" unicode="&#xdf;" horiz-adv-x="630" 
d="M600 210c0 -59.333 -20.5 -110.831 -61.5 -154.498s-97.167 -65.5 -168.5 -65.5c-18 0 -34.5 1.66699 -49.5 5s-25.5 6.66602 -31.5 9.99902l-9 5l-10 10v90l10 10c20 -6.66699 43.333 -10 70 -10c34.667 0 61.667 9.66699 81 29s29 46.333 29 81
c0 40.667 -13 67.5 -39 80.5s-63 19.5 -111 19.5l-10 10v80l10 10c34.667 0 61.667 7 81 21s29 33.667 29 59c0 60 -30 90 -90 90c-37.333 0 -63.333 -8 -78 -24s-22 -38 -22 -66v-490l-10 -10h-120l-10 10v380l-10 10h-50l-10 10v80l10 10h50l10 10
c0 60.667 21.5 109.167 64.5 145.5s101.5 54.5 175.5 54.5c72 0 128.333 -18.5 169 -55.5s61 -81.833 61 -134.5c0 -33.333 -8.5 -62.333 -25.5 -87s-38.5 -42.334 -64.5 -53.001v-10c34.667 -6 65 -22.667 91 -50s39 -64 39 -110z" />
    <glyph glyph-name="agrave" unicode="&#xe0;" horiz-adv-x="520" 
d="M470 10l-9.99902 -9.99609h-110l-10 10l-10 20h-10c-2.66699 -2.66699 -7 -6.33398 -13 -11.001s-18.5 -10.667 -37.5 -18s-38.833 -11 -59.5 -11c-55.333 0 -99.166 14.167 -131.499 42.5s-48.5 67.5 -48.5 117.5c0 28.667 5.16699 53.667 15.5 75
s23.166 37.833 38.499 49.5s33.5 21.167 54.5 28.5s40.167 12 57.5 14s35.333 3 54 3c12 0 23.833 -0.833008 35.5 -2.5s20.5 -3.5 26.5 -5.5l8 -2l10 10v10c0 25.333 -4.16699 41.666 -12.5 48.999s-27.5 11 -57.5 11c-13.333 0 -23.5 -0.333008 -30.5 -1
s-14.5 -3.33398 -22.5 -8.00098s-13.667 -11.667 -17 -21l-10 -10h-120l-10 10c0 37.333 17 71.666 51 102.999s87 47 159 47c77.333 0 131.666 -18.667 162.999 -56s47 -95.333 47 -174v-270zM330.001 200.004l-9.99902 10c-13.333 6.66699 -33.333 10 -60 10
c-60 0 -90 -20 -90 -60c0 -33.333 23.333 -50 70 -50c25.333 0 46.666 6.66699 63.999 20s26 30 26 50v20zM360.002 570.004l-10 -10h-90l-20 10l-110 100v20l10 10h100l20 -10l100 -100v-20z" />
    <glyph glyph-name="aacute" unicode="&#xe1;" horiz-adv-x="520" 
d="M470 10l-9.99902 -9.99609h-110l-10 10l-10 20h-10c-2.66699 -2.66699 -7 -6.33398 -13 -11.001s-18.5 -10.667 -37.5 -18s-38.833 -11 -59.5 -11c-55.333 0 -99.166 14.167 -131.499 42.5s-48.5 67.5 -48.5 117.5c0 28.667 5.16699 53.667 15.5 75
s23.166 37.833 38.499 49.5s33.5 21.167 54.5 28.5s40.167 12 57.5 14s35.333 3 54 3c12 0 23.833 -0.833008 35.5 -2.5s20.5 -3.5 26.5 -5.5l8 -2l10 10v10c0 25.333 -4.16699 41.666 -12.5 48.999s-27.5 11 -57.5 11c-13.333 0 -23.5 -0.333008 -30.5 -1
s-14.5 -3.33398 -22.5 -8.00098s-13.667 -11.667 -17 -21l-10 -10h-120l-10 10c0 37.333 17 71.666 51 102.999s87 47 159 47c77.333 0 131.666 -18.667 162.999 -56s47 -95.333 47 -174v-270zM330.001 200.004l-9.99902 10c-13.333 6.66699 -33.333 10 -60 10
c-60 0 -90 -20 -90 -60c0 -33.333 23.333 -50 70 -50c25.333 0 46.666 6.66699 63.999 20s26 30 26 50v20zM390.002 670.004l-110 -100l-20 -10h-90l-10 10v20l100 100l20 10h100l10 -10v-20z" />
    <glyph glyph-name="acircumflex" unicode="&#xe2;" horiz-adv-x="520" 
d="M470 10l-9.99902 -9.99609h-110l-10 10l-10 20h-10c-2.66699 -2.66699 -7 -6.33398 -13 -11.001s-18.5 -10.667 -37.5 -18s-38.833 -11 -59.5 -11c-55.333 0 -99.166 14.167 -131.499 42.5s-48.5 67.5 -48.5 117.5c0 28.667 5.16699 53.667 15.5 75
s23.166 37.833 38.499 49.5s33.5 21.167 54.5 28.5s40.167 12 57.5 14s35.333 3 54 3c12 0 23.833 -0.833008 35.5 -2.5s20.5 -3.5 26.5 -5.5l8 -2l10 10v10c0 25.333 -4.16699 41.666 -12.5 48.999s-27.5 11 -57.5 11c-13.333 0 -23.5 -0.333008 -30.5 -1
s-14.5 -3.33398 -22.5 -8.00098s-13.667 -11.667 -17 -21l-10 -10h-120l-10 10c0 37.333 17 71.666 51 102.999s87 47 159 47c77.333 0 131.666 -18.667 162.999 -56s47 -95.333 47 -174v-270zM330.001 200.004l-9.99902 10c-13.333 6.66699 -33.333 10 -60 10
c-60 0 -90 -20 -90 -60c0 -33.333 23.333 -50 70 -50c25.333 0 46.666 6.66699 63.999 20s26 30 26 50v20zM440.002 570.004l-10 -10h-80l-20 10l-60 50h-20l-60 -50l-20 -10h-80l-10 10v20l100 100l20 10h120l20 -10l100 -100v-20z" />
    <glyph glyph-name="atilde" unicode="&#xe3;" horiz-adv-x="520" 
d="M470 10l-9.99902 -9.99609h-110l-10 10l-10 20h-10c-2.66699 -2.66699 -7 -6.33398 -13 -11.001s-18.5 -10.667 -37.5 -18s-38.833 -11 -59.5 -11c-55.333 0 -99.166 14.167 -131.499 42.5s-48.5 67.5 -48.5 117.5c0 28.667 5.16699 53.667 15.5 75
s23.166 37.833 38.499 49.5s33.5 21.167 54.5 28.5s40.167 12 57.5 14s35.333 3 54 3c12 0 23.833 -0.833008 35.5 -2.5s20.5 -3.5 26.5 -5.5l8 -2l10 10v10c0 25.333 -4.16699 41.666 -12.5 48.999s-27.5 11 -57.5 11c-13.333 0 -23.5 -0.333008 -30.5 -1
s-14.5 -3.33398 -22.5 -8.00098s-13.667 -11.667 -17 -21l-10 -10h-120l-10 10c0 37.333 17 71.666 51 102.999s87 47 159 47c77.333 0 131.666 -18.667 162.999 -56s47 -95.333 47 -174v-270zM330.001 200.004l-9.99902 10c-13.333 6.66699 -33.333 10 -60 10
c-60 0 -90 -20 -90 -60c0 -33.333 23.333 -50 70 -50c25.333 0 46.666 6.66699 63.999 20s26 30 26 50v20zM330.002 540.004c-22.667 0 -42.834 5.83301 -60.501 17.5s-32.667 23.334 -45 35.001s-23.833 17.5 -34.5 17.5c-20 0 -30 -13.333 -30 -40l-10 -10h-50l-10 10
c0 38.667 10.333 68.334 31 89.001s47 31 79 31c22.667 0 42.834 -5.83301 60.501 -17.5s32.667 -23.334 45 -35.001s23.833 -17.5 34.5 -17.5c20 0 30 13.333 30 40l10 10h50l10 -10c0 -38.667 -10.333 -68.334 -31 -89.001s-47 -31 -79 -31z" />
    <glyph glyph-name="adieresis" unicode="&#xe4;" horiz-adv-x="520" 
d="M470 10l-9.99902 -9.99609h-110l-10 10l-10 20h-10c-2.66699 -2.66699 -7 -6.33398 -13 -11.001s-18.5 -10.667 -37.5 -18s-38.833 -11 -59.5 -11c-55.333 0 -99.166 14.167 -131.499 42.5s-48.5 67.5 -48.5 117.5c0 28.667 5.16699 53.667 15.5 75
s23.166 37.833 38.499 49.5s33.5 21.167 54.5 28.5s40.167 12 57.5 14s35.333 3 54 3c12 0 23.833 -0.833008 35.5 -2.5s20.5 -3.5 26.5 -5.5l8 -2l10 10v10c0 25.333 -4.16699 41.666 -12.5 48.999s-27.5 11 -57.5 11c-13.333 0 -23.5 -0.333008 -30.5 -1
s-14.5 -3.33398 -22.5 -8.00098s-13.667 -11.667 -17 -21l-10 -10h-120l-10 10c0 37.333 17 71.666 51 102.999s87 47 159 47c77.333 0 131.666 -18.667 162.999 -56s47 -95.333 47 -174v-270zM330.001 200.004l-9.99902 10c-13.333 6.66699 -33.333 10 -60 10
c-60 0 -90 -20 -90 -60c0 -33.333 23.333 -50 70 -50c25.333 0 46.666 6.66699 63.999 20s26 30 26 50v20zM430.002 590.004l-10 -10h-110l-10 10v100l10 10h110l10 -10v-100zM220.002 590.004l-10 -10h-110l-10 10v100l10 10h110l10 -10v-100z" />
    <glyph glyph-name="aring" unicode="&#xe5;" horiz-adv-x="520" 
d="M470 10l-9.99902 -9.99609h-110l-10 10l-10 20h-10c-2.66699 -2.66699 -7 -6.33398 -13 -11.001s-18.5 -10.667 -37.5 -18s-38.833 -11 -59.5 -11c-55.333 0 -99.166 14.167 -131.499 42.5s-48.5 67.5 -48.5 117.5c0 28.667 5.16699 53.667 15.5 75
s23.166 37.833 38.499 49.5s33.5 21.167 54.5 28.5s40.167 12 57.5 14s35.333 3 54 3c12 0 23.833 -0.833008 35.5 -2.5s20.5 -3.5 26.5 -5.5l8 -2l10 10v10c0 25.333 -4.16699 41.666 -12.5 48.999s-27.5 11 -57.5 11c-13.333 0 -23.5 -0.333008 -30.5 -1
s-14.5 -3.33398 -22.5 -8.00098s-13.667 -11.667 -17 -21l-10 -10h-120l-10 10c0 37.333 17 71.666 51 102.999s87 47 159 47c77.333 0 131.666 -18.667 162.999 -56s47 -95.333 47 -174v-270zM330.001 200.004l-9.99902 10c-13.333 6.66699 -33.333 10 -60 10
c-60 0 -90 -20 -90 -60c0 -33.333 23.333 -50 70 -50c25.333 0 46.666 6.66699 63.999 20s26 30 26 50v20zM300.002 630.004c0 20 -13.333 30 -40 30s-40 -10 -40 -30s13.333 -30 40 -30s40 10 40 30zM150.002 630.004c0 28.667 10.333 50.834 31 66.501s47 23.5 79 23.5
s58.333 -7.83301 79 -23.5s31 -37.834 31 -66.501s-10.333 -50.834 -31 -66.501s-47 -23.5 -79 -23.5s-58.333 7.83301 -79 23.5s-31 37.834 -31 66.501z" />
    <glyph glyph-name="ae" unicode="&#xe6;" horiz-adv-x="840" 
d="M810 250l-0.00292969 -39.9971l-10 -10h-310l-10 -10c0 -16 8 -33.333 24 -52s41.333 -28 76 -28c36.667 0 60 10 70 30l10 10h120l10 -10c-2.66699 -16.667 -8.16699 -33 -16.5 -49s-20.166 -32 -35.499 -48s-36.666 -28.833 -63.999 -38.5s-58.666 -14.5 -93.999 -14.5
c-38.667 0 -72.667 6.5 -102 19.5s-52 29.833 -68 50.5h-10c-46.667 -46.667 -110 -70 -190 -70c-55.333 0 -99.166 14.167 -131.499 42.5s-48.5 67.5 -48.5 117.5c0 28.667 5.16699 53.667 15.5 75s23.166 37.833 38.499 49.5s33.5 21.167 54.5 28.5s40.167 12 57.5 14
s35.333 3 54 3c12 0 23.833 -0.833008 35.5 -2.5s20.5 -3.5 26.5 -5.5l8 -2l10 10v10c0 25.333 -4.16699 41.666 -12.5 48.999s-27.5 11 -57.5 11c-13.333 0 -23.5 -0.333008 -30.5 -1s-14.5 -3.33398 -22.5 -8.00098s-13.667 -11.667 -17 -21l-10 -10h-120l-10 10
c0 37.333 17 71.666 51 102.999s87 47 159 47c73.333 0 126.666 -16.667 159.999 -50h10c33.333 33.333 80 50 140 50c76.667 0 135.834 -24.833 177.501 -74.5s62.5 -111.5 62.5 -185.5zM329.997 200.003l-9.99902 10c-13.333 6.66699 -33.333 10 -60 10
c-60 0 -90 -20 -90 -60c0 -33.333 23.333 -50 70 -50c25.333 0 46.666 6.66699 63.999 20s26 30 26 50v20zM649.998 300.003l10 10c0 4 -1 9.66699 -3 17s-5.83301 16.166 -11.5 26.499s-15 19 -28 26s-28.833 10.5 -47.5 10.5s-34.5 -3.5 -47.5 -10.5
s-22.333 -15.667 -28 -26s-9.5 -19.166 -11.5 -26.499s-3 -13 -3 -17l10 -10h160z" />
    <glyph glyph-name="ccedilla" unicode="&#xe7;" horiz-adv-x="540" 
d="M220 -100l-10 -0.00195312l-10 10v10l60 60v10c-70 5.33301 -125.833 31.333 -167.5 78s-62.5 107.334 -62.5 182.001c0 79.333 22.833 142.5 68.5 189.5s106.167 70.5 181.5 70.5c59.333 0 110.166 -14.167 152.499 -42.5s68.166 -70.833 77.499 -127.5l-10 -10h-120
l-10 10c-11.333 33.333 -41.333 50 -90 50c-35.333 0 -62.5 -12.167 -81.5 -36.5s-28.5 -58.833 -28.5 -103.5s9.5 -79.167 28.5 -103.5s46.167 -36.5 81.5 -36.5c48.667 0 78.667 16.667 90 50l10 10h120l10 -10c-6 -37.333 -20.333 -68.833 -43 -94.5s-46 -43.667 -70 -54
s-49.667 -17.5 -77 -21.5l-20 -10l-50 -50h10c13.333 6.66699 26.666 10 39.999 10c16.667 0 30.834 -5.83301 42.501 -17.5s17.5 -29.167 17.5 -52.5c0 -24.667 -9.16699 -44.167 -27.5 -58.5s-42.5 -21.5 -72.5 -21.5c-20 0 -36.167 2.83301 -48.5 8.5
s-26.166 16.167 -41.499 31.5v10l10 10h10c6 -6 13 -10.667 21 -14s15 -5.16602 21 -5.49902s15.333 -0.5 28 -0.5c33.333 0 50 13.333 50 40s-16.667 40 -50 40c-13.333 0 -26.666 -3.33301 -39.999 -10z" />
    <glyph glyph-name="egrave" unicode="&#xe8;" horiz-adv-x="540" 
d="M510 250l-0.00488281 -40l-10 -10h-310l-10 -10c0 -16 8 -33.333 24 -52s41.333 -28 76 -28c36.667 0 60 10 70 30l10 10h120l10 -10c-2.66699 -16.667 -8.16699 -33 -16.5 -49s-20.166 -32 -35.499 -48s-36.666 -28.833 -63.999 -38.5s-58.666 -14.5 -93.999 -14.5
c-80.667 0 -142.5 24.667 -185.5 74s-64.5 111.333 -64.5 186c0 74 20.833 135.833 62.5 185.5s100.834 74.5 177.501 74.5s135.834 -24.833 177.501 -74.5s62.5 -111.5 62.5 -185.5zM349.995 300l10 10c0 4 -1 9.66699 -3 17s-5.83301 16.166 -11.5 26.499s-15 19 -28 26
s-28.833 10.5 -47.5 10.5s-34.5 -3.5 -47.5 -10.5s-22.333 -15.667 -28 -26s-9.5 -19.166 -11.5 -26.499s-3 -13 -3 -17l10 -10h160zM359.995 570l-10 -10h-90l-20 10l-110 100v20l10 10h100l20 -10l100 -100v-20z" />
    <glyph glyph-name="eacute" unicode="&#xe9;" horiz-adv-x="540" 
d="M510 250l-0.00488281 -40l-10 -10h-310l-10 -10c0 -16 8 -33.333 24 -52s41.333 -28 76 -28c36.667 0 60 10 70 30l10 10h120l10 -10c-2.66699 -16.667 -8.16699 -33 -16.5 -49s-20.166 -32 -35.499 -48s-36.666 -28.833 -63.999 -38.5s-58.666 -14.5 -93.999 -14.5
c-80.667 0 -142.5 24.667 -185.5 74s-64.5 111.333 -64.5 186c0 74 20.833 135.833 62.5 185.5s100.834 74.5 177.501 74.5s135.834 -24.833 177.501 -74.5s62.5 -111.5 62.5 -185.5zM349.995 300l10 10c0 4 -1 9.66699 -3 17s-5.83301 16.166 -11.5 26.499s-15 19 -28 26
s-28.833 10.5 -47.5 10.5s-34.5 -3.5 -47.5 -10.5s-22.333 -15.667 -28 -26s-9.5 -19.166 -11.5 -26.499s-3 -13 -3 -17l10 -10h160zM409.995 670l-110 -100l-20 -10h-90l-10 10v20l100 100l20 10h100l10 -10v-20z" />
    <glyph glyph-name="ecircumflex" unicode="&#xea;" horiz-adv-x="540" 
d="M510 250l-0.00488281 -40l-10 -10h-310l-10 -10c0 -16 8 -33.333 24 -52s41.333 -28 76 -28c36.667 0 60 10 70 30l10 10h120l10 -10c-2.66699 -16.667 -8.16699 -33 -16.5 -49s-20.166 -32 -35.499 -48s-36.666 -28.833 -63.999 -38.5s-58.666 -14.5 -93.999 -14.5
c-80.667 0 -142.5 24.667 -185.5 74s-64.5 111.333 -64.5 186c0 74 20.833 135.833 62.5 185.5s100.834 74.5 177.501 74.5s135.834 -24.833 177.501 -74.5s62.5 -111.5 62.5 -185.5zM349.995 300l10 10c0 4 -1 9.66699 -3 17s-5.83301 16.166 -11.5 26.499s-15 19 -28 26
s-28.833 10.5 -47.5 10.5s-34.5 -3.5 -47.5 -10.5s-22.333 -15.667 -28 -26s-9.5 -19.166 -11.5 -26.499s-3 -13 -3 -17l10 -10h160zM449.995 570l-10 -10h-80l-20 10l-60 50h-20l-60 -50l-20 -10h-80l-10 10v20l100 100l20 10h120l20 -10l100 -100v-20z" />
    <glyph glyph-name="edieresis" unicode="&#xeb;" horiz-adv-x="540" 
d="M510 250l-0.00488281 -40l-10 -10h-310l-10 -10c0 -16 8 -33.333 24 -52s41.333 -28 76 -28c36.667 0 60 10 70 30l10 10h120l10 -10c-2.66699 -16.667 -8.16699 -33 -16.5 -49s-20.166 -32 -35.499 -48s-36.666 -28.833 -63.999 -38.5s-58.666 -14.5 -93.999 -14.5
c-80.667 0 -142.5 24.667 -185.5 74s-64.5 111.333 -64.5 186c0 74 20.833 135.833 62.5 185.5s100.834 74.5 177.501 74.5s135.834 -24.833 177.501 -74.5s62.5 -111.5 62.5 -185.5zM349.995 300l10 10c0 4 -1 9.66699 -3 17s-5.83301 16.166 -11.5 26.499s-15 19 -28 26
s-28.833 10.5 -47.5 10.5s-34.5 -3.5 -47.5 -10.5s-22.333 -15.667 -28 -26s-9.5 -19.166 -11.5 -26.499s-3 -13 -3 -17l10 -10h160zM439.995 590l-10 -10h-110l-10 10v100l10 10h110l10 -10v-100zM229.995 590l-10 -10h-110l-10 10v100l10 10h110l10 -10v-100z" />
    <glyph glyph-name="igrave" unicode="&#xec;" horiz-adv-x="260" 
d="M200 10l-10 -10h-120l-10 10v480l10 10h120l10 -10v-480zM220 570l-10 -10h-90l-20 10l-110 100v20l10 10h100l20 -10l100 -100v-20z" />
    <glyph glyph-name="iacute" unicode="&#xed;" horiz-adv-x="260" 
d="M200 10l-10 -10h-120l-10 10v480l10 10h120l10 -10v-480zM270 670l-110 -100l-20 -10h-90l-10 10v20l100 100l20 10h100l10 -10v-20z" />
    <glyph glyph-name="icircumflex" unicode="&#xee;" horiz-adv-x="260" 
d="M200 10l-10 -10h-120l-10 10v480l10 10h120l10 -10v-480zM310 570l-10 -10h-80l-20 10l-60 50h-20l-60 -50l-20 -10h-80l-10 10v20l100 100l20 10h120l20 -10l100 -100v-20z" />
    <glyph glyph-name="idieresis" unicode="&#xef;" horiz-adv-x="260" 
d="M200 10l-10 -10h-120l-10 10v480l10 10h120l10 -10v-480zM300 590l-10 -10h-110l-10 10v100l10 10h110l10 -10v-100zM90 590l-10 -10h-110l-10 10v100l10 10h110l10 -10v-100z" />
    <glyph glyph-name="eth" unicode="&#xf0;" horiz-adv-x="560" 
d="M210 700c33.333 0 63.332 -3.33301 89.999 -10h10l20 20l20 10h60l10 -10v-40l-20 -20v-10c45.333 -40.667 78.333 -90.667 99 -150s31 -136 31 -230c0 -85.333 -21.667 -151.666 -65 -198.999s-105 -71 -185 -71c-69.333 0 -126.666 22 -171.999 66s-68 108.667 -68 194
c0 80.667 19.333 144.167 58 190.5s92.667 69.5 162 69.5c24 0 45.167 -3.33301 63.5 -10s30.5 -13.334 36.5 -20.001l10 -10h10c-10 40 -30 70 -60 90h-10l-20 -20l-20 -10h-60l-10 10v40l10 10v10c-20 6.66699 -43.333 10 -70 10l-10 10v10l60 60zM389.999 250
c0 93.333 -36.667 140 -110 140c-30.667 0 -55 -12.333 -73 -37s-27 -59 -27 -103s9 -78.333 27 -103s42.333 -37 73 -37c73.333 0 110 46.667 110 140z" />
    <glyph glyph-name="ntilde" unicode="&#xf1;" 
d="M530 10l-9.99902 -10h-120l-10 10v290c0 60 -26.667 90 -80 90c-73.333 0 -110 -43.333 -110 -130v-250l-10 -10h-120l-10 10v480l10 10h110l10 -10l10 -30h10c33.333 33.333 76.666 50 129.999 50c59.333 0 105.833 -18.167 139.5 -54.5s50.5 -84.833 50.5 -145.5v-300z
M360.001 540c-22.667 0 -42.834 5.83301 -60.501 17.5s-32.667 23.334 -45 35.001s-23.833 17.5 -34.5 17.5c-20 0 -30 -13.333 -30 -40l-10 -10h-50l-10 10c0 38.667 10.333 68.334 31 89.001s47 31 79 31c22.667 0 42.834 -5.83301 60.501 -17.5
s32.667 -23.334 45 -35.001s23.833 -17.5 34.5 -17.5c20 0 30 13.333 30 40l10 10h50l10 -10c0 -38.667 -10.333 -68.334 -31 -89.001s-47 -31 -79 -31z" />
    <glyph glyph-name="ograve" unicode="&#xf2;" horiz-adv-x="560" 
d="M530 250c0 -79.333 -22.833 -142.5 -68.5 -189.5s-106.167 -70.5 -181.5 -70.5s-135.833 23.5 -181.5 70.5s-68.5 110.167 -68.5 189.5s22.833 142.5 68.5 189.5s106.167 70.5 181.5 70.5s135.833 -23.5 181.5 -70.5s68.5 -110.167 68.5 -189.5zM390 250
c0 44.667 -9.5 79.167 -28.5 103.5s-46.167 36.5 -81.5 36.5s-62.5 -12.167 -81.5 -36.5s-28.5 -58.833 -28.5 -103.5s9.5 -79.167 28.5 -103.5s46.167 -36.5 81.5 -36.5s62.5 12.167 81.5 36.5s28.5 58.833 28.5 103.5zM380 570l-10 -10h-90l-20 10l-110 100v20l10 10h100
l20 -10l100 -100v-20z" />
    <glyph glyph-name="oacute" unicode="&#xf3;" horiz-adv-x="560" 
d="M530 250c0 -79.333 -22.833 -142.5 -68.5 -189.5s-106.167 -70.5 -181.5 -70.5s-135.833 23.5 -181.5 70.5s-68.5 110.167 -68.5 189.5s22.833 142.5 68.5 189.5s106.167 70.5 181.5 70.5s135.833 -23.5 181.5 -70.5s68.5 -110.167 68.5 -189.5zM390 250
c0 44.667 -9.5 79.167 -28.5 103.5s-46.167 36.5 -81.5 36.5s-62.5 -12.167 -81.5 -36.5s-28.5 -58.833 -28.5 -103.5s9.5 -79.167 28.5 -103.5s46.167 -36.5 81.5 -36.5s62.5 12.167 81.5 36.5s28.5 58.833 28.5 103.5zM410 670l-110 -100l-20 -10h-90l-10 10v20l100 100
l20 10h100l10 -10v-20z" />
    <glyph glyph-name="ocircumflex" unicode="&#xf4;" horiz-adv-x="560" 
d="M530 250c0 -79.333 -22.833 -142.5 -68.5 -189.5s-106.167 -70.5 -181.5 -70.5s-135.833 23.5 -181.5 70.5s-68.5 110.167 -68.5 189.5s22.833 142.5 68.5 189.5s106.167 70.5 181.5 70.5s135.833 -23.5 181.5 -70.5s68.5 -110.167 68.5 -189.5zM390 250
c0 44.667 -9.5 79.167 -28.5 103.5s-46.167 36.5 -81.5 36.5s-62.5 -12.167 -81.5 -36.5s-28.5 -58.833 -28.5 -103.5s9.5 -79.167 28.5 -103.5s46.167 -36.5 81.5 -36.5s62.5 12.167 81.5 36.5s28.5 58.833 28.5 103.5zM450 570l-10 -10h-80l-20 10l-60 50h-20l-60 -50
l-20 -10h-80l-10 10v20l100 100l20 10h120l20 -10l100 -100v-20z" />
    <glyph glyph-name="otilde" unicode="&#xf5;" horiz-adv-x="560" 
d="M530 250c0 -79.333 -22.833 -142.5 -68.5 -189.5s-106.167 -70.5 -181.5 -70.5s-135.833 23.5 -181.5 70.5s-68.5 110.167 -68.5 189.5s22.833 142.5 68.5 189.5s106.167 70.5 181.5 70.5s135.833 -23.5 181.5 -70.5s68.5 -110.167 68.5 -189.5zM390 250
c0 44.667 -9.5 79.167 -28.5 103.5s-46.167 36.5 -81.5 36.5s-62.5 -12.167 -81.5 -36.5s-28.5 -58.833 -28.5 -103.5s9.5 -79.167 28.5 -103.5s46.167 -36.5 81.5 -36.5s62.5 12.167 81.5 36.5s28.5 58.833 28.5 103.5zM340 540c-22.667 0 -42.834 5.83301 -60.501 17.5
s-32.667 23.334 -45 35.001s-23.833 17.5 -34.5 17.5c-20 0 -30 -13.333 -30 -40l-10 -10h-50l-10 10c0 38.667 10.333 68.334 31 89.001s47 31 79 31c22.667 0 42.834 -5.83301 60.501 -17.5s32.667 -23.334 45 -35.001s23.833 -17.5 34.5 -17.5c20 0 30 13.333 30 40
l10 10h50l10 -10c0 -38.667 -10.333 -68.334 -31 -89.001s-47 -31 -79 -31z" />
    <glyph glyph-name="odieresis" unicode="&#xf6;" horiz-adv-x="560" 
d="M530 250c0 -79.333 -22.833 -142.5 -68.5 -189.5s-106.167 -70.5 -181.5 -70.5s-135.833 23.5 -181.5 70.5s-68.5 110.167 -68.5 189.5s22.833 142.5 68.5 189.5s106.167 70.5 181.5 70.5s135.833 -23.5 181.5 -70.5s68.5 -110.167 68.5 -189.5zM390 250
c0 44.667 -9.5 79.167 -28.5 103.5s-46.167 36.5 -81.5 36.5s-62.5 -12.167 -81.5 -36.5s-28.5 -58.833 -28.5 -103.5s9.5 -79.167 28.5 -103.5s46.167 -36.5 81.5 -36.5s62.5 12.167 81.5 36.5s28.5 58.833 28.5 103.5zM450 590l-10 -10h-110l-10 10v100l10 10h110l10 -10
v-100zM240 590l-10 -10h-110l-10 10v100l10 10h110l10 -10v-100z" />
    <glyph glyph-name="divide" unicode="&#xf7;" horiz-adv-x="600" 
d="M540 190l-10 -10h-460l-10 10v110l10 10h460l10 -10v-110zM380 380l-10 -10h-140l-10 10v100l10 10h140l10 -10v-100zM380 10l-10 -10h-140l-10 10v100l10 10h140l10 -10v-100z" />
    <glyph glyph-name="oslash" unicode="&#xf8;" horiz-adv-x="560" 
d="M530 250c0 -79.333 -22.833 -142.5 -68.5 -189.5s-106.167 -70.5 -181.5 -70.5c-62 0 -115.333 16.667 -160 50h-10l-20 -20l-20 -10h-10l-10 10v50l20 20v10c-26.667 35.333 -40 85.333 -40 150c0 79.333 22.833 142.5 68.5 189.5s106.167 70.5 181.5 70.5
c62 0 115.333 -16.667 160 -50h10l20 20l20 10h10l10 -10v-50l-20 -20v-10c26.667 -35.333 40 -85.333 40 -150zM180 200l169.999 160v10c-13.333 13.333 -36.666 20 -69.999 20c-35.333 0 -62.5 -12.167 -81.5 -36.5s-28.5 -58.833 -28.5 -103.5v-50h10zM379.999 300
l-169.999 -160v-10c13.333 -13.333 36.666 -20 69.999 -20c35.333 0 62.5 12.167 81.5 36.5s28.5 58.833 28.5 103.5v50h-10z" />
    <glyph glyph-name="ugrave" unicode="&#xf9;" horiz-adv-x="570" 
d="M50 490l10.0029 9.99805h120l10 -10v-290c0 -60 26.667 -90 80 -90c33.333 0 58.333 10.833 75 32.5s25 50.834 25 87.501v260l10 10h120l10 -10v-480l-10 -10h-110l-10 10l-10 30h-10c-0.666992 -1.33301 -1.83398 -3.16602 -3.50098 -5.49902
s-5.83398 -6.33301 -12.501 -12s-14.167 -10.667 -22.5 -15s-19.833 -8.33301 -34.5 -12s-30.334 -5.5 -47.001 -5.5c-59.333 0 -105.833 18.167 -139.5 54.5s-50.5 84.833 -50.5 145.5v300zM380.003 569.998l-10 -10h-90l-20 10l-110 100v20l10 10h100l20 -10l100 -100v-20
z" />
    <glyph glyph-name="uacute" unicode="&#xfa;" horiz-adv-x="570" 
d="M50 490l10.0029 9.99805h120l10 -10v-290c0 -60 26.667 -90 80 -90c33.333 0 58.333 10.833 75 32.5s25 50.834 25 87.501v260l10 10h120l10 -10v-480l-10 -10h-110l-10 10l-10 30h-10c-0.666992 -1.33301 -1.83398 -3.16602 -3.50098 -5.49902
s-5.83398 -6.33301 -12.501 -12s-14.167 -10.667 -22.5 -15s-19.833 -8.33301 -34.5 -12s-30.334 -5.5 -47.001 -5.5c-59.333 0 -105.833 18.167 -139.5 54.5s-50.5 84.833 -50.5 145.5v300zM410.003 669.998l-110 -100l-20 -10h-90l-10 10v20l100 100l20 10h100l10 -10v-20
z" />
    <glyph glyph-name="ucircumflex" unicode="&#xfb;" horiz-adv-x="570" 
d="M50 490l10.0029 9.99805h120l10 -10v-290c0 -60 26.667 -90 80 -90c33.333 0 58.333 10.833 75 32.5s25 50.834 25 87.501v260l10 10h120l10 -10v-480l-10 -10h-110l-10 10l-10 30h-10c-0.666992 -1.33301 -1.83398 -3.16602 -3.50098 -5.49902
s-5.83398 -6.33301 -12.501 -12s-14.167 -10.667 -22.5 -15s-19.833 -8.33301 -34.5 -12s-30.334 -5.5 -47.001 -5.5c-59.333 0 -105.833 18.167 -139.5 54.5s-50.5 84.833 -50.5 145.5v300zM460.003 569.998l-10 -10h-80l-20 10l-60 50h-20l-60 -50l-20 -10h-80l-10 10v20
l100 100l20 10h120l20 -10l100 -100v-20z" />
    <glyph glyph-name="udieresis" unicode="&#xfc;" horiz-adv-x="570" 
d="M50 490l10.0029 9.99805h120l10 -10v-290c0 -60 26.667 -90 80 -90c33.333 0 58.333 10.833 75 32.5s25 50.834 25 87.501v260l10 10h120l10 -10v-480l-10 -10h-110l-10 10l-10 30h-10c-0.666992 -1.33301 -1.83398 -3.16602 -3.50098 -5.49902
s-5.83398 -6.33301 -12.501 -12s-14.167 -10.667 -22.5 -15s-19.833 -8.33301 -34.5 -12s-30.334 -5.5 -47.001 -5.5c-59.333 0 -105.833 18.167 -139.5 54.5s-50.5 84.833 -50.5 145.5v300zM450.003 589.998l-10 -10h-110l-10 10v100l10 10h110l10 -10v-100z
M240.003 589.998l-10 -10h-110l-10 10v100l10 10h110l10 -10v-100z" />
    <glyph glyph-name="yacute" unicode="&#xfd;" horiz-adv-x="530" 
d="M500 390l-160 -400.001c-11.333 -28 -22 -50.667 -32 -68s-23.333 -33.666 -40 -48.999s-37 -26.333 -61 -33s-53 -10 -87 -10h-50l-10 10v100l10 10h50c24 0 40.333 2.66699 49 8s15.667 16 21 32v10l-160 390v100l10 10h90l10 -10l120 -340h10l120 340l10 10h90l10 -10
v-100zM400 669.999l-110 -100l-20 -10h-90l-10 10v20l100 100l20 10h100l10 -10v-20z" />
    <glyph glyph-name="thorn" unicode="&#xfe;" horiz-adv-x="600" 
d="M560 250c0 -78 -21.1641 -140.832 -63.4971 -188.499s-94.5 -71.5 -156.5 -71.5c-26.667 0 -50.834 4.16699 -72.501 12.5s-36.834 16.833 -45.501 25.5l-12 12h-10v-230l-10 -10h-120l-10 10v880l10 10h120l10 -10v-230h10c2.66699 4 7.16699 8.66699 13.5 14
s20.666 12.666 42.999 21.999s46.833 14 73.5 14c62 0 114.167 -23.833 156.5 -71.5s63.5 -110.5 63.5 -188.5zM420.003 250.001c0 93.333 -36.667 140 -110 140s-110 -46.667 -110 -140s36.667 -140 110 -140s110 46.667 110 140z" />
    <glyph glyph-name="ydieresis" unicode="&#xff;" horiz-adv-x="530" 
d="M500 390l-160 -400.001c-11.333 -28 -22 -50.667 -32 -68s-23.333 -33.666 -40 -48.999s-37 -26.333 -61 -33s-53 -10 -87 -10h-50l-10 10v100l10 10h50c24 0 40.333 2.66699 49 8s15.667 16 21 32v10l-160 390v100l10 10h90l10 -10l120 -340h10l120 340l10 10h90l10 -10
v-100zM440 589.999l-10 -10h-110l-10 10v100l10 10h110l10 -10v-100zM220 589.999l-10 -10h-110l-10 10v100l10 10h110l10 -10v-100z" />
    <glyph glyph-name="dotlessi" unicode="&#x131;" horiz-adv-x="260" 
d="M200 10l-10 -10h-120l-10 10v480l10 10h120l10 -10v-480z" />
    <glyph glyph-name="Lslash" unicode="&#x141;" horiz-adv-x="570" 
d="M90 120h-10l-40 -30h-30l-10 10v100l80 60l10 20v410l10 10h120l10 -10v-310h10l160 120h30l10 -10v-100l-200 -150l-10 -20v-90l10 -10h310l10 -10v-100l-10 -10h-450l-10 10v110z" />
    <glyph glyph-name="lslash" unicode="&#x142;" horiz-adv-x="250" 
d="M70 210h-10l-40 -30h-30l-10 10v100l80 60l10 20v320l10 10h120l10 -10v-220h10l40 30h30l10 -10v-100l-80 -60l-10 -20v-300l-10 -10h-120l-10 10v200z" />
    <glyph glyph-name="OE" unicode="&#x152;" horiz-adv-x="1030" 
d="M510 10v30.002h-10c-33.333 -33.333 -86.666 -50 -159.999 -50c-88 0 -161.667 29.667 -221 89s-89 149.666 -89 270.999s29.667 211.666 89 270.999s133 89 221 89c73.333 0 126.666 -16.667 159.999 -50h10v30l10 10h440l10 -10v-100l-10 -10h-300l-10 -10v-140l10 -10
h280l10 -10v-100l-10 -10h-280l-10 -10v-160l10 -10h300l10 -10v-100l-10 -10h-440zM510 190.002v320c-21.333 53.333 -74.666 80 -159.999 80c-120 0 -180 -80 -180 -240s60 -240 180 -240c85.333 0 138.666 26.667 159.999 80z" />
    <glyph glyph-name="oe" unicode="&#x153;" horiz-adv-x="890" 
d="M860 250l-0.00390625 -40l-10 -10h-310l-10 -10c0 -16 8 -33.333 24 -52s41.333 -28 76 -28c36.667 0 60 10 70 30l10 10h120l10 -10c-2.66699 -16.667 -8.16699 -33 -16.5 -49s-20.166 -32 -35.499 -48s-36.666 -28.833 -63.999 -38.5s-58.666 -14.5 -93.999 -14.5
c-73.333 0 -130 20 -170 60h-10c-40 -40 -96.667 -60 -170 -60c-75.333 0 -135.833 23.5 -181.5 70.5s-68.5 110.167 -68.5 189.5s22.833 142.5 68.5 189.5s106.167 70.5 181.5 70.5c73.333 0 130 -20 170 -60h10c40 40 93.333 60 160 60
c76.667 0 135.834 -24.833 177.501 -74.5s62.5 -111.5 62.5 -185.5zM389.996 250c0 44.667 -9.5 79.167 -28.5 103.5s-46.167 36.5 -81.5 36.5s-62.5 -12.167 -81.5 -36.5s-28.5 -58.833 -28.5 -103.5s9.5 -79.167 28.5 -103.5s46.167 -36.5 81.5 -36.5
s62.5 12.167 81.5 36.5s28.5 58.833 28.5 103.5zM699.996 300l10 10c0 4 -1 9.66699 -3 17s-5.83301 16.166 -11.5 26.499s-15 19 -28 26s-28.833 10.5 -47.5 10.5s-34.5 -3.5 -47.5 -10.5s-22.333 -15.667 -28 -26s-9.5 -19.166 -11.5 -26.499s-3 -13 -3 -17l10 -10h160z
" />
    <glyph glyph-name="Scaron" unicode="&#x160;" horiz-adv-x="660" 
d="M620 200c0 -60.667 -23.6689 -110.832 -71.002 -150.499s-120.333 -59.5 -219 -59.5c-96 0 -168.333 21.167 -217 63.5s-73 97.833 -73 166.5l10 10h120l10 -10c0 -36.667 12.167 -64.167 36.5 -82.5s65.5 -27.5 123.5 -27.5c93.333 0 140 30 140 90
c0 34.667 -12.167 59.167 -36.5 73.5s-72.166 26.5 -143.499 36.5c-37.333 5.33301 -70.166 12.666 -98.499 21.999s-54.333 21.833 -78 37.5s-41.834 36.167 -54.501 61.5s-19 55 -19 89c0 54.667 22.667 100 68 136s112.666 54 201.999 54
c90.667 0 158.334 -19.167 203.001 -57.5s67 -89.166 67 -152.499l-10 -10h-120l-10 10c0 31.333 -10.167 54.166 -30.5 68.499s-56.833 21.5 -109.5 21.5c-80 0 -120 -23.333 -120 -70c0 -30 12.333 -51.667 37 -65s72.334 -25 143.001 -35
c166.667 -24 250 -97.333 250 -220zM139.998 890.002l10 10h80l20 -10l60 -50h20l60 50l20 10h80l10 -10v-20l-100 -100l-20 -10h-120l-20 10l-100 100v20z" />
    <glyph glyph-name="scaron" unicode="&#x161;" horiz-adv-x="500" 
d="M470 150c0 -44.667 -18.001 -82.4951 -54.001 -113.495s-91.333 -46.5 -166 -46.5c-68.667 0 -122.5 15.667 -161.5 47s-58.5 72.333 -58.5 123l10 10h120l10 -10c0 -18.667 6.66699 -31.667 20 -39s33.333 -11 60 -11c53.333 0 80 13.333 80 40
c0 5.33301 -0.666992 10.166 -2 14.499s-4 8 -8 11l-10 7.5c-2.66699 2 -7.83398 3.83301 -15.501 5.5l-18 4c-4.33301 1 -11.833 2.33301 -22.5 4s-18.667 2.83398 -24 3.50098c-126.667 21.333 -190 74.666 -190 159.999c0 43.333 17.333 79.166 52 107.499
s87.334 42.5 158.001 42.5c62.667 0 113.334 -13 152.001 -39s58 -63 58 -111l-10 -10h-120l-10 10c0 20 -23.333 30 -70 30c-25.333 0 -43.333 -3 -54 -9s-16 -16.333 -16 -31c0 -8 1.83301 -14.5 5.5 -19.5s10.5 -9.16699 20.5 -12.5s18.333 -5.83301 25 -7.5
s18.167 -3.5 34.5 -5.5s27.833 -3.66699 34.5 -5c16.667 -2.66699 30.5 -5.33398 41.5 -8.00098s25.5 -7.66699 43.5 -15s32.5 -15.833 43.5 -25.5s20.667 -23.334 29 -41.001s12.5 -37.834 12.5 -60.501zM69.999 690.005l10 10h80l20 -10l60 -50h20l60 50l20 10h80l10 -10
v-20l-100 -100l-20 -10h-120l-20 10l-100 100v20z" />
    <glyph glyph-name="Ydieresis" unicode="&#x178;" horiz-adv-x="600" 
d="M570 590l-200 -330v-250l-10 -10h-120l-10 10v250l-200 330v100l10 10h70l20 -10l160 -270h20l160 270l20 10h70l10 -10v-100zM470 790l-10 -10h-110l-10 10v100l10 10h110l10 -10v-100zM260 790l-10 -10h-110l-10 10v100l10 10h110l10 -10v-100z" />
    <glyph glyph-name="Zcaron" unicode="&#x17d;" horiz-adv-x="620" 
d="M570 10l-10 -10h-500l-10 10v110l10 20l320 430v10h-310l-10 10v100l10 10h470l10 -10v-110l-10 -20l-320 -430v-10h340l10 -10v-100zM130 890l10 10h80l20 -10l60 -50h20l60 50l20 10h80l10 -10v-20l-100 -100l-20 -10h-120l-20 10l-100 100v20z" />
    <glyph glyph-name="zcaron" unicode="&#x17e;" horiz-adv-x="520" 
d="M480 10l-10 -10h-420l-10 10v110l10 20l230 230v10h-220l-10 10v100l10 10h400l10 -10v-110l-10 -20l-230 -230v-10h240l10 -10v-100zM80 690l10 10h80l20 -10l60 -50h20l60 50l20 10h80l10 -10v-20l-100 -100l-20 -10h-120l-20 10l-100 100v20z" />
    <glyph glyph-name="florin" unicode="&#x192;" horiz-adv-x="620" 
d="M200 30l60 360l-10 10h-80l-10 10v80l10 10h100l10 10c7.33301 41.333 17 75 29 101s27.667 45.333 47 58s38.833 21 58.5 25s44.834 6 75.501 6h60l10 -10v-100l-10 -10h-50c-30 0 -49.5 -4.16699 -58.5 -12.5s-16.167 -27.5 -21.5 -57.5l10 -10h140l10 -10v-80l-10 -10
h-160l-10 -10l-60 -360c-14.667 -87.333 -37.834 -147.5 -69.501 -180.5s-78.5 -49.5 -140.5 -49.5h-60l-10 10v100l10 10h50c26.667 0 45.167 9 55.5 27s18.5 45.667 24.5 83z" />
    <glyph glyph-name="circumflex" unicode="&#x2c6;" horiz-adv-x="500" 
d="M430 570l-10 -10h-80l-20 10l-60 50h-20l-60 -50l-20 -10h-80l-10 10v20l100 100l20 10h120l20 -10l100 -100v-20z" />
    <glyph glyph-name="caron" unicode="&#x2c7;" horiz-adv-x="500" 
d="M70 690l10 10h80l20 -10l60 -50h20l60 50l20 10h80l10 -10v-20l-100 -100l-20 -10h-120l-20 10l-100 100v20z" />
    <glyph glyph-name="uni02C9" unicode="&#x2c9;" horiz-adv-x="500" 
d="M430 580l-10 -10h-340l-10 10v90l10 10h340l10 -10v-90z" />
    <glyph glyph-name="breve" unicode="&#x2d8;" horiz-adv-x="500" 
d="M170 700l10 -10c0 -40 23.333 -60 70 -60s70 20 70 60l10 10h60l10 -10c0 -41.333 -13 -75 -39 -101s-63 -39 -111 -39s-85 13 -111 39s-39 59.667 -39 101l10 10h60z" />
    <glyph glyph-name="dotaccent" unicode="&#x2d9;" horiz-adv-x="500" 
d="M320 590l-10 -10h-120l-10 10v100l10 10h120l10 -10v-100z" />
    <glyph glyph-name="ring" unicode="&#x2da;" horiz-adv-x="500" 
d="M290 630c0 20 -13.333 30 -40 30s-40 -10 -40 -30s13.333 -30 40 -30s40 10 40 30zM140 630c0 28.667 10.333 50.834 31 66.501s47 23.5 79 23.5s58.333 -7.83301 79 -23.5s31 -37.834 31 -66.501s-10.333 -50.834 -31 -66.501s-47 -23.5 -79 -23.5
s-58.333 7.83301 -79 23.5s-31 37.834 -31 66.501z" />
    <glyph glyph-name="ogonek" unicode="&#x2db;" horiz-adv-x="500" 
d="M210 0l120.001 0.000976562c-30.667 -5.33301 -55 -15 -73 -29s-27 -31 -27 -51c0 -26.667 16.667 -40 50 -40c8.66699 0 17.167 0.833008 25.5 2.5s14.5 3.5 18.5 5.5l6 2l10 -10v-60l-10 -10c-13.333 -13.333 -40 -20 -80 -20c-40.667 0 -72.5 9.66699 -95.5 29
s-34.5 46.333 -34.5 81c0 24.667 8.66699 46.167 26 64.5s38.666 30.166 63.999 35.499z" />
    <glyph glyph-name="tilde" unicode="&#x2dc;" horiz-adv-x="500" 
d="M310 540c-22.667 0 -42.834 5.83301 -60.501 17.5s-32.667 23.334 -45 35.001s-23.833 17.5 -34.5 17.5c-20 0 -30 -13.333 -30 -40l-10 -10h-50l-10 10c0 38.667 10.333 68.334 31 89.001s47 31 79 31c22.667 0 42.834 -5.83301 60.501 -17.5s32.667 -23.334 45 -35.001
s23.833 -17.5 34.5 -17.5c20 0 30 13.333 30 40l10 10h50l10 -10c0 -38.667 -10.333 -68.334 -31 -89.001s-47 -31 -79 -31z" />
    <glyph glyph-name="hungarumlaut" unicode="&#x2dd;" horiz-adv-x="500" 
d="M250 670l-110 -100l-20 -10h-90l-10 10v20l100 100l20 10h100l10 -10v-20zM490 670l-110 -100l-20 -10h-90l-10 10v20l100 100l20 10h100l10 -10v-20z" />
    <glyph glyph-name="uni0394" unicode="&#x394;" horiz-adv-x="620" 
d="M40 0l-10 10v100l200 580l10 10h140l10 -10l200 -580v-100l-10 -10h-540zM300 530l-120 -400v-10h260v10l-120 400h-20z" />
    <glyph glyph-name="uni03A9" unicode="&#x3a9;" horiz-adv-x="780" 
d="M190 120v10c-30.667 30.667 -52.5 53.167 -65.5 67.5s-26.5 32.5 -40.5 54.5s-23.167 44.167 -27.5 66.5s-6.5 49.5 -6.5 81.5c0 67.333 16.167 125 48.5 173s73.5 82.833 123.5 104.5s106 32.5 168 32.5s118 -10.833 168 -32.5s91.167 -56.5 123.5 -104.5
s48.5 -105.667 48.5 -173c0 -32 -2.16699 -59.167 -6.5 -81.5s-13.5 -44.5 -27.5 -66.5s-27.5 -40.167 -40.5 -54.5s-34.833 -36.833 -65.5 -67.5v-10h110l10 -10v-100l-10 -10h-250l-10 10v110l10 20c40 40 67.833 69.167 83.5 87.5s29 41 40 68s16.5 58.5 16.5 94.5
c0 70.667 -18.333 121.667 -55 153s-85 47 -145 47c-60.667 0 -109.167 -15.667 -145.5 -47s-54.5 -82.333 -54.5 -153c0 -36 5.5 -67.5 16.5 -94.5s24.333 -49.667 40 -68s43.5 -47.5 83.5 -87.5l10 -20v-110l-10 -10h-250l-10 10v100l10 10h110z" />
    <glyph glyph-name="uni03BC" unicode="&#x3bc;" horiz-adv-x="640" 
d="M420 30h-10c-2 -2.66699 -5.33301 -6.33398 -10 -11.001s-14.667 -10.667 -30 -18s-32 -11 -50 -11s-34.5 3.33301 -49.5 10s-25.5 13.334 -31.5 20.001l-9 10h-10v-220l-10 -10h-120l-10 10v680l10 10h120l10 -10v-250c0 -36.667 8.33301 -65.834 25 -87.501
s41.667 -32.5 75 -32.5s58.333 10.833 75 32.5s25 50.834 25 87.501v250l10 10h120l10 -10v-480l-10 -10h-110l-10 10z" />
    <glyph glyph-name="pi" unicode="&#x3c0;" horiz-adv-x="640" 
d="M580 10l-10 -10h-200l-10 10v360l-10 10h-70l-10 -10v-360l-10 -10h-120l-10 10v360l-10 10h-60l-10 10v100l10 10h520l10 -10v-100l-10 -10h-70l-10 -10v-240l10 -10h60l10 -10v-100z" />
    <glyph glyph-name="endash" unicode="&#x2013;" horiz-adv-x="620" 
d="M560 210l-10 -10h-480l-10 10v100l10 10h480l10 -10v-100z" />
    <glyph glyph-name="emdash" unicode="&#x2014;" horiz-adv-x="1120" 
d="M1060 210l-10 -10h-980l-10 10v100l10 10h980l10 -10v-100z" />
    <glyph glyph-name="quoteleft" unicode="&#x2018;" horiz-adv-x="320" 
d="M70 560l10 30l80 100l20 10h60v-20l-60 -100v-10l10 -10h30l10 -10v-130l-10 -10h-140l-10 10v140z" />
    <glyph glyph-name="quoteright" unicode="&#x2019;" horiz-adv-x="320" 
d="M250 550l-10 -30l-80 -100l-20 -10h-60v20l60 100v10l-10 10h-30l-10 10v130l10 10h140l10 -10v-140z" />
    <glyph glyph-name="quotesinglbase" unicode="&#x201a;" horiz-adv-x="320" 
d="M240 0l-10 -30l-80 -100l-20 -10h-60v20l60 100v10l-10 10h-30l-10 10v130l10 10h140l10 -10v-140z" />
    <glyph glyph-name="quotedblleft" unicode="&#x201c;" horiz-adv-x="560" 
d="M310 560l10 30l80 100l20 10h60v-20l-60 -100v-10l10 -10h30l10 -10v-130l-10 -10h-140l-10 10v140zM70 560l10 30l80 100l20 10h60v-20l-60 -100v-10l10 -10h30l10 -10v-130l-10 -10h-140l-10 10v140z" />
    <glyph glyph-name="quotedblright" unicode="&#x201d;" horiz-adv-x="560" 
d="M250 550l-10 -30l-80 -100l-20 -10h-60v20l60 100v10l-10 10h-30l-10 10v130l10 10h140l10 -10v-140zM490 550l-10 -30l-80 -100l-20 -10h-60v20l60 100v10l-10 10h-30l-10 10v130l10 10h140l10 -10v-140z" />
    <glyph glyph-name="quotedblbase" unicode="&#x201e;" horiz-adv-x="560" 
d="M240 0l-10 -30l-80 -100l-20 -10h-60v20l60 100v10l-10 10h-30l-10 10v130l10 10h140l10 -10v-140zM480 0l-10 -30l-80 -100l-20 -10h-60v20l60 100v10l-10 10h-30l-10 10v130l10 10h140l10 -10v-140z" />
    <glyph glyph-name="dagger" unicode="&#x2020;" horiz-adv-x="620" 
d="M380 -190l-10 -10h-120l-10 10v560l-10 10h-180l-10 10v100l10 10h180l10 10v180l10 10h120l10 -10v-180l10 -10h180l10 -10v-100l-10 -10h-180l-10 -10v-560z" />
    <glyph glyph-name="daggerdbl" unicode="&#x2021;" horiz-adv-x="620" 
d="M240 690l10 10h120l10 -10v-180l10 -10h180l10 -10v-100l-10 -10h-180l-10 -10v-240l10 -10h180l10 -10v-100l-10 -10h-180l-10 -10v-180l-10 -10h-120l-10 10v180l-10 10h-180l-10 10v100l10 10h180l10 10v240l-10 10h-180l-10 10v100l10 10h180l10 10v180z" />
    <glyph glyph-name="bullet" unicode="&#x2022;" horiz-adv-x="470" 
d="M390 260v-10l-150 -150h-10l-150 150v10l150 150h10z" />
    <glyph glyph-name="ellipsis" unicode="&#x2026;" horiz-adv-x="840" 
d="M240 10l-10 -10h-140l-10 10v130l10 10h140l10 -10v-130zM500 10l-10 -10h-140l-10 10v130l10 10h140l10 -10v-130zM760 10l-10 -10h-140l-10 10v130l10 10h140l10 -10v-130z" />
    <glyph glyph-name="perthousand" unicode="&#x2030;" horiz-adv-x="1170" 
d="M220 330c-58 0 -102.5 17.333 -133.5 52s-46.5 80.667 -46.5 138s15.5 103.333 46.5 138s75.5 52 133.5 52s102.5 -17.333 133.5 -52s46.5 -80.667 46.5 -138s-15.5 -103.333 -46.5 -138s-75.5 -52 -133.5 -52zM700 590l-380 -580l-10 -10h-60l-10 10v100l380 580l10 10
h60l10 -10v-100zM170 520c0 -53.333 16.667 -80 50 -80s50 26.667 50 80s-16.667 80 -50 80s-50 -26.667 -50 -80zM770 180c0 53.333 -16.667 80 -50 80s-50 -26.667 -50 -80s16.667 -80 50 -80s50 26.667 50 80zM1000 180c0 53.333 -16.667 80 -50 80s-50 -26.667 -50 -80
s16.667 -80 50 -80s50 26.667 50 80zM1130 180c0 -57.333 -15.5 -103.333 -46.5 -138s-75.5 -52 -133.5 -52c-46.667 0 -83.334 13.333 -110.001 40h-10c-26.667 -26.667 -63.334 -40 -110.001 -40c-58 0 -102.5 17.333 -133.5 52s-46.5 80.667 -46.5 138
s15.5 103.333 46.5 138s75.5 52 133.5 52c46.667 0 83.334 -13.333 110.001 -40h10c26.667 26.667 63.334 40 110.001 40c58 0 102.5 -17.333 133.5 -52s46.5 -80.667 46.5 -138z" />
    <glyph glyph-name="guilsinglleft" unicode="&#x2039;" horiz-adv-x="480" 
d="M400 40l-10 -10h-120l-20 10l-160 160l-10 20v60l10 20l160 160l20 10h120l10 -10v-40l-170 -160v-20l170 -160v-40z" />
    <glyph glyph-name="guilsinglright" unicode="&#x203a;" horiz-adv-x="480" 
d="M90 30l-10 10v40l170 160v20l-170 160v40l10 10h120l20 -10l160 -160l10 -20v-60l-10 -20l-160 -160l-20 -10h-120z" />
    <glyph glyph-name="fraction" unicode="&#x2044;" horiz-adv-x="620" 
d="M540 590l-380 -580l-10 -10h-60l-10 10v100l380 580l10 10h60l10 -10v-100z" />
    <glyph glyph-name="Euro" unicode="&#x20ac;" horiz-adv-x="730" 
d="M430 210l-139.999 -0.00292969l-10 -10c4.66699 -29.333 18.5 -51.666 41.5 -66.999s52.5 -23 88.5 -23c83.333 0 130 30 140 90l10 10h120l10 -10c-5.33301 -65.333 -32.333 -116.666 -81 -153.999s-115 -56 -199 -56c-146.667 0 -240 70 -280 210l-10 10h-90l-10 10v80
l10 10h70l10 10v40l-10 10h-70l-10 10v80l10 10h80l10 10c15.333 75.333 47.5 132.5 96.5 171.5s113.5 58.5 193.5 58.5c80.667 0 145 -17.667 193 -53s77 -87.666 87 -156.999l-10 -10h-120l-10 10c-12 60 -58.667 90 -140 90c-82.667 0 -129.334 -36.667 -140.001 -110
l10 -10h190l10 -10v-80l-10 -10h-210l-10 -10v-40l10 -10h170l10 -10v-80z" />
    <glyph glyph-name="uni2117" unicode="&#x2117;" horiz-adv-x="840" 
d="M500 410c0 20 -10 30 -30 30h-80l-10 -10v-40l10 -10h80c20 0 30 10 30 30zM470 290l-80 -0.00195312l-10 -10v-100l-10 -10h-80l-10 10v340l10 10h180c40.667 0 72.5 -10.167 95.5 -30.5s34.5 -50.166 34.5 -89.499s-11.5 -69.166 -34.5 -89.499
s-54.833 -30.5 -95.5 -30.5zM60 349.998c0 100 35 185 105 255s155 105 255 105s185 -35 255 -105s105 -155 105 -255s-35 -185 -105 -255s-155 -105 -255 -105s-185 35 -255 105s-105 155 -105 255zM170 349.998c0 -76 23.167 -138.333 69.5 -187s106.5 -73 180.5 -73
s134.167 24.333 180.5 73s69.5 111 69.5 187s-23.167 138.333 -69.5 187s-106.5 73 -180.5 73s-134.167 -24.333 -180.5 -73s-69.5 -111 -69.5 -187z" />
    <glyph glyph-name="trademark" unicode="&#x2122;" horiz-adv-x="870" 
d="M20 690l10 10h310l10 -10v-60l-10 -10h-100l-10 -10v-260l-10 -10h-70l-10 10v260l-10 10h-100l-10 10v60zM640 340h-70l-10 10l-60 150h-10v-150l-10 -10h-70l-10 10v340l10 10h90l10 -10l90 -230h10l90 230l10 10h90l10 -10v-340l-10 -10h-70l-10 10v150h-10l-60 -150z
" />
    <glyph glyph-name="Omega" unicode="&#x2126;" horiz-adv-x="780" 
d="M190 120v10c-30.667 30.667 -52.5 53.167 -65.5 67.5s-26.5 32.5 -40.5 54.5s-23.167 44.167 -27.5 66.5s-6.5 49.5 -6.5 81.5c0 67.333 16.167 125 48.5 173s73.5 82.833 123.5 104.5s106 32.5 168 32.5s118 -10.833 168 -32.5s91.167 -56.5 123.5 -104.5
s48.5 -105.667 48.5 -173c0 -32 -2.16699 -59.167 -6.5 -81.5s-13.5 -44.5 -27.5 -66.5s-27.5 -40.167 -40.5 -54.5s-34.833 -36.833 -65.5 -67.5v-10h110l10 -10v-100l-10 -10h-250l-10 10v110l10 20c40 40 67.833 69.167 83.5 87.5s29 41 40 68s16.5 58.5 16.5 94.5
c0 70.667 -18.333 121.667 -55 153s-85 47 -145 47c-60.667 0 -109.167 -15.667 -145.5 -47s-54.5 -82.333 -54.5 -153c0 -36 5.5 -67.5 16.5 -94.5s24.333 -49.667 40 -68s43.5 -47.5 83.5 -87.5l10 -20v-110l-10 -10h-250l-10 10v100l10 10h110z" />
    <glyph glyph-name="arrowleft" unicode="&#x2190;" horiz-adv-x="860" 
d="M330 500h110l10 -10v-10l-170 -170v-10h490l10 -10v-80l-10 -10h-490v-10l170 -170v-10l-10 -10h-110l-20 10l-230 230v20l230 230z" />
    <glyph glyph-name="arrowup" unicode="&#x2191;" horiz-adv-x="660" 
d="M80 340v110l10 20l230 230h20l230 -230l10 -20v-110l-10 -10h-10l-170 170h-10v-490l-10 -10h-80l-10 10v490h-10l-170 -170h-10z" />
    <glyph glyph-name="arrowright" unicode="&#x2192;" horiz-adv-x="860" 
d="M420 500h110l20 -10l230 -230v-20l-230 -230l-20 -10h-110l-10 10v10l170 170v10h-490l-10 10v80l10 10h490v10l-170 170v10z" />
    <glyph glyph-name="arrowdown" unicode="&#x2193;" horiz-adv-x="660" 
d="M80 250v110l10 10h10l170 -170h10v490l10 10h80l10 -10v-490h10l170 170h10l10 -10v-110l-10 -20l-230 -230h-20l-230 230z" />
    <glyph glyph-name="arrowboth" unicode="&#x2194;" horiz-adv-x="1060" 
d="M440 0h-110l-20 10l-230 230v20l230 230l20 10h110l10 -10v-10l-170 -170v-10h500v10l-170 170v10l10 10h110l20 -10l230 -230v-20l-230 -230l-20 -10h-110l-10 10v10l170 170v10h-500v-10l170 -170v-10z" />
    <glyph glyph-name="arrowupdn" unicode="&#x2195;" horiz-adv-x="660" 
d="M580 160v-110l-10 -20l-230 -230h-20l-230 230l-10 20v110l10 10h10l170 -170h10v500h-10l-170 -170h-10l-10 10v110l10 20l230 230h20l230 -230l10 -20v-110l-10 -10h-10l-170 170h-10v-500h10l170 170h10z" />
    <glyph glyph-name="uni2196" unicode="&#x2196;" horiz-adv-x="700" 
d="M160 270l-70 70l-10 20v320l20 20h320l20 -10l70 -70v-10l-10 -10h-230v-10l350 -350v-10l-70 -70h-10l-350 350h-10v-230l-10 -10h-10z" />
    <glyph glyph-name="uni2197" unicode="&#x2197;" horiz-adv-x="700" 
d="M610 340l-70 -70h-10l-10 10v230h-10l-350 -350h-10l-70 70v10l350 350v10h-230l-10 10v10l70 70l20 10h320l20 -20v-320z" />
    <glyph glyph-name="uni2198" unicode="&#x2198;" horiz-adv-x="700" 
d="M90 360l70 70h10l10 -10v-230h10l350 350h10l70 -70v-10l-350 -350v-10h230l10 -10v-10l-70 -70l-20 -10h-320l-20 20v320z" />
    <glyph glyph-name="uni2199" unicode="&#x2199;" horiz-adv-x="700" 
d="M540 430l70 -70l10 -20v-320l-20 -20h-320l-20 10l-70 70v10l10 10h230v10l-350 350v10l70 70h10l350 -350h10v230l10 10h10z" />
    <glyph glyph-name="partialdiff" unicode="&#x2202;" horiz-adv-x="620" 
d="M140 680l9.99902 10c26.667 13.333 63.334 20 110.001 20c106.667 0 183.334 -37.5 230.001 -112.5s70 -187.5 70 -337.5c0 -88 -22.333 -155 -67 -201s-105.667 -69 -183 -69c-69.333 0 -126.666 22 -171.999 66s-68 108.667 -68 194c0 80.667 19.333 144.167 58 190.5
s92.667 69.5 162 69.5c24 0 45.167 -3.33301 63.5 -10s30.5 -13.334 36.5 -20.001l10 -10h10c0 10 -1.83301 21.667 -5.5 35s-10.334 28.5 -20.001 45.5s-25.334 31.167 -47.001 42.5s-47.5 17 -77.5 17c-20.667 0 -40.167 -1.66699 -58.5 -5s-31.5 -6.66602 -39.5 -9.99902
l-12 -5l-10 10v80zM419.999 250c0 93.333 -36.667 140 -110 140c-66.667 0 -100 -46.667 -100 -140c0 -44 9 -78.333 27 -103s42.333 -37 73 -37c73.333 0 110 46.667 110 140z" />
    <glyph glyph-name="Delta" unicode="&#x2206;" horiz-adv-x="620" 
d="M40 0l-10 10v100l200 580l10 10h140l10 -10l200 -580v-100l-10 -10h-540zM300 530l-120 -400v-10h260v10l-120 400h-20z" />
    <glyph glyph-name="product" unicode="&#x220f;" horiz-adv-x="640" 
d="M510 -190l-10 -10h-120l-10 10v760l-10 10h-80l-10 -10v-760l-10 -10h-120l-10 10v760l-10 10h-70l-10 10v100l10 10h540l10 -10v-100l-10 -10h-70l-10 -10v-760z" />
    <glyph glyph-name="summation" unicode="&#x2211;" horiz-adv-x="620" 
d="M570 10l10 -10v-190l-10 -10h-520l-10 10v110l10 20l240 310v10l-240 300l-10 20v110l10 10h510l10 -10v-180l-10 -10h-120l-10 10v60l-10 10h-210v-10l200 -250l10 -20v-90l-10 -20l-200 -260v-10h220l10 10v70l10 10h120z" />
    <glyph glyph-name="minus" unicode="&#x2212;" horiz-adv-x="560" 
d="M500 210l-10 -10h-420l-10 10v100l10 10h420l10 -10v-100z" />
    <glyph glyph-name="uni2215" unicode="&#x2215;" horiz-adv-x="620" 
d="M540 590l-380 -580l-10 -10h-60l-10 10v100l380 580l10 10h60l10 -10v-100z" />
    <glyph glyph-name="uni2219" unicode="&#x2219;" horiz-adv-x="320" 
d="M240 200l-10 -10h-140l-10 10v130l10 10h140l10 -10v-130z" />
    <glyph glyph-name="radical" unicode="&#x221a;" horiz-adv-x="600" 
d="M230 230l140 460l20 10h170l10 -10v-100l-10 -10h-80l-20 -10l-180 -560l-10 -10h-100l-10 10l-120 380v100l10 10h90l10 -10l70 -260h10z" />
    <glyph glyph-name="infinity" unicode="&#x221e;" horiz-adv-x="710" 
d="M360 230h-10c-19.333 -19.333 -35.333 -34.5 -48 -45.5s-30.834 -22.833 -54.501 -35.5s-46.167 -19 -67.5 -19c-40.667 0 -74.167 11.833 -100.5 35.5s-39.5 55.167 -39.5 94.5s13.167 70.833 39.5 94.5s59.833 35.5 100.5 35.5c21.333 0 43.833 -6.33301 67.5 -19
s41.834 -24.5 54.501 -35.5s28.667 -26.167 48 -45.5h10c19.333 19.333 35.333 34.5 48 45.5s30.834 22.833 54.501 35.5s46.167 19 67.5 19c40.667 0 74.167 -11.833 100.5 -35.5s39.5 -55.167 39.5 -94.5s-13.167 -70.833 -39.5 -94.5s-59.833 -35.5 -100.5 -35.5
c-21.333 0 -43.833 6.33301 -67.5 19s-41.834 24.5 -54.501 35.5s-28.667 26.167 -48 45.5zM180 360c-30 0 -54.167 -9.16699 -72.5 -27.5s-27.5 -42.5 -27.5 -72.5s9.16699 -54.167 27.5 -72.5s42.5 -27.5 72.5 -27.5c18.667 0 38 5.33301 58 16s35.667 21 47 31
s26.333 24.333 45 43v20c-18.667 18.667 -33.667 33 -45 43s-27 20.333 -47 31s-39.333 16 -58 16zM530 360c-18.667 0 -38 -5.33301 -58 -16s-35.667 -21 -47 -31s-26.333 -24.333 -45 -43v-20c18.667 -18.667 33.667 -33 45 -43s27 -20.333 47 -31s39.333 -16 58 -16
c30 0 54.167 9.16699 72.5 27.5s27.5 42.5 27.5 72.5s-9.16699 54.167 -27.5 72.5s-42.5 27.5 -72.5 27.5z" />
    <glyph glyph-name="integral" unicode="&#x222b;" horiz-adv-x="660" 
d="M230 10l100 500c14 71.333 37.833 120.833 71.5 148.5s79.834 41.5 138.501 41.5h60l10 -10l-20 -100l-10 -10h-30c-28 0 -47 -4.83301 -57 -14.5s-17.667 -28.167 -23 -55.5l-100 -500c-14.667 -74.667 -38.334 -128.334 -71.001 -161.001s-79 -49 -139 -49h-60l-10 10
l20 100l10 10h30c27.333 0 46 7.33301 56 22s18 37.334 24 68.001z" />
    <glyph glyph-name="approxequal" unicode="&#x2248;" horiz-adv-x="620" 
d="M50 300l-10 10.001c0 53.333 14 96.666 42 129.999s70.667 50 128 50c24.667 0 48.667 -4.66699 72 -14s42 -19.666 56 -30.999s28.5 -21.666 43.5 -30.999s27.833 -14 38.5 -14c26.667 0 40 16.667 40 50l10 10h100l10 -10c0 -52 -15 -95 -45 -129s-71.667 -51 -125 -51
c-24.667 0 -48.667 4.66699 -72 14s-42 19.666 -56 30.999s-28.5 21.666 -43.5 30.999s-27.833 14 -38.5 14c-26.667 0 -40 -16.667 -40 -50l-10 -10h-100zM50 40.001l-10 10.001c0 53.333 14 96.666 42 129.999s70.667 50 128 50c24.667 0 48.667 -4.66699 72 -14
s42 -19.666 56 -30.999s28.5 -21.666 43.5 -30.999s27.833 -14 38.5 -14c26.667 0 40 16.667 40 50l10 10h100l10 -10c0 -52 -15 -95 -45 -129s-71.667 -51 -125 -51c-24.667 0 -48.667 4.66699 -72 14s-42 19.666 -56 30.999s-28.5 21.666 -43.5 30.999
s-27.833 14 -38.5 14c-26.667 0 -40 -16.667 -40 -50l-10 -10h-100z" />
    <glyph glyph-name="notequal" unicode="&#x2260;" 
d="M510 90l-10 -10h-230l-20 -10l-20 -40l-10 -10h-50l-10 10v20l10 20v10h-90l-10 10v100l10 10h130l20 10l40 80v10h-190l-10 10v100l10 10h230l20 10l20 40l10 10h50l10 -10v-20l-10 -20v-10h90l10 -10v-100l-10 -10h-130l-20 -10l-40 -80v-10h190l10 -10v-100z" />
    <glyph glyph-name="lessequal" unicode="&#x2264;" 
d="M510 10l-10 -10h-430l-10 10v100l10 10h430l10 -10v-100zM60 390l10 10l270 100h160l10 -10v-60l-10 -10l-250 -90v-10l250 -80l10 -10v-60l-10 -10h-160l-270 100l-10 10v120z" />
    <glyph glyph-name="greaterequal" unicode="&#x2265;" 
d="M70 0l-10 10v100l10 10h430l10 -10v-100l-10 -10h-430zM500 400l10 -10v-120l-10 -10l-270 -100h-160l-10 10v60l10 10l250 80v10l-250 90l-10 10v60l10 10h160z" />
    <glyph glyph-name="lozenge" unicode="&#x25ca;" horiz-adv-x="600" 
d="M550 410v-120l-180 -280l-10 -10h-120l-10 10l-180 280v120l180 280l10 10h120l10 -10zM180 360v-20l110 -180h10l120 180v20l-120 180h-10z" />
    <glyph glyph-name="nonmarkingreturn" horiz-adv-x="333" 
 />
    <glyph glyph-name="zero.osf" horiz-adv-x="560" 
d="M30 250c0 76 23.167 138.333 69.5 187s106.5 73 180.5 73s134.167 -24.333 180.5 -73s69.5 -111 69.5 -187s-23.167 -138.333 -69.5 -187s-106.5 -73 -180.5 -73s-134.167 24.333 -180.5 73s-69.5 111 -69.5 187zM170 250c0 -41.333 9.83301 -75 29.5 -101
s46.5 -39 80.5 -39s60.833 13 80.5 39s29.5 59.667 29.5 101s-9.83301 75 -29.5 101s-46.5 39 -80.5 39s-60.833 -13 -80.5 -39s-29.5 -59.667 -29.5 -101z" />
    <glyph glyph-name="one.osf" horiz-adv-x="340" 
d="M270 0h-120l-10 10v310h-10l-40 -40h-50l-10 10v100l100 100l20 10h120l10 -10v-480z" />
    <glyph glyph-name="two.osf" horiz-adv-x="540" 
d="M510 10l-10.001 -9.99805h-450l-10 10v100l10 20l200 100c19.333 9.33301 33.333 16.5 42 21.5s18.5 11.667 29.5 20s18.5 17.166 22.5 26.499s6 20 6 32c0 17.333 -6.33301 31.666 -19 42.999s-33 17 -61 17c-60 0 -90 -26.667 -90 -80l-10 -10h-120l-10 10
c0 60 20.833 108.333 62.5 145s97.5 55 167.5 55c69.333 0 123.333 -18.667 162 -56s58 -78.666 58 -123.999s-10.667 -80.333 -32 -105s-50.666 -46.334 -87.999 -65.001l-60 -30v-10h190l10 -10v-100z" />
    <glyph glyph-name="three.osf" horiz-adv-x="540" 
d="M520 30c0 -68 -23.001 -125 -69.001 -171s-109.667 -69 -191 -69c-75.333 0 -134.166 19.833 -176.499 59.5s-63.5 86.5 -63.5 140.5l10 10h120l10 -10c0 -22 8.5 -40.833 25.5 -56.5s41.833 -23.5 74.5 -23.5c38.667 0 68.334 11 89.001 33s31 51 31 87
c0 39.333 -9 69.166 -27 89.499s-42.333 30.5 -73 30.5c-12 0 -23 -1.66699 -33 -5s-17 -6.66602 -21 -9.99902l-6 -5h-50l-10 10v90l140 140v10h-240l-10 10v100l10 10h410l10 -10v-100l-10 -20l-130 -120v-10c47.333 0 89.166 -19.5 125.499 -58.5s54.5 -89.5 54.5 -151.5
z" />
    <glyph glyph-name="four.osf" horiz-adv-x="550" 
d="M490 -190l-10 -10h-120l-10 10v180l-10 10h-310l-10 10v110l10 20l300 350l20 10h130l10 -10v-680zM350 130v200h-10l-170 -200v-10h170z" />
    <glyph glyph-name="five.osf" 
d="M540 50c0 -82 -20.8379 -145.833 -62.5049 -191.5s-104.167 -68.5 -187.5 -68.5c-73.333 0 -130.333 17.833 -171 53.5s-63.667 84.5 -69 146.5l10 10h120l10 -10c4.66699 -29.333 14.834 -50 30.501 -62s38.834 -18 69.501 -18c36.667 0 64.167 9.66699 82.5 29
s27.5 53 27.5 101c0 36.667 -8.33301 65.834 -25 87.501s-41.667 32.5 -75 32.5c-49.333 0 -86 -20 -110 -60l-20 -10l-100 10l-10 10l20 380l10 10h410l10 -10v-100l-10 -10h-280l-10 -10l-10 -140h10c0.666992 1.33301 1.83398 3.16602 3.50098 5.49902
s5.83398 6.33301 12.501 12s14.167 10.667 22.5 15s19.833 8.33301 34.5 12s30.334 5.5 47.001 5.5c64 0 115 -21.667 153 -65s57 -98.333 57 -165z" />
    <glyph glyph-name="six.osf" 
d="M300 590c-23.333 0 -43.001 -5.66699 -59.001 -17s-27.333 -26.333 -34 -45s-11.167 -35.667 -13.5 -51s-3.5 -31 -3.5 -47h10c2 2.66699 5.5 6.33398 10.5 11.001s17.833 10.667 38.5 18s44.334 11 71.001 11c61.333 0 113.333 -21.333 156 -64s64 -98 64 -166
c0 -74.667 -22.333 -135 -67 -181s-102.334 -69 -173.001 -69c-92.667 0 -159.167 29.167 -199.5 87.5s-60.5 149.166 -60.5 272.499c0 114 21.5 202.5 64.5 265.5s108.167 94.5 195.5 94.5c68 0 122 -15.5 162 -46.5s62.667 -72.167 68 -123.5l-10 -10h-120l-10 10
c-5.33301 16.667 -14.666 29.167 -27.999 37.5s-34 12.5 -62 12.5zM399.999 230c0 36.667 -8.33301 65.834 -25 87.501s-41.667 32.5 -75 32.5c-73.333 0 -110 -40 -110 -120s36.667 -120 110 -120c30 0 54.167 11.167 72.5 33.5s27.5 51.166 27.5 86.499z" />
    <glyph glyph-name="seven.osf" horiz-adv-x="520" 
d="M490 380l-280 -570l-10 -10h-80l-10 10v100l230 460v10h-300l-10 10v100l10 10h440l10 -10v-110z" />
    <glyph glyph-name="eight.osf" horiz-adv-x="560" 
d="M170 210c0 -28 9 -51.667 27 -71s45.667 -29 83 -29s65 9.66699 83 29s27 43 27 71c0 30.667 -9.66699 55 -29 73s-46.333 27 -81 27s-61.667 -9 -81 -27s-29 -42.333 -29 -73zM190 510c0 -26 7.8291 -47.5 23.4961 -64.5s37.834 -25.5 66.501 -25.5
s50.834 8.5 66.501 25.5s23.5 38.5 23.5 64.5c0 19.333 -7.16699 37.5 -21.5 54.5s-37.166 25.5 -68.499 25.5s-54.166 -8.5 -68.499 -25.5s-21.5 -35.167 -21.5 -54.5zM29.9961 210c0 40.667 9 74.5 27 101.5s39 46.5 63 58.5v10c-46.667 31.333 -70 78 -70 140
c0 52.667 20.333 97.5 61 134.5s97 55.5 169 55.5s128.333 -18.5 169 -55.5s61 -81.833 61 -134.5c0 -62 -23.333 -108.667 -70 -140v-10c24 -12 45 -31.5 63 -58.5s27 -60.833 27 -101.5c0 -60 -21.667 -111.667 -65 -155s-105 -65 -185 -65s-141.667 21.667 -185 65
s-65 95 -65 155z" />
    <glyph glyph-name="nine.osf" 
d="M280 -90c23.333 0 43 5.66699 59 17s27.333 26.333 34 45s11.167 35.667 13.5 51s3.5 31 3.5 47h-10c-2.66699 -2.66699 -7 -6.33398 -13 -11.001s-19.333 -10.667 -40 -18s-43 -11 -67 -11c-60.667 0 -112.5 22.833 -155.5 68.5s-64.5 102.834 -64.5 171.501
c0 74 22.667 132.5 68 175.5s106 64.5 182 64.5c83.333 0 145.833 -29.667 187.5 -89s62.5 -143 62.5 -251c0 -128.667 -20.167 -224.167 -60.5 -286.5s-106.833 -93.5 -199.5 -93.5c-67.333 0 -119.5 15.333 -156.5 46s-58.167 72 -63.5 124l10 10h120l10 -10
c11.333 -33.333 38 -50 80 -50zM180 270c0 -39.333 9 -69.168 27 -89.501s42.333 -30.5 73 -30.5c73.333 0 110 40 110 120c0 42 -10 72.5 -30 91.5s-46.667 28.5 -80 28.5c-30.667 0 -55 -10.167 -73 -30.5s-27 -50.166 -27 -89.499z" />
    <glyph glyph-name="numbersign.tf" 
d="M520 210l-10 -10h-80l-10 -10l-50 -180l-10 -10h-70l-10 10v100l20 80l-10 10h-80l-10 -10l-50 -180l-10 -10h-70l-10 10v100l20 80l-10 10h-50l-10 10v80l10 10h90l20 90l-10 10h-50l-10 10v80l10 10h80l10 10l50 180l10 10h70l10 -10v-100l-20 -80l10 -10h80l10 10
l50 180l10 10h70l10 -10v-100l-20 -80l10 -10h50l10 -10v-80l-10 -10h-80l-10 -10l-20 -80l10 -10h50l10 -10v-80zM250 390l-20 -80l10 -10h80l10 10l20 80l-10 10h-80z" />
    <glyph glyph-name="dollar.tf" 
d="M560 200c0 -54 -17.1689 -100.167 -51.502 -138.5s-87.166 -62.166 -158.499 -71.499l-10 -10v-60l-10 -10h-80l-10 10v60l-10 10c-72 9.33301 -125 34.166 -159 74.499s-51 92.166 -51 155.499l10 10h120l10 -10c0 -64 23.333 -100.667 70 -110l10 10v180l-10 10
c-133.333 33.333 -200 103.333 -200 210c0 56 19.5 100.333 58.5 133s86.167 51.667 141.5 57l10 10v60l10 10h80l10 -10v-60l10 -10c60.667 -10 107.5 -32.667 140.5 -68s49.5 -82.666 49.5 -141.999l-10 -10h-120l-10 10c0 48.667 -16.667 78.667 -50 90l-10 -10v-150
l10 -10c58.667 -12 108.334 -35.667 149.001 -71s61 -85 61 -149zM419.998 200c0 28 -6 48.668 -18 62.001s-29.333 22.666 -52 27.999l-10 -10v-160l10 -10c46.667 9.33301 70 39.333 70 90zM169.998 520.001c0 -40 20.001 -66.667 60.001 -80l10 10v130l-10 10
c-12.667 0 -25.834 -6 -39.501 -18s-20.5 -29.333 -20.5 -52z" />
    <glyph glyph-name="plus.tf" 
d="M550 200l-10 -10h-170l-10 -10v-170l-10 -10h-100l-10 10v170l-10 10h-170l-10 10v100l10 10h170l10 10v170l10 10h100l10 -10v-170l10 -10h170l10 -10v-100z" />
    <glyph glyph-name="zero.tf" 
d="M30 350c0 124 23.333 215 70 273s110 87 190 87s143.333 -29 190 -87s70 -149 70 -273s-23.333 -215 -70 -273s-110 -87 -190 -87s-143.333 29 -190 87s-70 149 -70 273zM170 350c0 -87.333 9.66699 -149.166 29 -185.499s49.666 -54.5 90.999 -54.5
s71.666 18.167 90.999 54.5s29 98.166 29 185.499s-9.66699 149.166 -29 185.499s-49.666 54.5 -90.999 54.5s-71.666 -18.167 -90.999 -54.5s-29 -98.166 -29 -185.499z" />
    <glyph glyph-name="one.tf" 
d="M40 10v100l10 10h180l10 10v380h-10l-70 -70l-20 -10h-50l-10 10v100l150 150l20 10h120l10 -10v-560l10 -10h150l10 -10v-100l-10 -10h-490z" />
    <glyph glyph-name="two.tf" 
d="M540 10l-10.001 -9.99805h-470l-10 10v110l10 20l180 150c57.333 48 95 85.333 113 112s27 56 27 88c0 30.667 -7.66699 55 -23 73s-37.666 27 -66.999 27c-37.333 0 -63.333 -8.5 -78 -25.5s-22 -41.833 -22 -74.5l-10 -10h-120l-10 10c0 29.333 4.16699 56.5 12.5 81.5
s21.5 48.167 39.5 69.5s43 38.166 75 50.499s69.667 18.5 113 18.5c72 0 128.333 -20.333 169 -61s61 -90.334 61 -149.001c0 -52.667 -12.333 -97.5 -37 -134.5s-69 -82.167 -133 -135.5l-120 -100v-10h300l10 -10v-100z" />
    <glyph glyph-name="three.tf" 
d="M540 230c0 -68 -23.001 -125 -69.001 -171s-109.667 -69 -191 -69c-75.333 0 -134.166 19.833 -176.499 59.5s-63.5 86.5 -63.5 140.5l10 10h120l10 -10c0 -22 8.5 -40.833 25.5 -56.5s41.833 -23.5 74.5 -23.5c38.667 0 68.334 11 89.001 33s31 51 31 87
c0 39.333 -9 69.166 -27 89.499s-42.333 30.5 -73 30.5c-12 0 -23 -1.66699 -33 -5s-17 -6.66602 -21 -9.99902l-6 -5h-50l-10 10v90l140 140v10h-240l-10 10v100l10 10h410l10 -10v-100l-10 -20l-130 -120v-10c47.333 0 89.166 -19.5 125.499 -58.5s54.5 -89.5 54.5 -151.5
z" />
    <glyph glyph-name="four.tf" 
d="M500 10l-10 -10h-120l-10 10v180l-10 10h-310l-10 10v110l10 20l300 350l20 10h130l10 -10v-680zM360 330v200h-10l-170 -200v-10h170z" />
    <glyph glyph-name="five.tf" 
d="M550 250c0 -82 -20.8379 -145.833 -62.5049 -191.5s-104.167 -68.5 -187.5 -68.5c-73.333 0 -130.333 17.833 -171 53.5s-63.667 84.5 -69 146.5l10 10h120l10 -10c4.66699 -29.333 14.834 -50 30.501 -62s38.834 -18 69.501 -18c36.667 0 64.167 9.66699 82.5 29
s27.5 53 27.5 101c0 36.667 -8.33301 65.834 -25 87.501s-41.667 32.5 -75 32.5c-49.333 0 -86 -20 -110 -60l-20 -10l-100 10l-10 10l20 380l10 10h410l10 -10v-100l-10 -10h-280l-10 -10l-10 -140h10c0.666992 1.33301 1.83398 3.16602 3.50098 5.49902
s5.83398 6.33301 12.501 12s14.167 10.667 22.5 15s19.833 8.33301 34.5 12s30.334 5.5 47.001 5.5c64 0 115 -21.667 153 -65s57 -98.333 57 -165z" />
    <glyph glyph-name="six.tf" 
d="M300 590c-23.333 0 -43.001 -5.66699 -59.001 -17s-27.333 -26.333 -34 -45s-11.167 -35.667 -13.5 -51s-3.5 -31 -3.5 -47h10c2 2.66699 5.5 6.33398 10.5 11.001s17.833 10.667 38.5 18s44.334 11 71.001 11c61.333 0 113.333 -21.333 156 -64s64 -98 64 -166
c0 -74.667 -22.333 -135 -67 -181s-102.334 -69 -173.001 -69c-92.667 0 -159.167 29.167 -199.5 87.5s-60.5 149.166 -60.5 272.499c0 114 21.5 202.5 64.5 265.5s108.167 94.5 195.5 94.5c68 0 122 -15.5 162 -46.5s62.667 -72.167 68 -123.5l-10 -10h-120l-10 10
c-5.33301 16.667 -14.666 29.167 -27.999 37.5s-34 12.5 -62 12.5zM399.999 230c0 36.667 -8.33301 65.834 -25 87.501s-41.667 32.5 -75 32.5c-73.333 0 -110 -40 -110 -120s36.667 -120 110 -120c30 0 54.167 11.167 72.5 33.5s27.5 51.166 27.5 86.499z" />
    <glyph glyph-name="seven.tf" 
d="M520 580l-280 -570l-10 -10h-80l-10 10v100l230 460v10h-300l-10 10v100l10 10h440l10 -10v-110z" />
    <glyph glyph-name="eight.tf" 
d="M180 210c0 -28 9 -51.667 27 -71s45.667 -29 83 -29s65 9.66699 83 29s27 43 27 71c0 30.667 -9.66699 55 -29 73s-46.333 27 -81 27s-61.667 -9 -81 -27s-29 -42.333 -29 -73zM200 510c0 -26 7.8291 -47.5 23.4961 -64.5s37.834 -25.5 66.501 -25.5
s50.834 8.5 66.501 25.5s23.5 38.5 23.5 64.5c0 19.333 -7.16699 37.5 -21.5 54.5s-37.166 25.5 -68.499 25.5s-54.166 -8.5 -68.499 -25.5s-21.5 -35.167 -21.5 -54.5zM39.9961 210c0 40.667 9 74.5 27 101.5s39 46.5 63 58.5v10c-46.667 31.333 -70 78 -70 140
c0 52.667 20.333 97.5 61 134.5s97 55.5 169 55.5s128.333 -18.5 169 -55.5s61 -81.833 61 -134.5c0 -62 -23.333 -108.667 -70 -140v-10c24 -12 45 -31.5 63 -58.5s27 -60.833 27 -101.5c0 -60 -21.667 -111.667 -65 -155s-105 -65 -185 -65s-141.667 21.667 -185 65
s-65 95 -65 155z" />
    <glyph glyph-name="nine.tf" 
d="M280 110c23.333 0 43 5.66699 59 17s27.333 26.333 34 45s11.167 35.667 13.5 51s3.5 31 3.5 47h-10c-2.66699 -2.66699 -7 -6.33398 -13 -11.001s-19.333 -10.667 -40 -18s-43 -11 -67 -11c-60.667 0 -112.5 22.833 -155.5 68.5s-64.5 102.834 -64.5 171.501
c0 74 22.667 132.5 68 175.5s106 64.5 182 64.5c83.333 0 145.833 -29.667 187.5 -89s62.5 -143 62.5 -251c0 -128.667 -20.167 -224.167 -60.5 -286.5s-106.833 -93.5 -199.5 -93.5c-67.333 0 -119.5 15.333 -156.5 46s-58.167 72 -63.5 124l10 10h120l10 -10
c11.333 -33.333 38 -50 80 -50zM180 470c0 -39.333 9 -69.168 27 -89.501s42.333 -30.5 73 -30.5c73.333 0 110 40 110 120c0 42 -10 72.5 -30 91.5s-46.667 28.5 -80 28.5c-30.667 0 -55 -10.167 -73 -30.5s-27 -50.166 -27 -89.499z" />
    <glyph glyph-name="less.tf" 
d="M70 290l10 20l360 190h50l10 -10v-90l-10 -20l-250 -120v-20l250 -120l10 -20v-90l-10 -10h-50l-360 190l-10 20v80z" />
    <glyph glyph-name="equal.tf" 
d="M510 310l-10 -10h-420l-10 10v100l10 10h420l10 -10v-100zM510 90l-10 -10h-420l-10 10v100l10 10h420l10 -10v-100z" />
    <glyph glyph-name="greater.tf" 
d="M510 210l-10 -20l-360 -190h-50l-10 10v90l10 20l250 120v20l-250 120l-10 20v90l10 10h50l360 -190l10 -20v-80z" />
    <glyph glyph-name="asciitilde.tf" 
d="M30 170l-10 10.001c0 53.333 14 96.666 42 129.999s70.667 50 128 50c24.667 0 48.667 -4.66699 72 -14s42 -19.666 56 -30.999s28.5 -21.666 43.5 -30.999s27.833 -14 38.5 -14c26.667 0 40 16.667 40 50l10 10h100l10 -10c0 -52 -15 -95 -45 -129s-71.667 -51 -125 -51
c-24.667 0 -48.667 4.66699 -72 14s-42 19.666 -56 30.999s-28.5 21.666 -43.5 30.999s-27.833 14 -38.5 14c-26.667 0 -40 -16.667 -40 -50l-10 -10h-100z" />
    <glyph glyph-name="cent.tf" 
d="M190 250c0 -74.667 23.333 -118 70 -130l10 10v240l-10 10c-46.667 -12 -70 -55.333 -70 -130zM270 -60v40l-10 10c-62.667 10.667 -113.334 38.5 -152.001 83.5s-58 103.833 -58 176.5s19.333 131.5 58 176.5s89.334 72.833 152.001 83.5l10 10v40l10 10h40l10 -10v-40
l10 -10c46.667 -6 88.834 -23.167 126.501 -51.5s58.834 -67.833 63.501 -118.5l-10 -10h-120l-10 10c-8.66699 26.667 -25.334 40 -50.001 40l-10 -10v-240l10 -10c24.667 0 41.334 13.333 50.001 40l10 10h120l10 -10c-4.66699 -50.667 -25.834 -90.167 -63.501 -118.5
s-79.834 -45.5 -126.501 -51.5l-10 -10v-40l-10 -10h-40z" />
    <glyph glyph-name="sterling.tf" 
d="M460 290l-10 -10h-180l-10 -10v-60c0 -40 -13.333 -66.667 -40 -80v-10h330l10 -10v-100l-10 -10h-510l-10 10v100l10 10h10c46.667 0 70 30 70 90v60l-10 10h-60l-10 10v80l10 10h60l10 10v110c0 62.667 18 113.334 54 152.001s88 58 156 58s120 -19.333 156 -58
s54 -89.334 54 -152.001l-10 -10h-120l-10 10c0 60 -23.333 90 -70 90s-70 -30 -70 -90v-110l10 -10h180l10 -10v-80z" />
    <glyph glyph-name="currency.tf" 
d="M510 370c20 -26.667 30 -66.667 30 -120c0 -24 -2.5 -46 -7.5 -66s-9.83301 -34 -14.5 -42l-8 -12v-10l70 -70v-10l-90 -90h-10l-70 70h-10c-26.667 -20 -63.334 -30 -110.001 -30c-20.667 0 -40.167 2.5 -58.5 7.5s-31.5 9.83301 -39.5 14.5l-12 8h-10l-70 -70h-10
l-90 90v10l70 70v10c-20 26.667 -30 66.667 -30 120c0 24 2.5 46 7.5 66s9.83301 34 14.5 42l8 12v10l-70 70v10l90 90h10l70 -70h10c26.667 20 63.334 30 110.001 30c20.667 0 40.167 -2.5 58.5 -7.5s31.5 -9.83301 39.5 -14.5l12 -8h10l70 70h10l90 -90v-10l-70 -70v-10z
M290 110c73.333 0 110 46.667 110 140s-36.667 140 -110 140s-110 -46.667 -110 -140s36.667 -140 110 -140z" />
    <glyph glyph-name="yen.tf" 
d="M360 110v-100l-10 -10h-120l-10 10v100l-10 10h-120l-10 10v80l10 10h120l10 10l-20 40l-20 10h-120l-10 10v80l10 10h80v10l-100 200v100l10 10h70l20 -10l140 -310h20l140 310l20 10h70l10 -10v-100l-100 -200v-10h80l10 -10v-80l-10 -10h-120l-20 -10l-20 -40l10 -10
h120l10 -10v-80l-10 -10h-120z" />
    <glyph glyph-name="section.tf" 
d="M160 280c0 -17.333 3.16699 -31.667 9.5 -43s16.666 -20.333 30.999 -27s28.666 -12 42.999 -16s34.333 -9.16699 60 -15.5s47.834 -12.5 66.501 -18.5h10c26.667 8.66699 40 32 40 70c0 11.333 -2.66699 21.5 -8 30.5s-11.666 16.5 -18.999 22.5
s-18.5 12.167 -33.5 18.5s-28.667 11.333 -41 15l-52.5 16l-56 17.5h-10c-26.667 -8.66699 -40 -32 -40 -70zM470 109.999l-0.000976562 -9.99805c40 -30 60 -73.333 60 -130c0 -56 -19.833 -100 -59.5 -132s-96.5 -48 -170.5 -48c-79.333 0 -142.5 17.167 -189.5 51.5
s-70.5 87.166 -70.5 158.499l10 10h120l10 -10c0 -30.667 9 -53.334 27 -68.001s49 -22 93 -22c60 0 90 23.333 90 70c0 18.667 -9.16699 34.334 -27.5 47.001s-41.166 22.167 -68.499 28.5s-57 15 -89 26s-61.667 23.167 -89 36.5s-50.166 33.833 -68.499 61.5
s-27.5 61.167 -27.5 100.5c0 32 9.16699 58.5 27.5 79.5s39.166 34.5 62.499 40.5v10c-40 30 -60 73.333 -60 130c0 50.667 21.5 91.667 64.5 123s101.5 47 175.5 47c72.667 0 130.834 -18 174.501 -54s65.5 -88 65.5 -156l-10 -10h-120l-10 10
c0 30.667 -8.5 53.334 -25.5 68.001s-45.167 22 -84.5 22c-60 0 -90 -20 -90 -60c0 -18.667 9.16699 -34.667 27.5 -48s41.166 -23.833 68.499 -31.5s57 -17.334 89 -29.001s61.667 -24.334 89 -38.001s50.166 -33.667 68.499 -60s27.5 -57.5 27.5 -93.5
c0 -32 -9.16699 -58.5 -27.5 -79.5s-39.166 -34.5 -62.499 -40.5z" />
    <glyph glyph-name="logicalnot.tf" 
d="M500 90l-10 -10h-100l-10 10v100l-10 10h-300l-10 10v100l10 10h420l10 -10v-220z" />
    <glyph glyph-name="plusminus.tf" 
d="M510 290l-10 -10h-140l-10 -10v-80l-10 -10h-100l-10 10v80l-10 10h-140l-10 10v100l10 10h140l10 10v80l10 10h100l10 -10v-80l10 -10h140l10 -10v-100zM510 10l-10 -10h-420l-10 10v100l10 10h420l10 -10v-100z" />
    <glyph glyph-name="multiply.tf" 
d="M540 80l-70 -70h-10l-160 160h-10l-160 -160h-10l-70 70v10l160 160v10l-160 160v10l70 70h10l160 -160h10l160 160h10l70 -70v-10l-160 -160v-10l160 -160v-10z" />
    <glyph glyph-name="divide.tf" 
d="M530 190l-10 -10h-460l-10 10v110l10 10h460l10 -10v-110zM370 380l-10 -10h-140l-10 10v100l10 10h140l10 -10v-100zM370 10l-10 -10h-140l-10 10v100l10 10h140l10 -10v-100z" />
    <glyph glyph-name="florin.tf" 
d="M170 30l60 360l-10 10h-80l-10 10v80l10 10h100l10 10c7.33301 41.333 17 75 29 101s27.667 45.333 47 58s38.833 21 58.5 25s44.834 6 75.501 6h60l10 -10v-100l-10 -10h-50c-30 0 -49.5 -4.16699 -58.5 -12.5s-16.167 -27.5 -21.5 -57.5l10 -10h140l10 -10v-80l-10 -10
h-160l-10 -10l-60 -360c-14.667 -87.333 -37.834 -147.5 -69.501 -180.5s-78.5 -49.5 -140.5 -49.5h-60l-10 10v100l10 10h50c26.667 0 45.167 9 55.5 27s18.5 45.667 24.5 83z" />
    <glyph glyph-name="Euro.tf" 
d="M230 220l-10.001 -10.001c9.33301 -66.667 46 -100 110 -100c56.667 0 90 30 100 90l10 10h120l10 -10c-5.33301 -65.333 -29.166 -116.666 -71.499 -153.999s-98.5 -56 -168.5 -56c-76 0 -135.333 20.667 -178 62s-66.667 94 -72 158l-10 10h-50l-10 10v80l10 10h50
l10 10v30l-10 10h-50l-10 10v80l10 10h50l10 10c5.33301 70.667 29.833 126.667 73.5 168s102.5 62 176.5 62c140 0 220 -70 240 -210l-10 -10h-120l-10 10c-10 60 -43.333 90 -100 90c-36.667 0 -64.167 -11.167 -82.5 -33.5s-27.5 -47.833 -27.5 -76.5l10 -10h160l10 -10
v-80l-10 -10h-160l-10 -10v-30l10 -10h120l10 -10v-80l-10 -10h-120z" />
    <glyph glyph-name="minus.tf" 
d="M510 210l-10 -10h-420l-10 10v100l10 10h420l10 -10v-100z" />
    <glyph glyph-name="zero.tosf" 
d="M30 250c0 76 23.667 138.333 71 187s110.333 73 189 73s141.667 -24.333 189 -73s71 -111 71 -187s-23.667 -138.333 -71 -187s-110.333 -73 -189 -73s-141.667 24.333 -189 73s-71 111 -71 187zM170 250c0 -44 11 -78.333 33 -103s51 -37 87 -37s65 12.333 87 37
s33 59 33 103s-11 78.333 -33 103s-51 37 -87 37s-65 -12.333 -87 -37s-33 -59 -33 -103z" />
    <glyph glyph-name="one.tosf" 
d="M60 10v100l10 10h170l10 10v180h-10l-50 -50l-20 -10h-50l-10 10v100l130 130l20 10h120l10 -10v-360l10 -10h140l10 -10v-100l-10 -10h-470z" />
    <glyph glyph-name="two.tosf" 
d="M530 10l-10.001 -9.99805h-450l-10 10v100l10 20l200 100c19.333 9.33301 33.333 16.5 42 21.5s18.5 11.667 29.5 20s18.5 17.166 22.5 26.499s6 20 6 32c0 17.333 -6.33301 31.666 -19 42.999s-33 17 -61 17c-60 0 -90 -26.667 -90 -80l-10 -10h-120l-10 10
c0 60 20.833 108.333 62.5 145s97.5 55 167.5 55c69.333 0 123.333 -18.667 162 -56s58 -78.666 58 -123.999s-10.667 -80.333 -32 -105s-50.666 -46.334 -87.999 -65.001l-60 -30v-10h190l10 -10v-100z" />
    <glyph glyph-name="three.tosf" 
d="M540 30c0 -68 -23.001 -125 -69.001 -171s-109.667 -69 -191 -69c-75.333 0 -134.166 19.833 -176.499 59.5s-63.5 86.5 -63.5 140.5l10 10h120l10 -10c0 -22 8.5 -40.833 25.5 -56.5s41.833 -23.5 74.5 -23.5c38.667 0 68.334 11 89.001 33s31 51 31 87
c0 39.333 -9 69.166 -27 89.499s-42.333 30.5 -73 30.5c-12 0 -23 -1.66699 -33 -5s-17 -6.66602 -21 -9.99902l-6 -5h-50l-10 10v90l140 140v10h-240l-10 10v100l10 10h410l10 -10v-100l-10 -20l-130 -120v-10c47.333 0 89.166 -19.5 125.499 -58.5s54.5 -89.5 54.5 -151.5
z" />
    <glyph glyph-name="four.tosf" 
d="M500 -190l-10 -10h-120l-10 10v180l-10 10h-310l-10 10v110l10 20l300 350l20 10h130l10 -10v-680zM360 130v200h-10l-170 -200v-10h170z" />
    <glyph glyph-name="five.tosf" 
d="M540 50c0 -82 -20.8379 -145.833 -62.5049 -191.5s-104.167 -68.5 -187.5 -68.5c-73.333 0 -130.333 17.833 -171 53.5s-63.667 84.5 -69 146.5l10 10h120l10 -10c4.66699 -29.333 14.834 -50 30.501 -62s38.834 -18 69.501 -18c36.667 0 64.167 9.66699 82.5 29
s27.5 53 27.5 101c0 36.667 -8.33301 65.834 -25 87.501s-41.667 32.5 -75 32.5c-49.333 0 -86 -20 -110 -60l-20 -10l-100 10l-10 10l20 380l10 10h410l10 -10v-100l-10 -10h-280l-10 -10l-10 -140h10c0.666992 1.33301 1.83398 3.16602 3.50098 5.49902
s5.83398 6.33301 12.501 12s14.167 10.667 22.5 15s19.833 8.33301 34.5 12s30.334 5.5 47.001 5.5c64 0 115 -21.667 153 -65s57 -98.333 57 -165z" />
    <glyph glyph-name="six.tosf" 
d="M310 590c-23.333 0 -43.001 -5.66699 -59.001 -17s-27.333 -26.333 -34 -45s-11.167 -35.667 -13.5 -51s-3.5 -31 -3.5 -47h10c2 2.66699 5.5 6.33398 10.5 11.001s17.833 10.667 38.5 18s44.334 11 71.001 11c61.333 0 113.333 -21.333 156 -64s64 -98 64 -166
c0 -74.667 -22.333 -135 -67 -181s-102.334 -69 -173.001 -69c-92.667 0 -159.167 29.167 -199.5 87.5s-60.5 149.166 -60.5 272.499c0 114 21.5 202.5 64.5 265.5s108.167 94.5 195.5 94.5c68 0 122 -15.5 162 -46.5s62.667 -72.167 68 -123.5l-10 -10h-120l-10 10
c-5.33301 16.667 -14.666 29.167 -27.999 37.5s-34 12.5 -62 12.5zM409.999 230c0 36.667 -8.33301 65.834 -25 87.501s-41.667 32.5 -75 32.5c-73.333 0 -110 -40 -110 -120s36.667 -120 110 -120c30 0 54.167 11.167 72.5 33.5s27.5 51.166 27.5 86.499z" />
    <glyph glyph-name="seven.tosf" 
d="M520 380l-280 -570l-10 -10h-80l-10 10v100l230 460v10h-300l-10 10v100l10 10h440l10 -10v-110z" />
    <glyph glyph-name="eight.tosf" 
d="M180 210c0 -28 9 -51.667 27 -71s45.667 -29 83 -29s65 9.66699 83 29s27 43 27 71c0 30.667 -9.66699 55 -29 73s-46.333 27 -81 27s-61.667 -9 -81 -27s-29 -42.333 -29 -73zM200 510c0 -26 7.8291 -47.5 23.4961 -64.5s37.834 -25.5 66.501 -25.5
s50.834 8.5 66.501 25.5s23.5 38.5 23.5 64.5c0 19.333 -7.16699 37.5 -21.5 54.5s-37.166 25.5 -68.499 25.5s-54.166 -8.5 -68.499 -25.5s-21.5 -35.167 -21.5 -54.5zM39.9961 210c0 40.667 9 74.5 27 101.5s39 46.5 63 58.5v10c-46.667 31.333 -70 78 -70 140
c0 52.667 20.333 97.5 61 134.5s97 55.5 169 55.5s128.333 -18.5 169 -55.5s61 -81.833 61 -134.5c0 -62 -23.333 -108.667 -70 -140v-10c24 -12 45 -31.5 63 -58.5s27 -60.833 27 -101.5c0 -60 -21.667 -111.667 -65 -155s-105 -65 -185 -65s-141.667 21.667 -185 65
s-65 95 -65 155z" />
    <glyph glyph-name="nine.tosf" 
d="M280 -90c23.333 0 43 5.66699 59 17s27.333 26.333 34 45s11.167 35.667 13.5 51s3.5 31 3.5 47h-10c-2.66699 -2.66699 -7 -6.33398 -13 -11.001s-19.333 -10.667 -40 -18s-43 -11 -67 -11c-60.667 0 -112.5 22.833 -155.5 68.5s-64.5 102.834 -64.5 171.501
c0 74 22.667 132.5 68 175.5s106 64.5 182 64.5c83.333 0 145.833 -29.667 187.5 -89s62.5 -143 62.5 -251c0 -128.667 -20.167 -224.167 -60.5 -286.5s-106.833 -93.5 -199.5 -93.5c-67.333 0 -119.5 15.333 -156.5 46s-58.167 72 -63.5 124l10 10h120l10 -10
c11.333 -33.333 38 -50 80 -50zM180 270c0 -39.333 9 -69.168 27 -89.501s42.333 -30.5 73 -30.5c73.333 0 110 40 110 120c0 42 -10 72.5 -30 91.5s-46.667 28.5 -80 28.5c-30.667 0 -55 -10.167 -73 -30.5s-27 -50.166 -27 -89.499z" />
    <glyph glyph-name="parenleft.case" horiz-adv-x="450" 
d="M80 350c0 40 0.166992 70.001 0.5 90.001s4.16602 43 11.499 69s13.833 44.833 19.5 56.5s19.834 31.667 42.501 60s43 51.5 61 69.5l95 95l20 10h30l10 -10v-100l-60.5 -61c-11.667 -12 -25 -27.667 -40 -47s-24.333 -33.833 -28 -43.5s-8 -25.167 -13 -46.5
s-7.66699 -41.5 -8 -60.5s-0.5 -46.167 -0.5 -81.5s0.166992 -62.5 0.5 -81.5s3 -39.167 8 -60.5s9.33301 -36.833 13 -46.5s13 -24.167 28 -43.5s28.333 -35 40 -47l60.5 -61v-100l-10 -10h-30l-20 10l-94.5 94.5c-18.333 18.333 -38.833 41.666 -61.5 69.999
s-36.834 48.333 -42.501 60s-12.167 30.5 -19.5 56.5s-11.166 49 -11.499 69s-0.5 50 -0.5 90z" />
    <glyph glyph-name="parenright.case" horiz-adv-x="450" 
d="M370 350c0 -40 -0.166992 -70.001 -0.5 -90.001s-4.16602 -43 -11.499 -69s-13.833 -44.833 -19.5 -56.5s-19.834 -31.667 -42.501 -60s-43.167 -51.666 -61.5 -69.999l-94.5 -94.5l-20 -10h-30l-10 10v100l60.5 61c11.667 12 25 27.667 40 47s24.333 33.833 28 43.5
s8 25.167 13 46.5s7.66699 41.5 8 60.5s0.5 46.167 0.5 81.5s-0.166992 62.5 -0.5 81.5s-3 39.167 -8 60.5s-9.33301 36.833 -13 46.5s-13 24.167 -28 43.5s-28.333 35 -40 47l-60.5 61v100l10 10h30l20 -10l95 -95c18 -18 38.333 -41.167 61 -69.5
s36.834 -48.333 42.501 -60s12.167 -30.5 19.5 -56.5s11.166 -49 11.499 -69s0.5 -50 0.5 -90z" />
    <glyph glyph-name="hyphen.case" horiz-adv-x="430" 
d="M370 310l-10 -10h-290l-10 10v100l10 10h290l10 -10v-100z" />
    <glyph glyph-name="at.case" horiz-adv-x="940" 
d="M470 470c-53.333 0 -80 -40 -80 -120s26.667 -120 80 -120s80 40 80 120s-26.667 120 -80 120zM550 530l10 29.9971l10 10h90l10 -10v-300c0 -33.333 13.333 -50 40 -50c20 0 33.333 9.5 40 28.5s10 56.167 10 111.5c0 94 -24.333 169.167 -73 225.5s-121 84.5 -217 84.5
c-90.667 0 -161.667 -30.333 -213 -91s-77 -133.667 -77 -219c0 -89.333 25.5 -163.333 76.5 -222s122.167 -88 213.5 -88c63.333 0 120 10 170 30h20l10 -10v-80c-55.333 -33.333 -122 -50 -200 -50c-123.333 0 -222.5 39.5 -297.5 118.5s-112.5 179.5 -112.5 301.5
c0 124.667 38.167 225.834 114.5 303.501s174.833 116.5 295.5 116.5c125.333 0 225 -37.667 299 -113s111 -177.666 111 -306.999c0 -160 -60 -240 -180 -240c-53.333 0 -93.333 20 -120 60h-10c-2.66699 -4 -7 -8.66699 -13 -14s-19.333 -12.666 -40 -21.999
s-43 -14 -67 -14c-52.667 0 -97.5 20.333 -134.5 61s-55.5 97 -55.5 169c0 74.667 17.667 131.667 53 171s77.666 59 126.999 59c20.667 0 39.334 -4.16699 56.001 -12.5s28 -16.833 34 -25.5l10 -12h10z" />
    <glyph glyph-name="bracketleft.case" horiz-adv-x="410" 
d="M330 -90l-10 -10h-230l-10 10v880l10 10h230l10 -10v-100l-10 -10h-90l-10 -10v-640l10 -10h90l10 -10v-100z" />
    <glyph glyph-name="bracketright.case" horiz-adv-x="410" 
d="M90 -100l-10 10v100l10 10h90l10 10v640l-10 10h-90l-10 10v100l10 10h230l10 -10v-880l-10 -10h-230z" />
    <glyph glyph-name="underscore.case" 
d="M540 10l-10 -10h-480l-10 10v100l10 10h480l10 -10v-100z" />
    <glyph glyph-name="braceleft.case" horiz-adv-x="470" 
d="M240 360v-20.002c46.667 -9.33301 70 -49.333 70 -120v-160c0 -14.667 3 -25 9 -31s16.333 -9 31 -9h30l10 -10v-100l-10 -10h-60c-42 0 -77.5 11.333 -106.5 34s-43.5 61.334 -43.5 116.001v170c0 28.667 -6.66699 49.167 -20 61.5s-33.333 18.5 -60 18.5l-10 10v80
l10 10c26.667 0 46.667 6.16699 60 18.5s20 32.833 20 61.5v170c0 54.667 14.5 93.334 43.5 116.001s64.5 34 106.5 34h60l10 -10v-100l-10 -10h-30c-14.667 0 -25 -3 -31 -9s-9 -16.333 -9 -31v-160c0 -70.667 -23.333 -110.667 -70 -120z" />
    <glyph glyph-name="braceright.case" horiz-adv-x="470" 
d="M230 340v20.002c-46.667 9.33301 -70 49.333 -70 120v160c0 14.667 -3 25 -9 31s-16.333 9 -31 9h-30l-10 10v100l10 10h60c42 0 77.5 -11.333 106.5 -34s43.5 -61.334 43.5 -116.001v-170c0 -28.667 6.66699 -49.167 20 -61.5s33.333 -18.5 60 -18.5l10 -10v-80l-10 -10
c-26.667 0 -46.667 -6.16699 -60 -18.5s-20 -32.833 -20 -61.5v-170c0 -54.667 -14.5 -93.334 -43.5 -116.001s-64.5 -34 -106.5 -34h-60l-10 10v100l10 10h30c14.667 0 25 3 31 9s9 16.333 9 31v160c0 70.667 23.333 110.667 70 120z" />
    <glyph glyph-name="exclamdown.case" horiz-adv-x="400" 
d="M130 230l20 230l10 10h80l10 -10l20 -230v-220l-10 -10h-120l-10 10v220zM120 690l10 10h140l10 -10v-130l-10 -10h-140l-10 10v130z" />
    <glyph glyph-name="guillemotleft.case" horiz-adv-x="790" 
d="M400 140l-10 -10h-120l-20 10l-160 160l-10 20v60l10 20l160 160l20 10h120l10 -10v-40l-170 -160v-20l170 -160v-40zM710 140l-10 -10h-120l-20 10l-160 160l-10 20v60l10 20l160 160l20 10h120l10 -10v-40l-170 -160v-20l170 -160v-40z" />
    <glyph glyph-name="periodcentered.case" horiz-adv-x="320" 
d="M240 290l-10 -10h-140l-10 10v130l10 10h140l10 -10v-130z" />
    <glyph glyph-name="guillemotright.case" horiz-adv-x="790" 
d="M400 130l-10 10v40l170 160v20l-170 160v40l10 10h120l20 -10l160 -160l10 -20v-60l-10 -20l-160 -160l-20 -10h-120zM90 130l-10 10v40l170 160v20l-170 160v40l10 10h120l20 -10l160 -160l10 -20v-60l-10 -20l-160 -160l-20 -10h-120z" />
    <glyph glyph-name="questiondown.case" horiz-adv-x="640" 
d="M80 190c0 41.333 9.66699 75.833 29 103.5s46.333 53.167 81 76.5c29.333 19.333 48.333 35.666 57 48.999s13 30.333 13 51l10 10h120l10 -10c0 -66.667 -30 -120 -90 -160c-32 -21.333 -55 -40.666 -69 -57.999s-21 -38 -21 -62c0 -22 8.5 -40.833 25.5 -56.5
s41.833 -23.5 74.5 -23.5c35.333 0 60.833 8.5 76.5 25.5s23.5 45.167 23.5 84.5l10 10h120l10 -10c0 -69.333 -19.667 -125 -59 -167s-99.666 -63 -180.999 -63c-80.667 0 -140.834 18.5 -180.501 55.5s-59.5 85.167 -59.5 144.5zM250 690l10 10h140l10 -10v-130l-10 -10
h-140l-10 10v130z" />
    <glyph glyph-name="endash.case" horiz-adv-x="620" 
d="M560 310l-10 -10h-480l-10 10v100l10 10h480l10 -10v-100z" />
    <glyph glyph-name="emdash.case" horiz-adv-x="1120" 
d="M1060 310l-10 -10h-980l-10 10v100l10 10h980l10 -10v-100z" />
    <glyph glyph-name="bullet.case" horiz-adv-x="470" 
d="M390 360v-10l-150 -150h-10l-150 150v10l150 150h10z" />
    <glyph glyph-name="guilsinglleft.case" horiz-adv-x="480" 
d="M400 140l-10 -10h-120l-20 10l-160 160l-10 20v60l10 20l160 160l20 10h120l10 -10v-40l-170 -160v-20l170 -160v-40z" />
    <glyph glyph-name="guilsinglright.case" horiz-adv-x="480" 
d="M90 130l-10 10v40l170 160v20l-170 160v40l10 10h120l20 -10l160 -160l10 -20v-60l-10 -20l-160 -160l-20 -10h-120z" />
    <glyph glyph-name="zero.zero" horiz-adv-x="600" 
d="M40 350c0 124 23.333 215 70 273s110 87 190 87s143.333 -29 190 -87s70 -149 70 -273s-23.333 -215 -70 -273s-110 -87 -190 -87s-143.333 29 -190 87s-70 149 -70 273zM180 350l-0.00195312 -50.002h10l190 240v10c-1.33301 2.66699 -3.66602 6.33398 -6.99902 11.001
s-11.833 10.667 -25.5 18s-29.5 11 -47.5 11c-41.333 0 -71.666 -18.167 -90.999 -54.5s-29 -98.166 -29 -185.499zM419.998 349.998l0.00195312 50.002h-10l-190 -240v-10c1.33301 -2.66699 3.66602 -6.33398 6.99902 -11.001s11.833 -10.667 25.5 -18s29.5 -11 47.5 -11
c41.333 0 71.666 18.167 90.999 54.5s29 98.166 29 185.499z" />
    <glyph glyph-name="quotedbl.ss01" horiz-adv-x="340" 
d="M260 400l-10 -10h-10l-10 10v290l10 10h10l10 -10v-290zM110 400l-10 -10h-10l-10 10v290l10 10h10l10 -10v-290z" />
    <glyph glyph-name="numbersign.ss01" horiz-adv-x="600" 
d="M340 20l30 170l-10 10h-180l-10 -10l-30 -180l-10 -10h-10l-10 10v10l30 170l-10 10h-90l-10 10v10l10 10h100l10 10l40 220l-10 10h-90l-10 10v10l10 10h100l10 10l30 180l10 10h10l10 -10v-10l-30 -170l10 -10h180l10 10l30 180l10 10h10l10 -10v-10l-30 -170l10 -10
h90l10 -10v-10l-10 -10h-100l-10 -10l-40 -220l10 -10h90l10 -10v-10l-10 -10h-100l-10 -10l-30 -180l-10 -10h-10l-10 10v10zM230 470l-10 -10l-40 -220l10 -10h180l10 10l40 220l-10 10h-180z" />
    <glyph glyph-name="quotesingle.ss01" horiz-adv-x="190" 
d="M110 400l-10 -10h-10l-10 10v290l10 10h10l10 -10v-290z" />
    <glyph glyph-name="parenleft.ss01" horiz-adv-x="400" 
d="M110 250c0 -43.333 0.166992 -76 0.5 -98s3.83301 -46.667 10.5 -74s12.667 -47 18 -59s18.333 -31.167 39 -57.5s39.334 -48 56.001 -65l86 -86.5v-10h-20l-20 10l-81.5 82c-15.667 16 -33.5 37 -53.5 63s-32.5 45 -37.5 57s-10.667 31.833 -17 59.5
s-9.66602 53 -9.99902 76s-0.5 57.167 -0.5 102.5s0.166992 79.5 0.5 102.5s3.66602 48.333 9.99902 76s12 47.5 17 59.5s17.5 31 37.5 57s37.833 47 53.5 63l81.5 82l20 10h20v-10l-86 -86.5c-16.667 -17 -35.334 -38.667 -56.001 -65s-33.667 -45.5 -39 -57.5
s-11.333 -31.667 -18 -59s-10.167 -52 -10.5 -74s-0.5 -54.667 -0.5 -98z" />
    <glyph glyph-name="parenright.ss01" horiz-adv-x="400" 
d="M290 250c0 43.333 -0.166992 76 -0.5 98s-3.83301 46.667 -10.5 74s-12.667 47 -18 59s-18.333 31.167 -39 57.5s-39.334 48 -56.001 65l-86 86.5v10h20l20 -10l81.5 -82c15.667 -16 33.5 -37 53.5 -63s32.5 -45 37.5 -57s10.667 -31.833 17 -59.5
s9.66602 -53 9.99902 -76s0.5 -57.167 0.5 -102.5s-0.166992 -79.5 -0.5 -102.5s-3.66602 -48.333 -9.99902 -76s-12 -47.5 -17 -59.5s-17.5 -31 -37.5 -57s-37.833 -47 -53.5 -63l-81.5 -82l-20 -10h-20v10l86 86.5c16.667 17 35.334 38.667 56.001 65s33.667 45.5 39 57.5
s11.333 31.667 18 59s10.167 52 10.5 74s0.5 54.667 0.5 98z" />
    <glyph glyph-name="slash.ss01" horiz-adv-x="490" 
d="M450 670l-390 -660l-10 -10h-10v30l390 660l10 10h10v-30z" />
    <glyph glyph-name="bracketleft.ss01" horiz-adv-x="340" 
d="M260 -190l-10 -10h-160l-10 10v880l10 10h160l10 -10v-10l-10 -10h-130l-10 -10v-820l10 -10h130l10 -10v-10z" />
    <glyph glyph-name="backslash.ss01" horiz-adv-x="490" 
d="M430 10l-390 660v30h10l10 -10l390 -660v-30h-10z" />
    <glyph glyph-name="bracketright.ss01" horiz-adv-x="340" 
d="M90 -200l-10 10v10l10 10h130l10 10v820l-10 10h-130l-10 10v10l10 10h160l10 -10v-880l-10 -10h-160z" />
    <glyph glyph-name="underscore.ss01" 
d="M540 -20l-10 -10h-480l-10 10v10l10 10h480l10 -10v-10z" />
    <glyph glyph-name="braceleft.ss01" horiz-adv-x="420" 
d="M150 260v-10c26.667 -8.66699 40 -38.667 40 -90v-230c0 -66.667 33.333 -100 100 -100h40l10 -10v-10l-10 -10h-40c-37.333 0 -68.333 11 -93 33s-37 54.333 -37 97v230c0 29.333 -5.33301 50 -16 62s-28.667 18 -54 18l-10 10v10l10 10c25.333 0 43.333 6 54 18
s16 32.667 16 62v220c0 42.667 12.333 75 37 97s55.667 33 93 33h40l10 -10v-10l-10 -10h-40c-66.667 0 -100 -33.333 -100 -100v-220c0 -51.333 -13.333 -81.333 -40 -90z" />
    <glyph glyph-name="bar.ss01" horiz-adv-x="270" 
d="M150 -190l-10 -10h-10l-10 10v880l10 10h10l10 -10v-880z" />
    <glyph glyph-name="braceright.ss01" horiz-adv-x="420" 
d="M270 250v10c-26.667 8.66699 -40 38.667 -40 90v220c0 66.667 -33.333 100 -100 100h-40l-10 10v10l10 10h40c37.333 0 68.333 -11 93 -33s37 -54.333 37 -97v-220c0 -29.333 5.33301 -50 16 -62s28.667 -18 54 -18l10 -10v-10l-10 -10c-25.333 0 -43.333 -6 -54 -18
s-16 -32.667 -16 -62v-230c0 -42.667 -12.333 -75 -37 -97s-55.667 -33 -93 -33h-40l-10 10v10l10 10h40c66.667 0 100 33.333 100 100v230c0 51.333 13.333 81.333 40 90z" />
    <glyph glyph-name="guillemotleft.ss01" horiz-adv-x="590" 
d="M320 30h-20l-20 10l-200 200v20l200 200l20 10h20v-10l-200 -200v-20l200 -200v-10zM510 30h-20l-20 10l-200 200v20l200 200l20 10h20v-10l-200 -200v-20l200 -200v-10z" />
    <glyph glyph-name="logicalnot.ss01" 
d="M500 100l-10 -10h-10l-10 10v130l-10 10h-390l-10 10v10l10 10h420l10 -10v-160z" />
    <glyph glyph-name="degree.ss01" horiz-adv-x="560" 
d="M80 510c0 54.667 19.667 101.667 59 141s86.333 59 141 59s101.667 -19.667 141 -59s59 -86.333 59 -141s-19.667 -101.667 -59 -141s-86.333 -59 -141 -59s-101.667 19.667 -141 59s-59 86.333 -59 141zM120 510c0 -45.333 15.333 -83.333 46 -114s68.667 -46 114 -46
s83.333 15.333 114 46s46 68.667 46 114s-15.333 83.333 -46 114s-68.667 46 -114 46s-83.333 -15.333 -114 -46s-46 -68.667 -46 -114z" />
    <glyph glyph-name="guillemotright.ss01" horiz-adv-x="590" 
d="M290 30h-20v10l200 200v20l-200 200v10h20l20 -10l200 -200v-20l-200 -200zM100 30h-20v10l200 200v20l-200 200v10h20l20 -10l200 -200v-20l-200 -200z" />
    <glyph glyph-name="endash.ss01" horiz-adv-x="620" 
d="M560 250l-10 -10h-480l-10 10v10l10 10h480l10 -10v-10z" />
    <glyph glyph-name="emdash.ss01" horiz-adv-x="1120" 
d="M1060 250l-10 -10h-980l-10 10v10l10 10h980l10 -10v-10z" />
    <glyph glyph-name="quoteleft.ss01" horiz-adv-x="240" 
d="M70 580l10 30l50 80l10 10h20v-10l-50 -90v-10l10 -10h20l10 -10v-100l-10 -10h-60l-10 10v110z" />
    <glyph glyph-name="quoteright.ss01" horiz-adv-x="240" 
d="M170 580l-10 -30l-50 -80l-10 -10h-20v10l50 90v10l-10 10h-20l-10 10v100l10 10h60l10 -10v-110z" />
    <glyph glyph-name="quotesinglbase.ss01" horiz-adv-x="240" 
d="M160 0l-10 -30l-50 -80l-10 -10h-20v10l50 90v10l-10 10h-20l-10 10v100l10 10h60l10 -10v-110z" />
    <glyph glyph-name="quotedblleft.ss01" horiz-adv-x="400" 
d="M230 580l10 30l50 80l10 10h20v-10l-50 -90v-10l10 -10h20l10 -10v-100l-10 -10h-60l-10 10v110zM70 580l10 30l50 80l10 10h20v-10l-50 -90v-10l10 -10h20l10 -10v-100l-10 -10h-60l-10 10v110z" />
    <glyph glyph-name="quotedblright.ss01" horiz-adv-x="400" 
d="M170 580l-10 -30l-50 -80l-10 -10h-20v10l50 90v10l-10 10h-20l-10 10v100l10 10h60l10 -10v-110zM330 580l-10 -30l-50 -80l-10 -10h-20v10l50 90v10l-10 10h-20l-10 10v100l10 10h60l10 -10v-110z" />
    <glyph glyph-name="quotedblbase.ss01" horiz-adv-x="400" 
d="M160 0l-10 -30l-50 -80l-10 -10h-20v10l50 90v10l-10 10h-20l-10 10v100l10 10h60l10 -10v-110zM320 0l-10 -30l-50 -80l-10 -10h-20v10l50 90v10l-10 10h-20l-10 10v100l10 10h60l10 -10v-110z" />
    <glyph glyph-name="guilsinglleft.ss01" horiz-adv-x="400" 
d="M320 30h-20l-20 10l-200 200v20l200 200l20 10h20v-10l-200 -200v-20l200 -200v-10z" />
    <glyph glyph-name="guilsinglright.ss01" horiz-adv-x="400" 
d="M100 30h-20v10l200 200v20l-200 200v10h20l20 -10l200 -200v-20l-200 -200z" />
    <glyph glyph-name="arrowleft.ss01" horiz-adv-x="860" 
d="M340 0l-20 10l-240 240v10l240 240l20 10h20v-10l-220 -220v-10h630l10 -10v-10l-10 -10h-630v-10l220 -220v-10h-20z" />
    <glyph glyph-name="arrowup.ss01" horiz-adv-x="670" 
d="M580 460l10 -20v-20h-10l-220 220h-10v-630l-10 -10h-10l-10 10v630h-10l-220 -220h-10v20l10 20l240 240h10z" />
    <glyph glyph-name="arrowright.ss01" horiz-adv-x="860" 
d="M540 10l-20 -10h-20v10l220 220v10h-630l-10 10v10l10 10h630v10l-220 220v10h20l20 -10l240 -240v-10z" />
    <glyph glyph-name="arrowdown.ss01" horiz-adv-x="670" 
d="M590 260l-10 -20l-240 -240h-10l-240 240l-10 20v20h10l220 -220h10v630l10 10h10l10 -10v-630h10l220 220h10v-20z" />
    <glyph glyph-name="arrowboth.ss01" horiz-adv-x="1060" 
d="M320 500l20 10h20v-10l-220 -220v-10h780v10l-220 220v10h20l20 -10l240 -240v-10l-240 -240l-20 -10h-20v10l220 220v10h-780v-10l220 -220v-10h-20l-20 10l-240 240v10z" />
    <glyph glyph-name="arrowupdn.ss01" horiz-adv-x="670" 
d="M90 40l-10 20v20h10l220 -220h10v780h-10l-220 -220h-10v20l10 20l240 240h10l240 -240l10 -20v-20h-10l-220 220h-10v-780h10l220 220h10v-20l-10 -20l-240 -240h-10z" />
    <glyph glyph-name="uni2196.ss01" horiz-adv-x="660" 
d="M420 700l20 -10l10 -10v-10h-310v-10l440 -440v-10l-10 -10h-10l-440 440h-10v-310h-10l-10 10l-10 20v330l10 10h330z" />
    <glyph glyph-name="uni2197.ss01" horiz-adv-x="660" 
d="M220 690l20 10h330l10 -10v-330l-10 -20l-10 -10h-10v310h-10l-440 -440h-10l-10 10v10l440 440v10h-310v10z" />
    <glyph glyph-name="uni2198.ss01" horiz-adv-x="660" 
d="M440 10l-20 -10h-330l-10 10v330l10 20l10 10h10v-310h10l440 440h10l10 -10v-10l-440 -440v-10h310v-10z" />
    <glyph glyph-name="uni2199.ss01" horiz-adv-x="660" 
d="M240 0l-20 10l-10 10v10h310v10l-440 440v10l10 10h10l440 -440h10v310h10l10 -10l10 -20v-330l-10 -10h-330z" />
    <glyph glyph-name="a.ss02" horiz-adv-x="590" 
d="M530 10l-9.99707 -10.001h-110l-10 10l-10 30h-10c-0.666992 -1.33301 -1.83398 -3.16602 -3.50098 -5.49902s-5.83398 -6.33301 -12.501 -12s-14.167 -10.667 -22.5 -15s-19.833 -8.33301 -34.5 -12s-30.334 -5.5 -47.001 -5.5c-69.333 0 -125 24.333 -167 73
s-63 111 -63 187s21 138.333 63 187s97.667 73 167 73c26.667 0 50 -4.16699 70 -12.5s33.333 -16.833 40 -25.5l10 -12h10l10 30l10 10h110l10 -10v-480zM170.003 249.999c0 -93.333 36.667 -140 110 -140s110 46.667 110 140s-36.667 140 -110 140s-110 -46.667 -110 -140
z" />
    <glyph glyph-name="agrave.ss02" horiz-adv-x="590" 
d="M380 570l-10 -10h-90l-20 10l-110 100v20l10 10h100l20 -10l100 -100v-20zM530 10l-9.99707 -10.001h-110l-10 10l-10 30h-10c-0.666992 -1.33301 -1.83398 -3.16602 -3.50098 -5.49902s-5.83398 -6.33301 -12.501 -12s-14.167 -10.667 -22.5 -15
s-19.833 -8.33301 -34.5 -12s-30.334 -5.5 -47.001 -5.5c-69.333 0 -125 24.333 -167 73s-63 111 -63 187s21 138.333 63 187s97.667 73 167 73c26.667 0 50 -4.16699 70 -12.5s33.333 -16.833 40 -25.5l10 -12h10l10 30l10 10h110l10 -10v-480zM170.003 249.999
c0 -93.333 36.667 -140 110 -140s110 46.667 110 140s-36.667 140 -110 140s-110 -46.667 -110 -140z" />
    <glyph glyph-name="aacute.ss02" horiz-adv-x="590" 
d="M400 670l-110 -100l-20 -10h-90l-10 10v20l100 100l20 10h100l10 -10v-20zM530 10l-9.99707 -10.001h-110l-10 10l-10 30h-10c-0.666992 -1.33301 -1.83398 -3.16602 -3.50098 -5.49902s-5.83398 -6.33301 -12.501 -12s-14.167 -10.667 -22.5 -15
s-19.833 -8.33301 -34.5 -12s-30.334 -5.5 -47.001 -5.5c-69.333 0 -125 24.333 -167 73s-63 111 -63 187s21 138.333 63 187s97.667 73 167 73c26.667 0 50 -4.16699 70 -12.5s33.333 -16.833 40 -25.5l10 -12h10l10 30l10 10h110l10 -10v-480zM170.003 249.999
c0 -93.333 36.667 -140 110 -140s110 46.667 110 140s-36.667 140 -110 140s-110 -46.667 -110 -140z" />
    <glyph glyph-name="acircumflex.ss02" horiz-adv-x="590" 
d="M460 570l-10 -10h-80l-20 10l-60 50h-20l-60 -50l-20 -10h-80l-10 10v20l100 100l20 10h120l20 -10l100 -100v-20zM530 10l-9.99707 -10.001h-110l-10 10l-10 30h-10c-0.666992 -1.33301 -1.83398 -3.16602 -3.50098 -5.49902s-5.83398 -6.33301 -12.501 -12
s-14.167 -10.667 -22.5 -15s-19.833 -8.33301 -34.5 -12s-30.334 -5.5 -47.001 -5.5c-69.333 0 -125 24.333 -167 73s-63 111 -63 187s21 138.333 63 187s97.667 73 167 73c26.667 0 50 -4.16699 70 -12.5s33.333 -16.833 40 -25.5l10 -12h10l10 30l10 10h110l10 -10v-480z
M170.003 249.999c0 -93.333 36.667 -140 110 -140s110 46.667 110 140s-36.667 140 -110 140s-110 -46.667 -110 -140z" />
    <glyph glyph-name="atilde.ss02" horiz-adv-x="590" 
d="M340 540c-22.667 0 -42.834 5.83301 -60.501 17.5s-32.667 23.334 -45 35.001s-23.833 17.5 -34.5 17.5c-20 0 -30 -13.333 -30 -40l-10 -10h-50l-10 10c0 38.667 10.333 68.334 31 89.001s47 31 79 31c22.667 0 42.834 -5.83301 60.501 -17.5s32.667 -23.334 45 -35.001
s23.833 -17.5 34.5 -17.5c20 0 30 13.333 30 40l10 10h50l10 -10c0 -38.667 -10.333 -68.334 -31 -89.001s-47 -31 -79 -31zM530 10l-9.99707 -10.001h-110l-10 10l-10 30h-10c-0.666992 -1.33301 -1.83398 -3.16602 -3.50098 -5.49902s-5.83398 -6.33301 -12.501 -12
s-14.167 -10.667 -22.5 -15s-19.833 -8.33301 -34.5 -12s-30.334 -5.5 -47.001 -5.5c-69.333 0 -125 24.333 -167 73s-63 111 -63 187s21 138.333 63 187s97.667 73 167 73c26.667 0 50 -4.16699 70 -12.5s33.333 -16.833 40 -25.5l10 -12h10l10 30l10 10h110l10 -10v-480z
M170.003 249.999c0 -93.333 36.667 -140 110 -140s110 46.667 110 140s-36.667 140 -110 140s-110 -46.667 -110 -140z" />
    <glyph glyph-name="adieresis.ss02" horiz-adv-x="590" 
d="M450 590l-10 -10h-110l-10 10v100l10 10h110l10 -10v-100zM240 590l-10 -10h-110l-10 10v100l10 10h110l10 -10v-100zM530 10l-9.99707 -10.001h-110l-10 10l-10 30h-10c-0.666992 -1.33301 -1.83398 -3.16602 -3.50098 -5.49902s-5.83398 -6.33301 -12.501 -12
s-14.167 -10.667 -22.5 -15s-19.833 -8.33301 -34.5 -12s-30.334 -5.5 -47.001 -5.5c-69.333 0 -125 24.333 -167 73s-63 111 -63 187s21 138.333 63 187s97.667 73 167 73c26.667 0 50 -4.16699 70 -12.5s33.333 -16.833 40 -25.5l10 -12h10l10 30l10 10h110l10 -10v-480z
M170.003 249.999c0 -93.333 36.667 -140 110 -140s110 46.667 110 140s-36.667 140 -110 140s-110 -46.667 -110 -140z" />
    <glyph glyph-name="aring.ss02" horiz-adv-x="590" 
d="M320 630c0 20 -13.333 30 -40 30s-40 -10 -40 -30s13.333 -30 40 -30s40 10 40 30zM170 630c0 28.667 10.333 50.834 31 66.501s47 23.5 79 23.5s58.333 -7.83301 79 -23.5s31 -37.834 31 -66.501s-10.333 -50.834 -31 -66.501s-47 -23.5 -79 -23.5
s-58.333 7.83301 -79 23.5s-31 37.834 -31 66.501zM530 10l-9.99707 -10.001h-110l-10 10l-10 30h-10c-0.666992 -1.33301 -1.83398 -3.16602 -3.50098 -5.49902s-5.83398 -6.33301 -12.501 -12s-14.167 -10.667 -22.5 -15s-19.833 -8.33301 -34.5 -12
s-30.334 -5.5 -47.001 -5.5c-69.333 0 -125 24.333 -167 73s-63 111 -63 187s21 138.333 63 187s97.667 73 167 73c26.667 0 50 -4.16699 70 -12.5s33.333 -16.833 40 -25.5l10 -12h10l10 30l10 10h110l10 -10v-480zM170.003 249.999c0 -93.333 36.667 -140 110 -140
s110 46.667 110 140s-36.667 140 -110 140s-110 -46.667 -110 -140z" />
    <glyph glyph-name="parenleft.ss03" horiz-adv-x="420" 
d="M80 350c0 26 0.166992 45.833 0.5 59.5s3.66602 30 9.99902 49s12 33 17 42s17.5 25.167 37.5 48.5s37.833 43 53.5 59l81.5 82l20 10h30l10 -10v-100c-32.667 -32.667 -54.834 -55.334 -66.501 -68.001s-22.834 -28.667 -33.501 -48s-16.667 -36.666 -18 -51.999
s-2 -39.333 -2 -72s0.666992 -56.667 2 -72s7.33301 -32.666 18 -51.999s21.834 -35.333 33.501 -48s33.834 -35.334 66.501 -68.001v-100l-10 -10h-30l-20 10l-81.5 82c-15.667 16 -33.5 35.667 -53.5 59s-32.5 39.5 -37.5 48.5s-10.667 23 -17 42
s-9.66602 35.333 -9.99902 49s-0.5 33.5 -0.5 59.5z" />
    <glyph glyph-name="parenright.ss03" horiz-adv-x="390" 
d="M330 350c0 -26 -0.166992 -45.833 -0.5 -59.5s-3.66602 -30 -9.99902 -49s-12 -33 -17 -42s-17.5 -25.167 -37.5 -48.5s-37.833 -43 -53.5 -59l-81.5 -82l-20 -10h-30l-10 10v100c32.667 32.667 54.834 55.334 66.501 68.001s22.834 28.667 33.501 48
s16.667 36.666 18 51.999s2 39.333 2 72s-0.666992 56.667 -2 72s-7.33301 32.666 -18 51.999s-21.834 35.333 -33.501 48s-33.834 35.334 -66.501 68.001v100l10 10h30l20 -10l81.5 -82c15.667 -16 33.5 -35.667 53.5 -59s32.5 -39.5 37.5 -48.5s10.667 -23 17 -42
s9.66602 -35.333 9.99902 -49s0.5 -33.5 0.5 -59.5z" />
    <glyph glyph-name="bracketleft.ss03" horiz-adv-x="410" 
d="M330 10l-10 -10h-230l-10 10v680l10 10h230l10 -10v-100l-10 -10h-90l-10 -10v-440l10 -10h90l10 -10v-100z" />
    <glyph glyph-name="bracketright.ss03" horiz-adv-x="380" 
d="M60 0l-10 10v100l10 10h90l10 10v440l-10 10h-90l-10 10v100l10 10h230l10 -10v-680l-10 -10h-230z" />
    <glyph glyph-name="braceleft.ss03" horiz-adv-x="470" 
d="M240 360v-20.002c46.667 -9.33301 70 -49.333 70 -120v-60c0 -14.667 3 -25 9 -31s16.333 -9 31 -9h30l10 -10v-100l-10 -10h-60c-42 0 -77.5 11.333 -106.5 34s-43.5 61.334 -43.5 116.001v70c0 28.667 -6.66699 49.167 -20 61.5s-33.333 18.5 -60 18.5l-10 10v80l10 10
c26.667 0 46.667 6.16699 60 18.5s20 32.833 20 61.5v70c0 54.667 14.5 93.334 43.5 116.001s64.5 34 106.5 34h60l10 -10v-100l-10 -10h-30c-14.667 0 -25 -3 -31 -9s-9 -16.333 -9 -31v-60c0 -70.667 -23.333 -110.667 -70 -120z" />
    <glyph glyph-name="braceright.ss03" horiz-adv-x="470" 
d="M230 340v20.002c-46.667 9.33301 -70 49.333 -70 120v60c0 14.667 -3 25 -9 31s-16.333 9 -31 9h-30l-10 10v100l10 10h60c42 0 77.5 -11.333 106.5 -34s43.5 -61.334 43.5 -116.001v-70c0 -28.667 6.66699 -49.167 20 -61.5s33.333 -18.5 60 -18.5l10 -10v-80l-10 -10
c-26.667 0 -46.667 -6.16699 -60 -18.5s-20 -32.833 -20 -61.5v-70c0 -54.667 -14.5 -93.334 -43.5 -116.001s-64.5 -34 -106.5 -34h-60l-10 10v100l10 10h30c14.667 0 25 3 31 9s9 16.333 9 31v60c0 70.667 23.333 110.667 70 120z" />
    <glyph glyph-name="parenleft.ss04" horiz-adv-x="380" 
d="M110 350c0 -28 0.166992 -49.335 0.5 -64.002s3.5 -31.667 9.5 -51s11.333 -33.666 16 -42.999s16.5 -25.333 35.5 -48s36 -41.5 51 -56.5l77.5 -77.5v-10h-20l-20 10l-73 73.5c-14 14.333 -30 32.333 -48 54s-29.167 37.167 -33.5 46.5s-9.5 24 -15.5 44
s-9.16699 37.833 -9.5 53.5s-0.5 38.5 -0.5 68.5s0.166992 52.833 0.5 68.5s3.5 33.5 9.5 53.5s11.167 34.667 15.5 44s15.5 24.833 33.5 46.5s34 39.667 48 54l73 73.5l20 10h20v-10l-77.5 -77.5c-15 -15 -32 -33.833 -51 -56.5s-30.833 -38.667 -35.5 -48
s-10 -23.666 -16 -42.999s-9.16699 -36.333 -9.5 -51s-0.5 -36 -0.5 -64z" />
    <glyph glyph-name="parenright.ss04" horiz-adv-x="380" 
d="M270 350c0 28 -0.166992 49.335 -0.5 64.002s-3.5 31.667 -9.5 51s-11.333 33.666 -16 42.999s-16.5 25.333 -35.5 48s-36 41.5 -51 56.5l-77.5 77.5v10h20l20 -10l73 -73.5c14 -14.333 30 -32.333 48 -54s29.167 -37.167 33.5 -46.5s9.5 -24 15.5 -44
s9.16699 -37.833 9.5 -53.5s0.5 -38.5 0.5 -68.5s-0.166992 -52.833 -0.5 -68.5s-3.5 -33.5 -9.5 -53.5s-11.167 -34.667 -15.5 -44s-15.5 -24.833 -33.5 -46.5s-34 -39.667 -48 -54l-73 -73.5l-20 -10h-20v10l77.5 77.5c15 15 32 33.833 51 56.5s30.833 38.667 35.5 48
s10 23.666 16 42.999s9.16699 36.333 9.5 51s0.5 36 0.5 64z" />
    <glyph glyph-name="bracketleft.ss04" horiz-adv-x="340" 
d="M260 10l-10 -10h-160l-10 10v680l10 10h160l10 -10v-10l-10 -10h-130l-10 -10v-620l10 -10h130l10 -10v-10z" />
    <glyph glyph-name="bracketright.ss04" horiz-adv-x="340" 
d="M90 0l-10 10v10l10 10h130l10 10v620l-10 10h-130l-10 10v10l10 10h160l10 -10v-680l-10 -10h-160z" />
    <glyph glyph-name="braceleft.ss04" horiz-adv-x="420" 
d="M150 360v-10c26.667 -8.66699 40 -38.667 40 -90v-130c0 -66.667 33.333 -100 100 -100h40l10 -10v-10l-10 -10h-40c-37.333 0 -68.333 11 -93 33s-37 54.333 -37 97v130c0 29.333 -5.33301 50 -16 62s-28.667 18 -54 18l-10 10v10l10 10c25.333 0 43.333 6 54 18
s16 32.667 16 62v120c0 42.667 12.333 75 37 97s55.667 33 93 33h40l10 -10v-10l-10 -10h-40c-66.667 0 -100 -33.333 -100 -100v-120c0 -51.333 -13.333 -81.333 -40 -90z" />
    <glyph glyph-name="bar.ss04" horiz-adv-x="270" 
d="M150 10l-10 -10h-10l-10 10v680l10 10h10l10 -10v-680z" />
    <glyph glyph-name="braceright.ss04" horiz-adv-x="420" 
d="M270 350v10c-26.667 8.66699 -40 38.667 -40 90v120c0 66.667 -33.333 100 -100 100h-40l-10 10v10l10 10h40c37.333 0 68.333 -11 93 -33s37 -54.333 37 -97v-120c0 -29.333 5.33301 -50 16 -62s28.667 -18 54 -18l10 -10v-10l-10 -10c-25.333 0 -43.333 -6 -54 -18
s-16 -32.667 -16 -62v-130c0 -42.667 -12.333 -75 -37 -97s-55.667 -33 -93 -33h-40l-10 10v10l10 10h40c66.667 0 100 33.333 100 100v130c0 51.333 13.333 81.333 40 90z" />
    <glyph glyph-name="slash.ss05" horiz-adv-x="740" 
d="M700 590l-580 -580l-20 -10h-50l-10 10v100l580 580l20 10h50l10 -10v-100z" />
    <glyph glyph-name="backslash.ss05" horiz-adv-x="740" 
d="M620 10l-580 580v100l10 10h50l20 -10l580 -580v-100l-10 -10h-50z" />
    <glyph glyph-name="slash.ss06" horiz-adv-x="780" 
d="M740 680l-670 -670l-20 -10h-10v20l670 670l20 10h10v-20z" />
    <glyph glyph-name="backslash.ss06" horiz-adv-x="780" 
d="M710 10l-670 670v20h10l20 -10l670 -670v-20h-10z" />
    <glyph glyph-name="emdash.ss07" horiz-adv-x="1620" 
d="M1560 210l-10 -10h-1480l-10 10v100l10 10h1480l10 -10v-100z" />
    <glyph glyph-name="emdash.ss08" horiz-adv-x="1620" 
d="M1560 250l-10 -10h-1480l-10 10v10l10 10h1480l10 -10v-10z" />
    <glyph glyph-name="ampersand.ss09" horiz-adv-x="700" 
d="M540 530l-9.99805 -10.001h-120l-10 10c0 17.333 -6.33301 31.666 -19 42.999s-33 17 -61 17c-53.333 0 -80 -23.333 -80 -70s26.667 -70 80 -70h50l10 -10v-100l-10 -10h-40c-34.667 0 -61.667 -9.66699 -81 -29s-29 -46.333 -29 -81
c0 -32.667 8.83301 -59.167 26.5 -79.5s45.5 -30.5 83.5 -30.5c73.333 0 110 40 110 120v210l10 10h180l10 -10v-100l-10 -10h-40l-10 -10v-90c0 -69.333 -21.333 -126.666 -64 -171.999s-104.667 -68 -186 -68c-78 0 -139.167 21.5 -183.5 64.5s-66.5 98.167 -66.5 165.5
c0 36.667 6.66699 68.167 20 94.5s26.666 44.333 39.999 54s26.666 16.834 39.999 21.501v10c-19.333 6.66699 -37.5 21 -54.5 43s-25.5 51 -25.5 87c0 54.667 20.333 98.334 61 131.001s93.667 49 159 49s118.333 -16.333 159 -49s61 -76.334 61 -131.001z" />
    <glyph glyph-name="one.ss10" horiz-adv-x="360" 
d="M280 10l-10 -10h-120l-10 10v480l-10 10h-80l-10 10v90l90 90l20 10h120l10 -10v-680z" />
    <glyph glyph-name="orn001" horiz-adv-x="660" 
d="M580 -190l-10 -10h-480l-10 10v880l10 10h480l10 -10v-880zM200 570v-640l10 -10h240l10 10v640l-10 10h-240z" />
    <glyph glyph-name="orn002" horiz-adv-x="660" 
d="M580 -190l-10 -10h-480l-10 10v880l10 10h480l10 -10v-880z" />
    <glyph glyph-name="orn003" horiz-adv-x="660" 
d="M580 10l-10 -10h-480l-10 10v680l10 10h480l10 -10v-680zM200 570v-440l10 -10h240l10 10v440l-10 10h-240z" />
    <glyph glyph-name="orn004" horiz-adv-x="660" 
d="M580 10l-10 -10h-480l-10 10v680l10 10h480l10 -10v-680z" />
    <glyph glyph-name="orn005" horiz-adv-x="660" 
d="M580 10l-10 -10h-480l-10 10v480l10 10h480l10 -10v-480zM200 370v-240l10 -10h240l10 10v240l-10 10h-240z" />
    <glyph glyph-name="orn006" horiz-adv-x="660" 
d="M580 10l-10 -10h-480l-10 10v480l10 10h480l10 -10v-480z" />
    <glyph glyph-name="orn007" horiz-adv-x="660" 
d="M580 -190l-10 -10h-480l-10 10v880l10 10h480l10 -10v-880zM110 660v-820l10 -10h420l10 10v820l-10 10h-420z" />
    <glyph glyph-name="orn008" horiz-adv-x="660" 
d="M580 10l-10 -10h-480l-10 10v680l10 10h480l10 -10v-680zM110 660v-620l10 -10h420l10 10v620l-10 10h-420z" />
    <glyph glyph-name="orn009" horiz-adv-x="660" 
d="M580 10l-10 -10h-480l-10 10v480l10 10h480l10 -10v-480zM110 460v-420l10 -10h420l10 10v420l-10 10h-420z" />
    <glyph glyph-name="orn010" horiz-adv-x="660" 
d="M580 -190l-10 -10h-480l-10 10v880l10 10h480l10 -10v-880zM540 -140h10v780h-10l-190 -380v-20zM120 640h-10v-780h10l190 380v20zM140 670v-10l180 -360h20l180 360v10h-380zM520 -160l-180 360h-20l-180 -360v-10h380v10z" />
    <glyph glyph-name="orn011" horiz-adv-x="660" 
d="M580 10l-10 -10h-480l-10 10v680l10 10h480l10 -10v-680zM360 330l180 -270h10v580h-10l-180 -270v-40zM120 640h-10v-580h10l180 270v40zM340 390l180 270v10h-380v-10l180 -270h20zM140 40v-10h380v10l-180 270h-20z" />
    <glyph glyph-name="orn012" horiz-adv-x="660" 
d="M580 10l-10 -10h-480l-10 10v480l10 10h480l10 -10v-480zM360 240l180 -180h10v380h-10l-180 -180v-20zM120 440h-10v-380h10l180 180v20zM340 280l180 180v10h-380v-10l180 -180h20zM140 40v-10h380v10l-180 180h-20z" />
    <glyph glyph-name="orn013" horiz-adv-x="660" 
d="M80 10l10 -10h-10v10zM100 0l-20 20v10l30 -30h-10zM120 0l-40 40v10l50 -50h-10zM140 0l-60 60v10l70 -70h-10zM160 0l-80 80v10l90 -90h-10zM180 0l-100 100v10l110 -110h-10zM200 0l-120 120v10l130 -130h-10zM220 0l-140 140v10l150 -150h-10zM240 0l-160 160v10
l170 -170h-10zM260 0l-180 180v10l190 -190h-10zM280 0l-200 200v10l210 -210h-10zM300 0l-220 220v10l230 -230h-10zM320 0l-240 240v10l250 -250h-10zM340 0l-260 260v10l270 -270h-10zM360 0l-280 280v10l290 -290h-10zM380 0l-300 300v10l310 -310h-10zM400 0l-320 320
v10l330 -330h-10zM420 0l-340 340v10l350 -350h-10zM440 0l-360 360v10l370 -370h-10zM460 0l-380 380v10l390 -390h-10zM480 0l-400 400v10l410 -410h-10zM500 0l-420 420v10l430 -430h-10zM520 0l-440 440v10l450 -450h-10zM540 0l-460 460v10l470 -470h-10zM560 0
l-480 480v10l490 -490h-10zM580 0l-500 500v10l500 -500v-10zM580 20l-500 500v10l500 -500v-10zM580 40l-500 500v10l500 -500v-10zM580 60l-500 500v10l500 -500v-10zM580 80l-500 500v10l500 -500v-10zM580 100l-500 500v10l500 -500v-10zM580 120l-500 500v10l500 -500
v-10zM580 140l-500 500v10l500 -500v-10zM580 160l-500 500v10l500 -500v-10zM580 180l-500 500v10l500 -500v-10zM580 200l-500 500h10l490 -490v-10zM570 700l10 -10v-10l-20 20h10zM550 700l30 -30v-10l-40 40h10zM530 700l50 -50v-10l-60 60h10zM510 700l70 -70v-10
l-80 80h10zM490 700l90 -90v-10l-100 100h10zM470 700l110 -110v-10l-120 120h10zM450 700l130 -130v-10l-140 140h10zM430 700l150 -150v-10l-160 160h10zM410 700l170 -170v-10l-180 180h10zM390 700l190 -190v-10l-200 200h10zM370 700l210 -210v-10l-220 220h10z
M350 700l230 -230v-10l-240 240h10zM330 700l250 -250v-10l-260 260h10zM310 700l270 -270v-10l-280 280h10zM290 700l290 -290v-10l-300 300h10zM270 700l310 -310v-10l-320 320h10zM250 700l330 -330v-10l-340 340h10zM230 700l350 -350v-10l-360 360h10zM210 700
l370 -370v-10l-380 380h10zM190 700l390 -390v-10l-400 400h10zM170 700l410 -410v-10l-420 420h10zM150 700l430 -430v-10l-440 440h10zM130 700l450 -450v-10l-460 460h10zM110 700l470 -470v-10l-480 480h10z" />
    <glyph glyph-name="orn014" horiz-adv-x="660" 
d="M580 690l-10 10h10v-10zM560 700l20 -20v-10l-30 30h10zM540 700l40 -40v-10l-50 50h10zM520 700l60 -60v-10l-70 70h10zM500 700l80 -80v-10l-90 90h10zM480 700l100 -100v-10l-110 110h10zM460 700l120 -120v-10l-130 130h10zM440 700l140 -140v-10l-150 150h10z
M420 700l160 -160v-10l-170 170h10zM400 700l180 -180v-10l-190 190h10zM380 700l200 -200v-10l-210 210h10zM360 700l220 -220v-10l-230 230h10zM340 700l240 -240v-10l-250 250h10zM320 700l260 -260v-10l-270 270h10zM300 700l280 -280v-10l-290 290h10zM280 700
l300 -300v-10l-310 310h10zM260 700l320 -320v-10l-330 330h10zM240 700l340 -340v-10l-350 350h10zM220 700l360 -360v-10l-370 370h10zM200 700l380 -380v-10l-390 390h10zM180 700l400 -400v-10l-410 410h10zM160 700l420 -420v-10l-430 430h10zM140 700l440 -440v-10
l-450 450h10zM120 700l460 -460v-10l-470 470h10zM100 700l480 -480v-10l-490 490h10zM80 700l500 -500v-10l-500 500v10zM80 680l500 -500v-10l-500 500v10zM80 660l500 -500v-10l-500 500v10zM80 640l500 -500v-10l-500 500v10zM80 620l500 -500v-10l-500 500v10zM80 600
l500 -500v-10l-500 500v10zM80 580l500 -500v-10l-500 500v10zM80 560l500 -500v-10l-500 500v10zM80 540l500 -500v-10l-500 500v10zM80 520l500 -500v-10l-500 500v10zM80 500l500 -500h-10l-490 490v10zM90 0l-10 10v10l20 -20h-10zM110 0l-30 30v10l40 -40h-10zM130 0
l-50 50v10l60 -60h-10zM150 0l-70 70v10l80 -80h-10zM170 0l-90 90v10l100 -100h-10zM190 0l-110 110v10l120 -120h-10zM210 0l-130 130v10l140 -140h-10zM230 0l-150 150v10l160 -160h-10zM250 0l-170 170v10l180 -180h-10zM270 0l-190 190v10l200 -200h-10zM290 0
l-210 210v10l220 -220h-10zM310 0l-230 230v10l240 -240h-10zM330 0l-250 250v10l260 -260h-10zM350 0l-270 270v10l280 -280h-10zM370 0l-290 290v10l300 -300h-10zM390 0l-310 310v10l320 -320h-10zM410 0l-330 330v10l340 -340h-10zM430 0l-350 350v10l360 -360h-10z
M450 0l-370 370v10l380 -380h-10zM470 0l-390 390v10l400 -400h-10zM490 0l-410 410v10l420 -420h-10zM510 0l-430 430v10l440 -440h-10zM530 0l-450 450v10l460 -460h-10zM550 0l-470 470v10l480 -480h-10z" />
    <glyph glyph-name="orn015" horiz-adv-x="660" 
d="M570 0l10 10v-10h-10zM580 20l-20 -20h-10l30 30v-10zM580 40l-40 -40h-10l50 50v-10zM580 60l-60 -60h-10l70 70v-10zM580 80l-80 -80h-10l90 90v-10zM580 100l-100 -100h-10l110 110v-10zM580 120l-120 -120h-10l130 130v-10zM580 140l-140 -140h-10l150 150v-10z
M580 160l-160 -160h-10l170 170v-10zM580 180l-180 -180h-10l190 190v-10zM580 200l-200 -200h-10l210 210v-10zM580 220l-220 -220h-10l230 230v-10zM580 240l-240 -240h-10l250 250v-10zM580 260l-260 -260h-10l270 270v-10zM580 280l-280 -280h-10l290 290v-10zM580 300
l-300 -300h-10l310 310v-10zM580 320l-320 -320h-10l330 330v-10zM580 340l-340 -340h-10l350 350v-10zM580 360l-360 -360h-10l370 370v-10zM580 380l-380 -380h-10l390 390v-10zM580 400l-400 -400h-10l410 410v-10zM580 420l-420 -420h-10l430 430v-10zM580 440
l-440 -440h-10l450 450v-10zM580 460l-460 -460h-10l470 470v-10zM580 480l-480 -480h-10l490 490v-10zM580 500l-500 -500v10l500 500v-10zM580 520l-500 -500v10l500 500v-10zM580 540l-500 -500v10l500 500v-10zM580 560l-500 -500v10l500 500v-10zM580 580l-500 -500v10
l500 500v-10zM580 600l-500 -500v10l500 500v-10zM580 620l-500 -500v10l500 500v-10zM580 640l-500 -500v10l500 500v-10zM580 660l-500 -500v10l500 500v-10zM580 680l-500 -500v10l500 500v-10zM580 700l-500 -500v10l490 490h10zM80 690l10 10h10l-20 -20v10zM80 670
l30 30h10l-40 -40v10zM80 650l50 50h10l-60 -60v10zM80 630l70 70h10l-80 -80v10zM80 610l90 90h10l-100 -100v10zM80 590l110 110h10l-120 -120v10zM80 570l130 130h10l-140 -140v10zM80 550l150 150h10l-160 -160v10zM80 530l170 170h10l-180 -180v10zM80 510l190 190h10
l-200 -200v10zM80 490l210 210h10l-220 -220v10zM80 470l230 230h10l-240 -240v10zM80 450l250 250h10l-260 -260v10zM80 430l270 270h10l-280 -280v10zM80 410l290 290h10l-300 -300v10zM80 390l310 310h10l-320 -320v10zM80 370l330 330h10l-340 -340v10zM80 350l350 350
h10l-360 -360v10zM80 330l370 370h10l-380 -380v10zM80 310l390 390h10l-400 -400v10zM80 290l410 410h10l-420 -420v10zM80 270l430 430h10l-440 -440v10zM80 250l450 450h10l-460 -460v10zM80 230l470 470h10l-480 -480v10z" />
    <glyph glyph-name="orn016" horiz-adv-x="660" 
d="M90 700l-10 -10v10h10zM80 680l20 20h10l-30 -30v10zM80 660l40 40h10l-50 -50v10zM80 640l60 60h10l-70 -70v10zM80 620l80 80h10l-90 -90v10zM80 600l100 100h10l-110 -110v10zM80 580l120 120h10l-130 -130v10zM80 560l140 140h10l-150 -150v10zM80 540l160 160h10
l-170 -170v10zM80 520l180 180h10l-190 -190v10zM80 500l200 200h10l-210 -210v10zM80 480l220 220h10l-230 -230v10zM80 460l240 240h10l-250 -250v10zM80 440l260 260h10l-270 -270v10zM80 420l280 280h10l-290 -290v10zM80 400l300 300h10l-310 -310v10zM80 380l320 320
h10l-330 -330v10zM80 360l340 340h10l-350 -350v10zM80 340l360 360h10l-370 -370v10zM80 320l380 380h10l-390 -390v10zM80 300l400 400h10l-410 -410v10zM80 280l420 420h10l-430 -430v10zM80 260l440 440h10l-450 -450v10zM80 240l460 460h10l-470 -470v10zM80 220
l480 480h10l-490 -490v10zM80 200l500 500v-10l-500 -500v10zM80 180l500 500v-10l-500 -500v10zM80 160l500 500v-10l-500 -500v10zM80 140l500 500v-10l-500 -500v10zM80 120l500 500v-10l-500 -500v10zM80 100l500 500v-10l-500 -500v10zM80 80l500 500v-10l-500 -500v10
zM80 60l500 500v-10l-500 -500v10zM80 40l500 500v-10l-500 -500v10zM80 20l500 500v-10l-500 -500v10zM80 0l500 500v-10l-490 -490h-10zM580 10l-10 -10h-10l20 20v-10zM580 30l-30 -30h-10l40 40v-10zM580 50l-50 -50h-10l60 60v-10zM580 70l-70 -70h-10l80 80v-10z
M580 90l-90 -90h-10l100 100v-10zM580 110l-110 -110h-10l120 120v-10zM580 130l-130 -130h-10l140 140v-10zM580 150l-150 -150h-10l160 160v-10zM580 170l-170 -170h-10l180 180v-10zM580 190l-190 -190h-10l200 200v-10zM580 210l-210 -210h-10l220 220v-10zM580 230
l-230 -230h-10l240 240v-10zM580 250l-250 -250h-10l260 260v-10zM580 270l-270 -270h-10l280 280v-10zM580 290l-290 -290h-10l300 300v-10zM580 310l-310 -310h-10l320 320v-10zM580 330l-330 -330h-10l340 340v-10zM580 350l-350 -350h-10l360 360v-10zM580 370
l-370 -370h-10l380 380v-10zM580 390l-390 -390h-10l400 400v-10zM580 410l-410 -410h-10l420 420v-10zM580 430l-430 -430h-10l440 440v-10zM580 450l-450 -450h-10l460 460v-10zM580 470l-470 -470h-10l480 480v-10z" />
    </font>
</defs>
</svg>
