<?xml version="1.0" encoding="utf-8"?>
<!-- Generator: Adobe Illustrator 24.2.0, SVG Export Plug-In . SVG Version: 6.00 Build 0)  -->
<svg version="1.1" id="Layer_1" xmlns="http://www.w3.org/2000/svg" xmlns:xlink="http://www.w3.org/1999/xlink" x="0px" y="0px"
	 viewBox="0 0 847.5 724.5" style="enable-background:new 0 0 847.5 724.5;" xml:space="preserve">
<style type="text/css">
	.st0{fill:#F7DB34;}
	.st1{fill:none;}
	.st2{fill:#2B871B;}
	.st3{fill:#7C7C7C;stroke:#FFFFFF;stroke-width:2;stroke-linecap:round;stroke-linejoin:round;}
	.st4{opacity:0.66;}
	.st5{opacity:0.68;fill:#EAC31C;}
	.st6{fill:#FFFFFF;}
	.st7{fill:#FF931E;}
</style>
<g>
	<path id="JAM1370_2_" class="st0" d="M325,1150.5l16.1,41.3l2.3,10.6l-2.1,4.4l-1.6,5.6l-1.3,8.6l0.6,5.1l6.4,9.6l3.3,5.9l2.1,7
		l0.1,21l0.5,4.5l0.6,3.5l1.4,3.1l11.1,14.8l1.5,5.1l-0.3,2l2.8,28.7l-4.1,2.4l-9.4,18.8l-2.1,5.5l4.3,16.7l-4.1,1.6l-7.3,4.5
		l-4.1,1.8l1.5,3.1l0.9,6.1l1.5,3.8l-6.1-2.8l-6.1-0.4l-6,2.1l-5.5,4.6l10,6.3l10.6,2.4l11.1-1l11.5-3.5l5.8,22.7l-1.8,10.3l-14,4.4
		l-11.9-0.6l-10.6-2.4l-10.5-5.1l-49.6-44.4l-10.4-13l-42.1-24.5l2.8-2.4l1.8-0.5l5,0.6l3.3-0.4l2.1-2l0.6-1.5l1.3-7.4l3.4-11.1
		l0.3-1.9l-0.6-2l-1.3-2.1l-6.5-5.8l-2.6-3.5l-2-6.3l-1.3-8.1l-0.4-4l0.3-2.9l1.6-4.8l0.8-3.4l-62.2-127.8l-1.4-9l13.5,4.5l14.5,2.5
		l5.1-0.6l4.1-1.6l2.1-1.3l4-3.1l1.4-0.8l19.3-4.4l5.4,0.5l11,4.5l27.9,5.1L325,1150.5z"/>
	<path id="JAM1371_2_" class="st0" d="M-126.1,993.6v5.6l-0.4,1.9l-3.8,13.5l1,2.1l2,2.4l9.3,7.8l2.4,4.5l0.9,4.4l1.6,3.8l6.4,12
		l2.9,6.5l3.3,2.8l8,4.1l2.8,2.8l1.5,1.9l7.3,14.6l-47.9-2.8l-12.5-2.4l-31.4-18.3l-5-1.4l-5.3-0.8l-71,0.4l-3.3,0.8l-21.4,25.4
		l-2.9,2.3l-2.9,0.6h-3.1l-30.8-4.5l-5.1-0.5l0.9-4.4l-0.8-18.2l1-5.1l4.4-7.1l0.5-4.6l2-2.4l8.9-0.6l5.6-3.8l4.5-7l5.9-4.8l9.5,3.1
		l5.9-17l17.5-16.3l20.4-6.8l14.6,11.3l8.5-10l9.1-0.3l10.5,4l13,2.5l36.9-4.5h12.4L-126.1,993.6L-126.1,993.6z"/>
	<path id="JAM1372_2_" class="st0" d="M164.7,1144.4l1.4,9l62.2,127.8l-0.8,3.4l-1.6,4.8l-0.3,2.9l0.4,4l1.3,8.1l2,6.3l2.6,3.5
		l6.5,5.8l1.3,2.1l0.6,2l-0.3,1.9l-3.4,11.1l-1.3,7.4l-0.6,1.5l-2.1,2l-3.3,0.4l-5-0.6l-1.8,0.5l-2.8,2.4l-0.6-0.4l-12.5-4.6
		l-13.4-1.9l-10.5,4.4l-12.1,8.3l-12,1l-25-7.1l-10.9-1.9l-1.4-2.8l-38.9-162.1l-2.9-54l7.3-1.8l3.5-1.4l6.4-3.9l4.1-1.9l3.3-0.9
		h3.3l21.9,3.4l1.8-0.1l8.1,3.6L164.7,1144.4L164.7,1144.4z"/>
	<path id="JAM1373_2_" class="st0" d="M79.6,1129.5l2.9,54l38.9,162.1l1.4,2.8l-13.5-2.4l-77.5,4.5l-3.9-0.8l-11.9-8.1l-20.2-10
		l-5-4l-2.5-4.5l-5.9-15.4l-1.3-4.9l-2.1-3.8l-10.3-3.8l-3.1-2.5l-0.9-12.6l1-15.1l-3.5-12.8l-14.5-5.4l-39.7-0.4l-9.1-3.4l-4.8-11
		l4-7.8l11.3-32.5l1.4-9l-1.4-4.5v-3.5l1-3.8l3.6-7.6l6.3-10l4.5-4.3l8.6-4.3l65.5-23.4L79.6,1129.5L79.6,1129.5z"/>
	<path id="JAM1374_2_" class="st0" d="M25.1,957.4l-0.3,1l-25.9,163l-65.5,23.4l5.5-15.9l0.3-5.8l-4.6-14.5l-1.6-3l-1.9-2.3
		l-2.6-1.6l-3.3-4l-6.3-13.5l-7.3-14.6l-1.5-1.9l-2.8-2.8l-8-4.1l-3.3-2.8l-2.9-6.5l-6.4-12l-1.6-3.8l-0.9-4.4l-2.4-4.5l-9.3-7.8
		l-2-2.4l-1-2.1l3.8-13.5l0.4-1.9v-5.6l4.5,1.6l6.3,1.5l6.5-1l5.8-4.1l0.6-3.9l-0.3-4.6l3.6-6.3l12.9-16.7l5.9-5.5l10.1-4.6l23-3.8
		l26.2,1L25.1,957.4L25.1,957.4z"/>
	<path id="JAM1375_2_" class="st0" d="M179.5,975.8l-1.4,13.3l0.4,4.9l6.6,17.2l0.4,4.3l-0.4,3.5l-1.5,3.9v2.1l0.8,1.6l3,3.9v5.6
		l-22.7,108.4l-25.5-17.8l-8.1-3.6l-1.8,0.1l-21.9-3.4h-3.3l-3.3,0.9l-4.1,1.9l-6.4,3.9l-3.5,1.4l-7.3,1.8l-80.6-8.1l25.9-163l0.3-1
		l40.6,8.9l55.6,1l24.5,6L179.5,975.8L179.5,975.8z"/>
	<path id="JAM1376_2_" class="st0" d="M-81,1084.2l6.3,13.5l3.3,4l2.6,1.6l1.9,2.3l1.6,3l4.6,14.5l-0.3,5.8l-5.5,15.9l-8.6,4.3
		l-4.5,4.3l-6.3,10l-3.6,7.6l-1,3.8v3.5l1.4,4.5l-1.4,9l-11.3,32.5l-4,7.8l-8.8-20.4l-4.5-6.5l-4.9-3.5l-5.6-2.9l-4.6-1.1l-3.5-3.3
		l-2.8-7.3l-3.5-14.3l-10.8-21.8l-14.1-8l-42.1,1.1l-25.7-4.4l-9.4-0.1l-5.4,4.9l-4.4,2.5l-3.9-0.9l-14.1-5.6l-1.4-0.9l-8-1.3
		l-17.5-5.8l-9.9-1.3l-10-2.5l-9.8-6.5l-7.1-9.3l-2.5-10.5l3.1-5l8.5-6l4-5l0.8-3.5l5.1,0.5l30.8,4.5h3.1l2.9-0.6l2.9-2.3l21.4-25.4
		l3.3-0.8l71-0.4l5.3,0.8l5,1.4l31.4,18.3l12.5,2.4L-81,1084.2L-81,1084.2z"/>
	<path id="JAM1377_2_" class="st0" d="M601.4,1290.3l-4.3-4.1l-7.4-1.8l-17.3-0.3l-11.8,0.3l-8.1-4.9l1.9-5.5l1-2.3l4.4-2.9l5.8-2.4
		l4.8-1.3l14.8-0.8l8.5,2l5.6,3l4.8,11.1l0.5,7.8L601.4,1290.3L601.4,1290.3z"/>
	<path id="JAM1378_2_" class="st0" d="M870,1264.6l-16.3,5.1l-6,0.6l-20.8-2.8l-7.8-2l-3.9-3.5l-3.8-5.5l-2-2l-3-1.3l-16.9-5
		l-18.7-3l-12.6-7.3l-2.8-0.8l-2.4-0.1l-2.9,1.3l-3.9,2.1l-4.9,0.9l-8,0.1l-2.4,0.3l-2.5,1.6l-2.5,2.5l-2.3,1.4l-4.6,1.8h-4.8
		l-4-2.3l-27.2-8.6l-4.3-2l-3.8-2.6l-2.3-2.1l-4.4-5.9l-10.6-7.4l-25.8-10.8l-7.5-1.1l-1.9,2.3l-2.5,4.8l-2.8,1.1l-5.6,1.1l-7.5-1.6
		l-3.6-1.1l-2.1-1.3l-2.5-3.6l-5.1-15.1l-0.1-1.5l-3.6-12.1l26.9-75.2l1.8-2l3.3,0.8l8.4,4.5l10.9,11l8.4,5.5l9.6,3l19-1.3l9.9,7.1
		l3.1,0.8l2.9,2.8l3.5,2.5l4.8,1.1h42.8l3,1.8l4.5,8.6l2.1,2.6l42.1,8l21.8,7.9l2.9,12.5l16.1,15.6l12.6,18L866,1255L870,1264.6
		L870,1264.6z"/>
	<path id="JAM1379_2_" class="st0" d="M405.2,1013.6l0.5,2.8l4.9,22l0.4,3.1l1.1,4.3l1.1,2.1l3,3l1.6,2.1l1,2.3l-1.3,13.5l0.3,1.9
		l1.1,2.1l7.1,8.5l2.4,3.8l1.8,5.6l0.9,5.1l1.6,4.9l3.8,5l10.9,11.1l-34.3,19.4l-11.5,4.5l-76.6,9.6l-51.8-0.6l-27.9-5.1l-11-4.5
		l-5.4-0.5l-19.3,4.4l-1.4,0.8l-4,3.1l-2.1,1.3l-4.1,1.6l-5.1,0.6l-14.5-2.5l-13.5-4.5l22.7-108.4v-5.6l-3-3.9l-0.8-1.6v-2.1
		l1.5-3.9l0.4-3.5l-0.4-4.3l-6.6-17.2l-0.4-4.9l1.4-13.3l5.9,0.5l15,3.6l11.8,7.1l18-4.6h29.3l30.2,3.5l20.7,5.3l2.6,2.8l2.1,7.4
		l2.8,2.6h3.4l3-1.5l1.9-1.9l-0.5-1.1l25.5,4.5l3.1,1.9l9.6,8.5l3,1.9l18.7,0.8L405.2,1013.6L405.2,1013.6z"/>
	<path id="JAM1380_2_" class="st0" d="M518,1173.2l-1.3,15.8l1.1,6.1l3.8,7.9l0.6,3l-0.1,2.3l-2,4.4l-1.6,2.4l-2.3,1.9l-1.8,3.1
		l-2,5.1l-3.4,12.1l-0.8,5.1l0.1,3.5l4.1,3.6l1,1.6l1.1,2.8l1.8,2.1l1.4,0.6l3-0.4l4.5-1.6l3.9,5.4l1.9,7l-1.8,6.1l-2.8,6.4l-7.1,8
		l-2.1,4.6l-7.5-0.9l-2.3,4.4l-2.3,13.8l-10.1,36.3l-7.6,10.8l-9.1,5.9h-7.5l-5-2.3l-4.6-3.1l-6.3-2.5h-31.5v-4.4l12-4.1l-6.1-5.4
		l-7.6-10.5l-6-4.6l-7-2.8l-16.5-1.8l-14.9,5.3l-8.8,5.1l-2.8-28.7l0.3-2l-1.5-5.1l-11.1-14.8l-1.4-3.1l-0.6-3.5l-0.5-4.5l-0.1-21
		l-2.1-7l-3.3-5.9l-6.4-9.6l-0.6-5.1l1.3-8.6l1.6-5.6l2.1-4.4l-2.3-10.6l-16.1-41.3l76.6-9.6l11.5-4.5l34.3-19.4l8.8-2.6l3.5-0.5
		l10.9,1.3l1.9,1.4l1.8,2.1l3.4,8.3l2,2.6l4.5,3.4l2.4,2.6l2.3,4.6l1.3,4.9l0.6,5.1l1.3,2.6l6.6,9.1l6.1,5.9L518,1173.2L518,1173.2z
		"/>
	<path id="JAM1381_2_" class="st0" d="M616,1101.9l-1.8,2l-26.9,75.2l-31.7-15.1l-9.5-1.9l-3.4,0.6l-7.3,0.1l-3.5,0.5l-2.1,1l-1.4,3
		l-2.8,2.8l-7.8,3.1l-13.4-5.5l-6.1-5.9l-6.6-9.1l-1.3-2.6l-0.6-5.1l-1.3-4.9l-2.3-4.6l-2.4-2.6l-4.5-3.4l-2-2.6l-3.4-8.3l-1.8-2.1
		l-1.9-1.4l-10.9-1.3l-3.5,0.5l-8.8,2.6l-10.9-11.1l-3.8-5l-1.6-4.9l-0.9-5.1l-1.8-5.6l-2.4-3.8l-7.1-8.5l-1.1-2.1l-0.3-1.9
		l1.3-13.5l-1-2.3l-1.6-2.1l-3-3l-1.1-2.1l-1.1-4.3l-0.4-3.1l-4.9-22l-0.5-2.8l10.5-1.8l6.8,1.8l12,5.6l6.8,1.1l33.8-1.4l6.5-3.5
		l9.4-1.1l7.5,0.5l7,1.3l4,5.3l-1.8,6.4v8.1l6.4,5.8l20.3,12.9l18,10.5l2.9,5.9l5.3,15.8l3.4,5.3l5.5,3.3l10.4,2.9l29.5,2.4
		L616,1101.9L616,1101.9z"/>
	<path id="JAM1382_2_" class="st0" d="M587.4,1179.1l3.6,12.1l0.1,1.5l5.1,15.1l2.5,3.6l2.1,1.3l3.6,1.1l7.5,1.6l5.6-1.1l2.8-1.1
		l2.5-4.8l1.9-2.3l7.5,1.1l25.8,10.8l-5.3,4.9l-1,3.8l-0.8,4.9l-0.3,9.1l0.8,3.6l1.4,3.4l1.5,2.8l3.3,11.3l1,2l4.1,5.9l1.8,3.4v2
		l-0.9,1.3l-1.5,0.3l-5.8-0.5l-2.3,0.5l-2.3,1l-2.5,3.9l-0.6,3.5l0.4,5.5l-0.9,4.6l-3.6,4.1l-3.4,5.4l-15.9-3.8l-4.3-2.4l-8.8-3.6
		l-11.9,0.8l-20.7,4.9l-8.8,1.1l-29.9-1.1v-4.1l62.8-3.6l-2.6-2.5l3.1-1.9l-0.5-7.8l-4.8-11.1l-5.6-3l-8.5-2l-14.8,0.8l-4.8,1.3
		l-5.8,2.4l-4.4,2.9l-1,2.3l-1.9,5.5l-3.8-2.3l-10.1-6.6l-7.5-3.5l-1.9-7l-3.9-5.4l-4.5,1.6l-3,0.4l-1.4-0.6l-1.8-2.1l-1.1-2.8
		l-1-1.6l-4.1-3.6l-0.1-3.5l0.8-5.1l3.4-12.1l2-5.1l1.8-3.1l2.3-1.9l1.6-2.4l2-4.4l0.1-2.3l-0.6-3l-3.8-7.9l-1.1-6.1l1.3-15.8
		l7.8-3.1l2.8-2.8l1.4-3l2.1-1l3.5-0.5l7.3-0.1l3.4-0.6l9.5,1.9L587.4,1179.1L587.4,1179.1z"/>
	<path id="JAM1383_2_" class="st0" d="M870,1264.6l4.6,11.1l8.4,14.4l10.8,11.4l15.5,11.8l-6,4.8l-29.4,7.5l-20.9,11.5l-11.9,3.4
		l-10.1-2.6l4-2.9l1.5-2l2.3-7.4l-10.3,3.8l-9.1,13.8l-10,3l-8.9-2.5l-10.3-4.9l-10.5-2.6l-17.2,6.4l-44.9,4l-31.7-4.9l-4.5,0.1
		l-4.4,0.9l-4.6-0.6l-5.9-4.1l-2.6-5.4l-1.1-7l-1.8-5.9l-4.5-2.6l-4.6-1.4l-3-3.4l-2.6-4l-3.5-3.1l-1.4-0.4l3.4-5.4l3.6-4.1l0.9-4.6
		l-0.4-5.5l0.6-3.5l2.5-3.9l2.3-1l2.3-0.5l5.8,0.5l1.5-0.3l0.9-1.3v-2l-1.8-3.4l-4.1-5.9l-1-2l-3.3-11.3l-1.5-2.8l-1.4-3.4l-0.8-3.6
		l0.3-9.1l0.8-4.9l1-3.8l5.3-4.9l10.6,7.4l4.4,5.9l2.3,2.1l3.8,2.6l4.3,2l27.2,8.6l4,2.3h4.8l4.6-1.8l2.3-1.4l2.5-2.5l2.5-1.6
		l2.4-0.3l8-0.1l4.9-0.9l3.9-2.1l2.9-1.3l2.4,0.1l2.8,0.8l12.6,7.3l18.7,3l16.9,5l3,1.3l2,2l3.8,5.5l3.9,3.5l7.8,2l20.8,2.8l6-0.6
		L870,1264.6L870,1264.6z"/>
	<rect id="_x30__2_" x="-282" y="1065.1" class="st0" width="0" height="0"/>
	<rect id="_x31__2_" x="740.6" y="1302.6" class="st0" width="0" height="0"/>
	<rect id="_x32__2_" x="226.3" y="981.4" class="st0" width="0" height="0"/>
</g>
<g>
	<polygon class="st1" points="323.5,1151.4 335.2,1149.9 368,1145.8 400.1,1141.8 411.6,1137.2 400.1,1141.7 368,1145.8 
		335.2,1149.9 	"/>
	<polygon class="st1" points="846.3,1271.3 852.3,1270.7 868.6,1265.6 852.3,1270.7 	"/>
	<polygon class="st1" points="343.9,1236.8 337.5,1227.1 343.9,1236.8 347.2,1242.7 349.3,1249.7 347.2,1242.7 	"/>
	<polygon class="st1" points="-255.6,1060 -184.6,1059.6 -255.6,1060 -258.9,1060.8 -270.5,1074.5 -258.9,1060.8 	"/>
	<polygon class="st1" points="182.2,1023.6 183.7,1019.8 184.1,1016.3 183.7,1012.1 177,994.9 183.7,1012.1 184.1,1016.3 
		183.7,1019.8 182.2,1023.6 182.2,1023.7 	"/>
	<polygon class="st1" points="458.1,1114.7 454.7,1115.2 446,1117.8 446,1117.8 454.7,1115.2 458.1,1114.7 458.2,1114.7 	"/>
	<polygon class="st1" points="182.9,1051.4 185.9,1037 185.9,1031.3 182.9,1027.5 185.9,1031.3 185.9,1037 182.9,1051.4 
		181.5,1058.2 166.2,1131.5 163.3,1145.4 176.8,1149.9 191.3,1152.4 176.8,1149.9 163.3,1145.4 166.2,1131.5 181.5,1058.2 	"/>
	<polygon class="st1" points="227.4,1140.6 232.8,1141.1 227.4,1140.6 	"/>
	<polygon class="st1" points="339.8,1207.7 338.2,1213.4 338,1214.7 336.9,1222 338,1214.7 338.2,1213.4 	"/>
	<polygon class="st1" points="339.7,1192.7 341.9,1203.3 339.8,1207.7 341.9,1203.3 	"/>
	<polygon class="st1" points="748.9,1239.4 751.8,1238.1 751.8,1238.1 	"/>
	<polygon class="st1" points="677.7,1237.1 681.9,1239.1 709.1,1247.8 681.9,1239.1 	"/>
	<polygon class="st1" points="647.4,1286 647.8,1291.5 647.4,1286 648,1282.5 650.5,1278.6 648,1282.5 	"/>
	<polygon class="st1" points="660.8,1277.6 662.3,1277.3 663.2,1276.1 662.3,1277.3 	"/>
	<polygon class="st1" points="722.5,1248.3 724.7,1246.9 727.2,1244.4 724.7,1246.9 	"/>
	<polygon class="st1" points="732.1,1242.5 740.1,1242.4 745,1241.5 740.1,1242.4 	"/>
	<polygon class="st1" points="763.5,1242.8 769.6,1246.3 788.2,1249.3 769.6,1246.3 	"/>
	<polygon class="st1" points="619,1214.2 621.5,1209.5 623.3,1207.2 621.5,1209.5 	"/>
	<polygon class="st1" points="727.2,1244.4 729.8,1242.8 732.1,1242.5 729.8,1242.8 	"/>
	<path class="st1" d="M273.9,1085c9.1,3.9,18.5,7.4,27.9,10.5c1.3,0.4,4.5-1.4,5.1-2.8c0.5-1.4-0.8-4.5-2.2-5.3
		c-7.7-4.3-15.6-8-24.2-12.3c-2.7,1.2-5.9,1.8-7.9,3.7C271.7,1079.6,272.7,1084.4,273.9,1085z"/>
	<path class="st1" d="M404.5,1179.4c-1.3,0.2-2.5,1-4,1.6c1.7,3.8,4.4,4.4,7.7,4c6.5-0.8,13-1.5,19.6-2.2c1.8-0.2,3.7-0.2,5.6-0.3
		c-5.2-1.7-10.4-3.3-15.6-5C413.3,1178.1,408.9,1178.8,404.5,1179.4z"/>
	<path class="st1" d="M411.6,1137.2l-11.5,4.5l-32.1,4c15.3,5.1,30.5,10.4,45.6,16c9.7,3.6,19.3,7.3,28.9,11
		c6.8-0.6,13.5-1.6,20.2-2.2c15.4-1.3,30.8-2.5,46.1-3.6c2.9-0.2,5.8-0.4,8.6-0.7c-16.6-4.3-33-9.3-49.4-14.2
		c-13.2-4-25.9-9.8-38.7-14.9c-12-4.7-23.9-9.5-35.8-14.5c-10.7-4.4-21.2-9.1-31.8-13.7c-10-4.5-19.9-9.4-30-13.6
		c-9.2-3.8-18.1,3.9-16.8,15.9c-11.2-1.6-21.9-3.7-32.8-4.6c-4.7-0.4-9.6,1.8-14.4,2.8c3.9,2.6,7.4,6,11.6,7.6
		c17.3,6.7,34.7,13.2,52.2,19.1c8.3,2.8,17.4,3.5,25.8,6.2c3.5,1.1,7,2.3,10.5,3.4l32.1-4L411.6,1137.2z"/>
	<path class="st1" d="M232.1,1039.9c0.3-0.1-0.3-4.2-0.4-6.4c-4.1,1-8.3,2-12.4,3c0.3,1.6,0.5,3.3,0.8,4.9
		C224,1041,228.1,1040.7,232.1,1039.9z"/>
	<path class="st1" d="M335.2,1149.9c-2-0.4-4.1-0.7-6.1-0.8c-9.2-0.7-17.6-1.7-25.3-8.3c-3.9-3.3-11.4-2.2-17.1-3.8
		c-6.4-1.8-12.7-4.3-19-6.4c-5.6-1.9-11.3-5.4-16.8-5.1c-11.6,0.5-21.7-3-31.6-8.2c-9.4-5-19.1-5.6-30.9,0.3
		c3.8,2.5,6.1,5.1,8.8,5.7c6.7,1.6,13.6,2.9,20.5,3.2c9,0.4,16.8,1.7,24.5,7.7c5.1,4,13.6,3.7,20.5,5.3c5.1,1.2,10.3,1.9,15.3,3.5
		c7.9,2.5,15.7,5.6,23.5,8.4c13.9,5,27.8,10,41.8,14.8c12.8,4.4,26.3,7.3,38.8,12.2c6.4-0.5,12.8-1,19.2-1.9
		c3.2-0.4,6.3-0.8,9.5-1.2c-8.1-2.6-16.2-5.1-24.3-7.8c-13.7-4.6-27.2-10-40.9-14.7C342.3,1151.6,338.8,1150.6,335.2,1149.9
		l-11.7,1.5L335.2,1149.9z"/>
	<path class="st1" d="M222.6,1067.1c9.5,7.3,36.1,11.2,43.8,6.9C260.3,1066.8,234.5,1062.4,222.6,1067.1z"/>
	<path class="st1" d="M461.4,1174c-3.4,0.4-6.8,1.9-10.2,2c2.2,0.9,4.4,1.7,6.6,2.6c13-0.3,26.1-0.1,38.8-2.3
		c14.4-2.5,28.8-1.9,43.2-2.9c1.8-0.1,3.6-0.4,5.4-0.7c-1.3-0.3-2.5-0.5-3.8-0.8c-5.8-1.2-11.6-2.6-17.4-4.1
		c-12.1,1-24.1,2.6-36.2,3.7C479,1172.5,470.1,1173,461.4,1174z"/>
	<path class="st1" d="M389.6,1180.3c-0.5,0.1-1.1,0.3-1.6,0.6c1.7,0.8,3.4,1.6,5,2.5c0.1,0,0.1,0.1,0.2,0.1c0.4-0.5,0.8-1.1,1.3-1.5
		C392.9,1181.4,391.1,1180,389.6,1180.3z"/>
	<path class="st1" d="M541.8,1184.7c5.9,0.4,11.9,1.1,17.8,1c13.5-0.3,27-1,40.4-1.7c1.3-0.1,2.5-1.3,3.7-1.9
		c-0.4-0.2-0.7-0.5-1-0.7c-4.6-0.6-9.2-1.2-13.8-1.8c-11.8,0-23.7-0.1-35.5,0c-2.5,0-5,0.4-7.4,1c-1.6,0.4-3,1.5-4.5,2.3
		C541.6,1183.5,541.7,1184.1,541.8,1184.7z"/>
	<path class="st1" d="M84.8,1088c-7.1-1-14.3-2.1-21.4-3.1c-0.2,1.5-0.3,3-0.5,4.5c7.2,0.5,14.4,1,21.5,1.6
		C84.5,1089.9,84.7,1089,84.8,1088z"/>
	<path class="st1" d="M-217.8,1106.2c-4.4,0.2-8.7,0.5-13.1,0.8c-0.9,0.1-1.8,0.2-2.6,0.6c-0.5,0.2-0.8,0.9-1.2,1.4
		c0.6,0.4,1.1,1.2,1.6,1.2c2.7,0,5.7,0.3,8.1-0.6c3.1-1.3,6.1-1.1,9.2-1c3.1,0.1,6.2-0.2,9.3-0.3c0-0.4,0.1-0.9,0.1-1.3
		c-0.9-0.3-1.7-0.9-2.6-0.9C-211.8,1106-214.8,1106.1-217.8,1106.2z"/>
	<path class="st1" d="M-245.4,1111.1c1.2,0,2.5,0,3.7,0c0-0.2,0-0.5,0-0.7c-1.2,0-2.5,0-3.7,0
		C-245.4,1110.6-245.4,1110.8-245.4,1111.1z"/>
	<path class="st1" d="M892.4,1302.5l-10.8-11.4l-8.4-14.4l-4.6-11.1l-16.3,5.1l-6,0.6l6-0.6l16.3-5.1l-4-9.6l-18.3-40.2l-12.6-18
		l-16.1-15.6l-2.9-12.5l-21.8-7.9l-42.1-8l-2.1-2.6l-4.5-8.6l-3-1.8h-42.8l-4.8-1.1l-3.5-2.5l-2.9-2.8l-3.1-0.8l-9.9-7.1l-19,1.3
		l-9.6-3l-8.4-5.5l-10.9-11l-8.4-4.5l-3.3-0.8l-6.6-1.4l-29.5-2.4l-10.4-2.9l-5.5-3.3l-3.4-5.3l-5.3-15.8l-2.9-5.9l-18-10.5
		l-20.3-12.9l-6.4-5.8v-8.1l1.8-6.4l-4-5.3l-7-1.3l-7.5-0.5l-9.4,1.1l-6.5,3.5l-33.8,1.4l-6.8-1.1l-12-5.6l-6.8-1.8l-10.4,1.7
		c4.9,1.9,9.4,4.7,14.1,7.1c-0.3,1.4-0.7,2.9-1,4.3c-4.3,0.2-8.9,1.4-13,0.4c-11.2-2.7-22.2-6.1-33.3-9l-5.3-0.2l-3-1.9l0,0
		c-0.1,0-0.3-0.1-0.4-0.1c-13.8-3.3-28-5.3-41.8-8.6c-9.4-2.2-18.6-5.5-27.7-8.8c-12.1-4.3-24.3-5.4-38.3-4.1
		c12.2,15.1,28.7,17.9,44.4,21.5c0.8,9.8,6,15.6,12.9,12c11.7-6.1,22.2-0.1,33.1,0.3c7.7,0.2,15.4,3.4,22.8,6c2.2,0.8,3.4,4.3,5,6.6
		c-2.6,0.8-5.4,2.6-7.9,2.2c-8.1-1.2-16.1-3.5-24.2-4.5c-2.8-0.3-5.9,2-8.8,3.1c2.1,1.8,4,4.2,6.4,5.4c8.6,4.3,17.2,8.5,26,12.3
		c26.9,11.6,53.9,22.9,80.9,34.4c14.4,6.2,28.7,12.4,42.9,19c4.2,2,7.5,6,11.8,7.7c17.2,7,34.5,13.5,51.9,19.9
		c8.6,3.2,17.6,5.3,26.1,8.6c3.2,1.2,5.7,4.4,8.5,6.7c-0.5,1.1-1,2.3-1.4,3.4c-8.8-2.5-17.6-4.8-26.4-7.5
		c-6.3-1.9-12.5-4.3-18.7-6.5c-17.1-6.3-34.1-12.6-51.2-18.8c-10-3.7-20.1-7.2-30.2-10.8l-3.4,0.5l-8.8,2.6v0l8.8-2.6l3.4-0.5
		c-9.2-3.3-18.3-6.6-27.4-10.2c-10.1-4-19.7-9.4-29.5-14.2c-1.4-0.7-2.6-1.9-4-2.4c-18.8-7.6-37.9-14.4-56.3-23
		c-22.3-10.4-45.8-16.4-69.6-22.1c-4.1-1-7.6-4.6-11.4-7c-2.6-1.6-5.2-4.8-7.6-4.7c-4,0.2-7.8,2.6-11.8,4.1c1.7,3.2,2.7,7.3,5.3,9.2
		c5.3,3.9,11.2,7.3,17.4,9.4c11.3,4,23.1,6.3,34.3,10.4c12.2,4.5,23.8,10.5,35.8,15.6c10.9,4.7,22,8.9,32.9,13.5
		c8.6,3.6,17.4,7.1,25.5,11.5c5.7,3.1,10.7,6.6,17.5,3.7c1.1-0.5,3.7,0.4,4.2,1.4c7.7,13.3,22.7,12.7,34.5,17.8
		c23.6,10.4,47.4,20.2,71.7,28.9c7.8,2.8,15.7,5.2,23.6,7.5c2-0.1,3.9-0.1,5.9-0.2c33-0.6,66-0.8,99-0.6c19.8,0.1,39.6,1.2,59.4,2
		c1.9,0.1,3.7,1,5.5,1.6c-0.2,0.7-0.3,1.4-0.5,2.1c-6.7-0.5-13.3-1.2-20-1.4c-19.9-0.6-39.9-1.2-59.8-1.4c-7.3-0.1-14.5,0.9-21.8,1
		c-6.1,0-12.3-0.9-18.4-0.9c-13.8,0-27.6-0.1-41.4,0.1c4.6,1.2,9.3,2.5,14,3.7c5,0,10,0.3,15,0.2c9.9-0.1,19.8-0.6,29.8-0.7
		c3.5,0,6.9,1,10.4,1c11.5,0.2,23,0,34.6,0.3c2.6,0.1,5,1.9,7.6,2.2c4,0.5,8.1,0.5,12.1,0.6c6.3,0.1,12.6,0,18.9,0
		c1.2,0,2.3,0.4,4.7,0.9c-5.6,3.5-11.7-1.3-16.9,3.8c5.4,1.6,9.9,2.1,14.4,1.5c2.4-0.3,4.8-0.7,7-1.6c3.4-1.2,5,0.3,5,3.3
		c0,4.7,2.4,6.4,6.8,6.6c9.4,0.4,18.8,0.8,28.2,1.4c14.7,0.8,29.5,1,43.7,5.6c0.5,0.2,1,0.4,3,1.2c-2.1,0.8-3.3,1.3-4.6,1.9
		c0.3,0.5,0.5,1,0.8,1.4c4.7,1.8,9.5,0.7,14.9,0.1c-0.9-1.5-1.4-2.5-2.2-3.9c1.4-0.1,2.7-0.6,3.8-0.3c1.2,0.3,2.3,1.2,3.3,2
		c0.9,0.8,1.6,1.9,2.4,2.8c0.9-1,1.7-2.1,2.6-3.1c1-1.2,2.1-2.4,3.2-3.5c0.9,0.8,1.2,1,1.3,1.2c1.3,6.5,1.3,6.4,8.4,6.1
		c3-0.1,6.1,0.3,9.1,0.5c0,0.5,0,1,0.1,1.4c-0.8,0.4-1.6,0.9-2.4,1.1c-5.1,1.1-10.2,2-15.2,3.2c-1.4,0.4-2.5,1.8-4.6,3.3
		c-25.4,2.8-52.3,1.4-79.2,0.7c-26.8-0.8-53.6-1.9-80.4-3.2c-44.3-2.2-88.5-2.4-132.8-1.9c3.3,1.4,6.7,2.8,10,4.3
		c-0.1,1-0.2,2-0.3,3c-4.1-0.3-8.6,0.2-12.3-1.2c-5.2-1.9-10.4-3.9-15.6-5.9c-12.5,0.2-24.9,0.4-37.4,0.6c-6.5,0.1-13,0.3-19.5,0.6
		c6.3,1.3,9.5,5.5,11.1,14.6c-4.8-2.1-9.4-2.7-11-5.1c-3.3-5.3-7.7-5-12.8-5.8c-2.9-0.4-5.6-1.5-8.4-2.7
		c-25.4,1.5-50.9,3.6-76.3,5.4c-2.4,0.2-4.8,0.4-7.1,0.6l-1.1,7.3l1.1-7.3c-11.6,1.1-23.1,2.9-34.7,4.3c-8.9,1.1-17.8,1.9-26.6,3.3
		c-8.9,1.4-17.8,3.3-26.7,5c-0.7,0.1-1.4,0.4-2.1,0.4c-16.1,1.1-32.2,2.4-48.3,3c-4.4,0.1-9-1.8-13.2-3.5c-2.9-1.1-5-3.4-4.1-7.3
		c0.9-3.8-0.1-6.6-4.8-7c-2.8-0.3-3.4-1.8-1.9-4.4c0.7-1.3,0.8-3.2,0.6-4.7c-0.5-3.5,0.4-5,4.1-5.1c3.8-0.1,7.6,0.1,11.4-0.3
		c10.9-1,21.7-2.1,32.5-3.3c14.6-1.7,29.2-3.7,43.8-5.3c12.1-1.3,24.3-2.3,36.5-3.4c12.5-1.2,25.1-2.2,37.6-3.6
		c-26.2-8.1-52.3-16.5-78.6-24.1c-32.4-9.3-64.8-18.5-97.3-27.2l-2.9,13.9l13.5,4.5l14.5,2.5l-14.5-2.5l-13.5-4.5l2.9-13.9
		c-15-4-30-7.9-45.1-11.6c-26.3-6.5-53.4-10.4-80.4-14.1c-49.1-6.8-98.3-13.3-147.4-19.8c0.2,0.2,0.3,0.4,0.5,0.4
		c2.6,0.8,5.4,1.2,8.1,1.8c1.8,0.4,3.5,1,5.2,1.6c1.6,0.5,3.1,1.1,4.9,1.7c-0.4,2.8,1.9,1.6,3,2c0.7,0.7,1.2,1.7,2.1,2.1
		c2.1,1,4.3,1.7,6.4,2.5c0,0.3-0.1,0.6-0.1,0.9c-0.9-0.1-1.9,0.1-2.8-0.2c-6.8-1.9-13.5-4.1-20.3-5.9c-4.9-1.3-9.9-2.4-14.9-3.3
		c-1.8-0.3-3.8,0.3-5.8,0.6c-0.1,0.3-0.1,0.6-0.2,0.8c0.5,0.4,1,1,1.6,1.1c5.8,1.3,11.7,2.4,17.4,3.8c5,1.2,9.9,2.6,15.3,4.6
		c-0.3,0.1-0.6,0.1-0.9,0.3c-0.8,0.4-1.6,0.9-2.3,1.4c0.7,0.5,1.3,1.2,2.1,1.5c2.1,1,4.3,1.7,6.3,2.8c0.8,0.5,1.2,1.7,1.8,2.6
		c-0.9,0.4-1.8,1.1-2.8,1.1c-2.3,0-4.7-0.2-6.9-0.7c-6.4-1.2-12.8-2.6-19.2-4c-1.1-0.2-2.3-0.3-3.4-0.8c-4.1-1.6-7.2,1.2-10.8,2
		c0,0.3,0,0.5,0,0.8c0.4,0.3,0.8,0.8,1.3,1c2.3,0.7,4.6,1.3,6.9,1.9c1.4,0.4,2.7,1,4.1,1.2c1.4,0.2,2.9,0,4.4,0
		c-0.9,1.7,0.5,2,2.2,2.2c0.9,0.1,1.7,0.7,2.6,1.1c0.6,0.2,1.2,0.6,1.8,0.6c1.5-0.1,2.7-0.2,3.8,1.2c0.3,0.4,1.5,0,2.3,0.2
		c0.7,0.2,1.3,0.7,1.9,1c-0.7,0.3-1.3,0.9-2,1c-0.7,0.1-1.4-0.4-2.1-0.6c-4-1.1-8-2-11.9-3.2c-2.7-0.8-5.3-2-8-2.8
		c-3.3-0.9-6.7-1.5-10-2.2c-0.8-0.2-1.9,0.1-2.4-0.3c-1.6-1.6-3.3-1.6-5.3-1.2c-0.8,0.2-1.7-0.3-2.6-0.5c-0.8-0.2-1.6-0.5-2.4-0.4
		c-0.5,0.1-0.9,0.8-1.3,1.2c0.4,0.3,0.8,0.9,1.3,1c0.6,0.2,1.3-0.1,2,0c3.3,0.7,6.6,1.4,9.9,2.2c1.2,0.3,2.4,0.8,3.7,1.1
		c0.7,0.2,1.5,0.1,2.2,0.3c4.9,1.4,9.8,2.7,14.7,4.2c2.1,0.7,4.2,1.7,6.3,2.6c0,0.2-0.1,0.4-0.1,0.6c-0.8,0-1.7,0.2-2.4,0
		c-3.7-1.1-7.4-2.5-11.2-3.5c-3.5-0.9-7.1-1.5-10.6-2.3c-1.1-0.2-2.2-0.6-3.3-0.9c-0.7-0.2-1.4-0.6-2.1-0.6
		c-7.9-0.7-15.7-1.3-23.6-2c-2.7-0.2-5.4-0.8-8.1-1.2c-0.5-0.1-1-0.2-1.5-0.3c-12.1-1.8-24.3-2.2-36.6-1.4
		c-6.2,0.4-12.4,0.8-18.6,1.5c-6.8,0.8-13.6,1.9-20.4,2.9c-0.1,0-0.2,0-0.2,0c-8.1,0.7-16.2,1.4-24.3,2.1c-2.9,0.3-5.8,0.5-8.7,0.9
		c-1.5,0.2-3,0.5-4.5,0.6c-12,0.7-23.9,1.3-35.9,2.1c-3.4,0.2-6.7,1-10.1,1.4c-2.1,0.2-4.3,0.1-6.5,0c-0.6,0-1.6-0.5-1.8-1
		c-0.2-0.4,0.3-1.3,0.7-1.8c2.2-2.6,1.6-5.8-1.2-7.6c-2.3-1.5-4.4-3.5-6.5-5.3c-0.5-0.4-0.5-1.5-0.6-2.2c-0.1-1.9,0.2-3.6,0.8-5
		l-1.9,1.3l-3.1,5l2.5,10.5l7.1,9.3l9.8,6.5l10,2.5l9.9,1.3l17.5,5.8l8,1.3l1.4,0.9l14.1,5.6l3.9,0.9l4.4-2.5l5.4-4.9l9.4,0.1
		l25.7,4.4l42.1-1.1l14.1,8l10.8,21.8l3.5,14.3l2.8,7.3l3.5,3.3l4.6,1.1l5.6,2.9l4.9,3.5l4.5,6.5l8.8,20.4l4.8,11l9.1,3.4l39.7,0.4
		l14.5,5.4l3.5,12.8l-1,15.1l0.9,12.6l3.1,2.5l10.3,3.8l2.1,3.8l1.3,4.9l5.9,15.4l2.5,4.5l5,4l20.2,10l11.9,8.1l3.9,0.8l77.5-4.5
		l13.5,2.4l10.9,1.9l25,7.1l12-1l12.1-8.3l10.5-4.4l13.4,1.9l12.5,4.6l0.6,0.4l42.1,24.5l10.4,13l49.6,44.4l10.5,5.1l10.6,2.4
		l11.9,0.6l14-4.4l1.8-10.3l-5.8-22.7l-11.5,3.5l-11.1,1l-10.6-2.4l-10-6.3l5.5-4.6l6-2.1l6.1,0.4l6.1,2.8l-1.5-3.8l-0.9-6.1
		l-1.5-3.1l4.1-1.8l7.3-4.5l4.1-1.6l-4.3-16.7l2.1-5.5l9.4-18.8l4.1-2.4l8.8-5.1l14.9-5.3l16.5,1.8l7,2.8l6,4.6l7.6,10.5l6.1,5.4
		l-12,4.1v4.4h31.5l6.3,2.5l4.6,3.1l5,2.3h7.5l9.1-5.9l7.6-10.8l10.1-36.3l2.3-13.8l2.3-4.4l7.5,0.9l2.1-4.6l7.1-8l2.8-6.4l1.8-6.1
		l7.5,3.5l10.1,6.6l3.8,2.3l8.1,4.9l11.8-0.3l17.3,0.3l7.4,1.8l4.3,4.1l2.6,2.5l-62.8,3.6v4.1l29.9,1.1l8.8-1.1l20.7-4.9l11.9-0.8
		l8.8,3.6l4.3,2.4l15.9,3.8l1.4,0.4l3.5,3.1l2.6,4l3,3.4l4.6,1.4l4.5,2.6l1.8,5.9l1.1,7l2.6,5.4l5.9,4.1l4.6,0.6l4.4-0.9l4.5-0.1
		l31.7,4.9l44.9-4l17.2-6.4l10.5,2.6l10.3,4.9l8.9,2.5l10-3l9.1-13.8l10.3-3.8l-2.3,7.4l-1.5,2l-4,2.9l10.1,2.6l11.9-3.4l20.9-11.5
		l29.4-7.5l6-4.8L892.4,1302.5z M347.2,1242.7l-3.3-5.9l-6.4-9.6l6.4,9.6L347.2,1242.7l2.1,7L347.2,1242.7z M621.5,1209.5l-2.5,4.8
		L621.5,1209.5l1.9-2.3L621.5,1209.5z M648,1282.5l-0.6,3.5l0.4,5.5l-0.4-5.5L648,1282.5l2.5-3.9L648,1282.5z M662.3,1277.3
		l-1.5,0.3L662.3,1277.3l0.9-1.3L662.3,1277.3z M681.9,1239.1l-4.3-2L681.9,1239.1l27.2,8.6L681.9,1239.1z M740.1,1242.4l-8,0.1
		l-2.4,0.2l-2.5,1.6l-2.5,2.5l-2.3,1.4l2.3-1.4l2.5-2.5l2.5-1.6l2.4-0.2L740.1,1242.4l4.9-0.9L740.1,1242.4z M748.9,1239.4l2.9-1.3
		h0L748.9,1239.4z M769.6,1246.3l-6.1-3.5L769.6,1246.3l18.7,3L769.6,1246.3z"/>
	<path class="st1" d="M-262.2,1111.5c0.6,0.5,1.1,1.3,1.7,1.3c0.7,0.1,1.5-0.5,3-1c-1.2-0.7-1.7-1.3-2.2-1.2
		C-260.5,1110.7-261.3,1111.2-262.2,1111.5z"/>
	<path class="st1" d="M168.7,1108.7c-15.2-7.6-31.2-9.9-47.8-7.5C135.8,1109.8,152,1110.9,168.7,1108.7z"/>
	<path class="st1" d="M-119.9,1103.5c-1.7-0.3-3.2-0.9-4.3-0.6c-1.7,0.6-3.2,1.8-4.7,2.8C-126.6,1108.3-125.3,1108-119.9,1103.5z"/>
	<path class="st1" d="M248.2,993c-5.2-9.2-14.2-10.7-23.2-4.4C231.3,995.9,238.3,997.4,248.2,993z"/>
	<path class="st1" d="M175.9,1027.1c15.9,0.8,31.9,1.1,47.8,1.6c-6.8-9.8-22.2-13.1-29.9-7.9c-4.3,2.9-7.8,3.9-11.6,2.8l0,0.1l0-0.1
		c-1.5-0.4-3-1.2-4.6-2.3c-1.1-0.8-3.7,0.5-5.7,0.9C173.3,1023.9,174.5,1027,175.9,1027.1z"/>
	<path class="st1" d="M204.5,1092.9c1.9,0.7,5-1.7,9.8-3.6c-3.8-3.3-5.7-6.5-7.9-6.6c-2.6-0.2-5.4,2.1-8.1,3.4
		C200.3,1088.4,201.9,1091.9,204.5,1092.9z"/>
	<path class="st1" d="M160.7,1051c6.5,4.8,13.6,6.6,20.8,7.2l1.4-6.8C175.7,1049.8,168.4,1049.2,160.7,1051z"/>
	<path class="st1" d="M780.3,1197.8c-7.3-0.7-14.6-1.5-21.9-2.2c-0.1,0.5-0.2,1-0.2,1.5C761.1,1201.1,773.8,1202.1,780.3,1197.8z"/>
	<path class="st1" d="M209.6,1212.2c3.9,2.6,11.7,2.2,14.1-1.2c-5,0-9.5,0-14.1,0C209.6,1211.4,209.6,1211.8,209.6,1212.2z"/>
	<path class="st1" d="M719.7,1202c0.1,0.7,0.1,2.1,0.2,2.1c1.9,0.1,3.8,0.1,5.8,0.1c0-0.9-0.1-1.7-0.1-2.6
		C723.6,1201.7,721.6,1201.9,719.7,1202z"/>
	<path class="st1" d="M795.6,1205.4c-4.9-2.9-9.2-0.2-13.5,0.4C786.4,1205.2,790.9,1210.3,795.6,1205.4z"/>
	<path class="st1" d="M206.8,1058.7c-7.9-2.4-15.8-5.4-23.8-7.2l-1.4,6.8C189.8,1058.9,198.4,1058.1,206.8,1058.7z"/>
	<path class="st1" d="M203,983.3l-4-2.4l-15-3.6l-5.9-0.5l-0.4,3.5C185.9,983,194.3,984.3,203,983.3z"/>
	<path class="st1" d="M177.7,980.2l0.4-3.5l-11.2-0.8c1.1,0.5,2.3,0.9,3.4,1.4C172.8,978.4,175.2,979.4,177.7,980.2z"/>
	<path class="st1" d="M-305.3,1062.7c3.7-0.8,7.3-1.9,11-2.8c0.6-0.2,1.3-0.3,2-0.4c0,0,0.1,0,0.1,0c-5.4-1.7-10.7-3.5-16.1-5.3
		c-6.6-2.2-10.1-4.5-11-7.7l-0.3,2.8l-4.4,7.1l-1,5.1l0.2,5.4c2-0.6,4-1.1,6.1-1.6C-314.2,1064.3-309.7,1063.6-305.3,1062.7z"/>
	<path class="st1" d="M727,1196.9c0-0.4,0-0.9,0.1-1.3c-3.7,0-7.5,0-11.2,0c0,0.4,0,0.9,0,1.3C719.6,1196.9,723.3,1196.9,727,1196.9
		z"/>
	<path class="st2" d="M417,1026c0.3-1.4,0.7-2.9,1-4.3c-4.7-2.4-9.2-5.3-14.1-7.1l-0.1,0l-19.7,3.4l-13.4-0.5
		c11.1,3,22.1,6.3,33.3,9C408,1027.4,412.6,1026.2,417,1026z"/>
	<g>
		<path class="st1" d="M120.9,1101.2c15,8.5,31.2,9.7,47.8,7.5C153.5,1101.1,137.5,1098.8,120.9,1101.2z"/>
		<path class="st1" d="M-124.2,1102.9c-1.7,0.6-3.2,1.8-4.7,2.8c2.3,2.6,3.6,2.3,9-2.2C-121.7,1103.2-123.1,1102.6-124.2,1102.9z"/>
		<path class="st1" d="M248.2,993c-5.2-9.2-14.2-10.7-23.2-4.4C231.3,995.9,238.3,997.4,248.2,993z"/>
		<path class="st1" d="M209.6,1212.2c3.9,2.6,11.7,2.2,14.1-1.2c-5,0-9.5,0-14.1,0C209.6,1211.4,209.6,1211.8,209.6,1212.2z"/>
		<path class="st1" d="M273.9,1085c9.1,3.9,18.5,7.4,27.9,10.5c1.3,0.4,4.5-1.4,5.1-2.8c0.5-1.4-0.8-4.5-2.2-5.3
			c-7.7-4.3-15.6-8-24.2-12.3c-2.7,1.2-5.9,1.8-7.9,3.7C271.7,1079.6,272.7,1084.4,273.9,1085z"/>
		<path class="st1" d="M231.6,1033.5c-4.1,1-8.3,2-12.4,3c0.3,1.6,0.5,3.3,0.8,4.9c4.1-0.4,8.1-0.6,12.1-1.4
			C232.4,1039.9,231.8,1035.7,231.6,1033.5z"/>
		<path class="st1" d="M222.6,1067.1c9.5,7.3,36.1,11.2,43.8,6.9C260.3,1066.8,234.5,1062.4,222.6,1067.1z"/>
		<path class="st1" d="M62.9,1089.3c7.2,0.5,14.4,1,21.5,1.6c0.1-1,0.2-1.9,0.3-2.9c-7.1-1-14.3-2.1-21.4-3.1
			C63.2,1086.3,63,1087.8,62.9,1089.3z"/>
		<polygon class="st1" points="339.8,1207.7 338.2,1213.4 338,1214.7 338.2,1213.4 		"/>
		<polygon class="st1" points="339.7,1192.7 341.9,1203.3 339.8,1207.7 341.9,1203.3 		"/>
		<path class="st1" d="M-262.2,1111.5c0.6,0.5,1.1,1.3,1.7,1.3c0.7,0.1,1.5-0.5,3-1c-1.2-0.7-1.7-1.3-2.2-1.2
			C-260.5,1110.7-261.3,1111.2-262.2,1111.5z"/>
		<polygon class="st1" points="-258.9,1060.8 -270.5,1074.5 -258.9,1060.8 -255.6,1060 -184.6,1059.6 -255.6,1060 		"/>
		<path class="st1" d="M-245.4,1111.1c1.2,0,2.5,0,3.7,0c0-0.2,0-0.5,0-0.7c-1.2,0-2.5,0-3.7,0
			C-245.4,1110.6-245.4,1110.8-245.4,1111.1z"/>
		<path class="st1" d="M-217.8,1106.2c-4.4,0.2-8.7,0.5-13.1,0.8c-0.9,0.1-1.8,0.2-2.6,0.6c-0.5,0.2-0.8,0.9-1.2,1.4
			c0.6,0.4,1.1,1.2,1.6,1.2c2.7,0,5.7,0.3,8.1-0.6c3.1-1.3,6.1-1.1,9.2-1c3.1,0.1,6.2-0.2,9.3-0.3c0-0.4,0.1-0.9,0.1-1.3
			c-0.9-0.3-1.7-0.9-2.6-0.9C-211.8,1106-214.8,1106.1-217.8,1106.2z"/>
		<path class="st1" d="M541.4,1172c-5.8-1.2-11.6-2.6-17.4-4.1c-12.1,1-24.1,2.6-36.2,3.7c-8.8,0.8-17.6,1.4-26.4,2.4
			c-3.4,0.4-6.8,1.9-10.2,2c2.2,0.9,4.4,1.7,6.6,2.6c13-0.3,26.1-0.1,38.8-2.3c14.4-2.5,28.8-1.9,43.2-2.9c1.8-0.1,3.6-0.4,5.4-0.7
			C543.9,1172.5,542.6,1172.2,541.4,1172z"/>
		<path class="st1" d="M715.9,1196.9c3.7,0,7.4,0,11.1,0c0-0.4,0-0.9,0.1-1.3c-3.7,0-7.5,0-11.2,0
			C715.9,1196,715.9,1196.5,715.9,1196.9z"/>
		<polygon class="st1" points="184.1,1016.3 183.7,1012.1 177,994.9 183.7,1012.1 184.1,1016.3 183.7,1019.8 182.2,1023.6 
			183.7,1019.8 		"/>
		<path class="st1" d="M719.7,1202c0.1,0.7,0.1,2.1,0.2,2.1c1.9,0.1,3.8,0.1,5.8,0.1c0-0.9-0.1-1.7-0.1-2.6
			C723.6,1201.7,721.6,1201.9,719.7,1202z"/>
		<path class="st1" d="M782.1,1205.8c4.3-0.7,8.8,4.4,13.5-0.4C790.7,1202.5,786.3,1205.2,782.1,1205.8z"/>
		<path class="st1" d="M758.2,1197c2.9,4,15.7,5.1,22.1,0.7c-7.3-0.7-14.6-1.5-21.9-2.2C758.3,1196,758.2,1196.5,758.2,1197z"/>
		<path class="st1" d="M589,1179.5c-11.8,0-23.7-0.1-35.5,0c-2.5,0-5,0.4-7.4,1c-1.6,0.4-3,1.5-4.5,2.3c0.1,0.6,0.3,1.2,0.4,1.8
			c5.9,0.4,11.9,1.1,17.8,1c13.5-0.3,27-1,40.4-1.7c1.3-0.1,2.5-1.3,3.7-1.9c-0.4-0.2-0.7-0.5-1-0.7
			C598.2,1180.7,593.6,1180.1,589,1179.5z"/>
		<polygon class="st1" points="227.4,1140.6 232.8,1141.1 227.4,1140.6 		"/>
		<path class="st1" d="M204.5,1092.9c1.9,0.7,5-1.7,9.8-3.6c-3.8-3.3-5.7-6.5-7.9-6.6c-2.6-0.2-5.4,2.1-8.1,3.4
			C200.3,1088.4,201.9,1091.9,204.5,1092.9z"/>
		<path class="st1" d="M509,1166.9c2.9-0.2,5.8-0.4,8.6-0.7c-16.6-4.3-33-9.3-49.4-14.2c-13.2-4-25.9-9.8-38.7-14.9
			c-12-4.7-23.9-9.5-35.8-14.5c-10.7-4.4-21.2-9.1-31.8-13.7c-10-4.5-19.9-9.4-30-13.6c-9.2-3.8-18.1,3.9-16.8,15.9
			c-11.2-1.6-21.9-3.7-32.8-4.6c-4.7-0.4-9.6,1.8-14.4,2.8c3.9,2.6,7.4,6,11.6,7.6c17.3,6.7,34.7,13.2,52.2,19.1
			c8.3,2.8,17.4,3.5,25.8,6.2c3.5,1.1,7,2.3,10.5,3.4l-32.8,4.1c-2-0.4-4.1-0.7-6.1-0.8c-9.2-0.7-17.6-1.7-25.3-8.3
			c-3.9-3.3-11.4-2.2-17.1-3.8c-6.4-1.8-12.7-4.3-19-6.4c-5.6-1.9-11.3-5.4-16.8-5.1c-11.6,0.5-21.7-3-31.6-8.2
			c-9.4-5-19.1-5.6-30.9,0.3c3.8,2.5,6.1,5.1,8.8,5.7c6.7,1.6,13.6,2.9,20.5,3.2c9,0.4,16.8,1.7,24.5,7.7c5.1,4,13.6,3.7,20.5,5.3
			c5.1,1.2,10.3,1.9,15.3,3.5c7.9,2.5,15.7,5.6,23.5,8.4c13.9,5,27.8,10,41.8,14.8c12.8,4.4,26.3,7.3,38.8,12.2
			c6.4-0.5,12.8-1,19.2-1.9c3.2-0.4,6.3-0.8,9.5-1.2c-8.1-2.6-16.2-5.1-24.3-7.8c-13.7-4.6-27.2-10-40.9-14.7
			c-3.4-1.2-6.9-2.2-10.5-2.9l32.8-4.1c15.3,5.1,30.5,10.4,45.6,16c9.7,3.6,19.3,7.3,28.9,11c6.8-0.6,13.5-1.6,20.2-2.2
			C478.2,1169.2,493.6,1168.1,509,1166.9z"/>
		<path class="st1" d="M193.8,1020.8c-4.3,2.9-7.8,3.9-11.6,2.8c-1.5-0.4-3-1.2-4.6-2.3c-1.1-0.8-3.7,0.5-5.7,0.9
			c1.3,1.7,2.5,4.8,3.9,4.9c15.9,0.8,31.9,1.1,47.8,1.6C216.9,1018.8,201.6,1015.6,193.8,1020.8z"/>
		<path class="st1" d="M389.6,1180.3c-0.5,0.1-1.1,0.3-1.6,0.6c1.7,0.8,3.4,1.6,5,2.5c0.1,0,0.1,0.1,0.2,0.1
			c0.4-0.5,0.8-1.1,1.3-1.5C392.9,1181.4,391.1,1180,389.6,1180.3z"/>
		<path class="st1" d="M404.5,1179.4c-1.3,0.2-2.5,1-4,1.6c1.7,3.8,4.4,4.4,7.7,4c6.5-0.8,13-1.5,19.6-2.2c1.8-0.2,3.7-0.2,5.6-0.3
			c-5.2-1.7-10.4-3.3-15.6-5C413.3,1178.1,408.9,1178.8,404.5,1179.4z"/>
		<path class="st2" d="M832.2,1201.7c-3-0.2-6.1-0.6-9.1-0.5c-7.1,0.3-7.1,0.4-8.4-6.1c0-0.2-0.4-0.4-1.3-1.2
			c-1.1,1.2-2.1,2.3-3.2,3.5c-0.9,1-1.7,2.1-2.6,3.1c-0.8-0.9-1.5-2-2.4-2.8c-1-0.8-2.1-1.7-3.3-2c-1.1-0.3-2.4,0.2-3.8,0.3
			c0.8,1.4,1.3,2.4,2.2,3.9c-5.4,0.6-10.2,1.7-14.9-0.1c-0.3-0.5-0.5-1-0.8-1.4c1.3-0.5,2.6-1,4.6-1.9c-2-0.8-2.4-1-3-1.2
			c-14.2-4.6-29-4.7-43.7-5.6c-9.4-0.5-18.8-1-28.2-1.4c-4.3-0.2-6.8-1.9-6.8-6.6c0-3.1-1.6-4.6-5-3.3c-2.2,0.8-4.6,1.2-7,1.6
			c-4.6,0.6-9,0.1-14.4-1.5c5.2-5.1,11.3-0.3,16.9-3.8c-2.4-0.4-3.5-0.9-4.7-0.9c-6.3-0.1-12.6,0-18.9,0c-4-0.1-8.1-0.1-12.1-0.6
			c-2.6-0.3-5.1-2.1-7.6-2.2c-11.5-0.3-23-0.1-34.6-0.3c-3.5-0.1-6.9-1.1-10.4-1c-9.9,0.1-19.8,0.6-29.8,0.7c-5,0.1-10-0.2-15-0.2
			c-4.7-1.2-9.3-2.4-14-3.7c13.8-0.2,27.6-0.1,41.4-0.1c6.1,0,12.3,0.9,18.4,0.9c7.3,0,14.5-1.1,21.8-1c19.9,0.3,39.9,0.8,59.8,1.4
			c6.7,0.2,13.3,1,20,1.4c0.2-0.7,0.3-1.4,0.5-2.1c-1.8-0.5-3.7-1.5-5.5-1.6c-19.8-0.8-39.6-1.9-59.4-2c-33-0.2-66,0.1-99,0.6
			c-2,0-3.9,0.1-5.9,0.2c-8-2.3-15.9-4.7-23.6-7.5c-24.2-8.7-48.1-18.6-71.7-28.9c-11.8-5.2-26.8-4.6-34.5-17.8
			c-0.6-1-3.2-1.9-4.2-1.4c-6.9,2.9-11.8-0.6-17.5-3.7c-8.2-4.5-16.9-7.9-25.5-11.5c-10.9-4.6-22-8.9-32.9-13.5
			c-12-5.1-23.6-11.1-35.8-15.6c-11.2-4.2-23-6.5-34.3-10.4c-6.2-2.2-12.1-5.6-17.4-9.4c-2.6-1.9-3.6-6.1-5.3-9.2
			c3.9-1.5,7.8-3.9,11.8-4.1c2.4-0.2,5.1,3,7.6,4.7c3.8,2.4,7.3,6,11.4,7c23.7,5.7,47.2,11.8,69.6,22.1c18.4,8.5,37.5,15.3,56.3,23
			c1.4,0.6,2.6,1.7,4,2.4c9.8,4.8,19.4,10.2,29.5,14.2c9.1,3.5,18.2,6.9,27.4,10.2c10.1,3.6,20.2,7.1,30.2,10.8
			c17.1,6.2,34.2,12.6,51.2,18.8c6.2,2.3,12.4,4.6,18.7,6.5c8.7,2.7,17.6,5,26.4,7.5c0.5-1.1,1-2.3,1.4-3.4
			c-2.8-2.3-5.3-5.5-8.5-6.7c-8.5-3.3-17.5-5.5-26.1-8.6c-17.4-6.4-34.7-13-51.9-19.9c-4.3-1.7-7.6-5.8-11.8-7.7
			c-14.2-6.6-28.5-12.8-42.9-19c-26.9-11.5-54-22.8-80.9-34.4c-8.8-3.8-17.5-7.9-26-12.3c-2.4-1.2-4.3-3.6-6.4-5.4
			c3-1.1,6.1-3.4,8.8-3.1c8.1,1,16.1,3.3,24.2,4.5c2.5,0.4,5.3-1.4,7.9-2.2c-1.7-2.3-2.8-5.9-5-6.6c-7.4-2.7-15.1-5.8-22.8-6
			c-10.9-0.4-21.5-6.3-33.1-0.3c-6.9,3.6-12.1-2.2-12.9-12c-15.7-3.6-32.2-6.4-44.4-21.5c14-1.3,26.2-0.2,38.3,4.1
			c9.1,3.3,18.3,6.6,27.7,8.8c13.8,3.3,28,5.3,41.8,8.6c0.1,0,0.3,0.1,0.4,0.1l-9.6-8.5l-3.1-1.9l-25.5-4.5l0.5,1.1l-1.9,1.9l-3,1.5
			h-3.4l-2.8-2.6l-2.1-7.4l-2.6-2.8l-20.7-5.3l-30.2-3.5h-29.3l-18,4.6l-7.7-4.7c-8.6,0.9-17-0.3-25.3-3.1l-1,9.8l1-9.8
			c-2.5-0.8-4.9-1.8-7.4-2.9c-1.1-0.5-2.3-1-3.4-1.4l-22.5-1.7l-24.5-6l-55.6-1l-40.6-8.9l-46.1-10.1l-26.2-1l-23,3.8l-10.1,4.6
			l-5.9,5.5l-12.9,16.7l-3.6,6.3l0.2,4.6l-0.6,3.9l-5.8,4.1l-6.5,1l-6.3-1.5l-4.5-1.6l-6.1-2.4h-12.4l-36.9,4.5l-13-2.5l-10.5-4
			l-9.1,0.3l-8.5,10l-14.6-11.3l-20.4,6.8l-17.5,16.3l-5.9,17l-9.5-3.1l-5.9,4.8l-4.5,7l-5.6,3.8l-8.9,0.6l-2,2.4l-0.2,1.8
			c0.8,3.2,4.4,5.5,11,7.7c5.3,1.8,10.7,3.6,16.1,5.3c0,0-0.1,0-0.1,0c-0.7,0.1-1.3,0.2-2,0.4c-3.7,0.9-7.3,2-11,2.8
			c-4.4,1-9,1.6-13.4,2.7c-2,0.5-4,1-6.1,1.6l0.5,12.7l-0.9,4.4l-0.8,3.5l-4,5l-6.6,4.7c-0.6,1.5-0.9,3.1-0.8,5
			c0.1,0.8,0.1,1.8,0.6,2.2c2.1,1.9,4.2,3.8,6.5,5.3c2.8,1.8,3.4,5,1.2,7.6c-0.4,0.5-0.9,1.4-0.7,1.8c0.2,0.5,1.1,0.9,1.8,1
			c2.2,0.1,4.3,0.2,6.5,0c3.4-0.3,6.7-1.1,10.1-1.4c12-0.8,23.9-1.4,35.9-2.1c1.5-0.1,3-0.4,4.5-0.6c2.9-0.3,5.8-0.6,8.7-0.9
			c8.1-0.7,16.2-1.4,24.3-2.1c0.1,0,0.2,0,0.2,0c6.8-1,13.6-2.1,20.4-2.9c6.2-0.7,12.4-1.1,18.6-1.5c12.2-0.8,24.4-0.4,36.6,1.4
			c0.5,0.1,1,0.2,1.5,0.3c2.7,0.4,5.4,1,8.1,1.2c7.9,0.7,15.7,1.3,23.6,2c0.7,0.1,1.4,0.4,2.1,0.6c1.1,0.3,2.2,0.7,3.3,0.9
			c3.5,0.8,7.1,1.3,10.6,2.3c3.8,1,7.4,2.4,11.2,3.5c0.7,0.2,1.6,0,2.4,0c0-0.2,0.1-0.4,0.1-0.6c-2.1-0.9-4.1-1.9-6.3-2.6
			c-4.9-1.5-9.8-2.9-14.7-4.2c-0.7-0.2-1.5-0.1-2.2-0.3c-1.2-0.3-2.4-0.8-3.7-1.1c-3.3-0.8-6.6-1.5-9.9-2.2c-0.6-0.1-1.4,0.1-2,0
			c-0.5-0.1-0.9-0.6-1.3-1c0.4-0.4,0.8-1.1,1.3-1.2c0.8-0.1,1.6,0.2,2.4,0.4c0.9,0.2,1.8,0.6,2.6,0.5c2-0.4,3.7-0.5,5.3,1.2
			c0.4,0.4,1.6,0.2,2.4,0.3c3.3,0.7,6.7,1.3,10,2.2c2.7,0.7,5.3,2,8,2.8c3.9,1.2,8,2.1,11.9,3.2c0.7,0.2,1.4,0.7,2.1,0.6
			c0.7-0.1,1.3-0.6,2-1c-0.6-0.3-1.2-0.8-1.9-1c-0.7-0.2-2,0.2-2.3-0.2c-1.1-1.4-2.3-1.3-3.8-1.2c-0.6,0-1.2-0.3-1.8-0.6
			c-0.9-0.4-1.7-0.9-2.6-1.1c-1.7-0.2-3.1-0.5-2.2-2.2c-1.4,0-2.9,0.2-4.4,0c-1.4-0.2-2.7-0.9-4.1-1.2c-2.3-0.7-4.6-1.2-6.9-1.9
			c-0.5-0.1-0.9-0.7-1.3-1c0-0.3,0-0.5,0-0.8c3.6-0.7,6.7-3.6,10.8-2c1.1,0.4,2.3,0.5,3.4,0.8c6.4,1.3,12.8,2.7,19.2,4
			c2.3,0.4,4.6,0.6,6.9,0.7c0.9,0,1.8-0.7,2.8-1.1c-0.6-0.9-1-2.2-1.8-2.6c-2-1.1-4.2-1.9-6.3-2.8c-0.8-0.4-1.4-1-2.1-1.5
			c0.8-0.5,1.6-1,2.3-1.4c0.3-0.2,0.6-0.2,0.9-0.3c-5.3-1.9-10.3-3.4-15.3-4.6c-5.8-1.4-11.6-2.5-17.4-3.8c-0.6-0.1-1.1-0.7-1.6-1.1
			c0.1-0.3,0.1-0.6,0.2-0.8c1.9-0.2,3.9-0.9,5.8-0.6c5,0.9,10,2,14.9,3.3c6.8,1.8,13.5,3.9,20.3,5.9c0.9,0.2,1.9,0.1,2.8,0.2
			c0-0.3,0.1-0.6,0.1-0.9c-2.2-0.8-4.4-1.5-6.4-2.5c-0.8-0.4-1.4-1.4-2.1-2.1c-1.1-0.5-3.3,0.8-3-2c-1.8-0.6-3.3-1.2-4.9-1.7
			c-1.7-0.6-3.5-1.2-5.2-1.6c-2.7-0.6-5.5-1-8.1-1.8c-0.2-0.1-0.4-0.2-0.5-0.4c49.2,6.4,98.3,13,147.4,19.8
			c26.9,3.7,54,7.6,80.4,14.1c15.1,3.7,30.1,7.6,45.1,11.6l15.3-73.3c-7.3-0.6-14.3-2.3-20.8-7.2c7.7-1.8,15.1-1.2,22.3,0.4l3-14.4
			v-5.6l-3-3.9l3,3.9v5.6l-3,14.4c8,1.8,15.9,4.9,23.8,7.2c-8.3-0.6-16.9,0.2-25.3-0.4l-15.3,73.3c32.5,8.7,65,17.9,97.3,27.2
			c26.3,7.5,52.4,16,78.6,24.1c-12.5,1.3-25.1,2.4-37.6,3.6c-12.2,1.1-24.3,2.1-36.5,3.4c-14.6,1.6-29.2,3.6-43.8,5.3
			c-10.8,1.2-21.7,2.3-32.5,3.3c-3.8,0.3-7.6,0.1-11.4,0.3c-3.6,0.1-4.6,1.6-4.1,5.1c0.2,1.5,0.1,3.4-0.6,4.7
			c-1.5,2.6-0.9,4.2,1.9,4.4c4.7,0.4,5.7,3.2,4.8,7c-0.9,3.9,1.2,6.2,4.1,7.3c4.2,1.7,8.8,3.6,13.2,3.5c16.1-0.5,32.2-1.9,48.3-3
			c0.7,0,1.4-0.3,2.1-0.4c8.9-1.7,17.8-3.6,26.7-5c8.8-1.4,17.7-2.2,26.6-3.3c11.6-1.4,23.1-3.1,34.7-4.3l0.2-1.4l1.6-5.6l2.1-4.4
			l-2.3-10.6l2.3,10.6l-2.1,4.4l-1.6,5.6l-0.2,1.4c2.4-0.2,4.8-0.4,7.1-0.6c25.4-1.8,50.8-3.9,76.3-5.4c2.7,1.2,5.5,2.2,8.4,2.7
			c5.1,0.8,9.5,0.5,12.8,5.8c1.6,2.5,6.2,3,11,5.1c-1.6-9.1-4.8-13.3-11.1-14.6c6.5-0.3,13-0.5,19.5-0.6c12.5-0.2,24.9-0.4,37.4-0.6
			c5.2,2,10.4,4,15.6,5.9c3.7,1.4,8.2,0.8,12.3,1.2c0.1-1,0.2-2,0.3-3c-3.3-1.5-6.7-2.9-10-4.3c44.3-0.5,88.6-0.3,132.8,1.9
			c26.8,1.3,53.6,2.5,80.4,3.2c26.9,0.8,53.7,2.1,79.2-0.7c2.1-1.6,3.2-3,4.6-3.3c5-1.3,10.1-2.1,15.2-3.2c0.9-0.2,1.6-0.7,2.4-1.1
			C832.2,1202.7,832.2,1202.2,832.2,1201.7z M-260.5,1112.8c-0.6-0.1-1.1-0.9-1.7-1.3c0.8-0.3,1.7-0.8,2.5-0.9
			c0.4-0.1,1,0.5,2.2,1.2C-259,1112.3-259.8,1112.9-260.5,1112.8z M-241.7,1111.1c-1.2,0-2.5,0-3.7,0c0-0.2,0-0.5,0-0.7
			c1.2,0,2.5,0,3.7,0C-241.7,1110.6-241.7,1110.8-241.7,1111.1z M-206.4,1108.3c-3.1,0.1-6.2,0.4-9.3,0.3c-3.2-0.1-6.1-0.3-9.2,1
			c-2.4,1-5.4,0.6-8.1,0.6c-0.5,0-1.1-0.7-1.6-1.2c0.4-0.5,0.7-1.2,1.2-1.4c0.8-0.4,1.7-0.5,2.6-0.6c4.4-0.3,8.7-0.6,13.1-0.8
			c3-0.1,6-0.2,9-0.1c0.9,0,1.7,0.6,2.6,0.9C-206.4,1107.4-206.4,1107.9-206.4,1108.3z M-255.6,1060l-3.3,0.8l-11.6,13.8l11.6-13.8
			L-255.6,1060l71-0.4L-255.6,1060z M-119.9,1103.5c-5.4,4.6-6.6,4.8-9,2.2c1.6-1,3-2.2,4.7-2.8
			C-123.1,1102.6-121.7,1103.2-119.9,1103.5z M84.4,1090.9c-7.2-0.5-14.4-1-21.5-1.6c0.2-1.5,0.3-3,0.5-4.5c7.1,1,14.3,2.1,21.4,3.1
			C84.7,1089,84.5,1089.9,84.4,1090.9z M168.7,1108.7c-16.7,2.2-32.9,1.1-47.8-7.5C137.5,1098.8,153.5,1101.1,168.7,1108.7z
			 M209.6,1212.2c0-0.4,0-0.8,0-1.2c4.6,0,9.1,0,14.1,0C221.2,1214.4,213.5,1214.8,209.6,1212.2z M272.5,1078.7
			c2-1.9,5.2-2.6,7.9-3.7c8.5,4.3,16.5,8,24.2,12.3c1.4,0.8,2.7,3.9,2.2,5.3c-0.5,1.4-3.7,3.3-5.1,2.8c-9.4-3.1-18.8-6.6-27.9-10.5
			C272.7,1084.4,271.7,1079.6,272.5,1078.7z M266.4,1074c-7.7,4.3-34.3,0.4-43.8-6.9C234.5,1062.4,260.3,1066.8,266.4,1074z
			 M220,1041.4c-0.3-1.6-0.5-3.3-0.8-4.9c4.1-1,8.3-2,12.4-3c0.2,2.2,0.7,6.4,0.4,6.4C228.1,1040.7,224,1041,220,1041.4z M248.2,993
			c-9.9,4.4-16.9,3-23.2-4.4C234,982.3,243,983.7,248.2,993z M175.9,1027.1c-1.4-0.1-2.6-3.2-3.9-4.9c1.9-0.4,4.5-1.7,5.7-0.9
			c1.6,1.1,3.1,1.9,4.6,2.3l1.5-3.8l0.4-3.5l-0.4-4.3l-6.6-17.2l6.6,17.2l0.4,4.3l-0.4,3.5l-1.5,3.8c3.8,1.1,7.3,0.1,11.6-2.8
			c7.7-5.2,23-2,29.9,7.9C207.8,1028.2,191.8,1027.9,175.9,1027.1z M206.4,1082.7c2.1,0.1,4.1,3.3,7.9,6.6c-4.8,1.9-7.9,4.3-9.8,3.6
			c-2.6-1-4.2-4.4-6.2-6.8C201,1084.8,203.8,1082.5,206.4,1082.7z M227.4,1140.6L227.4,1140.6l5.4,0.5L227.4,1140.6z M393.3,1183.5
			c-0.1,0-0.1-0.1-0.2-0.1c-1.6-0.9-3.3-1.7-5-2.5c0.5-0.3,1-0.5,1.6-0.6c1.4-0.3,3.3,1,4.9,1.7
			C394.1,1182.4,393.7,1183,393.3,1183.5z M427.7,1182.7c-6.5,0.7-13.1,1.4-19.6,2.2c-3.4,0.4-6-0.1-7.7-4c1.5-0.6,2.7-1.4,4-1.6
			c4.4-0.6,8.8-1.3,13.2-1.9c5.2,1.6,10.4,3.3,15.6,5C431.5,1182.6,429.6,1182.5,427.7,1182.7z M413.6,1161.8
			c-15.1-5.6-30.3-10.9-45.6-16l-32.8,4.1c3.6,0.7,7.1,1.7,10.5,2.9c13.7,4.7,27.2,10.1,40.9,14.7c8.1,2.7,16.2,5.3,24.3,7.8
			c-3.2,0.4-6.3,0.8-9.5,1.2c-6.4,0.9-12.8,1.4-19.2,1.9c-12.5-4.9-26-7.9-38.8-12.2c-14-4.8-27.9-9.8-41.8-14.8
			c-7.8-2.8-15.6-5.9-23.5-8.4c-5-1.6-10.2-2.3-15.3-3.5c-7-1.6-15.4-1.3-20.5-5.3c-7.7-6-15.5-7.3-24.5-7.7
			c-6.9-0.3-13.8-1.6-20.5-3.2c-2.8-0.7-5.1-3.2-8.8-5.7c11.8-5.9,21.5-5.3,30.9-0.3c9.9,5.2,20,8.7,31.6,8.2
			c5.5-0.2,11.2,3.3,16.8,5.1c6.3,2.1,12.6,4.7,19,6.4c5.7,1.6,13.2,0.4,17.1,3.8c7.7,6.6,16.1,7.6,25.3,8.3c2,0.1,4.1,0.4,6.1,0.8
			l32.8-4.1c-3.5-1.2-7-2.3-10.5-3.4c-8.4-2.7-17.4-3.4-25.8-6.2c-17.6-5.9-34.9-12.4-52.2-19.1c-4.2-1.6-7.8-5-11.6-7.6
			c4.8-1,9.7-3.2,14.4-2.8c10.9,0.8,21.6,2.9,32.8,4.6c-1.3-12,7.6-19.7,16.8-15.9c10.1,4.2,20,9.1,30,13.6
			c10.6,4.7,21.1,9.3,31.8,13.7c11.9,5,23.8,9.7,35.8,14.5c12.9,5.1,25.5,10.9,38.7,14.9c16.4,5,32.8,9.9,49.4,14.2
			c-2.9,0.2-5.8,0.5-8.6,0.7c-15.4,1.1-30.8,2.3-46.1,3.6c-6.8,0.6-13.5,1.6-20.2,2.2C432.9,1169,423.3,1165.4,413.6,1161.8z
			 M496.6,1176.3c-12.7,2.2-25.8,2-38.8,2.3c-2.2-0.9-4.4-1.7-6.6-2.6c3.4-0.2,6.8-1.7,10.2-2c8.8-0.9,17.6-1.5,26.4-2.4
			c12.1-1.1,24.1-2.7,36.2-3.7c5.8,1.4,11.6,2.8,17.4,4.1c1.3,0.3,2.5,0.5,3.8,0.8c-1.8,0.3-3.6,0.6-5.4,0.7
			C525.4,1174.4,511,1173.8,496.6,1176.3z M600.1,1184c-13.5,0.7-27,1.4-40.4,1.7c-5.9,0.1-11.9-0.6-17.8-1
			c-0.1-0.6-0.3-1.2-0.4-1.8c1.5-0.8,2.9-1.9,4.5-2.3c2.4-0.6,5-1,7.4-1c11.8-0.1,23.7-0.1,35.5,0c4.6,0.6,9.2,1.2,13.8,1.8
			c0.3,0.3,0.7,0.5,1,0.7C602.6,1182.7,601.3,1183.9,600.1,1184z M719.9,1204.1c-0.1,0-0.2-1.4-0.2-2.1c2-0.1,4-0.3,5.9-0.4
			c0,0.9,0.1,1.7,0.1,2.6C723.7,1204.2,721.8,1204.2,719.9,1204.1z M727,1196.9c-3.7,0-7.4,0-11.1,0c0-0.4,0-0.9,0-1.3
			c3.7,0,7.5,0,11.2,0C727.1,1196,727.1,1196.5,727,1196.9z M758.2,1197c0.1-0.5,0.2-1,0.2-1.5c7.3,0.7,14.6,1.5,21.9,2.2
			C773.8,1202.1,761.1,1201.1,758.2,1197z M782.1,1205.8c4.3-0.6,8.6-3.3,13.5-0.4C790.9,1210.3,786.4,1205.2,782.1,1205.8z"/>
	</g>
</g>
<g>
	<path id="JAM1377_1_" class="st3" d="M466,647.3l-20.6-20l-35.7-8.5l-83.6-1.2l-56.9,1.2l-39.4-23.6l9.1-26.7l4.8-10.9l21.2-13.9
		l27.9-11.5l23-6.1l71.5-3.6l41.2,9.7l27.3,14.5l23,53.9l2.4,37.6L466,647.3L466,647.3z"/>
	<path id="JAM1382_1_" class="st3" d="M398.1,109.4l17.6,58.8l0.6,7.3l24.8,73.3l12.1,17.6l10.3,6.1l17.6,5.5l36.3,7.9l27.3-5.5
		l13.3-5.5l12.1-23l9.1-10.9l36.3,5.5l124.8,52.1L715,322l-4.8,18.2l-3.6,23.6l-1.2,44.2l3.6,17.6l6.7,16.4l7.3,13.3l15.7,54.5
		l4.8,9.7l20,28.5l8.5,16.4v9.7l-4.2,6.1l-7.3,1.2l-27.9-2.4l-10.9,2.4l-10.9,4.8l-12.1,18.8l-3,17l1.8,26.7l-4.2,22.4l-17.6,20
		l-16.4,26l-76.9-18.2l-20.6-11.5l-42.4-17.6l-57.5,3.6L361.8,697l-42.4,5.5L174.6,697v-20l304.1-17.6L466,647.3l15.1-9.1l-2.4-37.6
		l-23-53.9l-27.3-14.5l-41.2-9.7l-71.5,3.6l-23,6.1l-27.9,11.5l-21.2,13.9l-4.8,10.9l-9.1,26.7l-18.2-10.9l-49.1-32.1l-36.3-17
		l-9.1-33.9l-18.8-26l-21.8,7.9L62,485l-6.7-3l-8.5-10.3l-5.5-13.3l-4.8-7.9l-20-17.6l-0.6-17l3.6-24.8l16.4-58.8l9.7-24.8l8.5-15.1
		l10.9-9.1l7.9-11.5l9.7-21.2l0.6-10.9l-3-14.5L62,187l-5.5-29.7l6.1-76.3l37.6-15.1l13.3-13.3l6.7-14.5l10.3-4.8l17-2.4l35.1-0.6
		l16.4-3l46,9.1L398.1,109.4L398.1,109.4z"/>
</g>
<path class="st4" d="M78.7,1369.2c-7.5-1.4-14.9-3.1-22.4-4.3c-6.1-1-12.4-0.9-18.4-2.4c-4.7-1.1-9-0.9-13.5,0.4
	c-0.8,0.2-1.6,0.6-2.4,1c0,0.3,0,0.6,0,0.9c4.7,0.7,9.5,1.4,14.2,2.1c4.8,0.7,9.6,1.4,14.4,2.3c4.7,0.8,9.5,1.8,14.1,2.8
	c4.7,1.1,9.3,2.3,13.9,3.5c-0.1,0.4-0.1,0.7-0.2,1.1c-2.3-0.5-4.6-1-7-1.5c-1.6-0.3-3.2-0.6-4.8-1c-1.8-0.4-3.7-0.9-5.5-1.3
	c-0.5-0.1-1-0.3-1.4-0.4c-2.9-0.5-5.8-1.2-8.7-1.6c-4.9-0.7-9.8-1.3-14.7-2c-4.6-0.6-9.2-1.3-13.8-1.9c-13.9-2-27.8-3.1-41.8-1.5
	c-4.4,0.5-8.7,1.1-13.1,1.7c-0.8,0.1-1.5,0.5-2.5,0.9c0.5,0.7,0.8,1.2,1.2,1.8c-0.2,0.2-0.4,0.3-0.6,0.4c-0.2,0.1-0.5,0.2-0.7,0.2
	c-7.8,0.7-15.6,1.1-23.3,2.1c-4.3,0.5-8.6,1.8-12.8,2.7c-0.3,0.1-0.6,0.4-0.9,0.4c-4.5,0-9.1,0-13.8,0c0.1-1,0.2-1.6,0.3-2.3
	c0.2-2.7-1.1-4-3.8-3.3c-1.8,0.4-3.4,0.3-4.5-1.1c-0.6-0.8-0.7-2.1-0.9-3.3c-0.1-0.4,0.4-1,0.4-1.4c-0.2-2.4,0.6-4.3,2-6.2
	c0.6-0.8,0.6-2.1,0.8-3.2c-1,0-2,0-3.1,0c-0.5,0-0.9,0-1.8-0.6c1-1,1.9-1.9,2.8-2.9c0.9-1,1.7-2.1,3-3.6c-1.2-0.1-1.8-0.4-2.2-0.2
	c-4.4,2.1-9,1-13.5,1c-2.6,0-3.7-2.7-2-4.8c3-3.6,3.1-7.9,3.1-12.2c0-0.6-0.1-1.6,0.3-1.9c3.9-2.7,4.8-7.4,7.6-10.8
	c2.5-3,5.6-5.6,8.9-7.8c4.6-3.2,9.5-6.1,14.5-8.6c3.1-1.5,6.6-2.2,10-3.1c5.6-1.6,11.3-3.1,17-4.5c3-0.8,5.9-1.3,8.9-2
	c2.8-0.6,5.7-1.1,8.5-1.6c20.6-3.8,41.3-5.2,62.1-4.5c1.4,0,2.7,0.3,4.1,0.4c0,0.3,0,0.5,0.1,0.8c-1,0.1-1.9,0.4-2.9,0.4
	c-5.6,0.1-11.2,0-16.7,0.1c-1.1,0-2.1,0.4-3.2,0.6c0,0.3-0.1,0.7-0.1,1c0.9,0.3,1.8,0.7,2.7,0.8c6,0.7,12.1,1.3,18.1,2
	c0.8,0.1,1.5,0.6,2.2,0.9c0,0.2-0.1,0.5-0.1,0.7c-0.8,0.1-1.7,0.2-2.5,0.2c-6.5,0.2-13,0.4-19.4,0.5c-1.2,0-2.4-0.3-3.7-0.5
	c-1.1-0.1-2.2-0.4-3.2-0.1c-0.6,0.2-1.2,1.2-1.2,1.9c0,0.4,0.8,1.1,1.4,1.4c0.5,0.2,1.1,0.1,1.7,0.1c9.4,0,18.8,0,28.1-0.1
	c6.1,0,12.2-0.3,18.2,0c13.9,0.7,27.7,1.7,41.6,2.7c0.9,0.1,1.8,0.7,2.7,1.1c-0.1,0.3-0.1,0.6-0.2,0.9c-1.3,0-2.5,0.1-3.8,0
	c-6.5-0.4-12.9-0.9-19.4-1.2c-0.8,0-1.7,0.3-2.6,0.5c0,0.2-0.1,0.5-0.1,0.7c0.7,0.3,1.5,0.7,2.2,0.8c5.3,0.7,10.5,1.6,15.8,1.9
	c3.6,0.2,6.7,1.8,10,2.7c1.8,0.5,3.7,0.9,5.5,1.4c0,0.3-0.1,0.6-0.1,1c-1.4-0.2-2.8-0.3-4.3-0.5c-8.1-1-16.1-2-24.2-2.9
	c-0.7-0.1-1.5,1.1-2.2,1.8c0.8,0.7,1.4,1.9,2.3,2c6.6,0.9,13.2,1.6,19.8,2.4c3.2,0.4,6.4,1.1,9.5,1.8c0.9,0.2,1.7,1,2.4,2
	c-1.5,0-3,0.1-4.5,0c-5.7-0.5-11.4-1-17.1-1.5c-0.7-0.1-1.6-0.1-2.2,0.2c-0.5,0.2-1,0.9-1.1,1.4c0,0.3,0.7,1,1.1,1.1
	c3.8,0.7,7.6,1.4,11.5,1.9c1.7,0.2,3.3,0.4,3.9,2.7c-1.8,0.4-3.5,0.7-5.1,1.1c-0.1,0.3-0.1,0.6-0.2,1c1.3,0.6,2.7,1.2,3.9,1.9
	c0.6,0.3,1.2,0.9,1.8,1.3c-0.5,0.5-1,1.4-1.6,1.5c-2.8,0.3-1.9,2.8-2.5,4.3c-0.2,0.5,1.5,2.1,2.5,2.4c3.9,1.1,7.9,1.8,11.9,2.6
	c2,0.4,3.2,1.5,3.6,4.2c-1.7-0.4-3.1-0.8-4.4-1c-5.6-0.9-11.2-1.7-16.7-2.5c-0.7-0.1-1.4-0.6-2.1-0.8c-1.3-0.3-2.6-0.6-3.9-0.6
	c-0.5,0-0.9,0.7-1.4,1.1c0.5,0.4,0.9,0.9,1.5,1.1c0.6,0.2,1.3,0.2,2,0c1.4-0.3,2.6-0.3,3.5,1.2c0.2,0.3,0.7,0.5,1.1,0.6
	c2.8,0.7,5.6,1.3,8.3,2c0.2,0.1,0.6,0,0.7,0.1c1.8,1.3,3.5,2.6,5.6,4.2c-1.3,0.5-2.5,1-3.9,1.6c2.6,3.1,4.8-0.6,7.1-0.1
	c-0.1,1.4-0.2,2.6-0.3,3.9c-1.8-0.1-3.8-0.4-5.7-0.3c-0.9,0.1-1.7,0.9-2.6,1.4c0.7,0.7,1.3,1.5,2.1,1.9c1.6,0.8,3.3,1.1,4.9,1.9
	c0.6,0.3,0.8,1.3,1.2,1.9c-0.7,0.3-1.3,0.9-2,0.9c-3-0.2-5.9,0-9-1.3c-3-1.4-6.6-1.2-10-1.8c-1-0.2-1.9-0.9-2.9-1.1
	c-0.9-0.2-1.9,0-2.9,0.1c0.5,0.8,0.9,1.8,1.7,2.3c0.9,0.5,2.1,0.6,3.1,0.8c2.3,0.5,4.7,1.1,7,1.6c3.3,0.7,6.6,1.5,9.8,2.2
	c0.9,0.2,1.8,0.4,2.7,0.6c0,0.3,0,0.6,0,0.9c-3.8,0-7.7,0-11.5,0c0,0.2-0.1,0.4-0.1,0.7c1,0.5,2,1,3.1,1.5c-2.6,1.9-4.4,1.7-5.9-0.6
	c-0.8-1.3-1.7-2.2-3.5-1.4c-0.7,0.3-1.7,0-2.6-0.1c-3.3-0.6-6.5-1.3-9.8-1.9c-1.6-0.3-2.5,0.2-2.2,2.2
	C79.4,1366.9,78.9,1368.1,78.7,1369.2L78.7,1369.2z M38.2,1356.3c0,0.3,0,0.7-0.1,1c3.6,0.8,7.1,1.6,10.7,2.1
	c0.7,0.1,1.6-1.2,2.4-1.9c-0.8-0.5-1.6-1.3-2.5-1.4c-3.1-0.3-6.2-0.3-9.4-0.3C39,1355.7,38.6,1356.1,38.2,1356.3z M73.5,1361.1
	c-1.2,0.8-2.1,1.1-2.4,1.7c-0.2,0.4,0.3,1.4,0.7,1.9c0.6,0.8,1.2,1.5,2,2c0.6,0.4,1.5,0.5,2.2,0.3c0.4-0.1,1.1-1.2,1-1.3
	C76,1364.2,74.8,1362.7,73.5,1361.1z M65.5,1362.7c1.1-0.7,1.9-1.3,2.7-1.8c-0.9-0.5-1.7-1.3-2.6-1.3c-0.9,0-1.8,0.8-2.6,1.2
	C63.8,1361.4,64.5,1362,65.5,1362.7z M101.3,1347.9c0,0.3,0,0.7,0,1c1.3,0,2.6,0,3.9-0.1c0.1,0,0.2-0.8,0.3-1.2
	c-1.3,0-2.6-0.1-3.9-0.1C101.4,1347.5,101.3,1347.7,101.3,1347.9z M95.3,1345.5c0,0.3-0.1,0.7-0.1,1c1.2,1.5,2.5,1.4,3.8,0.2
	c0-0.3,0-0.6,0.1-0.9C97.8,1345.7,96.6,1345.6,95.3,1345.5z"/>
<path class="st4" d="M827.9,1339.3c-1.8,0.6-3.6,1.1-5.4,1.7c1.7,1.2,3.2,2.9,5,3.7c6,2.5,12.2,4.7,18.3,7.2c0.7,0.3,1.3,1,2.4,1.9
	c-1.2,0.5-1.9,1-2.6,1c-5.1,0-10.2,0.5-15.2-0.3c-12.4-1.9-24.8-4.4-37.2-6.6c-7.6-1.3-15.3-2.3-22.9-3.5c-5-0.8-9.9-2-14.9-3
	c-2-0.4-4-0.2-6-0.5c-1.7-0.3-3.7-0.4-4.8-1.4c-2.9-2.7-6-2.6-9.4-1.6c-0.9,0.3-2.1,1.2-2.1,1.8c0,0.8,1,1.7,1.7,2.4
	c0.3,0.3,1,0.4,1.5,0.4c3.9-0.1,7.3,1,11,2.7c4.4,2.1,9.6,2.3,14.3,3.6c6,1.6,12,3.4,18,5.1c3.8,1.1,7.7,2.2,11.5,3.4
	c4.2,1.2,8.4,2.5,12.6,3.7c0,0.4,0,0.7,0,1.1c-3.6,0-7.3,0.7-10.7-0.1c-9-2.1-17.8-4.7-26.6-7.4c-11.1-3.4-22.5-4.7-34-5.4
	c-3.1-0.2-6.1-1.1-9.1-1.3c-1.7-0.1-3.5,0.6-5.2,0.9c0,0.4-0.1,0.9-0.1,1.3c6.8,1.9,13.6,3.8,20.4,5.7c-3.7,1.3-7.2,3.3-11.2,0.9
	c-2.9-1.7-3.6-1.3-5.2,1.7c12.7,2.9,25.3,5.8,37.9,8.7c-5.5-0.1-11.1,2.2-16.5-1.2c-1.4-0.9-3.7-0.3-5.5-0.6
	c-2.7-0.5-5.5-1.1-8.2-1.7c-0.8-0.2-1.5-0.7-2.3-0.8c-7.4-1.1-14.8-2-22.1-3.1c-9.6-1.5-19.2-3-28.7-4.8c-7.6-1.4-15.3-2.8-22.8-4.6
	c-7.9-1.9-15.6-4.3-23.4-6.4c-6.5-1.7-12.5-4.6-18-8.4c-1.8-1.2-4.5-3.6-4.3-4.9c0.5-2.2,2.7-4.6,4.7-5.6c3.2-1.6,2.4-3.4,1.4-5.6
	c-2.5-5.6-2.2-6.6,3-9.3c4-2.1,8-4.4,12.3-6c1.5-0.6,4.1,0.1,5.6,1.1c3.2,2.1,6,4.7,9.1,7.2c3.3-2,6.8-4.1,11.1-6.6
	c-5.3-4.1-12.8-0.4-16.4-7.3c4-2,6.6-5.8,9.6-9.2c1.2-1.4,4.6-0.8,7.3-1.2c-0.3-1.1-0.6-2.1-1-3.8c1.2,0,2.2-0.2,3,0
	c4.5,1.2,9,2.8,13.6,3.7c12.7,2.6,25.5,5,38.3,7.2c3.5,0.6,7.2,0.1,10.8,0.5c15,1.6,30.1,3.2,45.1,5c6.2,0.7,12.5,1.5,18.7,2.5
	c1.6,0.3,3.1,1.3,4.5,2.1c1.3,0.7,2.3,2.1,3.6,2.4c4.9,1.1,9.8,1.9,14.7,2.8c5.3,1,10.7,2.1,16,3.2c0.4,0.1,0.8,0.6,1.7,1.5
	c-3.9,1.2-7,1.7-10.5,0.6c-2.1-0.7-4.4-0.7-6.6-0.7c-0.6,0-1.2,1.2-1.9,1.8c0.6,0.6,1.2,1.7,1.9,1.7c4.7,0.1,9.2,2,13.6,2.7
	c6.9,1,13.2,4,20,4.7c1.5,0.2,2.9,0.4,4.4,0.7c1.1,0.3,2.2,0.8,3.2,1.7c-3.7,2-7.1,1.8-10.8,0.2c-1.9-0.8-4.1-1.1-6.1-1.6
	c-2-0.5-4-1.2-6-1.6c-1.8-0.3-3.6-0.2-5.4-0.3c-0.1,0.5-0.2,1-0.2,1.5c1.8,0.7,3.6,1.4,6.5,2.5c-2.1,1-3.5,1.4-4.5,2.3
	c-1,0.9-1.7,2.2-2.5,3.3c1.1,0.7,2.2,1.4,3.3,2.1c1.5,0.9,3,1.8,4.6,2.6L827.9,1339.3z M719.2,1337.4c1.6-1,2.9-1.9,4.3-2.7
	c-1.3-0.8-2.7-2.2-4-2.2c-1.5,0-3,1.3-4.5,2C716.2,1335.4,717.5,1336.3,719.2,1337.4z M699.9,1353.1c-3.8-3-7.6-3-10.8,0
	C692.9,1353.1,696,1353.1,699.9,1353.1z M712.8,1347.5c0-0.5,0-1,0.1-1.5c-3-1.7-6-1.6-9,0.2c0,0.4,0,0.8,0,1.3
	C706.8,1347.5,709.8,1347.5,712.8,1347.5z M704.7,1354.5c0,0.4,0,0.9,0,1.3c3.2,0,6.4,0,9.6,0c0-0.4,0-0.9,0-1.3
	C711.1,1354.5,707.9,1354.5,704.7,1354.5z M796.7,1342.2c-0.2-0.7-0.3-1.5-0.5-2.2c-1.6,0.3-3.3,0.6-4.9,0.9
	c0.3,0.7,0.5,1.9,0.8,1.9C793.7,1342.7,795.2,1342.4,796.7,1342.2z"/>
<path class="st2" d="M191.1,73.7c-6.6,3.8-13.2,7.5-19.7,11.6c-5.2,3.3-9.9,7.4-15.4,10.3c-4.3,2.3-7.4,5.2-9.9,9.1
	c-0.5,0.7-0.8,1.5-1.2,2.3c0.2,0.2,0.4,0.4,0.6,0.6c4-2.6,8-5.2,12-7.8c4.1-2.6,8.2-5.3,12.4-7.8c4.1-2.5,8.3-4.9,12.5-7.2
	c4.2-2.3,8.5-4.4,12.8-6.5c0.2,0.3,0.4,0.6,0.6,1c-2.1,1.2-4.2,2.3-6.2,3.5c-1.4,0.8-2.9,1.7-4.3,2.4c-1.6,0.9-3.3,1.8-5,2.6
	c-0.4,0.2-0.9,0.4-1.3,0.7c-2.6,1.5-5.1,3-7.6,4.6c-4.2,2.7-8.2,5.5-12.4,8.2c-3.9,2.6-7.8,5.1-11.7,7.6c-11.8,7.6-23,16-32.5,26.4
	c-3,3.2-5.9,6.5-8.7,9.9c-0.5,0.6-0.8,1.4-1.3,2.3c0.8,0.2,1.4,0.4,2.1,0.6c-0.1,0.3-0.1,0.5-0.2,0.7c-0.1,0.2-0.3,0.4-0.4,0.6
	c-5.4,5.6-11,11.1-16.2,16.9c-2.9,3.2-5.3,7-7.9,10.5c-0.2,0.3-0.2,0.7-0.5,0.9c-3.4,3-6.8,6-10.4,9.1c-0.6-0.8-0.9-1.4-1.3-1.9
	c-1.7-2.2-3.4-2.3-5,0c-1.1,1.5-2.4,2.5-4.2,2.2c-1-0.2-1.9-1.2-2.8-1.9c-0.3-0.3-0.3-1-0.7-1.3c-1.7-1.6-2.4-3.6-2.6-6
	c-0.1-1-1-2-1.5-3c-0.8,0.7-1.5,1.3-2.3,2c-0.4,0.3-0.7,0.6-1.7,0.8c0.1-1.4,0.2-2.7,0.2-4.1c0-1.4-0.1-2.7-0.1-4.7
	c-1,0.7-1.6,0.9-1.7,1.3c-2,4.4-6.1,6.7-9.6,9.6c-2,1.6-4.6,0.3-4.6-2.3c-0.1-4.7-2.8-8-5.7-11.2c-0.4-0.5-1.1-1.2-1-1.6
	c1.1-4.6-1.3-8.8-1.4-13.1c-0.1-3.9,0.6-7.9,1.5-11.7c1.4-5.4,3.1-10.8,5.3-16c1.3-3.2,3.5-6,5.4-8.9c3.2-4.9,6.5-9.8,9.8-14.6
	c1.7-2.5,3.6-4.9,5.4-7.4c1.8-2.3,3.5-4.6,5.3-6.8c13-16.4,27.7-31.1,43.8-44.3c1.1-0.9,2.2-1.6,3.4-2.4c0.2,0.2,0.4,0.4,0.5,0.5
	c-0.6,0.7-1.2,1.5-1.9,2.2c-4.2,3.7-8.4,7.4-12.5,11.1c-0.8,0.7-1.4,1.7-2,2.6c0.2,0.3,0.4,0.5,0.6,0.8c0.9-0.4,1.8-0.7,2.6-1.2
	c5-3.4,9.9-7,14.9-10.4c0.6-0.4,1.5-0.5,2.3-0.8c0.1,0.2,0.3,0.4,0.4,0.7c-0.6,0.6-1.2,1.2-1.8,1.8c-4.8,4.4-9.5,8.8-14.3,13.1
	c-0.9,0.8-2.1,1.3-3.1,2.1c-0.9,0.6-1.9,1.2-2.4,2c-0.3,0.5-0.1,1.7,0.3,2.2c0.3,0.4,1.3,0.3,2,0.1c0.5-0.1,0.9-0.7,1.4-1
	c7-6.2,14.1-12.4,21.1-18.6c4.6-4,9-8.2,13.8-12c10.9-8.6,22-17,33.1-25.4c0.7-0.5,1.8-0.6,2.7-0.9c0.2,0.3,0.3,0.6,0.5,0.8
	c-0.9,0.8-1.8,1.7-2.8,2.5c-5.1,4-10.3,7.9-15.4,11.8c-0.7,0.5-1.1,1.4-1.6,2.1c0.1,0.2,0.2,0.4,0.4,0.6c0.7-0.3,1.6-0.4,2.2-0.8
	c4.4-2.9,9-5.7,13.2-9c2.8-2.3,6.2-3,9.3-4.6c1.7-0.8,3.4-1.7,5.1-2.6c0.2,0.3,0.4,0.6,0.5,0.8c-1.2,0.8-2.4,1.6-3.5,2.4
	c-6.7,4.6-13.5,9.1-20.1,13.8c-0.5,0.4-0.4,1.8-0.5,2.8c1,0,2.3,0.5,3,0c5.6-3.6,11-7.5,16.5-11.2c2.7-1.8,5.5-3.4,8.4-4.9
	c0.8-0.4,1.9-0.4,3.1-0.1c-1.1,1-2.2,2.1-3.4,2.9c-4.6,3.4-9.3,6.7-13.9,10.1c-0.6,0.4-1.2,1-1.5,1.6c-0.2,0.5-0.2,1.3,0.1,1.8
	c0.2,0.3,1.2,0.3,1.6,0.1c3.3-2,6.6-4,9.9-6.1c1.4-0.9,2.7-1.9,4.7-0.5c-1.1,1.4-2.1,2.8-3.2,4.2c0.2,0.3,0.3,0.6,0.5,0.9
	c1.4-0.4,2.8-0.8,4.2-1.2c0.7-0.2,1.5-0.1,2.2-0.2c-0.1,0.7,0.1,1.7-0.3,2.2c-1.9,2.1,0.4,3.4,0.9,4.8c0.2,0.4,2.5,0.6,3.5,0.1
	c3.7-1.8,7.2-3.9,10.7-5.9c1.8-1,3.4-1,5.5,0.7c-1.5,0.8-2.8,1.4-4,2.1c-4.8,3-9.5,6.1-14.3,9.1c-0.6,0.4-1.4,0.4-2.1,0.8
	c-1.2,0.6-2.3,1.3-3.3,2.1c-0.4,0.3-0.3,1.1-0.4,1.7c0.6,0,1.3,0.1,1.8-0.1c0.6-0.3,1.1-0.8,1.5-1.3c0.9-1.1,1.8-1.9,3.4-1.4
	c0.3,0.1,0.8-0.1,1.2-0.3c2.5-1.3,5.1-2.6,7.6-4c0.2-0.1,0.4-0.4,0.6-0.4c2.2-0.2,4.4-0.3,6.9-0.5c-0.6,1.2-1.2,2.4-1.9,3.8
	c4,0.6,3.2-3.6,5.3-4.8c0.8,1.1,1.5,2.1,2.4,3.1c-1.4,1.1-3.1,2.2-4.5,3.6c-0.6,0.6-0.7,1.8-1,2.7c1,0.1,2,0.3,2.8,0.1
	c1.7-0.4,3.2-1.3,4.9-1.8c0.6-0.2,1.5,0.4,2.2,0.6c-0.3,0.7-0.4,1.6-0.9,2c-2.4,1.9-4.4,3.9-7.6,4.9c-3.1,0.9-5.8,3.5-8.7,5.2
	c-0.9,0.5-2.1,0.6-3,1.1c-0.8,0.5-1.4,1.3-2.1,2c0.9,0.2,1.9,0.8,2.8,0.6c1-0.2,1.9-0.9,2.9-1.4c2.1-1.1,4.2-2.3,6.3-3.4
	c3-1.6,5.9-3.2,8.9-4.8c0.8-0.4,1.6-0.9,2.4-1.3c0.2,0.2,0.4,0.5,0.6,0.7c-2.9,2.5-5.8,5.1-8.7,7.6c0.1,0.2,0.2,0.4,0.4,0.6
	c1.1-0.3,2.1-0.6,3.4-0.9c-0.7,3.2-2.2,4.2-4.8,3.4c-1.5-0.4-2.7-0.5-3.6,1.2c-0.4,0.7-1.3,1.2-2,1.6c-2.9,1.7-5.8,3.3-8.6,5.1
	c-1.4,0.8-1.8,1.8-0.2,3.1C190.1,71.6,190.5,72.8,191.1,73.7L191.1,73.7z M152.1,90.7c0.2,0.3,0.4,0.5,0.6,0.8
	c3.2-1.8,6.4-3.5,9.5-5.4c0.6-0.4,0.4-2,0.6-3c-1,0.2-2.1,0.1-2.8,0.6c-2.5,1.8-4.9,3.9-7.3,5.9C152.4,89.7,152.3,90.3,152.1,90.7z
	 M181.8,71.1c-0.4,1.4-0.9,2.2-0.7,2.9c0.1,0.5,1.1,0.8,1.8,1c0.9,0.2,1.9,0.3,2.8,0.2c0.7-0.1,1.5-0.7,1.9-1.2
	c0.3-0.4,0.1-1.6-0.1-1.7C185.8,71.7,183.9,71.4,181.8,71.1z M176.9,77.6c0.3-1.2,0.6-2.2,0.8-3.1c-1,0.2-2.2,0.2-2.8,0.7
	c-0.7,0.6-0.8,1.7-1.2,2.6C174.7,77.7,175.7,77.7,176.9,77.6z M194,42.8c0.2,0.3,0.4,0.5,0.6,0.8c1-0.9,2-1.7,2.9-2.6
	c0.1-0.1-0.4-0.7-0.6-1.1c-1,0.8-2,1.6-3,2.5C193.9,42.4,194,42.7,194,42.8z M188,44.9c0.2,0.3,0.4,0.5,0.6,0.8
	c1.9,0.3,2.8-0.6,3-2.4c-0.2-0.2-0.4-0.5-0.5-0.7C190,43.4,189,44.2,188,44.9z"/>
<g>
	<defs>
		<path id="SVGID_1_" d="M763.2,547.4l-20-28.5l-4.8-9.7l-15.7-54.5l-7.3-13.3l-6.7-16.4l-3.6-17.6l1.2-44.2l3.6-23.6l4.8-18.2
			l25.4-23.6l-124.8-52.1l-36.3-5.5l-9.1,10.9l-12.1,23l-13.3,5.5l-27.3,5.5l-36.3-7.9l-17.6-5.5l-10.3-6.1l-12.1-17.6l-24.8-73.3
			l-0.6-7.3l-17.6-58.8h0L244.6,35.5l-46-9.1l-16.4,3l-35.1,0.6l-17,2.4l-10.3,4.8l-6.7,14.5L99.9,65.2L62.3,80.3l-6.1,76.3
			l5.5,29.7l18.2,38.2l3,14.5l-0.6,10.9l-9.7,21.2l-7.9,11.5l-10.9,9.1l-8.5,15.1l-9.7,24.8l-16.4,58.8l-3.6,24.8l0.6,17l20,17.6
			l4.8,7.9l5.5,13.3l8.5,10.3l6.7,3l14.5-1.8l21.8-7.9l18.8,26l9.1,33.9l36.3,17l49.1,32.1l18.2,10.9l9.1-26.7l4.8-10.9l-4.8,10.9
			l-9.1,26.7l39.4,23.6l56.9-1.2l83.6,1.2l35.7,8.5l20.6,20l12.7,12.1l-304.1,17.6v20l144.8,5.5l42.4-5.5l99.9-23.6l57.5-3.6
			l42.4,17.6l20.6,11.5l76.9,18.2l16.4-26l17.6-20l4.2-22.4l-1.8-26.7l3-17l12.1-18.8l10.9-4.8l10.9-2.4l27.9,2.4l7.3-1.2l4.2-6.1
			v-9.7L763.2,547.4z M387,521.9l-71.5,3.6L387,521.9l41.2,9.7L387,521.9z M478.5,600.1l-23-53.9L478.5,600.1l2.4,37.6L478.5,600.1z
			"/>
	</defs>
	<clipPath id="SVGID_2_">
		<use xlink:href="#SVGID_1_"  style="overflow:visible;"/>
	</clipPath>
	<g style="clip-path:url(#SVGID_2_);">
		
			<image style="overflow:visible;" width="1400" height="700" xlink:href="../../../../../www/mico/wp-content/uploads/banner1-3-1400x700.jpg"  transform="matrix(1.0221 0 0 1.0221 -361.104 -4.5757)">
		</image>
	</g>
</g>
<path class="st4" d="M360.6,976.8c-3.8,0.3-7.6,0.6-11.4,0.9c2.1,2.1,4.3,3.6,7.4,3.4c3.4-0.2,6.8-0.3,10.2,0c1.5,0.1,2.8,1.3,4.2,2
	c0,0.3,0,0.7,0,1c-1.6,0.7-3.2,1.4-4.7,2.2c-1.2,0.6-2.4,1.3-3.3,2.3c-1.1,1-4.8,1.6-6.8,0.9c-1.2-0.4-2.5-0.5-3.8-0.4
	c-4.1,0.3-8.2,0.9-12.4-0.3c-3.6-1-7.4-1.2-10,2.7c-1,1.4-2.9,2.2-4.5,3.4c1.2,0,3,0.5,3.9-0.1c1.9-1.3,3.8-2.3,5.9-3.3
	c2.8-1.4,5.2-1.2,6.3,1.8c1.1,2.9,3.2,4.2,6.1,4.9c4.7,1.1,9.4,2.3,14.2,3.4c5.7,1.3,11.4,2.5,17,4c3.2,0.9,6.7,1.2,9.3,4
	c1.4,1.5,4.1,2,6.1,3c1.3,0.6,2.5,1.4,3.8,2.1c-0.1,0.2-0.2,0.4-0.2,0.6c-0.7-0.1-1.4-0.1-2.1-0.4c-4.3-1.8-8.7-2.6-13.3-2.7
	c-2.5,0-4.9-0.5-7.4-1c-5.1-0.9-10.1-2.1-15.2-2.8c-2.7-0.3-5.6,0.2-8.4,0.5c-1.6,0.1-2.9,0.5-4-1.3c-0.5-0.9-2.5-1.2-3.8-1.1
	c-3.7,0-7.1-0.3-10.7-1.3c-3.9-1.1-8.2-0.7-12.4-0.8c-3.9,0-7.8,0.1-11.7,0.4c-2.5,0.2-5.6,0.2-5.9,3.9c0,0.2-0.5,0.3-0.8,0.5
	c-1.2-2.9-4-3.9-7.5-2.3c-2.2,1.1-4.3,1.3-6.7,1.1c-1.4-0.1-3,0.4-4.4,1c2.6,2.9,6.1,0.6,9.5,1.8c-0.8,0.4-1.2,0.7-1.7,0.8
	c-4.3,0.8-8.7,1.4-13,2.2c-5.1,0.9-10.2,1.9-15.3,2.8c-3.4,0.6-6.9,1.1-10.2,2.1c-5.8,1.7-11.9,1.4-17.6,4c-2,0.9-4.7,0.2-7.1,0.2
	c-1.6,0-3.3,0.1-4.8-0.4c-1.2-0.4-2.3-1.4-3.5-2.2c0.4-0.7,1.2-1.4,1.2-2.1c0-0.9-0.4-2-1-2.6c-1-0.9-2.3-1.7-3.6-2.1
	c-2.6-0.9-2.5-2.7-2.2-5c0.2-1.5-0.3-3.1-0.6-4.6c-0.2-0.9-0.7-1.7-0.7-2.6c-0.1-2-0.1-4-2.8-4.6c-0.4-0.1-0.9-2.6-0.4-3.5
	c2.1-4.2,4.4-8.5,7-12.4c2.1-3.3,5.3-5.5,8.9-7c4-1.7,7.8-4,11.8-5.8c5.8-2.5,11.6-5.1,17.6-7.1c7.1-2.3,14.5-4.2,21.8-5.8
	c10.1-2.2,20.4-3.3,30.8-3.5c0.8,0,1.7,0,2.4,0.3c4.4,2.1,9,2.1,13.7,1.8c3.3-0.2,6.7-0.1,10-0.1c0.6,0,1.2,0.3,1.8,1
	c-1.9,0.3-3.8,0.8-5.8,0.9c-7.3,0.4-14.6,0.7-21.9,1.2c-3,0.2-6,1.1-9,1.6c-1.3,0.2-2.7,0.1-4,0.3c-0.9,0.1-1.7,0.5-2.5,0.8
	c-1.7,0.7-3.5,1.5-5.2,2.2c-0.7,0.3-1.6,0.2-2.1,0.7c-1.3,1-2.3,1.1-3.9,0.5c-0.8-0.3-2.1,0.2-3.1,0.4c-2.8,0.7-5.5,1.9-8.3,2.2
	c-2.7,0.2-3.9,1.7-5.8,4.2c1.6,0.1,2.8,0.3,3.9,0.2c6.5-1.1,13-2.7,19.6-3.3c9.6-0.9,19.2-1.1,28.9-1.5c1.2-0.1,2.4,0.2,3.8,0.3
	c-0.2,0.8-0.3,1.3-0.6,2.3c2.4,0.2,4.7,0.5,7,0.5c5.3,0,10.6-0.3,15.9-0.2c2.5,0.1,4.9,0.8,7.4,1.3c3.6,0.7,7.1,1.5,10.5,2.1
	c-0.7,0.1-1.7,0.4-2.7,0.4c-7-0.1-13.9-0.2-20.9-0.4c-1.1,0-2.2-0.1-3.2,0.2c-0.7,0.3-1.2,1.2-1.7,1.9c0.7,0.4,1.3,1.2,2,1.3
	c7.6,0.4,15.3,0.7,22.9,1.1c1.3,0.1,2.6,0.2,3.9,0.3C360.7,976.2,360.7,976.5,360.6,976.8z M325.3,988.9c-0.7,0.7-1.1,1.2-1.5,1.7
	c0.6,0.5,1.1,1.4,1.8,1.5c0.4,0.1,1-0.9,1.6-1.5C326.6,990.1,326.1,989.6,325.3,988.9z M325.9,973.4c0-0.4,0.1-0.8,0.1-1.3
	c-1.1-0.8-2.2-1.3-3.6-0.3c-0.2,0.2-0.1,1.2-0.1,1.2C323.5,973.2,324.7,973.3,325.9,973.4z"/>
<path class="st2" d="M194.4,579.7c-5.9-4.8-11.8-9.7-17.8-14.3c-4.9-3.7-10.5-6.6-15.1-10.7c-3.6-3.2-7.5-5-12.1-6
	c-0.8-0.2-1.7-0.2-2.6-0.3c-0.1,0.3-0.3,0.5-0.4,0.8c3.9,2.8,7.7,5.6,11.6,8.5c3.9,2.9,7.9,5.8,11.7,8.8c3.8,3,7.5,6,11.2,9.1
	c3.6,3.1,7.1,6.4,10.7,9.6c-0.2,0.3-0.5,0.6-0.7,0.9c-1.8-1.5-3.6-3.1-5.5-4.6c-1.3-1.1-2.6-2.1-3.8-3.1c-1.4-1.2-2.8-2.5-4.2-3.7
	c-0.4-0.3-0.7-0.7-1.1-1c-2.3-1.8-4.6-3.7-7-5.5c-4-2.9-8-5.8-12.1-8.6c-3.8-2.7-7.5-5.4-11.3-8.2c-11.3-8.3-23.1-15.7-36.2-20.9
	c-4.1-1.6-8.2-3.1-12.3-4.6c-0.7-0.3-1.6-0.2-2.7-0.4c0.1,0.9,0.1,1.5,0.2,2.1c-0.3,0-0.5,0.1-0.7,0.1c-0.2,0-0.5-0.1-0.7-0.2
	c-7.2-3-14.3-6.3-21.6-9.1c-4.1-1.6-8.4-2.4-12.6-3.6c-0.3-0.1-0.7,0-1-0.1c-4-2.1-8-4.2-12.2-6.4c0.6-0.8,1-1.3,1.3-1.9
	c1.4-2.3,0.9-4-1.8-4.7c-1.8-0.5-3.2-1.3-3.5-3.1c-0.2-1,0.4-2.2,0.8-3.3c0.1-0.4,0.8-0.7,1-1.1c0.9-2.2,2.6-3.5,4.7-4.5
	c0.9-0.4,1.5-1.6,2.2-2.4c-0.9-0.5-1.8-1-2.7-1.4c-0.4-0.2-0.8-0.4-1.3-1.3c1.3-0.4,2.6-0.8,3.9-1.3c1.3-0.5,2.5-1,4.3-1.8
	c-1-0.6-1.4-1.1-1.8-1.2c-4.8-0.2-8.5-3.3-12.4-5.5c-2.2-1.2-2-4.1,0.5-5.2c4.4-1.8,6.5-5.5,8.5-9.4c0.3-0.6,0.7-1.5,1.1-1.5
	c4.7-0.6,7.8-4.3,11.8-6c3.6-1.5,7.6-2.3,11.5-2.7c5.6-0.6,11.2-0.9,16.8-0.8c3.4,0.1,6.9,1.1,10.3,1.9c5.7,1.2,11.4,2.6,17.1,3.9
	c3,0.7,5.9,1.6,8.8,2.4c2.8,0.8,5.5,1.7,8.3,2.5c19.9,6.3,38.9,14.7,57,25.1c1.2,0.7,2.3,1.5,3.5,2.3c-0.1,0.2-0.2,0.5-0.3,0.7
	c-0.9-0.3-1.8-0.6-2.7-1c-5-2.6-9.9-5.2-14.9-7.7c-1-0.5-2.1-0.7-3.1-1c-0.2,0.3-0.4,0.6-0.5,0.9c0.7,0.7,1.3,1.5,2,2
	c5,3.4,10.1,6.8,15.1,10.2c0.6,0.4,1,1.2,1.5,1.8c-0.2,0.2-0.3,0.4-0.5,0.6c-0.8-0.3-1.6-0.6-2.3-1c-5.8-2.9-11.6-5.7-17.4-8.7
	c-1.1-0.6-2-1.4-3-2.1c-0.9-0.6-1.8-1.3-2.7-1.6c-0.6-0.1-1.6,0.5-1.9,1.1c-0.2,0.4,0.2,1.4,0.6,1.9c0.3,0.4,1,0.6,1.5,0.9
	c8.3,4.4,16.6,8.7,24.9,13.1c5.4,2.8,10.9,5.5,16.1,8.6c11.9,7.1,23.7,14.5,35.5,21.8c0.8,0.5,1.2,1.5,1.8,2.2
	c-0.2,0.2-0.4,0.5-0.6,0.7c-1.1-0.6-2.3-1.1-3.3-1.8c-5.5-3.4-11-6.8-16.6-10.1c-0.7-0.4-1.7-0.5-2.5-0.8c-0.1,0.2-0.3,0.4-0.4,0.6
	c0.5,0.6,0.9,1.3,1.6,1.8c4.3,3.1,8.5,6.4,13.1,9.1c3.1,1.8,5.1,4.7,7.6,7c1.4,1.3,2.8,2.6,4.2,3.8c-0.2,0.3-0.4,0.5-0.6,0.8
	c-1.2-0.8-2.4-1.6-3.5-2.4c-6.7-4.6-13.3-9.3-20.1-13.9c-0.6-0.4-1.8,0.3-2.8,0.5c0.3,1,0.4,2.3,1.1,2.8c5.4,3.9,11,7.6,16.4,11.4
	c2.6,1.9,5.1,4,7.6,6.1c0.7,0.6,1,1.6,1.2,2.9c-1.3-0.7-2.7-1.3-4-2.1c-4.8-3.1-9.6-6.2-14.4-9.3c-0.6-0.4-1.3-0.8-2-0.9
	c-0.5,0-1.3,0.3-1.6,0.7c-0.2,0.3,0.1,1.2,0.5,1.5c3,2.4,6.1,4.8,9.2,7c1.4,1,2.8,1.9,2.2,4.2c-1.7-0.5-3.4-1-5-1.5
	c-0.2,0.3-0.4,0.5-0.6,0.8c0.9,1.2,1.8,2.3,2.6,3.5c0.4,0.6,0.6,1.3,0.9,2c-0.7,0.2-1.6,0.8-2.1,0.5c-2.6-1-3,1.6-4.2,2.6
	c-0.4,0.3,0.4,2.5,1.1,3.3c3,2.8,6.2,5.3,9.3,7.9c1.6,1.3,2.1,2.8,1.3,5.4c-1.3-1.2-2.3-2.2-3.4-3c-4.5-3.4-9.1-6.7-13.6-10.1
	c-0.6-0.4-0.9-1.2-1.5-1.6c-1-0.8-2-1.7-3.2-2.3c-0.4-0.2-1.2,0.2-1.8,0.3c0.3,0.6,0.4,1.2,0.8,1.6c0.4,0.5,1.1,0.8,1.7,0.9
	c1.4,0.4,2.4,1,2.5,2.6c0,0.4,0.4,0.8,0.7,1c2.1,1.9,4.3,3.8,6.4,5.7c0.2,0.2,0.5,0.2,0.6,0.4c0.9,2,1.9,4,3,6.3
	c-1.4-0.1-2.7-0.2-4.2-0.4c0.9,4,4.5,1.7,6.4,3.2c-0.7,1.2-1.4,2.2-2.1,3.3c-1.5-0.9-3.2-2.1-4.9-2.9c-0.8-0.4-1.9,0-2.9,0
	c0.3,0.9,0.4,2,0.9,2.7c1,1.4,2.4,2.5,3.4,4c0.4,0.5,0.1,1.5,0.2,2.3c-0.7,0-1.6,0.2-2.2-0.1c-2.6-1.6-5.3-2.7-7.3-5.4
	c-2-2.6-5.3-4.2-8-6.3c-0.8-0.6-1.3-1.7-2.1-2.4c-0.7-0.6-1.7-0.9-2.6-1.3c0.1,1-0.1,2.1,0.4,2.8c0.5,0.9,1.6,1.5,2.4,2.2
	c1.8,1.6,3.6,3.1,5.4,4.7c2.5,2.2,5.1,4.4,7.7,6.6c0.7,0.6,1.4,1.2,2.1,1.8c-0.2,0.3-0.3,0.5-0.5,0.8c-3.4-1.8-6.8-3.6-10.2-5.4
	c-0.1,0.2-0.3,0.4-0.4,0.5c0.6,0.9,1.3,1.8,2.1,2.8c-3.2,0.5-4.7-0.6-4.9-3.3c-0.1-1.5-0.5-2.7-2.4-2.9c-0.8-0.1-1.6-0.8-2.2-1.3
	c-2.6-2.1-5.1-4.2-7.8-6.2c-1.3-1-2.3-1-3,0.9C196.1,578,195.1,578.8,194.4,579.7L194.4,579.7z M164.6,549.4
	c-0.2,0.3-0.3,0.6-0.5,0.9c2.8,2.3,5.5,4.8,8.5,6.9c0.6,0.4,2-0.3,3-0.6c-0.5-0.8-0.8-2-1.6-2.4c-2.6-1.7-5.4-3.2-8.1-4.7
	C165.6,549.3,165.1,549.4,164.6,549.4z M193.6,570.1c-1.5,0.2-2.4,0-2.9,0.4c-0.4,0.3-0.4,1.3-0.3,2c0.1,0.9,0.4,1.9,0.9,2.7
	c0.4,0.6,1.1,1.1,1.8,1.3c0.4,0.1,1.6-0.5,1.5-0.7C194.4,574,194,572.2,193.6,570.1z M185.8,567.8c1.3-0.1,2.3-0.2,3.2-0.3
	c-0.5-0.8-0.9-2-1.7-2.4c-0.8-0.4-1.9-0.1-2.9-0.2C184.8,565.8,185.3,566.7,185.8,567.8z M224.3,571.4c-0.2,0.3-0.3,0.6-0.5,0.9
	c1.2,0.6,2.3,1.2,3.5,1.8c0.1,0,0.5-0.6,0.8-1c-1.1-0.6-2.3-1.3-3.4-1.9C224.7,571.1,224.5,571.3,224.3,571.4z M220.2,566.5
	c-0.2,0.3-0.4,0.5-0.6,0.8c0.4,1.9,1.5,2.4,3.3,2c0.2-0.3,0.3-0.5,0.5-0.8C222.3,567.8,221.2,567.2,220.2,566.5z"/>
<path class="st2" d="M819.9,391.3c-1.8,0.6-3.6,1.1-5.4,1.7c1.7,1.2,3.2,2.9,5,3.7c6,2.5,12.2,4.7,18.3,7.2c0.7,0.3,1.3,1,2.4,1.9
	c-1.2,0.5-1.9,1-2.6,1c-5.1,0-10.2,0.5-15.2-0.3c-12.4-1.9-24.8-4.4-37.2-6.6c-7.6-1.3-15.3-2.3-22.9-3.5c-5-0.8-9.9-2-14.9-3
	c-2-0.4-4-0.2-6-0.5c-1.7-0.3-3.7-0.4-4.8-1.4c-2.9-2.7-6-2.6-9.4-1.6c-0.9,0.3-2.1,1.2-2.1,1.8c0,0.8,1,1.7,1.7,2.4
	c0.3,0.3,1,0.4,1.5,0.4c3.9-0.1,7.3,1,11,2.7c4.4,2.1,9.6,2.3,14.3,3.6c6,1.6,12,3.4,18,5.1c3.8,1.1,7.7,2.2,11.5,3.4
	c4.2,1.2,8.4,2.5,12.6,3.7c0,0.4,0,0.7,0,1.1c-3.6,0-7.3,0.7-10.7-0.1c-9-2.1-17.8-4.7-26.6-7.4c-11.1-3.4-22.5-4.7-34-5.4
	c-3.1-0.2-6.1-1.1-9.1-1.3c-1.7-0.1-3.5,0.6-5.2,0.9c0,0.4-0.1,0.9-0.1,1.3c6.8,1.9,13.6,3.8,20.4,5.7c-3.7,1.3-7.2,3.3-11.2,0.9
	c-2.9-1.7-3.6-1.3-5.2,1.7c12.7,2.9,25.3,5.8,37.9,8.7c-5.5-0.1-11.1,2.2-16.5-1.2c-1.4-0.9-3.7-0.3-5.5-0.6
	c-2.7-0.5-5.5-1.1-8.2-1.7c-0.8-0.2-1.5-0.7-2.3-0.8c-7.4-1.1-14.8-2-22.1-3.1c-9.6-1.5-19.2-3-28.7-4.8c-7.6-1.4-15.3-2.8-22.8-4.6
	c-7.9-1.9-15.6-4.3-23.4-6.4c-6.5-1.7-12.5-4.6-18-8.4c-1.8-1.2-4.5-3.6-4.3-4.9c0.5-2.2,2.7-4.6,4.7-5.6c3.2-1.6,2.4-3.4,1.4-5.6
	c-2.5-5.6-2.2-6.6,3-9.3c4-2.1,8-4.4,12.3-6c1.5-0.6,4.1,0.1,5.6,1.1c3.2,2.1,6,4.7,9.1,7.2c3.3-2,6.8-4.1,11.1-6.6
	c-5.3-4.1-12.8-0.4-16.4-7.3c4-2,6.6-5.8,9.6-9.2c1.2-1.4,4.6-0.8,7.3-1.2c-0.3-1.1-0.6-2.1-1-3.8c1.2,0,2.2-0.2,3,0
	c4.5,1.2,9,2.8,13.6,3.7c12.7,2.6,25.5,5,38.3,7.2c3.5,0.6,7.2,0.1,10.8,0.5c15,1.6,30.1,3.2,45.1,5c6.2,0.7,12.5,1.5,18.7,2.5
	c1.6,0.3,3.1,1.3,4.5,2.1c1.3,0.7,2.3,2.1,3.6,2.4c4.9,1.1,9.8,1.9,14.7,2.8c5.3,1,10.7,2.1,16,3.2c0.4,0.1,0.8,0.6,1.7,1.5
	c-3.9,1.2-7,1.7-10.5,0.6c-2.1-0.7-4.4-0.7-6.6-0.7c-0.6,0-1.2,1.2-1.9,1.8c0.6,0.6,1.2,1.7,1.9,1.7c4.7,0.1,9.2,2,13.6,2.7
	c6.9,1,13.2,4,20,4.7c1.5,0.2,2.9,0.4,4.4,0.7c1.1,0.3,2.2,0.8,3.2,1.7c-3.7,2-7.1,1.8-10.8,0.2c-1.9-0.8-4.1-1.1-6.1-1.6
	c-2-0.5-4-1.2-6-1.6c-1.8-0.3-3.6-0.2-5.4-0.3c-0.1,0.5-0.2,1-0.2,1.5c1.8,0.7,3.6,1.4,6.5,2.5c-2.1,1-3.5,1.4-4.5,2.3
	c-1,0.9-1.7,2.2-2.5,3.3c1.1,0.7,2.2,1.4,3.3,2.1c1.5,0.9,3,1.8,4.6,2.6L819.9,391.3z M711.2,389.4c1.6-1,2.9-1.9,4.3-2.7
	c-1.3-0.8-2.7-2.2-4-2.2c-1.5,0-3,1.3-4.5,2C708.2,387.4,709.5,388.3,711.2,389.4z M691.9,405.1c-3.8-3-7.6-3-10.8,0
	C684.9,405.1,688,405.1,691.9,405.1z M704.8,399.5c0-0.5,0-1,0.1-1.5c-3-1.7-6-1.6-9,0.2c0,0.4,0,0.8,0,1.3
	C698.8,399.5,701.8,399.5,704.8,399.5z M696.7,406.5c0,0.4,0,0.9,0,1.3c3.2,0,6.4,0,9.6,0c0-0.4,0-0.9,0-1.3
	C703.1,406.5,699.9,406.5,696.7,406.5z M788.7,394.2c-0.2-0.7-0.3-1.5-0.5-2.2c-1.6,0.3-3.3,0.6-4.9,0.9c0.3,0.7,0.5,1.9,0.8,1.9
	C785.7,394.7,787.2,394.4,788.7,394.2z"/>
<path class="st5" d="M354.9,127.8c-2.9-2.5-5.7-5.1-8.6-7.6c0,3,0.4,5.6,2.7,7.7c2.5,2.3,5,4.7,7.1,7.3c0.9,1.1,1.1,2.9,1.5,4.4
	c-0.3,0.2-0.5,0.5-0.8,0.7c-1.6-0.6-3.2-1.4-4.9-1.9c-1.3-0.4-2.6-0.8-3.9-0.8c-1.5,0-4.5-2.4-5.4-4.2c-0.5-1.1-1.4-2.2-2.3-3
	c-3.1-2.8-6.3-5.3-8.4-9.1c-1.8-3.3-4.3-6.1-8.9-5.3c-1.7,0.3-3.6-0.5-5.5-0.8c0.8,0.9,1.7,2.5,2.8,2.7c2.3,0.4,4.3,1.2,6.5,1.9
	c3,1,4.4,2.9,3.1,5.8c-1.3,2.8-0.8,5.3,0.7,7.8c2.5,4.1,4.9,8.4,7.4,12.5c3,5,6.1,9.9,8.9,15c1.6,2.9,3.8,5.6,3.6,9.5
	c-0.1,2.1,1.4,4.3,2.1,6.5c0.5,1.4,0.8,2.8,1.2,4.2c-0.2,0.1-0.4,0.2-0.6,0.2c-0.4-0.6-0.9-1.1-1.2-1.8c-1.7-4.3-4.1-8.1-7.3-11.4
	c-1.7-1.8-3.1-3.9-4.5-6c-2.9-4.3-5.5-8.7-8.6-12.8c-1.7-2.2-4.1-3.8-6.2-5.7c-1.2-1-2.4-1.7-1.8-3.8c0.3-1-0.9-2.6-1.9-3.6
	c-2.6-2.6-4.7-5.3-6.5-8.6c-1.9-3.6-5.2-6.4-8.1-9.5c-2.7-2.8-5.5-5.6-8.4-8.2c-1.9-1.7-4-3.9-6.9-1.5c-0.1,0.1-0.6-0.1-0.9-0.2
	c1.2-2.9,0-5.6-3.6-6.9c-2.3-0.9-4-2.2-5.5-4c-0.9-1.1-2.4-1.8-3.8-2.5c-0.3,3.9,3.8,4.9,5.3,8c-0.9-0.3-1.4-0.4-1.7-0.6
	c-3.6-2.6-7.1-5.2-10.6-7.8c-4.2-3-8.5-6.1-12.7-9.1c-2.8-2-5.6-4.2-8.6-5.9c-5.2-2.9-9.3-7.6-15.1-9.8c-2-0.8-3.5-3.3-5.1-5
	c-1.1-1.2-2.3-2.3-3.1-3.7c-0.6-1.1-0.6-2.6-0.8-4c0.8-0.2,1.8-0.1,2.3-0.6c0.6-0.6,1.1-1.7,1.1-2.5c0-1.4-0.4-2.8-0.9-4.1
	c-1.2-2.5,0.2-3.7,2.1-5c1.2-0.8,2-2.3,2.9-3.6c0.5-0.7,0.8-1.7,1.4-2.4c1.4-1.5,2.8-2.8,1.4-5.2c-0.2-0.4,1.2-2.4,2.2-2.7
	c4.5-1.4,9.1-2.7,13.8-3.6c3.8-0.7,7.6,0,11.3,1.5c4,1.7,8.3,2.8,12.4,4.5c5.8,2.4,11.8,4.8,17.3,7.7c6.6,3.5,13.1,7.5,19.4,11.6
	c8.7,5.7,16.6,12.4,23.9,19.8c0.6,0.6,1.2,1.2,1.5,2c1.6,4.6,4.8,7.9,8.3,11.1c2.5,2.2,4.7,4.7,7,7.1c0.4,0.4,0.6,1.1,0.6,2
	c-1.6-1.2-3.2-2.2-4.7-3.5c-5.4-4.9-10.7-10.1-16.1-14.9c-2.3-2-5-3.6-7.4-5.4c-1.1-0.8-1.9-1.8-3-2.6c-0.7-0.5-1.5-0.9-2.3-1.2
	c-1.7-0.8-3.5-1.5-5.2-2.2c-0.7-0.3-1.3-1-1.9-1.1c-1.6-0.2-2.4-0.9-3-2.5c-0.3-0.8-1.6-1.4-2.5-1.9c-2.4-1.5-5.2-2.6-7.3-4.4
	c-2-1.8-4-1.6-7-1.2c1.1,1.2,1.7,2.2,2.6,2.9c5.3,3.9,11,7.4,16,11.8c7.3,6.3,14.1,13.1,21.1,19.7c0.9,0.8,1.6,1.9,2.5,3
	c-0.7,0.4-1.2,0.7-2.1,1.2c1.6,1.9,2.9,3.7,4.5,5.3c3.7,3.8,7.6,7.4,11.2,11.3c1.7,1.8,2.9,4.1,4.2,6.2c2,3,3.9,6.1,5.7,9
	c-0.5-0.4-1.5-0.9-2.2-1.6c-4.8-5.1-9.5-10.2-14.3-15.2c-0.7-0.8-1.5-1.7-2.4-2.1c-0.7-0.3-1.7,0-2.5,0.1c0.2,0.8,0,1.8,0.5,2.3
	c5,5.8,10.1,11.5,15.1,17.2c0.9,1,1.7,2,2.5,3C355.3,127.4,355.1,127.6,354.9,127.8z M321.6,110.8c-1,0-1.6,0.1-2.3,0.1
	c0,0.8-0.2,1.8,0.2,2.3c0.3,0.4,1.4,0.1,2.1,0.1C321.6,112.7,321.6,111.9,321.6,110.8z M333.2,100.5c0.3-0.3,0.6-0.5,1-0.8
	c-0.1-1.3-0.6-2.5-2.3-2.8c-0.3,0-1,0.8-1,0.8C331.6,98.7,332.4,99.6,333.2,100.5z"/>
<g>
	<circle class="st6" cx="222.6" cy="1284.7" r="20.3"/>
	<circle class="st7" cx="222.6" cy="1284.7" r="10.1"/>
</g>
<g>
	<circle class="st6" cx="-51.2" cy="1195.9" r="28.5"/>
	<circle class="st7" cx="-51.2" cy="1195.9" r="14.2"/>
</g>
<g>
	<circle class="st6" cx="457.6" cy="1252.7" r="20.3"/>
	<circle class="st7" cx="457.6" cy="1252.7" r="10.1"/>
</g>
<g>
	<circle class="st6" cx="-37.4" cy="1031.7" r="20.3"/>
	<circle class="st7" cx="-37.4" cy="1031.7" r="10.1"/>
</g>
<g>
	<circle class="st6" cx="573.6" cy="1256.7" r="25.3"/>
	<circle class="st7" cx="573.6" cy="1256.7" r="12.6"/>
</g>
</svg>
