<?xml version="1.0" encoding="utf-8"?>
<!-- Generator: Adobe Illustrator 24.2.0, SVG Export Plug-In . SVG Version: 6.00 Build 0)  -->
<svg version="1.1" id="Layer_1" xmlns="http://www.w3.org/2000/svg" xmlns:xlink="http://www.w3.org/1999/xlink" x="0px" y="0px"
	 viewBox="0 0 617 306" style="enable-background:new 0 0 617 306;" xml:space="preserve">
<style type="text/css">
	.st0{fill:#FFFFFF;}
	.st1{fill:#F7A116;}
	.st2{fill:none;}
	.st3{fill:#191915;}
	.st4{fill:#08090C;}
	.st5{fill:#0F0F0C;}
	.st6{fill:#08090D;}
	.st7{fill:#161614;}
	.st8{fill:#010101;}
	.st9{fill:#12110F;}
	.st10{fill:#151514;}
	.st11{fill:#090807;}
	.st12{fill:#EABC2C;}
	.st13{fill:#F8B129;}
	.st14{fill:#F8B029;}
	.st15{fill:#F2B32A;}
	.st16{fill:#F5B72B;}
	.st17{fill:#F4B62B;}
	.st18{fill:#F5B62A;}
	.st19{fill:#F6B72B;}
	.st20{fill:#141113;}
	.st21{fill:#0E0D12;}
	.st22{fill:#DFAD2A;}
	.st23{fill:#141114;}
	.st24{fill:#0C0B12;}
	.st25{fill:#111013;}
	.st26{fill:#131113;}
	.st27{fill:#131214;}
	.st28{fill:#0D0D0F;}
	.st29{fill:#E2AC2B;}
	.st30{fill:#876722;}
	.st31{fill:#E1B02C;}
	.st32{fill:#EAC22E;}
	.st33{fill:#DFAF2C;}
	.st34{fill:#CFA92B;}
	.st35{fill:#E7B52C;}
	.st36{fill:#E9B92D;}
	.st37{fill:#161615;}
	.st38{fill:#896D23;}
	.st39{fill:#1F1F1D;}
	.st40{fill:#0C0B09;}
	.st41{fill:#D2AD2C;}
	.st42{fill:#E0B82D;}
	.st43{fill:#E3B82D;}
	.st44{fill:#DEB32C;}
	.st45{fill:#E3B62D;}
	.st46{fill:#E5BA2D;}
	.st47{fill:#ECBD2D;}
	.st48{fill:#E2BA2D;}
	.st49{fill:#F8B229;}
	.st50{fill:#F8B329;}
	.st51{fill:#4D4B49;}
	.st52{fill:#F7B229;}
	.st53{fill:#F7C12D;}
	.st54{fill:#F6B229;}
	.st55{fill:#191917;}
	.st56{fill:#191916;}
	.st57{fill:#1F1E1D;}
	.st58{fill:#1B1A17;}
	.st59{fill:#171614;}
	.st60{fill:#131311;}
	.st61{fill:#232221;}
	.st62{fill:#171615;}
	.st63{fill:#151413;}
	.st64{fill:#100F0E;}
	.st65{fill:#D3AE2C;}
	.st66{fill:#E5BC2D;}
	.st67{fill:#E5A82C;}
	.st68{fill:#DCB32C;}
	.st69{fill:#1E1814;}
	.st70{fill:#101013;}
	.st71{fill:#241E14;}
	.st72{fill:#211D15;}
	.st73{fill:#2B2315;}
	.st74{fill:#141313;}
	.st75{fill:#221C14;}
	.st76{fill:#191513;}
	.st77{fill:#1A1512;}
	.st78{fill:#1A1513;}
	.st79{fill:#1C1814;}
	.st80{fill:#141212;}
	.st81{fill:#171312;}
	.st82{fill:#181412;}
	.st83{fill:#181513;}
	.st84{fill:#2C2315;}
	.st85{fill:#E9BE2D;}
	.st86{fill:#EBB52B;}
	.st87{fill:#E6B22B;}
</style>
<g>
	<g>
		<path class="st0" d="M318.9,62.7h-12.6v-5.5h31.3v5.5H325v50.8h-6.2V62.7z"/>
		<path class="st0" d="M348.3,54.4v22.1c1.5-3.4,4.7-5.9,10.1-5.9c6.2,0,10.6,3.8,10.6,12.9v29.9h-6.1V84.8c0-5.2-1.5-8.7-6.7-8.7
			c-5.8,0-7.9,4.8-7.9,12.1v25.3h-6.1V54.4H348.3z"/>
		<path class="st0" d="M382.9,93.6c0,8.2,1.4,15.4,8.1,15.4c6.6,0,7.4-6.3,7.7-7.5h5.9c-0.1,1.1-1.3,12.8-13.7,12.8
			c-12.4,0-14.1-11.3-14.1-21.8c0-13.3,4.6-21.7,14.4-21.7c11.1,0,13.7,9.1,13.7,19.6c0,0.8,0,2.2-0.1,3.2H382.9z M398.8,88.8
			c0-7.2-1.5-12.9-7.7-12.9c-7.7,0-8.1,10-8.2,12.9H398.8z"/>
	</g>
	<g>
		<path class="st1" d="M356.3,165.9c0-11.6,0.2-24.3,0.4-31.5h-0.2c-2.3,12.1-6.8,36.1-11.4,57.2h-9.4c-3.4-19.3-8.1-44.9-10.3-57.4
			H325c0.4,7.7,0.7,21.7,0.7,33.1v24.4h-9.4v-65.8h15.3c4.1,19,7.8,39.7,9.2,49h0.1c1.3-8.3,6.2-30.7,10.3-49h15v65.8h-9.9V165.9z"
			/>
		<path class="st1" d="M388.3,125.8v65.8h-10.2v-65.8H388.3z"/>
		<path class="st1" d="M437.4,172.8c-0.3,3.5-1.7,19.9-19.2,19.9c-18.3,0-20.2-17.2-20.2-34.2c0-20.6,5.8-33.7,20.9-33.7
			c16.9,0,18.1,14.9,18.3,19.8h-10.2c-0.2-2.2-0.4-11-8.3-11c-8.4,0-10.1,10.8-10.1,25.1c0,12.9,1.3,25.4,9.8,25.4
			c7.6,0,8.4-8.5,8.7-11.3H437.4z"/>
		<path class="st1" d="M485.3,158.2c0,23.5-6.1,34.5-21,34.5c-14,0-20.4-10.8-20.4-34.6c0-23.3,7.5-33.3,20.9-33.3
			C478.9,124.8,485.3,135.5,485.3,158.2z M454.4,158c0,16.7,2.9,26,10.2,26c7.7,0,10.2-8.8,10.2-26c0-16.6-2.7-24.6-10.3-24.6
			C457.1,133.5,454.4,142.2,454.4,158z"/>
	</g>
	<g>
		<path class="st0" d="M314.9,206.4h22v4.7h-16.7V227h15.7v4.6h-15.7v22.5h-5.2V206.4z"/>
		<path class="st0" d="M369.3,229.9c0,16.3-3.9,25-14.2,25c-9.8,0-13.9-8.4-13.9-24.9c0-16.2,4.8-24.2,14.1-24.2
			C365.3,205.8,369.3,213.7,369.3,229.9z M346.7,229.8c0,13.6,2.7,20.4,8.7,20.4c6.1,0,8.6-6.7,8.6-20.4c0-13.9-2.7-19.6-8.7-19.6
			C349.5,210.3,346.7,216.8,346.7,229.8z"/>
		<path class="st0" d="M382,206.4v33.4c0,5.3,1.5,10.4,7.8,10.4c6.3,0,7.8-4.3,7.8-10.5v-33.4h5.2V240c0,8.7-3.1,14.9-13.2,14.9
			c-9.7,0-13-5.9-13-14.6v-33.8H382z"/>
		<path class="st0" d="M411.7,254.1v-47.7h6.4c13.2,33,15,37.5,15.6,39.6h0.1c-0.3-6.4-0.4-13.6-0.4-21.3v-18.2h4.9v47.7h-6.2
			c-13.7-34.7-15.4-39-15.9-40.9h-0.1c0.4,6,0.4,13.8,0.4,22.4v18.6H411.7z"/>
		<path class="st0" d="M447.8,206.4h10.6c11,0,15.9,7.7,15.9,22.6c0,16.2-4.5,25.1-16.7,25.1h-9.8V206.4z M453.1,249.6h4.4
			c8.7,0,11.5-6.9,11.5-20.4c0-12.7-3.3-18.2-11.4-18.2h-4.4V249.6z"/>
		<path class="st0" d="M486.4,239l-3.5,15.1h-5.2c0,0,11.5-47.7,11.5-47.7h6.8l11.9,47.7h-5.6l-3.5-15.1H486.4z M497.8,234.3
			c-2.8-11.7-4.6-19.2-5.2-23h-0.2c-0.7,4.1-2.6,12.7-4.9,23H497.8z"/>
		<path class="st0" d="M515.5,211.1h-10.6v-4.7h26.5v4.7h-10.6v43h-5.2V211.1z"/>
		<path class="st0" d="M541.6,206.4v47.7h-5.2v-47.7H541.6z"/>
		<path class="st0" d="M577.4,229.9c0,16.3-3.9,25-14.2,25c-9.8,0-13.9-8.4-13.9-24.9c0-16.2,4.8-24.2,14.1-24.2
			C573.3,205.8,577.4,213.7,577.4,229.9z M554.7,229.8c0,13.6,2.7,20.4,8.7,20.4c6.1,0,8.6-6.7,8.6-20.4c0-13.9-2.7-19.6-8.7-19.6
			C557.5,210.3,554.7,216.8,554.7,229.8z"/>
		<path class="st0" d="M585,254.1v-47.7h6.4c13.2,33,15,37.5,15.6,39.6h0.1c-0.3-6.4-0.4-13.6-0.4-21.3v-18.2h4.9v47.7h-6.2
			c-13.7-34.7-15.4-39-15.9-40.9h-0.1c0.4,6,0.4,13.8,0.4,22.4v18.6H585z"/>
	</g>
</g>
<g id="VZRgyI.tif_4_">
	<g>
		<polygon class="st2" points="214.8,49.4 214.8,49.4 214.8,49.4 		"/>
		<path class="st2" d="M276.4,198.6c-0.3,0-0.6-0.1-0.8-0.2c0.1,0.2,0.2,0.4,0.2,0.6C276,198.9,276.2,198.8,276.4,198.6z"/>
		<path class="st2" d="M113.9,21.5c-0.1-0.1-0.1-0.2-0.2-0.4c0,0.1,0,0.2,0,0.3C113.8,21.4,113.9,21.4,113.9,21.5z"/>
		<path class="st2" d="M145.3,21.9C145.3,21.9,145.3,21.9,145.3,21.9c-0.1-0.1-0.1,0-0.1,0C145.3,21.9,145.3,21.9,145.3,21.9z"/>
		<path class="st2" d="M122.7,24.9c0,0,0-0.1,0-0.1c0,0-0.1,0-0.1,0C122.7,24.8,122.7,24.9,122.7,24.9z"/>
		<path class="st2" d="M60.9,49c-0.1,0.2-0.2,0.3-0.3,0.4C60.7,49.3,60.8,49.2,60.9,49z"/>
		<path class="st2" d="M45.8,52.5c0.3-0.5,0.7-0.9,1.2-1.2C46.4,51.4,46,51.8,45.8,52.5z"/>
		<path class="st3" d="M86,43.5c-0.2-0.2-0.5-0.3-0.7-0.3C85.5,43.3,85.8,43.4,86,43.5z"/>
		<path class="st3" d="M160.9,206.3c0.2-0.2,0.5-0.4,0.6-0.6C161.2,205.7,161,205.9,160.9,206.3z"/>
		<path class="st3" d="M205.6,164.1c0.4,0.6,0.7,1.2,1.1,1.8C206.6,165,206.2,164.5,205.6,164.1z"/>
		<path class="st3" d="M158.9,15.6c-3.4-0.8-4.1,1.4-5.3,3.2c-0.7,1,0.4,1.9,1.2,2.3c1.6,0.9,1.2-0.7,1.6-1.4
			c1.6-2.6,0.9,0.5,1.4,0.6c1-4.1,4-3.7,6.9-2.9c1.6,0.4,1.9,2.1,0.5,2.4c-5.7,1.3-5.6,6.8-8.1,10.4c-0.5,0.8-1.3,1.4-2,2.1
			c-1.3,1.8-3.1,2.5-5.2,2.7c-0.8-3,3.9-3.1,2.6-6c-2.2,1.5-4.2,1.1-6.5-0.7c1.1-2,2.9-1.3,4.4-1.4c-2.2-1.2-4.3-2.3-5.1-4.9
			c0,0-0.1,0-0.1,0c-1.7,2.2-3.5,4.5-6.5,5c-2,0.7-3.7,0.4-5.3-1c1.1,2.3-0.4,3-2.1,2.9c-1.3-0.1-3.9,1.8-3.6-1.8
			c-0.9,0.3-1.9,0.7-2.8,1c-2.5,0.7-5.9,7.2-7.1-1.1c-1.1-1-0.8-2.4-0.8-3.7c0-0.7-0.1-1.5-0.1-2.2c-1,1.3-2,2.1-3.1,0.4
			c-0.1,0-0.1-0.1-0.2-0.1c0.1,2.6-1.5,4.1-3.8,4.6c-1.7,0.4-3-0.4-2.8-2.5c-2.2,4.7-5.5,1.2-8,0.7c-1.8-0.3-3.1-2.7-4.7-4.1
			c-1.6-0.1-3.1-0.2-4.7-0.3c-0.4,1.6,0.9,3.8-1.6,4.6c-2.6,1.2-4.6,3.9-8,3.1c-1.8,0.6-3.6,1.4-5.6,0.5c1.9-2.7,8.5-0.6,6.9-6.8
			c-6.2-3-12.1-1.5-17.9,1.2c0.6,0,1.3-0.2,1.7,0.1c1.2,0.8,0.1,1.2-0.5,1.3c-3.7,0.7-6.9,0.1-9.4-3c-3.2-3.4-7.5-0.4-11-1.9
			c0.2,1-0.5,3.1-0.9,1.9c-2.2-5.7-7.5-3.5-11.2-5.3c-0.4-0.2-0.6-0.9-0.9-1.4c-5-4-4.1,1.9-5.8,3.5c0.6,6.2,5.1,7.2,10.2,8.5
			c9.5,2.5,19.7,1.5,28.9,5.9c5.4,2.5,10.7,5.2,16.7,6.1c1.6,0.2,1.2,1.1,0.9,2.1c4.7-0.3,9.1-2,13.6-3.3c0.6-0.2,1.7-1,1.9-0.1
			c0.4,1.8,0,3.7-2,4.3c-3.1,1-6.3,1.7-9.5,2.6c-3.6,1.3-7.5,1.8-10.1,5.2c-0.2,0.3-1.1,0.7-1.2-0.1c-0.1-0.7,0.5-1.4,0.7-2.1
			c-0.4-1.2-0.8-2.4-1.2-3.7c-5,0.7-8.1,5.6-13.3,6.2c-0.1,0.2-0.2,0.3-0.3,0.4c-1.7,2.6-4.4,1.3-6.6,1.4c-3.7,0.1-5.8,0-7,0.4
			c-0.5,0.3-0.9,0.7-1.2,1.2c-0.4,1.2-0.2,3.3-0.3,7.1c0,43.7,0,87.3-0.1,131c0,2.3,0.9,4.8-1,6.8c0.5,11.4,6.2,20.2,14.4,27.6
			c23.5,21.2,51.7,33.2,81.8,41.5c2.4,0.7,4.5,2.2,7.4,1.4c29.9-7.8,58.3-19.1,82.4-39.1c6.9-5.7,13.5-11.7,16.3-20.7
			c-1-0.9-1.2-2.2-0.8-3.3c2.9-8.5,2.2-17.2,2.2-25.9c0-40.5-0.1-81,0.1-121.5c0-5.2-1.3-7-6.6-6.7c-7.1,0.5-14.3,0.2-21.4,0.1
			c-1.9,0-4.1,0.8-5.4-1.5c0,0,0,0,0,0l0,0l0,0l0,0c0.7-2.9,0.8-5.1-3.3-4.4c-1.7,0.3-3.5,0.1-5.3,0.2c1,1.5,2.7,2,4.2,3
			c-6.4,0-12.6,2-20.2,0c5.1-1.7,9.5-1.1,13.2-3c0,0,0,0,0,0c1-2.1-0.5-6.7,4.2-5.2c15.3,5,30.7,4.9,46.1,1.3
			c6.1-1.4,12.7-2,17.9-6.5c3.9-3.3,6.9-7,6.5-12.6c-0.3-4.9-4.4-5.7-7.7-7.8c-5.6-3.6-10.4-0.8-15.8,0.2c1.1,2.3,3.2,2.2,4.6,1.4
			c4.9-2.7,6.3,2.2,8.5,4.1c2.5,2.2-1.6,3.8-2.1,5.9c-0.7,3.1-3.9,2-5.7,3.4c1.2,0.1,2.3,0.1,3.9,0.2c-10.3,4.1-22.2,4.5-32.6,1.4
			c-0.7-0.2-1.9-1.1-2-0.9c-3.6,4-9.6-0.6-13.6,4c-1.3,1.4-6.8,1.3-9.4-2.1c-1.7-0.2-1.3-1.4-1.1-2.4c-0.8-3.8-3.6-1.5-4.4-0.8
			c-7.8,6.8-13.8,3.1-19.5-3c-1.1,1-2.2,2.1-3.3,3.1c1.7-3.4,2-7.8,6.7-8.7c0.1-0.5,0.1-1,0.2-1.4c-4.5-0.7-9-1.7-13.1-3.6
			C167.6,16.9,163.1,16.7,158.9,15.6z M161.1,29.6c0.9-0.4,1.9-0.3,2.2,0.9c-0.3,1.7-1.5,2.6-3,3.1c-0.8,0.2-1.4-0.3-1.5-1.2
			C158.6,30.6,160,30.1,161.1,29.6z M65.9,129.7c-0.2-0.6-0.6-1.5-0.6-1.6c4-1.9,2.9-6,4.1-9.1c-2-0.4-2.8-1.7-2.9-4.3
			c3.8,2.9,7.4,1.2,11.1,0.7c0.4-0.1,2.8-3,1.8,0.6c-0.4,1.5,6.8,3.8-0.4,4.3c1.4,1.1,2.9,2.2,0,3.3c7.9,11.1,5.9,20.6-6.3,27.8
			c-0.9-4.1,1.9-6.6,4.4-9.7c-1.7,0.4-2.6,0.6-3.6,0.8c0,0,0,0,0,0h0c-6.9,2.8-6.1-4.8-9.1-7.1C62.7,134.1,61.8,130.6,65.9,129.7z
			 M141.9,176.4c-0.1,0.2-0.2,0.4-0.3,0.5c-27.1,0-54.3,0-81.4,0c0-0.2,0-0.4,0-0.5C87.4,176.4,114.7,176.4,141.9,176.4z
			 M96.9,137.8L96.9,137.8c-0.4-1.2-2-2-1.2-3.9c3,0.7,5.7,2.3,9.2,0.4c1.8-1,5.1,1.1,4.9,4.7c-0.8,1.2-1.5,2.4-2.3,3.6
			c9.9,9.8,3.1,20.8-3.9,26.5c-0.8,0.6-1.6,1.3-2.6,0.4c-1.4-1.4,0.8-1.9,0.8-2.5c0.1-2.8,2.6-3.8,3.7-5.8c-0.7-1.9-2.1-0.1-3-0.6
			c-0.9-0.5-2.5-0.8-2.2-2.1c0.3-1,1.6-1.8,2.9-1.6c1,0.1,2,2,2.8,0.2c0.5-1.2-1.1-1.9-2-2.6c-0.6,1.1-1.6,1.2-2.7,1.1
			c-2.3,0.8-5.1,2.7-4.5-2.3c-0.4-0.3-0.8-0.6-1.1-0.9c-1.3-0.3-2.2-1.2-1.5-2.4c0.7-1.3,1.3-3.4,3.7-2.3
			C96,144.6,94.7,141.4,96.9,137.8z M129.3,139.8c0.2-2.5,3.4-1.1,6.1-0.9c-1.6-2.5-3.1-4.4-4.2-6.5c-0.9-1.9-3.9-3.1-2.2-6
			c2.7-0.4,2.3,3.9,5.5,3c-0.1-2.3-2.9-3.9-1.8-6.3c7.3,2.1,10.5,8.4,7.9,16.4c-1.4,4.2-4.2,7.6-7.6,10.4c-0.9,0.8-1.9,1.7-3.1,0.7
			c-1.5-1.3,0.5-1.7,0.8-2.5c0.8-2.5,2.5-4.2,4.7-6.1C132.8,141.2,129.1,143.1,129.3,139.8z M127.2,138.2c-0.5,0.1-1.6-1.2-1.7-2
			c-0.3-1.7,1.3-1.6,2.3-2c1.1,0,2.1,0.6,2.2,1.5C130,137.2,128.5,138,127.2,138.2z M138.4,120c-4.4-1.6-9.3-0.3-13.5-2.5
			c-0.4-0.2-0.5-1-1.6-3.4c4.6,3,8,2.5,11.1,1.1c4-1.8,2.5,3.7,5.1,3.6C139.2,119.2,138.6,120.1,138.4,120z M125.6,129
			c0.7,0.1,1.2,1.4,1.8,2.1c-0.5,1.7-1.8,2.2-3.1,2.4c-1.3,0.2-1.8-1-1.4-1.9C123.4,130.5,124,128.8,125.6,129z M143,255.6
			c-0.1,0.1-0.2,0.1-0.4,0.2c-19.2-7.5-38.2-15.2-56.4-24.9c-16.9-9.1-26.5-22.7-27.9-42c-0.2-2.3,0.1-4.7,0.2-7.1
			c0.1-2.6,1.2-3.8,4.1-3.8c26.8,0.2,53.6,0.3,80.4,0.5c2.2,1.3,1.4,3.5,1.4,5.4c0.1,22.1,0.1,44.2,0,66.3
			C144.4,252,145.2,254.4,143,255.6z M162,218.6c-0.3,0.1-0.9-0.6-1.4-0.9c0,0,0,0,0,0c-1.4-0.3-2.1-1.4-1.8-2.6
			c0.9-3.4,0.2-6-2.9-8.1c-2.3-1.5-2-4.1-1.7-6.4l0,0c-0.7-1.6,0.8-2.6,1.1-3.9c-0.3-1.9,0.2-3,2.1-3.9c1.7-0.8,1.9,0.2,2.5,1.1
			c2.3-0.9,2.5,2.4,4.4,2.2c1.8-1.8-2.9-4.3,0.2-5.4c2.5-0.9,4.3,1.6,5.7,3.5C175.5,201.3,170.6,215.8,162,218.6z M155.5,182.3
			c4.4,1.6,4.4,1.6,13.3-0.5c0.4,5-3,4.9-6.2,5C159.4,186.8,155.8,187.3,155.5,182.3z M193.1,235.9c-0.8,0.6-1.4,2.3-2.8,1
			c-1.5-1.3,0.3-2.2,0.5-3.3c0.6-2.6,3.3-3.3,4.4-5.8c-2.3-0.6-5.3,0.9-6.5-2.2c0,0,0,0,0,0c0,0,0,0,0,0c-0.1-0.5-0.1-1.1-0.2-1.6
			l0,0l0,0c-1.6,0.1-3-0.7-2.8-2.1c0.3-1.9,2.1-2.4,4-1.9c-0.6-1-1.7-1.1-2.8-1.2c0,0,0,0,0,0c-1.2-0.3-2.5,1.7-3.7,0.1
			c-0.9-1.2,0.4-2.1,0.6-3.2c2-9.7,2-9.7,12-9.9c-2.1-1.5-4.5-1-6.8-0.9c-2.5,0.1-4.2-0.5-4.7-3.7c3.3,0.8,6.4,2.1,9.8,0.1
			c2.1-1.2,3.2,3,5.8,3c-0.3,1.8-1.6,1.9-3.1,1.8c1.6,2,3.6,3.9,2.7,6.9C203,222.4,201,229.7,193.1,235.9z M221.8,217.5
			c-1,0.7-1.8,1.7-2.9,0.3c-1.1-1.3,0.2-1.7,0.7-2.7c1.1-2.2,2.8-3.7,4.5-5.5c-1.6-1.9-6.4,1.5-5.7-3.5c0-0.4-0.1-0.9-0.1-1.3
			c-0.4,0.2-0.9,0.5-1.3,0.7c-1.4,5.2-3.6,0.2-4.5-0.1c-2.3-0.8-3-3,0.1-4.4h0c-1-3.1-0.1-4.7,3.3-4.6c-3.2-3.1-1.2-6.7-1-10.1l0,0
			c-0.6-1.2-1.9-2.1-1.3-4.2c3.2,1,6.1,2.4,9.8,0.3c3.4-2,2.5,3.4,4.5,4.6c-2.1,2.4,1.8,4.5,0.2,6.9
			C232.1,202.9,229.7,212,221.8,217.5z M230,111.7c3.8,0,5.1,0.8,5,4.8c-0.3,16.6-0.2,33.3-0.2,49.9c0,1.9,0.1,3.8,0.1,5.6l0,0l0,0
			c-1,2.1-3,1.5-4.7,1.5c-23.1,0-46.1,0-69.2,0c-1.7,0-3.7,0.5-4.6-1.7c-0.1-1-0.2-2.1-0.3-3.1c-0.3-0.9-0.9-1.8-0.9-2.7
			c-0.1-16.8,0-33.6,0-50.4c0-1.6-0.2-3.2,1.7-4C181.2,111.8,205.6,111.9,230,111.7z M182,35.2c3,2,4.7,4.5,8.3,5.9
			c-4.5,3-9.6,1.9-13.5,4.7C176.5,40.8,189,43.9,182,35.2z M184.8,68.6c1.6,0.1,2.6,0.6,3.1,2.1c2.5,8.3,5.1,16.5,7.6,24.8
			c0.3,0.8-0.2,1.5-0.9,1.9l0,0c0.9,1.6,1.7,3.2-1.3,3.5c0.6,0.5,1.6,1.2,1.6,1.6c-0.3,1.5-1.5,0.8-2.3,0.6
			c-8.4-2-16.9-0.8-25.4-1.2c-2.8-0.1-5.4,3.2-8.2,0.2l0,0c-1.8-1.7-4.4,1.1-6.1-1c-1,0.5-2.8,0.8-2.2,2.1c2.2,4.7-2.3,3.6-3.9,4.3
			c-2.1,1-4.2,0.1-4.8-2.6c0-0.1,0.9-0.5,1.4-0.7l0,0c0,0,0,0,0,0c6.5-3.4,2.2-9.3,2.8-14.1c-0.7,3.2-1.4,6.3-2.5,11
			c-0.3-2.4-0.5-3.4-0.6-4.3c-0.2,4.5-2.9,4-5.9,2.9c-2.1,2-4.2,1.4-6.2,0c0.2,1.2-0.2,1.9-1.6,1.7c-10.6-1.2-20.9,0.5-31.4,1.9
			c-0.9,0.6-2.4,0.8-2.2-0.4c0.7-5.3,2.6-10.2,6.7-13.9c0.8-2.8,1.5-5.6,5.2-5.8c1-2.1,2.7-4.2,3-6.4c1-7.8,6.3-7.9,12.1-7.5
			c4.4,0.3,8.7,0.8,12.8,2.2c9,3.1,9.1,3.2,8.9,13.6c1.9-2.2,0.6-4.9,1.1-7.3c0.4-2,1.2-2.3,2.5-0.6v0v0
			C159.4,70.4,171.6,67.6,184.8,68.6z M153.1,46.3C153.1,46.3,153.1,46.3,153.1,46.3c0,3.1-1.8,3.7-4.6,3.7c-18.6-0.1-37.1,0-55.8,0
			c0.9-2.3,3.3-1.1,4.4-2.4c0,0,0,0,0,0h0c-0.3-0.4-2.4-1.1-0.7-1.1c5-0.1,10-1.6,15-0.4c-0.8-0.4-1.7-0.9-2.5-1.3
			c2-1.7,4.3-5.3,5.9-5c16.4,3.2,32.8,3.9,49.4,1.7c0.8-0.1,1.5,0,3.2,0C162.6,44.7,156.9,42.7,153.1,46.3z"/>
		<path class="st3" d="M214.6,152c0,0-0.1-0.1-0.1-0.1c0,0.1,0.1,0.1,0.1,0.2C214.5,152.1,214.6,152,214.6,152z"/>
		<path class="st3" d="M188.7,213c0,0,0.1,0,0.1-0.1C188.8,212.9,188.8,212.9,188.7,213C188.7,213,188.7,213,188.7,213z"/>
		<path class="st3" d="M192.6,210.4c0.5-0.7,1-1.2,1.4-1.6c-0.3-0.1-0.7-0.1-1-0.1C192.6,209.3,192.5,209.9,192.6,210.4z"/>
		<path class="st3" d="M218.1,194.3c-1,1-0.7,1.9-0.1,2.8c0.3-0.7,0.9-1.5,1.7-2.8C219.3,193.8,218.9,193.5,218.1,194.3z"/>
		<path class="st3" d="M70.7,126.4C70.7,126.4,70.7,126.4,70.7,126.4c0.1,0.1,0.1,0,0.1,0C70.8,126.4,70.7,126.4,70.7,126.4z"/>
		<path class="st3" d="M94.4,20c-0.3-0.2-0.6-0.3-1-0.4C93.7,19.7,94,19.9,94.4,20z"/>
		<path class="st3" d="M43.1,17.5c0.1,0,0.1,0,0.2,0C43.3,17.5,43.2,17.5,43.1,17.5C43.2,17.5,43.2,17.5,43.1,17.5z"/>
		<path class="st4" d="M224.2,271.5c-1.3,0.4-2,1.4-2.5,2.6c2.5,3.9,0.8,6.1-2.8,8.3c-18.4,11-38.7,14.9-59.7,15.9
			c-24.4,1.1-48.4-0.8-71-11c-14.9-6.7-14.8-6.9-8-21.3c0.4-0.9,0.9-1.8,0.9-1.8c41,19.8,82.4,20.6,124.6,5.1
			c1.1-0.4,2.1-1.1,3.1-1.7c-0.9-0.7-1.8-1.5-2.7-2.2c-38.8,14.6-77.4,13.9-115.7-1c3.1-2,4.4-3,4.4-4.1c0-2.4-2-3.3-3.6-4.3
			c-1.7-1-3.6-1.6-5.3-2.6c-29-16-47.7-39.3-51.9-73c-0.5-4.4-1.5-8.6-3.6-12.4c-0.6-1.1-1.1-3-2.8-2.6c-2,0.4-1,2.3-1,3.5
			c0.1,7.5-1.9,14.4-4.9,21.2c-1.2,2.6-2.1,2.8-4.3,1.1c-4.3-3.4-8.8-6.7-14.3-10.9c2.1,8.7,4.3,15.9,7.3,22.8
			c12.5,28.6,33,50.1,59,66.7c2.9,1.8,4.2,3.4,2,6.3c-2.3,3-1.3,4.6,1.5,6.6c7.7,5.4,15.9,9.7,24.9,12.4c24.5,7.3,49.5,8.9,74.8,5.8
			c17.8-2.2,35-6.3,50.3-16.5c4.7-3.1,6.5-6,2.3-10.6C224.8,273,224.5,272.3,224.2,271.5C224.2,271.5,224.2,271.5,224.2,271.5z
			 M72.1,267.2c-9.4-6.6-19.4-12.6-26.6-22c-5-2.4-7.8-7-11.2-10.9C23.3,221.6,15,207.4,9.6,190c3.9,2.9,6.9,4.9,9.7,7.2
			c2.1,1.7,3.1,1.8,4-1.1c1.7-5.2,3.9-10.3,6.4-16.9c5.1,37.1,25.3,62,56.5,79.4c-6.1-0.5-9.5,2.1-10.9,7.6
			C74.8,267.9,73.7,268.3,72.1,267.2z"/>
		<path class="st5" d="M31.3,12.5c0.9,0.7,1.9,1.2,2.9,1.7c5.4,0.1,10.7-0.3,16,1.3c1.3-0.2,1.9-2.3,3.6-1.4c6.6,3.6,13.9,2,20.9,3
			c3.2,0.5,6.2,1.1,8.2,4c2.4,3,0.3,4-1.4,5.2c2.1-0.7,3.9-1.7,5.7-2.9c0.2-0.2,0.4-0.4,0.5-0.6C86.8,20,84.3,18,85,14.9
			c3.4-0.5,5.1,2.1,7.2,3.8c0.6,0,1.1,0.1,1.7,0.2c4.3,1.9,7.6,7.2,13.5,4.2c0.1,0,0.1,0.1,0.2,0.1c1.9-1.1,3.1-4.3,6.2-2.2
			c0.1,0.1,0.1,0.3,0.2,0.4c1.1,0.5,2.2,0.1,3.2-0.5c0,0,0,0,0,0.1c2.2-0.7,4.3-1.4,6.5-2c1.8-0.5,1.8,0.9,1.9,2.1c0.3,0,0.7,0,1,0
			c2.3-0.3,4.7-1.6,8.1,0.6c-3.5,0.5-4.8,5-8.4,1.7c-1.2,0.4-2.4,0.9-3.6,1.3c0,0,0,0.1,0,0.1c0.5,0.7,1,1.4,1.5,2.2
			c0.1,0,0.3-0.1,0.4-0.1c1-0.3,2.1-0.6,3.2-0.3c0.1,0.1,0.2,0.1,0.3,0.2c1.6-1,3.4-1.3,5.2-0.9c0.2-0.1,0.3-0.3,0.5-0.4
			c1.3,2,2.8,1.3,4.2,0.2c0.2,0,0.4-0.1,0.7-0.1c-0.3-5.8,0.7-6.1,6.6-3.7c0,0,0,0.1,0,0.1c0.2,0,0.3,0,0.5,0c1.7,1.6,4.3,2.2,4.6,5
			c0.5,0.6,1.1,1.1,1.6,1.7c0.2,0.1,0.3,0.2,0.5,0.3c0.6,0.5,0.9,1.2,0.8,2c0,0.5-0.6,1.3-0.3,1.3c0.8,0.1,1-0.9,1.5-1.3
			c0.2-0.2,0.4-0.4,0.6-0.6c0.5-3.4,3.5-6.2,2.7-9.8c-1.2,0.6-1.7,3.1-3.7,1.4c-1.1-1-1.9-2.1-1.3-3.6c0.8-2.1,2-4,4.6-3.9
			c4.8,0.3,9.6,1,14.4,0.9c-9.7-3.7-20-2.7-29.9-4.2c-11.6-1.8-23.2,0.8-34.9,0.4c-4.3-0.2-8.7,1.5-13.1-0.5
			C86.4,7.5,78.3,5.4,70.4,3c-3.2-1-5.7-0.9-8.8,0.5C51.4,8.3,41.3,13,29.3,10.9c-5-0.9-5.3,2.8-3.9,6.6
			C26,14.2,25.9,10.1,31.3,12.5z M147.4,16.7c0.1-1.8,1.9-1.8,3.2-2.1c1.1-0.2,2.1,0.3,2.3,1.4c0.2,1.4-1,2.1-2,2.6
			c-1.3,0.5-2,1.2-1.7,2.6c0.6,0,1.2,0,1.7,0c1.8-0.1,3.6,0.5,3,2.3c-0.8,2.8-2.3,0-3.5-0.1c-0.9,0-2,0-2.4-1.2
			C146.2,20.6,147.3,18.6,147.4,16.7z M140.5,14c1.4,0.1,2.7,0.2,3,2c-0.4,2.7-3,2.7-4.8,3.5c-1.5,0.7-1.8-1.1-1.9-2.1
			C136.7,14.9,138.1,13.9,140.5,14z M130.2,13.3c1.5-0.1,2.4,0.6,2.4,1.9c0,2.2-1.5,3.2-3.3,3.3c-1.7,0.2-3.3-0.8-3.4-2.6
			C125.8,13,129,14.5,130.2,13.3z M116.3,14c1.8,0,4.1-0.3,3.9,2.2c-0.2,3-3.1,2.2-5,2.6c-1.5-0.3-3.8,0.7-3.7-1.7
			C111.7,14.4,114,13.9,116.3,14z M98.6,16.3c1.5-2.8,4.4-1,7-1.2c0.3-0.2,0.6-0.2,1.1-0.2c-0.3,0.1-0.7,0.2-1.1,0.2
			c-2.2,1.2-0.7,6.7-5,5.2C99,19.7,98.1,17.2,98.6,16.3z M63.4,10.5c0.7-1.8,1.5-4.8,3.1-4.5c2.4,0.4,2.1,3.6,2.8,5.7
			c-5.5,1.9-7.1,1.8-11-1C59.9,9.5,61.7,10.9,63.4,10.5z"/>
		<path class="st5" d="M94.4,20c1.5,1.4,2.9,3.8,4.7,4.1c2.5,0.5,5.8,4.1,8-0.7c0.2-0.1,0.3-0.1,0.4-0.2c-0.1,0-0.1-0.1-0.2-0.1
			c-5.9,3-9.1-2.3-13.5-4.2c-0.6-0.2-1.1-0.2-1.7-0.2c0.4,0.3,0.8,0.6,1.2,0.8C93.7,19.7,94.1,19.9,94.4,20z"/>
		<path class="st5" d="M117,21.1c0.1,0,0.2-0.1,0.2-0.1c0,0,0,0,0-0.1c-1.1,0.6-2.2,1-3.2,0.5C115,23.2,116,22.4,117,21.1z"/>
		<path class="st5" d="M150.4,26.9C150.4,26.9,150.4,26.9,150.4,26.9c-0.2-2.7-2.9-3.4-4.5-4.9c-0.2,0-0.3,0-0.5,0
			C146.1,24.5,148.2,25.7,150.4,26.9z"/>
		<path class="st5" d="M127.8,27.1c0.1-0.1,0.2-0.1,0.3-0.2c-0.1-0.1-0.2-0.1-0.3-0.2c-1.1-0.3-2.1,0-3.2,0.3c-0.1,0-0.3,0-0.4,0.1
			c0.2,0.3,0.5,0.7,0.7,1C125.9,27.7,126.8,27.4,127.8,27.1z"/>
		<path class="st5" d="M31.2,14c1,0.1,2,0.1,3,0.1c-1-0.4-2-1-2.9-1.7c-5.4-2.4-5.3,1.7-5.9,5C27.1,16,26.2,10,31.2,14z"/>
		<path class="st5" d="M138.8,26.9c0-0.5-0.1-0.9-0.1-1.4c-0.2,0.1-0.4,0.1-0.7,0.1c-1.5,1.1-2.9,1.8-4.2-0.2
			c-0.2,0.1-0.3,0.3-0.5,0.4c0.1,0,0.1,0,0.2,0C135,27.4,136.8,27.7,138.8,26.9z"/>
		<path class="st5" d="M152.8,18.2c-0.6,1.5,0.2,2.6,1.3,3.6c2.1,1.7,2.5-0.8,3.7-1.4c0,0,0,0,0,0c-0.5-0.2,0.2-3.2-1.4-0.6
			c-0.4,0.7,0,2.3-1.6,1.4c-0.8-0.4-1.8-1.3-1.2-2.3c1.2-1.8,1.9-4,5.3-3.2c4.2,1,8.7,1.2,12.9-0.4c-4.8,0-9.6-0.7-14.4-0.9
			C154.8,14.2,153.6,16.1,152.8,18.2z"/>
		<path class="st5" d="M80.1,27.4c3.4,0.9,5.4-1.9,8-3.1c0-0.6-0.1-1.2-0.3-1.7c-0.1,0.2-0.3,0.4-0.5,0.6c-1.8,1.1-3.7,2.2-5.7,2.9
			C80.9,26.5,80.4,26.9,80.1,27.4z"/>
		<path class="st5" d="M149.9,35c2.1-0.2,3.9-1,5.2-2.7c-0.1-0.7-0.1-1.4,0-2c-0.2,0.2-0.4,0.4-0.6,0.6c-0.5,0.5-0.7,1.5-1.5,1.3
			c-0.3-0.1,0.3-0.8,0.3-1.3c0.1-0.8-0.2-1.4-0.8-2c-0.2-0.1-0.3-0.2-0.5-0.3c0.1,0.1,0.2,0.2,0.4,0.4C153.7,31.8,149.1,32,149.9,35
			z"/>
		<path class="st6" d="M281.3,190.5c-3.3,2.9-4.2,1.7-5.6-1.6c-2.4-5.3-3.3-10.9-4.6-16.5c-0.5-2.4,1.9-6.4-0.9-6.7
			c-3-0.3-3.6,4.1-4.5,6.8c-1,2.8-1.6,5.7-1.8,8.7c-0.4,5.6-1.6,11-3.3,16.2c-8.9,26.7-26.8,45.3-51.6,57.7c1.2,0.7,2.4,1.4,3.6,2.2
			c4.9-1.3,8.5-5.1,13.1-7.1c10.4-7.9,19.7-16.8,27.2-27.6c7.9-12.9,13.7-26.5,15.9-42c2.3,5.9,4.6,11.8,7,18
			c0.3,0.1,0.5,0.2,0.8,0.2c3.8-2.8,7.3-5.4,11.7-8.6c-3.8,12.5-8.7,23.2-16,32.7c0,0,0,0,0,0l0,0c-9.6,14.5-21.6,26.7-35.8,36.8
			l0,0c-3.6,2.8-7.2,5.5-10.8,8.3c-0.8,1-2.2,1.9-1.4,3.4c1.1,0.4,0.6,1.8,1.1,2.5c-0.3-3,2.5-3.3,4.1-4.3
			c15.6-10.1,29.4-22.2,40.8-36.9c11.9-15.3,20.1-32.3,24.7-52.2C289.8,184,285.3,186.9,281.3,190.5z"/>
		<path class="st6" d="M224.1,271.2c0.1,0.1,0.1,0.2,0.2,0.3c0,0,0,0,0,0c0,0,0,0,0,0c0.3,0.7,0.6,1.5,0.9,2.2
			C224.7,273,225.1,271.6,224.1,271.2z"/>
		<path class="st7" d="M185,20.4C185,20.4,184.9,20.4,185,20.4c3.4,4.5-2.3,3.3-3.4,4.9c0.1,0,0.1,0.1,0.1,0.2
			c1.6,0.4,2.8,1.4,4.1,2.4c3.9,3.2,7.8,4.1,12.4,1c2.3-1.6,5.3-4.4,8.1-0.3c0.1,0.1,0.1,0.3,0.2,0.4c1.3-1.3,2.4-3.6,4.7-0.7
			c3-4,7.5-1.6,11.2-2.6c-11.7-0.7-23.1-2.7-34-7.2c-0.9-0.4-2.3,0.3-3.4,0.4C185.3,19.3,185.3,19.9,185,20.4z"/>
		<path class="st7" d="M184.9,20.5C184.9,20.4,185,20.4,184.9,20.5c0.4-0.6,0.4-1.1,0-1.6c-0.1,0.5-0.1,1-0.2,1.4
			C184.8,20.4,184.9,20.4,184.9,20.5z"/>
		<path class="st7" d="M206.3,28.6c-2.8-4.1-5.8-1.3-8.1,0.3c-4.6,3.1-8.5,2.2-12.4-1c-1.2-1-2.4-2-4.1-2.4c0-0.1-0.1-0.1-0.1-0.2
			c-0.1,0.2-0.2,0.4-0.2,0.6c5.7,6,11.7,9.7,19.5,3c0.8-0.7,3.6-3,4.4,0.8c0.4-0.1,0.8-0.3,1.2-0.7
			C206.4,28.8,206.3,28.7,206.3,28.6z"/>
		<path class="st8" d="M214.8,49.4c1.4,1.7,3.3,0.9,5,0.9c7.9,0.1,15.9,0.2,23.8,0c3.6-0.1,5.2,0.6,5.2,4.8
			c-0.2,46.4-0.1,92.8-0.1,139.1c0,4.8-2.2,9.2-2,14c3.8-8.9,2.8-18.3,2.8-27.6c0-42.1-0.1-84.2,0.1-126.3c0-4-0.7-5.3-5-5.1
			C234.7,49.7,224.7,49.4,214.8,49.4L214.8,49.4C214.8,49.4,214.8,49.4,214.8,49.4z"/>
		<path class="st8" d="M248.8,55.1c0-4.2-1.6-4.9-5.2-4.8c-7.9,0.2-15.9,0.1-23.8,0c-1.7,0-3.6,0.9-5-0.9c1.3,2.2,3.5,1.5,5.4,1.5
			c7.1,0.1,14.3,0.4,21.4-0.1c5.4-0.4,6.6,1.5,6.6,6.7c-0.2,40.5-0.1,81-0.1,121.5c0,8.7,0.7,17.4-2.2,25.9
			c-0.4,1.1-0.2,2.4,0.8,3.3c-0.1-4.8,2-9.2,2-14C248.7,147.8,248.6,101.5,248.8,55.1z"/>
		<polygon class="st8" points="214.8,49.4 214.8,49.4 214.8,49.4 		"/>
		<path class="st9" d="M209.1,29.1c-0.6,0.6-0.9,1.4-1.5,2c0.1,0.1,0.1,0.1,0.2,0.2c1.8,1.7,4.6,2.1,6.1,1.2
			c4.1-2.8,8.9-1.2,13.2-2.8c4-1.6,8.2,0.7,12,1.5c7.3,1.6,14.3,2.1,21.3-0.9c0.4-0.2,0.9-0.2,1.4,0c-0.5-0.5-1.5,0-1.9-0.8
			c-8,2.8-16,2.4-24-0.1c-4.4-1.4-9-2.4-13.6-3.6c-2.7,2.9-6.8,1.3-9.9,3C211.3,28.6,210.2,28.8,209.1,29.1z"/>
		<path class="st9" d="M261.9,30.2c-0.5-0.2-1-0.1-1.4,0c-7,3-14,2.6-21.3,0.9c-3.9-0.9-8-3.1-12-1.5c-4.3,1.7-9.1,0-13.2,2.8
			c-1.5,1-4.3,0.6-6.1-1.2c-0.1-0.1-0.1-0.1-0.2-0.2c-0.3,0.4-0.7,0.8-1.3,0.9c2.6,3.4,8.1,3.5,9.4,2.1c4-4.6,10,0,13.6-4
			c0.1-0.2,1.3,0.7,2,0.9c10.3,3.1,22.2,2.6,32.6-1.4c-1.6-0.1-2.8-0.1-3.9-0.2C260.4,30.2,261.3,29.7,261.9,30.2z"/>
		<path class="st9" d="M211.1,28.2c-0.9,0-1.5,0.3-2,0.8c1.1-0.3,2.2-0.5,3.4-0.4c3.1-1.7,7.2-0.1,9.9-3
			C218.7,26.6,214.2,24.3,211.1,28.2z"/>
		<path d="M44.9,180.9c0.1-39.9,0.1-79.7,0.1-119.6c0-4.7,0-7.3,0.8-8.9c0.2-0.6,0.6-1,1.2-1.2c1.5-0.8,4.1-0.9,8.7-1
			c1.6,0,3.7,1.1,5-0.8c0.1-0.1,0.2-0.3,0.3-0.4c-4,0.1-8,0.7-11.8,0.2c-4.7-0.6-5.4,1.2-5.4,5.5c0.2,41.7,0.1,83.3,0.1,125
			c0,5.9-0.7,11.9,0.6,17.8C45.5,192,44.8,186.4,44.9,180.9z"/>
		<path d="M45.5,190.6c0.1-43.7,0-87.3,0.1-131c0-3.8-0.1-5.9,0.3-7.1c-0.8,1.5-0.8,4.2-0.8,8.9c0,39.9,0.1,79.7-0.1,119.6
			c0,5.5,0.7,11.1-0.4,16.5C46.3,195.4,45.5,192.9,45.5,190.6z"/>
		<path d="M55.7,50.3c-4.6,0.1-7.2,0.1-8.7,1c1.2-0.4,3.3-0.3,7-0.4c2.2-0.1,5,1.2,6.6-1.4C59.4,51.3,57.3,50.2,55.7,50.3z"/>
		<path class="st10" d="M209,267.4c7.4-3.8,7.4-3.8,11.2,4.2c0.3,0.5,0.6,1.1,0.9,1.6c0.4-1,1.1-1.7,2.3-2.1c0.1,0,0.2,0,0.3,0
			c-1.5-1.3-0.7-2.4,0.2-3.5c-0.3,0-0.5-0.1-0.6-0.3c-1.9-5.3-4.8-9.3-11.2-8.6c0-0.2,0.1-0.5,0.1-0.7c-1.7-0.4-3.4-0.8-3.4-3.1
			c-7.1,3.4-7.1,3.4-2.1,8.8c0.2,0.2-0.4,1-0.6,1.5C208.1,265,208.9,265.8,209,267.4z"/>
		<path class="st10" d="M223.4,271.1c-1.2,0.4-1.9,1.1-2.3,2.1c0.2,0.3,0.4,0.6,0.6,0.9l0,0c0.5-1.2,1.2-2.2,2.5-2.6
			c-0.2-0.1-0.3-0.3-0.5-0.4C223.6,271.1,223.5,271.1,223.4,271.1z"/>
		<path class="st10" d="M209,267.4c-0.1-1.6-1-2.4-2.9-2.1c0.9,0.7,1.8,1.5,2.7,2.2C208.8,267.5,208.9,267.5,209,267.4z"/>
		<path class="st10" d="M223.7,271.1c0.1,0,0.2,0,0.3,0.1c-0.8-1.6,0.7-2.4,1.4-3.4c-0.4-0.1-1.1-0.1-1.5-0.2
			C223,268.7,222.2,269.8,223.7,271.1z"/>
		<path class="st10" d="M212.3,258c0.1-0.3,0.1-0.6,0.2-0.9h0c-1.2-0.7-2.4-1.4-3.6-2.2C208.9,257.2,210.6,257.6,212.3,258z"/>
		<path class="st10" d="M224.2,271.5C224.2,271.5,224.2,271.5,224.2,271.5c-0.1-0.1-0.1-0.2-0.2-0.3c-0.1,0-0.2,0-0.3-0.1
			C223.9,271.3,224,271.4,224.2,271.5z"/>
		<path class="st11" d="M76.3,45.3c0.3,0,0.5-0.1,0.8-0.1c1.9-1.4,3.8-2.6,6.4-2.7c3.5-1.9,8.1-1.4,11.1-4.4
			c-3.9,2.2-8,3.4-12.5,1.9c-3-0.1-5.3,1.8-7.9,2.8C75.4,43.2,76,44.1,76.3,45.3z"/>
		<path class="st11" d="M94.5,38.1c0.4-0.4,0.8-0.9,1.1-1.4c-4.5,1.3-8.9,3-13.6,3.3C86.5,41.5,90.6,40.3,94.5,38.1z"/>
		<path class="st11" d="M77.1,45.2c-0.3,0-0.5,0.1-0.8,0.1c-0.3-1.2-0.9-2.1-2.1-2.5c0.4,1.2,0.8,2.4,1.2,3.7
			C76,46,76.5,45.6,77.1,45.2z"/>
		<path class="st12" d="M199.8,47.6c2.7-0.5,5.4-1,8,0.1c0.4,0.2,0.8,0.2,1.3,0.2c-1.6-0.3-3-0.8-2.9-2.7c-1,0-1.9,0-2.9-0.1
			c0,0,0,0,0,0C202.3,46.5,201.1,47.2,199.8,47.6z"/>
		<path class="st12" d="M193.1,48c1.4,0.3,2.7,0.2,4.1,0.1C195.8,48.1,194.5,48,193.1,48z"/>
		<path class="st12" d="M199.8,47.6c-0.9,0.2-1.8,0.3-2.7,0.4C198.1,48,199,47.9,199.8,47.6z"/>
		<path class="st12" d="M190.2,48.2c7.6,2.1,13.8,0,20.2,0c-1.5-1.1-3.2-1.5-4.2-3c-0.1,1.9,1.3,2.4,2.9,2.7c-0.5,0-0.9,0-1.3-0.2
			c-2.7-1.2-5.3-0.7-8-0.1c-0.9,0.3-1.8,0.4-2.7,0.4c-1.3,0.2-2.7,0.2-4.1-0.1c1.4,0.1,2.8,0.1,4.1,0.1c0.9-0.1,1.8-0.3,2.7-0.4
			c1.3-0.4,2.5-1.2,3.5-2.5c0,0,0,0,0,0c0,0,0,0,0,0C199.6,47,195.3,46.5,190.2,48.2z"/>
		<path class="st13" d="M148.2,77.5c0.3,7.3,0.9,14.6,0.6,21.9c-0.1,2.4,0.8,8.5-5.6,4.9l0,0c-0.5,0.2-1.4,0.6-1.4,0.7
			c0.6,2.7,2.7,3.6,4.8,2.6c1.6-0.7,6.1,0.4,3.9-4.3c-0.6-1.3,1.2-1.7,2.2-2.1c11.2-5.8,23.3-4.8,35.2-4.5c2.2,0.1,4.3,0.5,6.4,0.8
			c0.8-0.4,1.2-1.1,0.9-1.9c-2.5-8.3-5.1-16.5-7.6-24.8c-0.5-1.6-1.5-2-3.1-2.1C171.6,67.6,159.4,70.4,148.2,77.5L148.2,77.5z"/>
		<path class="st14" d="M144.6,85.4c0.2-10.3,0.1-10.5-8.9-13.6c-4.2-1.4-8.5-1.9-12.8-2.2c-5.9-0.4-11.2-0.4-12.1,7.5
			c-0.3,2.2-2,4.3-3,6.4c-1,4.8-4.1,9-4.3,14.4c11.4-1.3,22.8-1.9,33.8,2.1l0,0c3,1,5.7,1.5,5.9-2.9C143,93.1,143.3,89.2,144.6,85.4
			z"/>
		<path class="st15" d="M74.6,121.9c-1.5,2.9,1.5,5,2,7.5c-3.2,0.7-2.8-2.8-5.7-3.1c0,0-0.1,0-0.1,0.1c0.4,5.2,4.4,8.1,6.7,12.3
			c-2.2,0.4-5-1.5-6.4,1c-0.8,1.6,2,1.5,2.4,2.8c0,0,0,0,0,0c0.9-0.2,1.9-0.4,3.6-0.8c-2.5,3.1-5.3,5.6-4.4,9.7
			c12.2-7.2,14.2-16.7,6.3-27.8C77.4,123.1,76.4,121.5,74.6,121.9z"/>
		<path class="st16" d="M164.6,190.6c-3.1,1.1,1.5,3.6-0.2,5.4c-1.9,0.2-2.1-3.1-4.4-2.2c0.2,5,4.7,7.7,6.8,12.4
			c-1.7,0-4-1.1-5.2-0.6c-0.2,0.2-0.4,0.4-0.6,0.6c-0.1,0.2-0.2,0.5-0.2,0.8c-0.3,3.2,3.5,1.2,5.6,2.2c-2.1,2.9-5.3,4.7-5.7,8.4
			c0,0,0,0,0,0c0,0,0,0,0,0c0.5,0.3,1.1,1,1.4,0.9c8.6-2.8,13.5-17.3,8.2-24.4C168.8,192.2,167.1,189.7,164.6,190.6z"/>
		<path class="st17" d="M194,208.9c-0.4,0.4-0.9,0.9-1.4,1.6c0.2,1.8,2.1,3.1,1.5,4.9c-2.5,0.7-2.5-3-5.3-2.4c0,0-0.1,0-0.1,0.1
			c0.7,4.7,4.4,7.7,7.4,12.1c-3.1-0.8-5.5-1.5-7.4,0.5c0,0,0,0,0,0c1.2,3.1,4.2,1.7,6.5,2.2c-1.1,2.5-3.8,3.2-4.4,5.8
			c-0.3,1.1-2,2-0.5,3.3c1.4,1.3,2-0.4,2.8-1c7.9-6.2,9.9-13.5,6.4-23C197.9,211.3,196.4,209.4,194,208.9z"/>
		<path class="st18" d="M130.6,148.2c-0.2,0.8-2.3,1.2-0.8,2.5c1.1,1,2.1,0.1,3.1-0.7c3.4-2.8,6.2-6.2,7.6-10.4
			c2.6-8-0.6-14.3-7.9-16.4c-1.1,2.4,1.7,4.1,1.8,6.3c-3.2,0.8-2.8-3.4-5.5-3c-1.6,2.9,1.3,4.1,2.2,6c1.1,2.1,2.6,4,4.2,6.5
			c-2.7-0.2-5.9-1.6-6.1,0.9c-0.2,3.3,3.5,1.4,6.1,2.2C133.1,144,131.4,145.7,130.6,148.2z"/>
		<path class="st18" d="M105.1,148.1c-0.4,0.1-0.8,0.3-1.1,0.2c-1.7-0.4-2-4.1-3.8-2.7c-2.3,1.7,0.7,3.3,1.5,4.8
			c0.7,1.4,1.5,2.8,2.3,4.1c0.9,0.7,2.5,1.3,2,2.6c-0.8,1.9-1.8-0.1-2.8-0.2c-1.3-0.2-2.6,0.6-2.9,1.6c-0.3,1.3,1.3,1.6,2.2,2.1
			c0.9,0.5,2.3-1.2,3,0.6c-1.1,2-3.6,3-3.7,5.8c0,0.6-2.2,1-0.8,2.5c0.9,0.9,1.8,0.2,2.6-0.4c7-5.7,13.8-16.7,3.9-26.5
			c-1.3-0.4-2.5-0.9-3.8-1.3C102.5,144.1,105.5,145.7,105.1,148.1z"/>
		<path class="st19" d="M221.9,189.9c-1.2,2.8,1.8,4.5,1.3,6.8c-1.8,0.6-2.5-1.4-3.4-2.4c-0.9,1.2-1.5,2.1-1.7,2.8
			c0.7,1,1.9,2,2.4,3c0.9,2,2.6,3.7,4.6,6.4c-2.8-0.4-4.8-1.8-6.7-0.4c-0.7,5,4.1,1.6,5.7,3.5c-1.7,1.8-3.5,3.3-4.5,5.5
			c-0.5,1-1.8,1.4-0.7,2.7c1.2,1.4,2,0.4,2.9-0.3c7.9-5.5,10.3-14.5,6.3-23.6C226.3,192.1,224.4,190.6,221.9,189.9z"/>
		<path class="st20" d="M219.9,201.6c-1.9-2.3-2.3-3.2-1.8-4.5c-0.6-0.9-0.9-1.8,0.1-2.8c0.7-0.7,1.2-0.5,1.7,0
			c0.2-0.3,0.4-0.6,0.6-0.9c1-1.5,0.1-4.5,3.4-3.8c2.1,0.5,4.1,1.6,4.3,4.2c1.5-2.3-2.4-4.5-0.2-6.9c-4.3-0.3-8.6-1.4-13-0.7
			c-0.2,3.4-2.2,7,1,10.1c1.1,3.2-0.8,4.1-3.3,4.6l0,0h0c-3,1.5-2.4,3.6-0.1,4.4c0.9,0.3,3.2,5.3,4.5,0.1c-1.5-0.7-3.1-1.3-1.8-3.3
			c0.7-1,1.8-1.6,3.1-0.7c1.4,1,1.5,2.2,0.1,3.3l0,0c0,0.4,0.1,0.9,0.1,1.3C218.9,204.6,222.3,204.5,219.9,201.6z"/>
		<path class="st20" d="M223.8,189.6c-3.3-0.7-2.4,2.2-3.4,3.8c-0.2,0.3-0.4,0.6-0.6,0.9c0.8,1,1.6,3,3.4,2.4
			c0.5-2.3-2.6-3.9-1.3-6.8c2.5,0.7,4.5,2.2,6.3,3.9C227.9,191.2,225.9,190.1,223.8,189.6z"/>
		<path class="st20" d="M225.1,206.5c-2-2.7-3.7-4.4-4.6-6.4c-0.5-1-1.7-2-2.4-3c-0.5,1.3,0,2.2,1.8,4.5c2.4,3-0.9,3.1-1.5,4.5
			C220.3,204.7,222.2,206.2,225.1,206.5z"/>
		<path class="st21" d="M65.9,129.7C65.9,129.7,65.9,129.7,65.9,129.7C65.9,129.7,65.9,129.7,65.9,129.7
			C65.9,129.7,65.9,129.7,65.9,129.7z"/>
		<path class="st21" d="M64.3,135.4c3,2.3,2.2,10,9.1,7.1h0c-2.7-0.5-5.4-2-1.9-4.2c3.6-2.2,1.1-3.5,0.4-5.2c-1-2.2-3.9-5.7-1.3-6.7
			c0,0,0.1,0,0.1,0c0,0,0,0,0-0.1c0,0,0.1,0,0.1,0c2.9-1.2,1.5-4.2,3.4-5c2.2-1,3.8,0.1,4.7,2.2c2.8-1.1,1.4-2.2,0-3.3
			c-3-1.7-6.2-1.9-9.5-1.3c-1.2,3.1-0.1,7.2-4.1,9.1c0,0,0.4,1,0.6,1.6c0,0,0,0,0.1,0c0,0,0,0,0,0c0,0,0,0,0,0c0,0,0,0,0,0
			c0,0,0,0,0,0c1.1-0.8,2.2-1.5,3.1,0.4c0.5,1.1,0.5,1.9-0.5,2.5c-0.9,0.5-1.9,1.7-3.1,0.6c-1.6-1.3,0.1-2.3,0.4-3.5c0,0,0,0,0,0
			c0,0,0,0,0,0C61.8,130.6,62.7,134.1,64.3,135.4z M69.9,134.1c1.4-0.3,2.4,0.7,2.4,1.9c-0.1,1-1.1,2-1.3,2.2
			c-2.7,0-3.5-1.2-3.6-2.1C67.3,134.8,68.8,134.3,69.9,134.1z"/>
		<path class="st21" d="M65.9,129.7C65.9,129.7,65.9,129.7,65.9,129.7C65.9,129.7,65.9,129.7,65.9,129.7
			C65.9,129.7,65.9,129.7,65.9,129.7C65.9,129.7,65.9,129.7,65.9,129.7z"/>
		<path class="st21" d="M65.9,129.7C65.9,129.7,65.9,129.7,65.9,129.7C65.9,129.7,65.9,129.7,65.9,129.7
			C65.9,129.7,65.9,129.7,65.9,129.7z"/>
		<path class="st21" d="M74.2,121.4c-1.9,0.8-0.5,3.8-3.4,5c3,0.2,2.6,3.8,5.7,3.1c-0.5-2.5-3.4-4.6-2-7.5c1.8-0.4,2.8,1.2,4.3,1.7
			C78,121.4,76.4,120.4,74.2,121.4z"/>
		<path class="st21" d="M71,139.7c1.3-2.5,4.2-0.6,6.4-1c-2.3-4.1-6.4-7.1-6.7-12.3c0,0-0.1,0-0.1,0c-2.6,0.9,0.3,4.4,1.3,6.7
			c0.8,1.7,3.3,3-0.4,5.2c-3.5,2.2-0.8,3.7,1.9,4.2C73,141.2,70.2,141.2,71,139.7z"/>
		<path class="st22" d="M149.1,47.5c-1.2,0.4-2.6,0-3.9,0c-8.3,0-16.6,0-24.9,0c-0.4,0.1-0.8,0.1-1.2,0.1c-1.7,0.2-3.7,0.5-5.4-0.2
			c-5.5,0-11.1,0-16.6,0c0,0,0,0,0,0c-1.1,1.3-3.6,0.1-4.4,2.4c18.7,0,37.3,0,55.8,0c2.8,0,4.6-0.5,4.6-3.7c-1,0.6-1.9,1.2-3,1.3
			C149.7,47.6,149.4,47.5,149.1,47.5z"/>
		<path class="st22" d="M150.6,46.2c-0.4,0.7-1,1.1-1.5,1.3c0.3,0,0.7,0.1,1,0.1c1.1-0.1,2.1-0.7,3-1.3l0,0
			C152.3,46.3,151.4,46.2,150.6,46.2z"/>
		<path class="st22" d="M119.1,47.7c0.4-0.1,0.8-0.1,1.2-0.1c-2.2,0-4.4,0-6.6,0C115.4,48.2,117.3,47.9,119.1,47.7z"/>
		<path class="st23" d="M190.7,98.6c-12.8-2-25.3,0.3-37.8,2.6c1.7,2.1,4.3-0.7,6.1,1c3.9-1,7.7-2.7,11.9-2.2c4.2,0,8.5,0,12.7,0
			c3.2,0.3,6.4,0.7,9.7,1h0c2.9-0.2,2.1-1.8,1.3-3.5l0,0l0,0C193.4,98.6,192,98.8,190.7,98.6z"/>
		<path class="st23" d="M152.8,101.2c12.5-2.3,25-4.7,37.8-2.6c1.4,0.2,2.8,0,3.8-1.1l0,0c-2.1-0.3-4.3-0.8-6.4-0.8
			C176.1,96.4,164,95.4,152.8,101.2z"/>
		<path class="st24" d="M106,99.3c-3.8,0.2-4.5-1.7-3.7-4.8c1.1-4,2.2-8,5.4-11c-3.7,0.2-4.4,3-5.2,5.8c0,0,0,0,0,0
			c-0.6,4.3-3.2,7.7-4.6,11.7c11-0.2,22-2.5,33.1-1.1v0c2.1,1.4,4.1,2,6.2,0l0,0C126.8,98.8,116.4,98.7,106,99.3z"/>
		<path class="st24" d="M103.4,97.8c0.2-5.4,3.3-9.6,4.3-14.4c-3.2,3-4.3,7-5.4,11c-0.8,3.1-0.2,5,3.7,4.8
			c10.4-0.6,20.8-0.5,31.2,0.7l0,0l0,0C126.2,95.9,114.8,96.6,103.4,97.8z"/>
		<path class="st25" d="M193.4,222.9c-2.3-1.4-2.8-3.9-4.3-5.7c-1.1-1.4-2.1-3.2-0.4-4.2c0,0,0,0,0,0c0,0,0.1,0,0.1,0
			c0.4-0.2,0.8-0.4,1.4-0.5c0.4-0.1,0.8-0.1,1.1-0.4c0.5-0.6,0.9-1.1,1.3-1.6c-0.1-0.5,0-1.1,0.4-1.7c0.4,0,0.7,0.1,1,0.1
			c2-1.8,3-0.5,5.5,4.1c1-3-1.1-4.8-2.7-6.9c-0.3-0.3-0.6-0.4-1-0.3l0,0c-10,0.3-10,0.3-12,9.9c4.2-2.1,3.7,0.4,3.1,3.1
			c1.1,0.1,2.1,0.2,2.8,1.2c1.3,1.8,0.1,2.9-1.2,3.9l0,0c0.1,0.5,0.1,1.1,0.2,1.6c0,0,0,0,0,0C189.3,223.2,191.3,223,193.4,222.9z"
			/>
		<path class="st25" d="M196.1,225.1c-3-4.4-6.7-7.5-7.4-12.1c-1.7,1-0.7,2.8,0.4,4.2c1.4,1.8,2,4.3,4.3,5.7
			c-2.1,0.1-4.1,0.2-4.7,2.7C190.6,223.6,193,224.3,196.1,225.1z"/>
		<path class="st25" d="M190.3,212.4c-0.6,0.1-1.1,0.3-1.4,0.5c2.8-0.7,2.8,3,5.3,2.4c0.6-1.8-1.4-3.1-1.5-4.9
			c-0.4,0.5-0.8,1-1.3,1.6C191.1,212.3,190.7,212.3,190.3,212.4z"/>
		<path class="st25" d="M194,208.9c2.3,0.5,3.8,2.4,5.5,4.1C197,208.3,196,207.1,194,208.9z"/>
		<path class="st26" d="M159.7,215.4c1.2-2.4,5.2-4.7,0.2-7.3c-0.3-0.2-0.3-0.9,0-1.1c0.4-0.2,0.7-0.5,1-0.7
			c0.2-0.3,0.4-0.5,0.6-0.6c2.7-3.1-1.6-5.7-2.3-8.5c-0.3-1.2-0.3-2.3,0.7-3.2c-0.6-0.9-0.8-1.9-2.5-1.1c-1.9,0.9-2.5,2-2.1,3.9
			c2-1.3,3.2,0.1,3.2,1.6c-0.1,2.4-2.1,2.8-4.2,2.3c-0.4,2.4-0.7,4.9,1.7,6.4c3.1,2,3.8,4.6,2.9,8.1c-0.3,1.2,0.3,2.3,1.8,2.6
			C159.3,217.3,159.2,216.4,159.7,215.4z M159.1,205.3c-1.5,0-2.3-1.1-2.2-2.2c0.1-1.2,1.3-1.9,2.5-1.9c1.1,0,1.9,0.8,1.9,1.8
			C161.4,204.4,160.2,204.8,159.1,205.3z"/>
		<path class="st26" d="M159.2,197.1c0.7,2.8,5,5.4,2.3,8.5c1.2-0.5,3.4,0.6,5.2,0.6c-2.1-4.7-6.6-7.4-6.8-12.4
			C158.9,194.8,158.9,195.9,159.2,197.1z"/>
		<path class="st26" d="M166.3,209.2c-2.1-1-6,1-5.6-2.2c0-0.3,0.1-0.6,0.2-0.8c-0.3,0.2-0.6,0.5-1,0.7c-0.3,0.2-0.3,0.9,0,1.1
			c5,2.6,1,4.9-0.2,7.3c-0.5,1-0.4,1.9,0.9,2.2c0,0,0,0,0,0C161,214,164.2,212.1,166.3,209.2z"/>
		<path class="st21" d="M95.6,152.5c0.4,0.3,0.8,0.6,1.1,0.9c2.3-0.9,4.6-1.5,4.5,2.3c1.1,0.1,2.1,0,2.7-1.1c-3.1-0.8-4.1-3.4-4.9-6
			c-0.6-1.8-1.2-4.2,2.2-3.9c1,0.1,1.1,0,1.3-1c0.8-4.6,2.9-2.9,4.9-0.9c0.8-1.2,1.5-2.4,2.3-3.6c-4.2-1-8.5-1.9-12.9-1.2l0,0l0,0
			c-2.1,3.5-0.8,6.8,0.9,10C99,150.3,97.3,151.4,95.6,152.5z"/>
		<path class="st21" d="M102.5,143.6c-0.2,1-0.3,1.1-1.3,1c-3.4-0.3-2.8,2.1-2.2,3.9c0.8,2.6,1.8,5.2,4.9,6
			c-0.8-1.4-1.6-2.7-2.3-4.1c-0.8-1.6-3.8-3.1-1.5-4.8c1.8-1.4,2.1,2.3,3.8,2.7c0.3,0.1,0.7-0.1,1.1-0.2c0.4-2.3-2.6-3.9-1.4-6.7
			c1.3,0.4,2.5,0.9,3.8,1.3C105.4,140.7,103.3,139,102.5,143.6z"/>
		<path d="M141.6,176.9c0.1-0.2,0.2-0.4,0.3-0.5c-27.2,0-54.4,0-81.7,0c0,0.2,0,0.4,0,0.5C87.3,176.9,114.5,176.9,141.6,176.9z"/>
		<path class="st27" d="M148.1,99.3c0.6-5.6-1.5-10.9-1.2-16.4c0.1-1.9-0.6-4,1.4-5.4v0c-1.3-1.7-2.2-1.4-2.5,0.6
			c-0.5,2.4,0.8,5.1-1.1,7.3c0.8,4,0.1,7.9-1.5,11.6c0.1,0.9,0.2,1.8,0.6,4.3c1.1-4.7,1.8-7.8,2.5-11c-0.7,4.8,3.7,10.7-2.8,14.1
			c0,0,0,0,0,0C147.1,104.7,147.7,102.4,148.1,99.3z"/>
		<path class="st27" d="M148.8,99.4c0.3-7.3-0.3-14.6-0.6-21.9c-2,1.4-1.3,3.5-1.4,5.4c-0.3,5.5,1.9,10.8,1.2,16.4
			c-0.4,3.1-1,5.4-4.8,5.1C149.7,107.9,148.7,101.8,148.8,99.4z"/>
		<path class="st27" d="M144.6,85.4c-1.3,3.8-1.6,7.7-1.5,11.6C144.7,93.3,145.4,89.5,144.6,85.4z"/>
		<path d="M231.1,173c-23.7,0-47.4,0-71.1,0c-1.3,0-2.8,0.7-3.7-1c0.9,2.2,2.9,1.7,4.6,1.7c23.1,0,46.1,0,69.2,0
			c1.7,0,3.7,0.6,4.7-1.5l0,0C234,173.6,232.4,173,231.1,173z"/>
		<path d="M228,172.5c-4-0.4-8.1,0-12.2-0.1c-2,0-4,0-5.9,0c-5.4,0-10.8-0.1-16.2-0.1c-10.6,0.4-21.3-0.1-31.9,0.2
			c-1.2,0-2.2-0.1-2.9-0.5c-0.8,0-1.7,0-2.5,0c0.8,1.7,2.4,1,3.7,1c23.7,0,47.4,0,71.1,0c1.3,0,2.8,0.6,3.8-0.9c-1,0-1.9,0-2.9,0.1
			C231,172.6,229.7,172.7,228,172.5z"/>
		<path d="M161.8,172.5c10.6-0.2,21.3,0.2,31.9-0.2c-11.6-0.1-23.2-0.2-34.8-0.3C159.7,172.3,160.6,172.5,161.8,172.5z"/>
		<path d="M228,172.5c1.7,0.2,3,0,4-0.4c-5.4,0.1-10.8,0.2-16.2,0.3C219.9,172.5,224,172.1,228,172.5z"/>
		<path d="M144.4,183.9c0-1.8,0.8-4-1.4-5.4c1.3,1.1,0.8,2.6,0.8,3.9c0,23.1,0,46.2,0,69.3c0,1.3,0.8,3-0.8,3.9
			c2.2-1.3,1.4-3.6,1.4-5.5C144.4,228,144.4,205.9,144.4,183.9z"/>
		<path d="M143.8,251.7c0.1-23.1,0.1-46.2,0-69.3c0-1.3,0.4-2.8-0.8-3.9c0,15.9,0.2,31.8,0,47.6c-0.1,9.9,0.7,19.8-0.4,29.7
			c0.1-0.1,0.3-0.1,0.4-0.2C144.5,254.7,143.8,253,143.8,251.7z"/>
		<path class="st28" d="M101.6,46.8c3.6,0.2,7.2,0.1,10.8,0.1c-0.3-0.2-0.7-0.5-1-0.9c0,0,0,0,0,0c-5-1.2-10,0.4-15,0.4
			c-1.7,0,0.4,0.7,0.7,1.1h0C98.4,46.2,100.1,46.7,101.6,46.8z"/>
		<path class="st28" d="M112.4,46.8c11.8-0.3,23.6-1.4,35.4-0.1c1,0.1,2,0,2.9-0.5c-13.1-2.2-26.1-0.3-39.2-0.3c0,0,0,0,0,0
			c0,0,0,0,0,0C111.7,46.3,112,46.6,112.4,46.8z"/>
		<path class="st28" d="M120.3,47.5c8.3,0,16.6,0,24.9,0c1.2,0,2.6,0.4,3.9,0C139.5,46.3,129.9,46.3,120.3,47.5z"/>
		<path class="st28" d="M112.4,46.8c-3.6,0.1-7.2,0.1-10.8-0.1c-1.5-0.1-3.2-0.5-4.5,0.7c5.5,0,11.1,0,16.6,0
			C113.2,47.4,112.8,47.1,112.4,46.8z"/>
		<path class="st28" d="M147.7,46.7c-11.8-1.3-23.6-0.2-35.4,0.1c0.4,0.3,0.9,0.5,1.3,0.7c2.2,0,4.4,0,6.6,0
			c9.6-1.2,19.2-1.2,28.8-0.1c0.6-0.2,1.1-0.6,1.5-1.3C149.7,46.8,148.7,46.8,147.7,46.7z"/>
		<path d="M156.1,162.5c-0.1-0.4-0.2-0.9-0.3-1.3c-0.1-15.1,0-30.1,0-45.2c0-1.4-0.9-3.2,1.1-4.2c-1.9,0.8-1.7,2.4-1.7,4
			c0,16.8,0,33.6,0,50.4c0,0.9,0.6,1.8,0.9,2.7C155.8,166.7,155.3,164.6,156.1,162.5z"/>
		<path d="M155.8,116c0,15.1-0.1,30.1,0,45.2c0.1,0.4,0.2,0.8,0.3,1.3c0.1-0.3,0.2-0.5,0.4-0.8c0-16.6-0.6-33.3,0.3-49.9
			C154.9,112.8,155.8,114.6,155.8,116z"/>
		<path d="M156.1,162.5c-0.8,2.1-0.4,4.2,0,6.3c0.1-1.4,0.2-2.8,0.2-4.2C156.3,163.9,156.3,163.2,156.1,162.5z"/>
		<path d="M156.4,164.6c0.1-1,0.1-1.9,0.2-2.9c-0.2,0.3-0.3,0.5-0.4,0.8C156.3,163.2,156.3,163.9,156.4,164.6z"/>
		<path class="st29" d="M99.1,101.9c-0.6-0.2-1-0.5-1.3-0.9c-1.4,0.9-1.3,1.7,0.3,2.5c10.4-1.3,20.8-3,31.4-1.9
			c1.4,0.2,1.7-0.5,1.6-1.7l0,0C120.3,100.4,109.7,101,99.1,101.9z"/>
		<path class="st29" d="M97.9,101c0,0-0.1,0.1-0.1,0.1c0.3,0.3,0.7,0.6,1.3,0.9c10.6-1,21.2-1.6,31.9-2l0,0v0
			C119.9,98.5,108.9,100.8,97.9,101z"/>
		<path class="st30" d="M183.4,101c-1.4,0-2.8,0-4.2,0c-1.3,0.1-2.5,0.1-3.8,0c-1.3,0-2.7,0-4,0c-4.3-0.8-8.2,1.9-12.4,1.3
			c0,0,0,0,0,0l0,0c2.8,2.9,5.4-0.3,8.2-0.2c8.5,0.3,17-0.9,25.4,1.2c0.8,0.2,2.1,0.9,2.3-0.6c0.1-0.4-1-1.1-1.6-1.6c0,0,0,0,0,0
			C190,102.8,186.7,100.5,183.4,101z"/>
		<path class="st30" d="M171.3,100.9c1.3,0,2.7,0,4,0c-1.5-0.2-3-0.5-4.5-1l0,0c-4.2-0.5-8,1.2-11.9,2.2c0,0,0,0,0,0
			C163.2,102.8,167.1,100.1,171.3,100.9z"/>
		<path class="st30" d="M183.6,100c-1.5,0.5-2.9,0.8-4.4,1c1.4,0,2.8,0,4.2,0c3.3-0.5,6.6,1.8,9.8,0c0,0,0,0,0,0h0
			C190,100.6,186.8,100.3,183.6,100z"/>
		<path class="st31" d="M134.5,115.2c-3.2,1.4-6.5,1.9-11.1-1.1c1.1,2.3,1.2,3.1,1.6,3.4c4.2,2.2,9.1,0.9,13.5,2.5
			c0.2,0.1,0.8-0.8,1.1-1.2C137,119,138.5,113.4,134.5,115.2z"/>
		<path class="st32" d="M162.7,186.7c3.2,0,6.6,0.1,6.2-5c-9,2.1-9,2.1-13.3,0.5C155.8,187.3,159.4,186.8,162.7,186.7z"/>
		<path class="st33" d="M78.9,120.3c7.2-0.5,0-2.8,0.4-4.3c1.1-3.6-1.4-0.7-1.8-0.6c-3.7,0.5-7.3,2.1-11.1-0.7
			c0.1,2.7,0.9,3.9,2.9,4.3C72.9,116.9,76.1,116.7,78.9,120.3z"/>
		<path class="st33" d="M78.9,120.3c-2.7-3.7-6-3.4-9.5-1.3C72.7,118.4,75.9,118.6,78.9,120.3z"/>
		<path class="st34" d="M227.9,187c-2-1.2-1.1-6.6-4.5-4.6c-3.7,2.1-6.6,0.7-9.8-0.3c-0.5,2,0.7,3,1.3,4.2l0,0l0,0
			C219.4,182.9,223.7,185.1,227.9,187z"/>
		<path class="st34" d="M227.9,187c-4.3-1.9-8.5-4.1-13-0.7l0,0C219.3,185.6,223.6,186.7,227.9,187z"/>
		<path class="st35" d="M196.9,206.1c1.5,0.2,2.8,0,3.1-1.8c-2.5,0-3.7-4.2-5.8-3c-3.5,1.9-6.5,0.7-9.8-0.1c0.5,3.2,2.2,3.8,4.7,3.7
			c2.3-0.1,4.7-0.6,6.8,0.9l0,0C196.3,205.5,196.6,205.6,196.9,206.1z"/>
		<path class="st35" d="M196.9,206.1c-0.2-0.5-0.5-0.6-1-0.3l0,0l0,0C196.3,205.6,196.6,205.8,196.9,206.1z"/>
		<path class="st36" d="M109.8,139c0.3-3.6-3-5.7-4.9-4.7c-3.5,1.9-6.2,0.3-9.2-0.4c-0.8,1.9,0.8,2.7,1.2,3.9
			C101.4,136.2,105.8,135.5,109.8,139z"/>
		<path class="st36" d="M109.8,139c-4-3.5-8.4-2.9-12.9-1.2l0,0C101.3,137.1,105.5,138,109.8,139z"/>
		<path class="st37" d="M57.1,19.3c-1.2-0.7-2.6-1-4-1.2c0.9,0.4,1.7,1,2.4,2.1C55.9,19.2,56.5,19.1,57.1,19.3z"/>
		<path class="st37" d="M44.7,18.3c0.1,0,0.2,0,0.3,0c-0.2,0-0.4-0.1-0.6-0.2C44.5,18.2,44.6,18.3,44.7,18.3z"/>
		<path class="st37" d="M53.1,18.1c-1-0.1-2-0.2-3.1-0.1c-1.6,0.1-3.4,0.7-5.1,0.3c-0.1,0-0.2,0-0.3,0c-0.1-0.1-0.2-0.1-0.3-0.2
			c-0.4-0.1-0.7-0.3-1.1-0.6c-0.1,0-0.1,0-0.2,0c0.5,0.3,0.9,0.7,1.1,1.2c3.5,1.5,7.8-1.4,11,1.9c0.1-0.2,0.1-0.4,0.2-0.5
			C54.8,19.1,54,18.4,53.1,18.1z"/>
		<path class="st37" d="M59.8,20.2c0.3-0.2,0.6-0.4,0.9-0.6c0.1-0.1,0.2-0.5,0.1-0.5c-5.5-3.6-11.5-1.7-17.3-1.5
			c0.3,0.2,0.6,0.4,0.9,0.6c0.2,0.1,0.4,0.1,0.6,0.2c2.8-0.3,5.7-1.4,8.1-0.2c1.4,0.2,2.7,0.6,4,1.2C58,19.5,59,20.5,59.8,20.2z"/>
		<path class="st37" d="M44.9,18.3c1.7,0.4,3.4-0.2,5.1-0.3c1.1-0.1,2.1,0,3.1,0.1C50.6,16.9,47.7,18,44.9,18.3z"/>
		<path class="st37" d="M43.3,17.5c0.3,0.3,0.7,0.5,1.1,0.6c-0.3-0.2-0.6-0.4-0.9-0.6C43.4,17.5,43.4,17.5,43.3,17.5z"/>
		<path class="st37" d="M43.1,17.5c0,0.8,0.4,1.1,1.1,1.2C44,18.2,43.6,17.8,43.1,17.5z"/>
		<path class="st38" d="M96.3,102c0-0.8,0.6-1.1,1.4-1c-0.5-0.7-0.5-1.5,0.1-2.2c2.3-2.8,2.5-6.6,4.8-9.4c0,0,0,0,0,0
			c-4.1,3.7-6,8.6-6.7,13.9c-0.2,1.2,1.3,1,2.2,0.4C96.9,103.7,96.3,103.2,96.3,102z"/>
		<path class="st38" d="M97.8,98.7c-0.6,0.8-0.6,1.6-0.1,2.2c0.1,0,0.1,0,0.2,0c1.4-3.9,4.1-7.4,4.6-11.7c0,0,0,0,0,0c0,0,0,0,0,0
			C100.3,92.1,100.1,95.9,97.8,98.7z"/>
		<path class="st38" d="M97.8,101.1C97.8,101,97.7,101,97.8,101.1c-0.8-0.2-1.4,0.1-1.5,0.9c-0.1,1.1,0.5,1.7,1.7,1.5
			C96.5,102.8,96.4,102,97.8,101.1z"/>
		<path class="st38" d="M97.8,101.1c0,0,0.1-0.1,0.1-0.1C97.8,101,97.8,101,97.8,101.1C97.7,101,97.8,101,97.8,101.1z"/>
		<path class="st39" d="M89.5,19.5c-0.7-0.7-1.3-1.3-2-2c-0.2-0.1-0.4-0.1-0.7-0.2c0.1,1.3,1.1,2.5,1.6,3.8
			C88.7,20.5,89,20,89.5,19.5z"/>
		<path class="st39" d="M88.5,21.1c0.4,1,0.5,2-0.4,3.2c2.5-0.9,1.2-3.1,1.6-4.6c-0.1-0.1-0.1-0.1-0.2-0.2
			C89,20,88.7,20.5,88.5,21.1z"/>
		<path class="st39" d="M86.9,17.3c0.2,0.1,0.4,0.1,0.7,0.2c-0.9-0.9-1.7-1.8-2.6-2.6c-0.7,3.1,1.8,5.2,2.8,7.7
			c0.3-0.5,0.5-1,0.7-1.5C88,19.9,87,18.7,86.9,17.3z"/>
		<path class="st39" d="M88.5,21.1c-0.2,0.5-0.4,1-0.7,1.5c0.2,0.5,0.3,1.1,0.3,1.7C89,23.2,88.9,22.1,88.5,21.1z"/>
		<path class="st40" d="M123.3,24c-0.5,0.2-0.9,0.3-1.4,0.3c0.3,0.1,0.5,0.3,0.8,0.5c0,0,0.1,0,0.1,0c0-0.1,0.1-0.3,0.1-0.5
			C123,24.2,123.2,24.1,123.3,24z"/>
		<path class="st40" d="M119.6,24.1c-0.4-0.1-0.8-0.2-1.3-0.4c0.1,0.4,0.1,0.9,0.2,1.3C118.9,24.5,119.2,24.2,119.6,24.1z"/>
		<path class="st40" d="M124.1,23.4c0.7-0.4,1.5-0.6,2.3-0.6c0-0.2,0-0.5,0.1-0.7c-0.4-0.1-0.8-0.2-1.2-0.3
			C125,22.5,124.6,23.1,124.1,23.4z"/>
		<path class="st40" d="M118.4,23.7c-0.4-0.1-0.9-0.3-1.3-0.4c0,1.3-0.3,2.7,0.8,3.7c0.2-0.8,0.4-1.5,0.7-2
			C118.5,24.6,118.4,24.1,118.4,23.7z"/>
		<path class="st40" d="M124.1,23.4c-0.3,0.2-0.5,0.4-0.8,0.6c-0.1,0.1-0.3,0.2-0.4,0.3c-0.1,0.2-0.1,0.3-0.1,0.5
			c1.2-0.4,2.4-0.9,3.6-1.3c0-0.2,0-0.4,0.1-0.6C125.6,22.9,124.8,23.1,124.1,23.4z"/>
		<path class="st40" d="M126.5,22.1c0-0.3,0.1-0.7,0.1-1c-0.3,0-0.7,0-1,0c-0.1,0.3-0.2,0.5-0.3,0.7
			C125.7,21.9,126.1,22.1,126.5,22.1z"/>
		<path class="st40" d="M118.6,25c0.1,0.3,0.1,0.7,0.2,1c1-0.9,2.3-1.4,3.8-1.2c-0.3-0.2-0.6-0.3-0.8-0.5c-0.7,0-1.5-0.1-2.2-0.3
			C119.2,24.2,118.9,24.5,118.6,25z"/>
		<path class="st40" d="M118.8,26c-0.1-0.3-0.2-0.7-0.2-1c-0.3,0.5-0.5,1.2-0.7,2C118.2,26.6,118.5,26.3,118.8,26z"/>
		<path class="st40" d="M118.3,23.3c0,0.1,0,0.3,0.1,0.4c0.4,0.1,0.9,0.3,1.3,0.4c0.6-0.2,1.3-0.1,2.2,0.3c0.5,0,1-0.1,1.4-0.3
			c0.3-0.2,0.5-0.4,0.8-0.6c0.4-0.4,0.8-0.9,1.2-1.6c0,0-0.1,0-0.1,0c0,0,0,0-0.1,0C123.3,23.9,120.7,23.4,118.3,23.3z"/>
		<path class="st40" d="M118.3,23.3c-0.4,0-0.8,0-1.2,0c0.4,0.1,0.9,0.3,1.3,0.4C118.3,23.6,118.3,23.4,118.3,23.3z"/>
		<path class="st40" d="M125.2,21.8c0,0,0.1,0,0.1,0c0.1-0.2,0.2-0.4,0.3-0.7C125.5,21.3,125.3,21.5,125.2,21.8
			C125.2,21.7,125.2,21.7,125.2,21.8z"/>
		<path class="st40" d="M124.1,23.4c-0.3,0.2-0.6,0.3-0.8,0.6C123.6,23.9,123.9,23.7,124.1,23.4z"/>
		<path class="st40" d="M119.6,24.1c0.8,0.2,1.5,0.3,2.2,0.3C121,23.9,120.2,23.8,119.6,24.1z"/>
		<path class="st41" d="M183.9,215.7c-0.1,1.1-1.5,2-0.6,3.2c1.2,1.6,2.4-0.4,3.7-0.1c0,0,0,0,0,0c0,0,0,0,0,0
			C186.1,217.6,185.1,216.5,183.9,215.7z"/>
		<path class="st41" d="M183.9,215.7c1.3,0.8,2.2,1.9,3.1,3.1c0,0,0,0,0,0C187.6,216.1,188.1,213.5,183.9,215.7z"/>
		<path class="st42" d="M94.1,150.1c-0.7,1.1,0.2,2.1,1.5,2.4c0.5-1.7,3.4-2.3,2.2-4.7C95.4,146.7,94.8,148.9,94.1,150.1z"/>
		<path class="st42" d="M95.6,152.5c1.8-1.1,3.5-2.2,2.2-4.7C98.9,150.3,96,150.8,95.6,152.5z"/>
		<path class="st43" d="M124.3,133.5c1.3-0.2,2.6-0.8,3.1-2.4c-0.6-0.7-1.1-2-1.8-2.1c-1.6-0.2-2.1,1.5-2.7,2.6
			C122.5,132.5,123,133.7,124.3,133.5z"/>
		<path class="st44" d="M155.3,196.6c-0.3,1.3-1.7,2.3-1.1,3.9l0,0l0,0C155.3,199.4,157.8,198.7,155.3,196.6z"/>
		<path class="st44" d="M158.4,198.2c0.1-1.5-1.2-2.9-3.2-1.6c2.5,2.1,0,2.8-1.1,3.9l0,0C156.3,201,158.3,200.7,158.4,198.2z"/>
		<path class="st45" d="M96.7,153.4c-0.6,5,2.2,3.1,4.5,2.3C100.2,154,98.1,154.4,96.7,153.4z"/>
		<path class="st45" d="M96.7,153.4c1.3,1.1,3.5,0.6,4.5,2.3C101.3,151.8,99.1,152.5,96.7,153.4z"/>
		<path class="st46" d="M127.8,134.1c-1.1,0.4-2.6,0.4-2.3,2c0.2,0.8,1.2,2.1,1.7,2c1.3-0.2,2.8-0.9,2.8-2.5
			C130,134.7,128.9,134.1,127.8,134.1z"/>
		<path class="st43" d="M212.6,201c1-1.6,2.1-3.1,3.3-4.6C212.4,196.2,211.5,197.9,212.6,201z"/>
		<path class="st43" d="M215.9,196.4c-1.2,1.4-2.4,2.9-3.3,4.6l0,0C215.1,200.5,217,199.6,215.9,196.4z"/>
		<path class="st47" d="M217.2,204.1c-0.5,0.3-0.4,0.9-0.2,1.4c0.4-0.2,0.9-0.5,1.3-0.7l0,0C218.1,204.2,217.8,203.7,217.2,204.1z"
			/>
		<path class="st47" d="M218.3,201.4c-1.2-0.9-2.4-0.3-3.1,0.7c-1.3,2,0.4,2.7,1.8,3.3c-0.2-0.5-0.3-1.1,0.2-1.4
			c0.6-0.3,0.9,0.1,1.1,0.7l0,0l0,0C219.8,203.6,219.7,202.5,218.3,201.4z"/>
		<path class="st48" d="M185.7,221.9c-0.2,1.3,1.2,2.2,2.8,2.1l0,0c0.3-1.3,0.5-2.7,1.2-3.9C187.8,219.5,186.1,220,185.7,221.9z"/>
		<path class="st48" d="M189.7,220c-0.7,1.2-0.9,2.6-1.2,3.9C189.8,222.9,191.1,221.9,189.7,220z"/>
		<path class="st49" d="M219.8,273.1c-1.8-5.4-5.2-7.6-10.7-5.6c0,0.2,0,0.4,0,0.6c-1.9,3.2-5.3,3.9-8.4,5.2
			c-13.3,5.2-27.3,7.2-41.3,8c-18.9,1-37.7-0.5-56-5.8c-5.8-1.7-11.2-4.2-16.3-7.2c-3.3-1.9-5.1-1.8-6.9,1.9c-4,8.1-4,9,4,13.4
			c13.1,7.2,27.5,10.3,42.1,12.2c22.8,2.9,45.5,1.6,67.8-4.4c7.7-2.1,14.9-5.5,21.9-9.2c3-1.6,5.2-3.7,4.9-7.4
			c0-0.2,0.1-0.4,0.1-0.6C220.4,273.8,219.9,273.5,219.8,273.1z M111.4,290.2c-3.2,0.7-1.1-4-3-5.4c-2.2,0.6-2.7,5.3-5.1,3.7
			c-3.2-2.1-0.9-6-1.8-9.3c4.2,0.6,1.6,3.9,3.3,5.1c2.2-0.4,2.1-4.3,5-3.4c2.7,0.8,0.8,3.5,2,5.3c2.3-0.9,2-4,5.1-3.9
			C116.2,285.8,114.5,289.5,111.4,290.2z M119.6,292.9c-0.9-1.4-1.3-1.8-1.3-2.1c0.3-2.6,0.4-5.4,2.3-7.5c0.1-0.1,1.3,0.4,1.3,0.7
			C121.9,286.8,121.4,289.5,119.6,292.9z M130.5,288.9c-0.1,1.5,0.5,3.7-2.3,4.6c-2.1-2.7,2.4-7.6-2.6-9.6c3,0.3,5.9,0.7,10.4,1.2
			C133.4,287,130.7,286,130.5,288.9z M146.5,295.4c-4-6.3-5.1-6.4-8-1.4c-1.6-3.1-1.6-3.1-0.3-9.1c2.5,5.4,5.4,5.8,8.4,0
			C147.6,288.9,147.2,291.8,146.5,295.4z M162.9,291.7c0.3,0.9,0.6,2.1-0.7,2.4c-1.8,0.3-1.6-1.2-1.8-2.3c-0.3-2.5,0.1-5.4-3.8-5.8
			c2.9-0.4,5.8-0.7,8.8-1.1C162.3,286.5,162,288.8,162.9,291.7z M179.8,291.3c0,1.4-1.6,1.7-2.3,0.2c-0.7-1.5-1.3-2.8-3.3-2.5
			c-3.2,0.1-0.9,3.3-2.8,4.7c-2.8-2.4-3.5-6.6-2.1-8.5c1.9-2.4,1.5,2.8,3.6,2.8c0.7-0.3,1.4-0.9,2.1-1c2.3-0.1-0.2-5.2,2.9-3.2
			C180,285.1,179.8,288.7,179.8,291.3z M189.2,288.3c0.1,0.2-0.4,1.1-0.8,1.3c-0.3,0.2-1.4-0.1-1.4-0.3c-0.9-3.4-4.3-4.2-6.5-6.9
			c4.3,2.3,7.1,0.7,9.4-3.5C190.6,282.8,187.1,285.3,189.2,288.3z"/>
		<path class="st49" d="M220.9,274c0,0.2-0.1,0.4-0.1,0.6c0.2,3.7-1.9,5.8-4.9,7.4c-7,3.8-14.2,7.2-21.9,9.2
			c-22.3,6-45,7.3-67.8,4.4c-14.6-1.9-29-5-42.1-12.2c-8-4.4-8-5.3-4-13.4c1.8-3.7,3.6-3.8,6.9-1.9c5.1,3,10.5,5.5,16.3,7.2
			c18.3,5.4,37.1,6.9,56,5.8c14.1-0.8,28.1-2.7,41.3-8c3.1-1.2,6.5-2,8.4-5.2c0-0.2,0-0.4,0-0.6c-0.1,0-0.2,0.1-0.3,0.1
			c-1,0.6-2,1.3-3.1,1.7c-42.1,15.5-83.5,14.7-124.6-5.1c0,0.1-0.5,0.9-0.9,1.8c-6.8,14.4-6.8,14.5,8,21.3
			c22.6,10.2,46.6,12.1,71,11c21-1,41.3-4.9,59.7-15.9c3.7-2.2,5.3-4.3,2.8-8.3l0,0C221.5,274.1,221.2,274,220.9,274z"/>
		<path class="st49" d="M219.8,273.1c0.2,0.5,0.6,0.8,1.1,0.9c0.1-0.3,0.2-0.5,0.3-0.8c-0.3-0.5-0.7-1-0.9-1.6
			c-3.8-7.9-3.8-8-11.2-4.2c0,0,0,0,0,0C214.5,265.5,217.9,267.6,219.8,273.1z"/>
		<path class="st49" d="M221.2,273.2c-0.1,0.3-0.2,0.5-0.3,0.8c0.3,0.1,0.6,0.1,0.9,0.1l0,0l0,0
			C221.6,273.8,221.4,273.5,221.2,273.2z"/>
		<path class="st49" d="M209,267.4c-0.1,0-0.2,0.1-0.3,0.1C208.8,267.5,208.9,267.5,209,267.4C209,267.4,209,267.4,209,267.4z"/>
		<path class="st50" d="M86.1,258.6c-31.2-17.4-51.4-42.3-56.5-79.4c-2.5,6.5-4.6,11.6-6.4,16.9c-1,2.9-1.9,2.8-4,1.1
			c-2.8-2.3-5.8-4.3-9.7-7.2c5.4,17.4,13.7,31.6,24.7,44.3c3.4,3.9,6.3,8.5,11.2,10.9c0,0,0,0-0.1-0.1l0,0c0,0,0,0,0,0
			c0,0,0.1-0.1,0.1-0.1c0.7-4,4-5.8,6.8-7.9c0.1-0.1,1.1,1,1.1,1c-2.1,2.9-3.9,6.1-7.8,6.9c0,0-0.1,0.1-0.1,0.1c0,0,0,0,0,0
			c7.1,9.4,17.1,15.4,26.6,22c1.6,1.1,2.7,0.7,3.1-1C76.6,260.8,80,258.1,86.1,258.6z M24.1,215.9c-0.2-3.3,4.2-5.2,6.6-5.5
			c3-0.4,4.3,3.6,4.7,6.3c0.4,3.2-2,4.8-5.1,5.4C26.6,221.5,24.2,218.6,24.1,215.9z M38.8,234.1c-3.7-0.5-6-3.3-6-7
			c0-2.9,2.1-4.8,5.1-4.7c4,0.2,5.4,3.4,6.5,6.4C43.7,232.2,42,234.6,38.8,234.1z M56.1,249.3c-0.6,1-1.5,3-3.1,1.5
			c-1.4-1.4,0.5-2.5,1.4-3.3c2.4-2,3.3-4,1.4-7.2c2.4,2.1,4.8,4.1,7.2,6.2C59.8,245.7,57.8,246.7,56.1,249.3z"/>
		<path class="st50" d="M45.5,245.2c0,0,0.1-0.1,0.1-0.1c0,0-0.1,0-0.1,0C45.6,245.2,45.6,245.2,45.5,245.2z"/>
		<path class="st50" d="M45.5,245.1C45.5,245.2,45.5,245.2,45.5,245.1C45.5,245.2,45.5,245.2,45.5,245.1
			C45.5,245.2,45.5,245.1,45.5,245.1z"/>
		<path class="st50" d="M45.6,245c0,0-0.1,0.1-0.1,0.1C45.5,245.1,45.5,245.1,45.6,245C45.6,245.1,45.6,245,45.6,245z"/>
		<path class="st51" d="M66.5,6c-1.6-0.3-2.4,2.7-3.1,4.5c1.8,1.3,3.9,0.9,5.8,1.2C68.6,9.6,68.8,6.4,66.5,6z"/>
		<path class="st52" d="M270.4,189.2c-0.5-1.3-1-2.6-1.5-4.3c-1.2,6.9-3,13.3-5.3,19.5c-2.5,6.5-5.6,12.7-9.5,18.4
			c-0.1,0.1-0.2,0.3-0.3,0.4c0.5,0.4,1,0.9,1.5,1.3c1.8-0.3,2.7,2.1,4.6,1.4l0,0c1.9-2.3,1.4-4.4-1.2-6.7c4.9-0.6,6.4,3.5,9.5,4.5
			c1.1,0.1,1.7-1.6,2.7-1.6c0.1-0.2,0.3-0.4,0.4-0.6c6.1-8.4,10.6-17.6,14-27.3c-4.5,2.9-7.1,4.4-8.9,4.3c-0.2,0.1-0.4,0.3-0.6,0.4
			c-0.1-0.2-0.2-0.4-0.2-0.6C273.8,197.7,272.6,194.8,270.4,189.2z M272.9,217c-1.3,2.4-3.2-0.2-4.2-1.1c-2.4-2.1-4.1-1-6.1,0.6
			c0.9-3.3,2.5-5.9,5.2-8.1c-0.5,2.4-0.9,4.2,1.8,5.4C271,214.3,274,215,272.9,217z"/>
		<path class="st52" d="M254,222.9c3.9-5.8,7.1-11.9,9.5-18.4c2.3-6.2,4.2-12.6,5.3-19.5c0.5,1.7,1,3,1.5,4.3
			c2.2,5.6,3.4,8.5,5.2,9.2c-2.4-6.2-4.7-12.1-7-18c-2.2,15.5-8,29.1-15.9,42c0.3,0.3,0.7,0.6,1,0.8
			C253.8,223.2,253.9,223,254,222.9z"/>
		<path class="st52" d="M285.3,194.3c-3.4,9.7-7.9,18.9-14,27.3c-0.1,0.2-0.3,0.4-0.4,0.6c0.3,0,0.7,0.1,1.2,0.6c0,0,0,0,0,0
			c7.3-9.5,12.2-20.2,16-32.7c-4.4,3.3-7.9,5.8-11.7,8.6C278.2,198.7,280.7,197.1,285.3,194.3z"/>
		<path class="st53" d="M228.4,252.1c0.1-3,1.3-4.3,4.4-2.8c1,0.5,1.9,3.1,3.5,0.6c-0.9-1.9-2.7-3.7-0.2-5.7c1-0.8,1.9-0.6,2.5,0.3
			c1.5,2.2,4,3.8,4.6,6.6c0.1,0.7-0.9,1.1-1.8,0.6c-1.9-1.1-1.8-1.1-2,1.5c-0.4,4-2.7,1.2-4.3,0c-1.5,0.2-1.4,0.9-0.6,1.8
			c1,1,1.8,2,0.5,3.3l0,0l0,0c0.2,0.1,0.3,0.3,0.5,0.4c0.1-0.1,0.2-0.1,0.3-0.2c13.1-9.8,24.5-21.2,33.9-34.6
			c-0.5,0.3-1,0.5-1.6,0.4c-0.4,1.5-1.2,2.3-2.7,0.6c-2.1-2.3-2.8,0.4-4.1,1c-2,2.5,4.5,3.5,1.2,5.4c-1.9,1.1-3.7-2.1-5.5-3.3
			c-1-0.6-2.4-1.3-2-2.7c-0.6-0.5-1.1-1-1.5-1.6c-7.5,10.6-16.6,19.7-27.3,27.1C226.6,251.6,227.4,252.1,228.4,252.1z M246.9,234.5
			c1.4-2.4,3.1-4.7,6.4-4.1c0.7,0.1,0.2,1.3-0.4,1.9c0.3,0.3,0.6,0.6,1,0.9c1.9-1.7,3.5-0.9,4.1,1c0.9,2.9-1.3,4.7-3.3,6.3
			c-2,1.7-4.2,2.1-6.4,0.2C246.2,239,245.5,236.9,246.9,234.5z M242.3,239.7c2.1,2,4,4.2,5.8,6.5c0.4,0.5-0.2,1.5-0.4,1.5
			c-1.9,0-7.4-6-7.1-7C240.8,239.8,241.5,239,242.3,239.7z"/>
		<path class="st53" d="M253.3,223.8c-0.3-0.4-0.5-0.9-0.6-1.4c-7.5,10.8-16.8,19.7-27.2,27.6c0.2,0.3,0.3,0.6,0.5,0.9
			C236.7,243.5,245.7,234.4,253.3,223.8z"/>
		<path class="st53" d="M235.7,258.6c-0.1,0.1-0.2,0.1-0.3,0.2c0.3,0.2,0.6,0.5,0.8,0.7c14.2-10.1,26.2-22.3,35.8-36.8l0,0
			c-1,0-1.7,0.8-2.5,1.3C260.2,237.4,248.8,248.8,235.7,258.6z"/>
		<path class="st53" d="M269.6,224c0.4-0.6,0.9-1.2,1.3-1.9c-1,0.1-1.7,1.7-2.7,1.6c0,0.2-0.1,0.5-0.1,0.7
			C268.6,224.5,269.1,224.3,269.6,224z"/>
		<path class="st53" d="M254.8,225.5c0.1-0.3,0.2-0.5,0.4-0.9c-0.5-0.4-1-0.9-1.5-1.3c-0.1,0.2-0.3,0.4-0.4,0.6
			C253.7,224.5,254.2,225,254.8,225.5z"/>
		<path class="st53" d="M269.6,224c0.8-0.5,1.5-1.3,2.5-1.3c-0.5-0.4-0.8-0.6-1.2-0.6C270.4,222.8,270,223.4,269.6,224z"/>
		<path class="st53" d="M253.7,223.3c-0.3-0.3-0.7-0.6-1-0.8c0.1,0.5,0.3,1,0.6,1.4C253.4,223.7,253.6,223.5,253.7,223.3z"/>
		<path class="st54" d="M225,266.5c3-2.8,6.7-4.7,9.9-7.3c-0.1-0.2-0.2-0.3-0.3-0.5c0-0.2,0.1-0.3,0.1-0.5c-2.9-1.1-3.6-4.6-6.1-6
			c-0.2,0.1-0.4,0.3-0.7,0.4c-1.2-0.1-2.2-0.4-2.4-1.4c-3.5,2-6.4,5.1-10.3,6.3C219.9,258.7,223,261.9,225,266.5z"/>
		<path class="st54" d="M234.9,259.3c-3.2,2.6-6.9,4.5-9.9,7.3c0.2,0.4,0.3,0.8,0.5,1.3c3.6-2.8,7.2-5.5,10.8-8.3l0,0l0,0
			C235.6,259.9,235.2,259.7,234.9,259.3z"/>
		<path class="st54" d="M215.1,257.5c3.9-1.3,6.8-4.3,10.3-6.3c-0.1-0.3-0.1-0.7,0-1.2c-4.5,2-8.1,5.8-13.1,7.1l0,0
			C213.4,257.2,214.3,257.3,215.1,257.5z"/>
		<path class="st54" d="M225,266.5c-2-4.6-5.1-7.8-9.8-9c-0.8,0.3-1.7,0.5-2.6,0.5c-0.1,0-0.2,0-0.2-0.1c0,0.2-0.1,0.5-0.1,0.7
			c6.5-0.7,9.3,3.3,11.2,8.6c0,0.1,0.3,0.2,0.6,0.3c0.2-0.3,0.5-0.5,0.7-0.8C224.7,266.7,224.9,266.6,225,266.5z"/>
		<path class="st54" d="M212.3,258c0.1,0,0.2,0,0.2,0.1c0.9-0.1,1.8-0.3,2.6-0.5c-0.9-0.2-1.8-0.4-2.7-0.4l0,0h0
			C212.4,257.4,212.3,257.7,212.3,258z"/>
		<path class="st54" d="M224.6,266.8c-0.2,0.3-0.5,0.5-0.7,0.8c0.5,0.1,1.1,0.1,1.5,0.2c-0.2-0.4-0.3-0.8-0.5-1.3
			C224.9,266.6,224.7,266.7,224.6,266.8z"/>
		<path class="st54" d="M227.8,252.6c0.2-0.1,0.5-0.3,0.7-0.4c0,0-0.1,0-0.1-0.1l0,0c-1.1-0.1-1.8-0.5-2.4-1.2c0,0,0,0,0,0
			c-0.2,0.1-0.4,0.2-0.6,0.3C225.7,252.2,226.6,252.6,227.8,252.6z"/>
		<path class="st54" d="M235,258.4c-0.1,0-0.3-0.1-0.4-0.2c0,0.2,0,0.3-0.1,0.5c0.1,0.2,0.2,0.4,0.3,0.5c0.2-0.2,0.4-0.3,0.6-0.5
			C235.3,258.7,235.1,258.5,235,258.4L235,258.4z"/>
		<path class="st54" d="M225.4,251.2c0.2-0.1,0.4-0.2,0.6-0.3c0,0,0,0,0,0c-0.2-0.3-0.4-0.6-0.5-0.9
			C225.4,250.5,225.4,250.9,225.4,251.2z"/>
		<path class="st54" d="M234.9,259.3c0.3,0.4,0.7,0.7,1.4,0.3l0,0c-0.3-0.2-0.6-0.5-0.8-0.7C235.3,259,235.1,259.1,234.9,259.3z"/>
		<path class="st3" d="M123.4,223.7c2.1-1.5,3.9-3.4,5-5.8c-0.6-0.1-1.1-0.1-1.7-0.2c-0.1,0.1-0.3,0.3-0.4,0.4
			c-0.2,0.1-0.5,0.1-0.5,0c-1.4-3.5-4-6.2-6.1-9.3c-1.2-1.7-7.8-6.1,1.3-6.3c0.3,0,0.7-0.7,0.9-1.2c1.7-4.6,3.2-9.2,2.5-14.1
			c-0.5-3.5-1.7-5.7-5.9-6.3c-6.9-1-12.6,3.2-19.1,3.8c-0.9,0.1-3.6,2.6-1.2,5.3c0.8,0.9,3.1,1.5,2,3.7c-3.6,0.3-7-0.1-9.4-3.3
			c-1.1-1.4-2.6-1.8-4.2-1.8c-1.1,0-2.5,0.1-2.7,1.6c-0.1,1.5,1.2,1.2,2.1,1.3c5,0.7,7.6,4.8,11.3,7.8c-3.4,1.1-6.1,0.2-8.7-0.8
			c-1.7-0.7-4-1.4-4.3,0.9c-0.4,2.3,2.3,1.4,3.6,1.8c8.8,2.3,16,6.7,22.3,15.4c-6.4-1.6-10.6-1.3-11.9,4.8c-0.8,3.8-2.9,2.3-4.6,0.6
			c-1.7-1.7-3.2-3.8-6-1.3c1.5,0.9,3.3,1.3,4,2.4c2.8,4.7,5.4,5.3,9.6,1.2c2-2,7.5-2,8.3,0.3c1.3,3.8,3.7,4.7,6.6,5.8
			c1.4,0.5,2.6,1.2,1.9,3c-0.5,1.3-1.4,1.8-2.8,1.4c-2.1-0.5-4.1-0.6-5.4,2c2.6,1.3,5,0.9,7.2,0.9c5,0,8.2-5.5,5.6-9.8
			C121.1,225.9,121.8,225,123.4,223.7z"/>
		<path class="st55" d="M78.4,199.3c-0.9,4.8-3.1,6.8-7.8,7c3.9,1.8,4.4,4.3,1.8,8.2c4.5-2.4,7.8-3.2,11.5-0.5
			c-1.9-4.2,1.1-6,3.6-8.6C82.3,206.9,80.8,203.2,78.4,199.3z"/>
		<path class="st56" d="M131.8,229c-0.3,4.7-2.8,6.3-6.7,6.5c0.5,2.4,3.9,2.6,2.8,4.7c-1.7,3.3-0.6,3.4,2,2.2c1.8-0.9,3.3-1,5,0.2
			c0.6,0.5,1.4,0.7,2.7,1.4c-1.7-4.2,0.5-6.5,3.6-9.2C135.8,236.5,134.5,232.4,131.8,229z"/>
		<path class="st57" d="M128.4,217.9c3.1-4.5,3.6-9.5,3.1-14.7c-0.2-2.1-0.6-4.2,2.2-5.3c1.1-0.5,2.6-2,1.4-3.3
			c-1.1-1.2-3-0.6-4.4,0.3c-1.9,1.1-1.4,3.1-1.4,4.8c-0.3,6.1,0,12.3-2.5,18C127.3,217.3,127.9,217.3,128.4,217.9z"/>
		<path class="st57" d="M126.7,217.8c0.6,0.1,1.1,0.1,1.7,0.2C127.9,217.3,127.3,217.3,126.7,217.8z"/>
		<path class="st3" d="M210.2,162.9c-0.1-0.2-0.1-0.4-0.2-0.6c-2.2-5.6,2.3-7.4,5.3-10.1c-0.1,0-0.1,0-0.2,0c0,0-0.1,0.1-0.1,0.1
			c-0.1-0.1-0.2-0.1-0.2-0.2c-0.1,0-0.2,0-0.2,0c0-0.1-0.1-0.1-0.1-0.2c-4.5-3.4-7-8.4-9.8-13.1c-0.9-1.5-0.1-2.9,1.5-4
			c4.2-2.9,6.9-11,5.3-15.5c-1.3-3.4-4.1-4-7.3-3.7c-6.4,0.5-12.2,3.2-18.3,5.4c1.6,1.6,4.1,2.9,4,5.6c-0.1,1.6-1.9,1.7-3.3,1.7
			c-0.2,0-0.4-0.1-0.6-0.1c-0.2,0.6-0.4,1.1-0.6,1.7c0.1,0.2,0.3,0.3,0.4,0.5c0.6,1,1.2,2,0.4,3.2c-0.2,0.1-0.3,0.2-0.5,0.3
			c0,1.1,0.9,2.1,0.9,3.2c3.5,2.1,7,4.1,9.7,7.2c1.4,1.6,2.8,3.3,2.3,5.7c-0.3,0-0.5,0.1-0.8,0.1c-1,1.4-2.6,1-4,1
			c-1.2,0.4-2.4,1-3.4,1.8c0,1.8,1.6,1.6,2.9,1.8c1.7,0.2,3.5-0.6,5.4,0.9c-1,0.1-1.9,0.2-2.8,0.2c4.5,1.2,7.5,4.4,10,8.4
			c0.6,0.4,1,0.9,1.1,1.8c0.1,0.1,0.1,0.2,0.2,0.3C208,165.2,209.1,164,210.2,162.9z"/>
		<path class="st3" d="M190.1,152.6c0,0.1,0,0.1,0,0.2c1-0.8,2.2-1.4,3.4-1.8c-0.2,0-0.5,0-0.7,0
			C191.6,151.2,190.2,151.1,190.1,152.6z"/>
		<path class="st3" d="M206.7,165.9c0,0.2,0,0.3,0,0.5c0.1-0.1,0.1-0.1,0.2-0.2C206.8,166.2,206.7,166.1,206.7,165.9z"/>
		<path class="st3" d="M195.6,155.7c-1.4,0.1-2.7,0.2-4,0.3c2.8,1.6,8-0.6,8.3,5.3c0,0.7,2.6,1.4,4,2c0.6,0.2,1.2,0.5,1.6,0.8
			C203.2,160.1,200.2,156.9,195.6,155.7z"/>
		<path class="st3" d="M198.3,149.8c0.5-2.4-0.9-4.1-2.3-5.7c-2.7-3.1-6.2-5.1-9.7-7.2c0,0.3-0.1,0.6-0.3,1
			c4.3,3.4,9.3,6.1,11.8,11.3c-0.1,0.3-0.2,0.5-0.4,0.7C197.8,149.9,198.1,149.9,198.3,149.8z"/>
		<path class="st3" d="M215,152.3c0,0,0.1-0.1,0.1-0.1c-0.1,0-0.2,0-0.3,0C214.8,152.2,214.9,152.3,215,152.3z"/>
		<path class="st3" d="M186.1,133.5c0.8-1.2,0.2-2.2-0.4-3.2c-0.1-0.2-0.3-0.3-0.4-0.5c-0.1,0.3-0.2,0.6-0.3,1
			c0.4,0.6,0.7,1.2,1.1,1.9c-0.3,0.4-0.4,0.7-0.4,1.1C185.7,133.7,185.9,133.6,186.1,133.5z"/>
		<path class="st3" d="M186.4,128.3c1.4,0,3.2-0.1,3.3-1.7c0.2-2.6-2.3-3.9-4-5.6c6.1-2.2,11.9-4.8,18.3-5.4c3.2-0.3,6,0.3,7.3,3.7
			c1.6,4.4-1.1,12.5-5.3,15.5c-1.6,1.1-2.3,2.5-1.5,4c2.8,4.7,5.3,9.7,9.8,13.1c-1.2-4.4-4.6-7.4-7.2-11c-1.1-1.4-2.3-5.1-1-4.8
			c5.7,1.4,4.7-3.7,5.5-5.6c2-4.8,3.2-10.6-0.9-14.8c-2.9-3-7.3-1.2-11.3-0.8c-6.3,0.7-11.4,6.2-18.5,3.6c1.2,4,5,3.5,6.9,5.9
			c3,4-0.6,2.3-1.8,2.8c-0.1,0.3-0.2,0.6-0.3,0.8C186,128.2,186.2,128.2,186.4,128.3z"/>
		<path class="st3" d="M209.9,162.3c0.1,0.2,0.2,0.4,0.2,0.6c0.4-0.4,0.8-0.8,1.2-1.3c-1-1.4-2.5-2.8,0-4.3c2-1.2,3.9-2.7,4.8-5
			c-0.3,0-0.6-0.1-0.9-0.1C212.2,154.8,207.7,156.7,209.9,162.3z"/>
		<path class="st58" d="M215.1,161c3.4,1.6,5.8,3.2,3.2,7c3.8-2.4,7.1-1.4,10.8,0.2c-3.7-5,2.2-5.7,3.4-9c-4.8,1.5-7-1.3-9.6-6.1
			C223.3,159.7,218.7,159.1,215.1,161z"/>
		<path class="st59" d="M166.8,154c-0.4,4.8-3.3,6-7.9,6.4c3.8,1.8,4.6,4.2,1.9,8.4c4.4-2.4,7.7-2.9,11.7-0.5c-3-4.9,1.9-5.8,3.5-9
			C170.9,160.6,168.7,158,166.8,154z"/>
		<path class="st60" d="M197.3,150c-0.7,0.1-1.5,0.3-2.2,0.5C195.9,150.6,196.7,150.6,197.3,150z"/>
		<path class="st60" d="M189.2,153.6c-0.9,0.9-1.7,2-2.4,3.5c-1.7,3.6-3.9-1-5.6-1.7c2,4,4.8,4.6,8.2,0.8c0.6-0.7,1.6-0.9,2.6-1
			C190.7,155.2,189.6,154.9,189.2,153.6z"/>
		<path class="st60" d="M195.3,155.2c-0.9,0-1.9,0-2.9,0c0.3,0,0.5,0,0.8,0.1C193.9,155.2,194.6,155.3,195.3,155.2z"/>
		<path class="st60" d="M193.1,155.2c-0.3,0-0.5-0.1-0.8-0.1c-0.1,0-0.1,0-0.2,0c-0.1,0-0.1,0-0.2,0c-1,0.1-1.9,0.3-2.6,1
			c-3.4,3.9-6.1,3.2-8.2-0.8c1.7,0.6,3.9,5.3,5.6,1.7c0.7-1.5,1.5-2.6,2.4-3.5c0-0.1-0.1-0.3-0.1-0.4c-0.2-2.1,1.3-2.4,2.9-2.9
			c1-0.3,2.1,0.1,3.1,0.3c0.7-0.2,1.4-0.3,2.2-0.5c0.2-0.2,0.4-0.4,0.6-0.7c-6.6-1.2-11.1,1-12,8.5c-3.3-2.5-5-6.4-9.4-4
			c4.1,1.2,5.6,4.8,7.6,8.2c2.7-2.1,5.2-4,7.6-5.9C192.1,155.5,192.6,155.3,193.1,155.2z"/>
		<path class="st60" d="M192,155.2c0.1,0,0.1,0,0.2,0c0.1,0,0.1,0,0.2,0c1,0,2,0,2.9,0c-0.6,0.2-1.4,0-2.1,0.1
			c0.9,0.1,1.7,0.2,2.5,0.5c0.9-0.1,1.8-0.1,2.8-0.2c-1.9-1.5-3.7-0.7-5.4-0.9c-1.3-0.2-2.9,0-2.9-1.8c-0.3,0.2-0.6,0.5-0.9,0.8
			C189.6,154.9,190.7,155.2,192,155.2z"/>
		<path class="st60" d="M195.2,150.5c-0.6,0.1-1.1,0.3-1.7,0.5c1.5,0,3.1,0.4,4-1c-0.1,0-0.1,0-0.2,0
			C196.7,150.6,195.9,150.6,195.2,150.5z"/>
		<path class="st60" d="M192,150.2c-1.6,0.6-3.1,0.9-2.9,2.9c0,0.2,0.1,0.3,0.1,0.4c0.3-0.3,0.6-0.5,0.9-0.8c0-0.1,0-0.1,0-0.2
			c0.1-1.6,1.6-1.4,2.7-1.6c0.2,0,0.5,0,0.7,0c0.5-0.2,1.1-0.4,1.7-0.5C194.1,150.3,193,149.9,192,150.2z"/>
		<path class="st60" d="M192,155.2c0.1,0,0.1,0,0.2,0c0.1,0,0.1,0,0.2,0c-0.1,0-0.1,0-0.2,0C192.1,155.2,192,155.2,192,155.2z"/>
		<path class="st60" d="M197.5,150c0.1-0.2,0.3-0.4,0.4-0.7c-0.2,0.3-0.4,0.6-0.6,0.7C197.4,150,197.5,150,197.5,150z"/>
		<path class="st60" d="M193.1,155.2c-0.5,0-1.1,0.2-1.5,0.8c1.3-0.1,2.6-0.2,4-0.3C194.8,155.5,194,155.3,193.1,155.2z"/>
		<path class="st61" d="M215.7,151.9C215.7,151.8,215.7,151.8,215.7,151.9c4.2-6.6,3.2-14.2,4.1-21.5c-1.3,7.2,0.3,15-4.4,21.4
			C215.5,151.8,215.6,151.8,215.7,151.9z"/>
		<path class="st61" d="M214.6,152C214.6,152,214.6,152,214.6,152c-0.1,0-0.1,0-0.1,0.1C214.5,152.1,214.6,152.1,214.6,152z"/>
		<path class="st61" d="M215.4,151.8c4.7-6.4,3-14.2,4.4-21.4c-0.8,7.2,0.2,14.8-4,21.4c0,0-0.1,0-0.1,0.1c0.2,0.1,0.4,0.2,0.6,0.4
			c4.1-4.7,4.5-10.3,4.1-16.1c-0.2-2-0.7-3.8,1.8-4.9c1.2-0.5,2.4-1.7,1.8-3.3c-0.1-0.4-1.3-0.8-2-0.7c-1.5,0.2-3.3,0.4-3.8,2.2
			c-0.3,1.1,0.1,2.4-0.1,3.5c-1,6.3,0.1,13-3.6,18.8c0,0,0,0,0.1,0C214.9,151.8,215.1,151.7,215.4,151.8z"/>
		<path class="st61" d="M215.4,151.8c-0.1,0.1-0.2,0.3-0.3,0.4c0.1,0,0.1,0,0.2,0c0.1-0.1,0.3-0.2,0.4-0.3
			C215.6,151.8,215.5,151.8,215.4,151.8z"/>
		<path class="st61" d="M214.5,152.1c0.1,0,0.2,0,0.2,0c0,0-0.1-0.1-0.1-0.1C214.6,152.1,214.5,152.1,214.5,152.1z"/>
		<path class="st61" d="M215.3,152.2c0.3,0,0.6,0.1,0.9,0.1c-0.2-0.2-0.4-0.4-0.6-0.4C215.5,152,215.4,152.1,215.3,152.2z"/>
		<path class="st61" d="M214.6,152c0,0,0.1,0.1,0.1,0.1c0.1,0,0.2,0,0.3,0c0.1-0.1,0.2-0.3,0.3-0.4
			C215.1,151.7,214.9,151.8,214.6,152z"/>
		<path class="st62" d="M210.2,165c-0.7,0.9-1.8,1.4-3.3,1.4c0.1,0.1,0.1,0.2,0.2,0.3c-0.6,1-1.3,1.5-2.2,1.9c1.6,0,3.1,0.4,4.7,1.3
			C209.3,168.3,210,166.7,210.2,165z"/>
		<path class="st62" d="M204.9,168.7c0.9-0.4,1.7-1,2.2-1.9c-0.1-0.1-0.1-0.2-0.2-0.3c-0.1,0-0.2,0-0.3,0c-1.4,2.1-3.5,1-5.2,1.1
			c-1.7,0.2-3,0.4-2.2,2.6C201.1,169.2,203,168.7,204.9,168.7z"/>
		<path class="st62" d="M209.6,169.9c0.1,0.1,0.3,0.1,0.4,0.2c1.3-2.7,2.9-5.4,1.4-8.6c-0.1,1.4-0.5,2.6-1.2,3.4
			C210,166.7,209.3,168.3,209.6,169.9z"/>
		<path class="st62" d="M204.9,168.7c-1.4,0.6-3.1,0.9-4.6,1.5c3.1,0,6.2,0,9.3,0c0-0.1,0-0.2,0-0.2
			C208,169.1,206.4,168.7,204.9,168.7z"/>
		<path class="st62" d="M209.6,170.2c0.1,0,0.3,0,0.4,0c-0.1-0.1-0.3-0.2-0.4-0.2C209.6,170,209.6,170.1,209.6,170.2z"/>
		<path class="st62" d="M204.9,168.7c-1.9,0-3.8,0.5-5.7,1.5c0.4,0,0.7,0,1.1,0C201.7,169.5,203.4,169.3,204.9,168.7z"/>
		<path class="st62" d="M210.2,165c0.1-0.7,0.1-1.4-0.1-2.1c-1.1,1.1-2.2,2.3-3.3,3.4c0,0.1,0.1,0.1,0.1,0.2
			C208.5,166.4,209.5,165.9,210.2,165z"/>
		<path class="st62" d="M206.9,166.3c-0.1,0.1-0.1,0.1-0.2,0.2c0.1,0,0.2,0,0.3,0C206.9,166.4,206.9,166.3,206.9,166.3z"/>
		<path class="st62" d="M210.2,165c0.7-0.8,1.1-2,1.2-3.4c-0.4,0.4-0.8,0.8-1.2,1.3C210.4,163.6,210.4,164.3,210.2,165z"/>
		<path class="st63" d="M185.1,128c-2.8-0.8-5.2-2.6-7.6-4.2c2.3,1.9,5,3.3,7.2,5.4C184.7,128.8,184.8,128.3,185.1,128z"/>
		<path class="st63" d="M177.5,123.8c2.4,1.6,4.8,3.4,7.6,4.2c0.2-0.3,0.5-0.5,1-0.7c-4.7-0.4-7.4-7.7-13.4-3.8
			c5.3,0.4,7.9,5.3,12.2,7.3c-0.1-0.5-0.2-1.1-0.2-1.5C182.5,127.1,179.8,125.7,177.5,123.8z"/>
		<path class="st63" d="M184.7,129.2c0.2,0.2,0.4,0.4,0.5,0.6c0.2-0.6,0.4-1.1,0.6-1.7c-0.2-0.1-0.5-0.1-0.7-0.2
			C184.8,128.3,184.7,128.8,184.7,129.2z"/>
		<path class="st63" d="M184.7,129.2c0,0.5,0.1,1,0.2,1.5c0.1-0.3,0.2-0.6,0.3-1C185,129.6,184.9,129.4,184.7,129.2z"/>
		<path class="st63" d="M185.1,128c0.2,0.1,0.5,0.1,0.7,0.2c0.1-0.3,0.2-0.6,0.3-0.8C185.6,127.5,185.3,127.7,185.1,128z"/>
		<path class="st64" d="M185,134c-4.1,1.7-7.7-1.6-12.1-1.8c4.4,0.9,8.4,2.2,12.1,4C184.8,135.5,184.7,134.7,185,134z"/>
		<path class="st64" d="M173,132.2c4.4,0.2,7.9,3.4,12.1,1.8c0.2-0.4,0.5-0.9,0.9-1.3c-3.6,1.1-6.9,0.2-10.1-1.4
			c-1.6-0.8-2.9,0.2-3.1,1.5c-0.3,1.6,1.3,1.7,2.4,1.6c4.1-0.2,7.2,2.7,11,3.5c-0.5-0.6-0.8-1.1-1-1.7
			C181.4,134.4,177.4,133.1,173,132.2z"/>
		<path class="st64" d="M185.1,136.2c0.4,0.2,0.9,0.4,1.3,0.7c0,0,0,0,0.1,0c0-1.1-0.9-2.1-0.9-3.2c-0.2,0.1-0.3,0.2-0.5,0.2
			C184.7,134.7,184.8,135.5,185.1,136.2z"/>
		<path class="st64" d="M185.5,133.8c0-0.4,0.1-0.7,0.4-1.1c-0.4,0.4-0.8,0.9-0.9,1.3C185.2,133.9,185.4,133.8,185.5,133.8z"/>
		<path class="st64" d="M186.4,136.9c-0.4-0.2-0.9-0.5-1.3-0.7c0.2,0.6,0.6,1.1,1,1.7C186.3,137.6,186.4,137.3,186.4,136.9
			C186.4,136.9,186.4,136.9,186.4,136.9z"/>
		<path class="st65" d="M66.1,129.9c0.1,0.2,0.2,0.4,0.3,0.7C66.8,130.1,66.3,130,66.1,129.9z"/>
		<path class="st65" d="M65.9,129.8c0,0.1,0.1,0.1,0.2,0.1C66,129.8,66,129.8,65.9,129.8C65.9,129.7,65.9,129.7,65.9,129.8
			C65.9,129.7,65.9,129.7,65.9,129.8z"/>
		<polygon class="st65" points="65.9,129.7 65.9,129.7 65.9,129.7 		"/>
		<path class="st65" d="M66.4,130.6c-0.1-0.2-0.2-0.5-0.3-0.7c-0.1,0-0.1-0.1-0.2-0.1c-0.4,1.1-2,2.1-0.4,3.5c1.2,1,2.2-0.2,3.1-0.6
			c1-0.5,1-1.4,0.5-2.5c-0.9-1.9-2-1.2-3.1-0.4c0,0.1,0.1,0.1,0.1,0.2C66.3,130,66.8,130.1,66.4,130.6z"/>
		<path class="st65" d="M65.9,129.7C65.9,129.7,65.9,129.7,65.9,129.7C65.9,129.7,65.9,129.7,65.9,129.7
			C65.9,129.7,65.9,129.7,65.9,129.7C65.9,129.7,65.9,129.7,65.9,129.7z"/>
		<path class="st66" d="M71,138.2c0.1-0.2,1.2-1.2,1.3-2.2c0.1-1.1-0.9-2.1-2.4-1.9c-1.1,0.2-2.6,0.7-2.5,2
			C67.5,137,68.4,138.2,71,138.2z"/>
		<path class="st67" d="M183.6,100c-4.2,0-8.5,0-12.7,0l0,0C175.1,100.6,179.3,100.6,183.6,100z"/>
		<path class="st67" d="M179.2,101c-1.3,0-2.5,0-3.8,0C176.6,101.1,177.9,101.1,179.2,101z"/>
		<path class="st67" d="M175.4,101c1.3,0,2.5,0,3.8,0c1.5-0.1,2.9-0.5,4.4-1c-4.2,0.7-8.5,0.6-12.7,0l0,0l0,0
			C172.4,100.5,173.9,100.8,175.4,101z"/>
		<path class="st68" d="M161.3,202.9c-0.1-1.1-0.8-1.8-1.9-1.8c-1.3,0-2.4,0.7-2.5,1.9c-0.1,1.2,0.7,2.2,2.2,2.2
			C160.2,204.8,161.4,204.4,161.3,202.9z"/>
		<path class="st69" d="M111.8,286.1c-1.2-1.8,0.7-4.5-2-5.3c-2.9-0.9-2.8,3-5,3.4c-1.7-1.2,1-4.6-3.3-5.1c0.9,3.3-1.4,7.3,1.8,9.3
			c2.4,1.6,2.9-3.1,5.1-3.7c1.9,1.5-0.2,6.2,3,5.4c3.1-0.7,4.8-4.3,5.5-7.9C113.8,282.1,114.1,285.2,111.8,286.1z"/>
		<path class="st70" d="M138.1,284.9c-1.3,6.1-1.3,6.1,0.3,9.1c3-5,4-4.9,8,1.4c0.7-3.7,1.1-6.5,0-10.5
			C143.5,290.7,140.7,290.3,138.1,284.9z"/>
		<path class="st71" d="M189.9,279c-2.3,4.2-5.1,5.8-9.4,3.5c2.2,2.6,5.6,3.5,6.5,6.9c0.1,0.3,1.1,0.5,1.4,0.3
			c0.4-0.2,0.9-1.1,0.8-1.3C187.1,285.3,190.6,282.8,189.9,279z"/>
		<path class="st72" d="M128.2,293.5c2.7-0.9,2.1-3.1,2.3-4.6c0.2-2.9,2.8-1.8,5.5-3.8c-4.5-0.5-7.4-0.9-10.4-1.2
			C130.7,285.9,126.2,290.7,128.2,293.5z"/>
		<path class="st73" d="M177.9,283.8c-3.1-2-0.6,3.1-2.9,3.2c-0.7,0-1.4,0.6-2.1,1c0.4,0.3,0.8,0.7,1.2,1c1.9-0.3,2.6,1,3.3,2.5
			c0.7,1.5,2.3,1.2,2.3-0.2C179.8,288.7,180,285.1,177.9,283.8z"/>
		<path class="st74" d="M160.4,291.7c0.1,1.1,0,2.6,1.8,2.3c1.4-0.3,1-1.5,0.7-2.4c-0.9-2.9-0.5-5.1,2.5-6.8
			c-2.9,0.4-5.8,0.7-8.8,1.1C160.5,286.4,160.1,289.3,160.4,291.7z"/>
		<path class="st74" d="M172.9,288c-2.1,0.1-1.8-5.2-3.6-2.8c-1.5,1.9-0.7,6.1,2.1,8.5c1.8-1.4-0.4-4.6,2.8-4.7
			C173.6,288.9,173.2,288.5,172.9,288z"/>
		<path class="st74" d="M174.2,289c-0.4-0.3-0.8-0.7-1.2-1C173.2,288.5,173.6,288.9,174.2,289z"/>
		<path class="st75" d="M120.6,283.3c-1.9,2.1-2,4.9-2.3,7.5c0,0.3,0.4,0.6,1.3,2.1c1.8-3.3,2.3-6,2.3-8.9
			C121.9,283.7,120.6,283.2,120.6,283.3z"/>
		<path class="st76" d="M37.9,222.4c-3-0.1-5.1,1.8-5.1,4.7c0,3.7,2.3,6.5,6,7c3.2,0.4,4.9-1.9,5.6-5.4
			C43.3,225.8,41.9,222.6,37.9,222.4z M38.3,231.7c-1.9-0.1-3.3-1.6-3.2-3.6c0.1-2,1.5-3.3,3.5-3.2c2,0.1,3.1,1.6,3.3,3.5
			C41.5,230.5,40.2,231.8,38.3,231.7z"/>
		<path class="st77" d="M35.3,216.7c-0.4-2.7-1.7-6.7-4.7-6.3c-2.4,0.3-6.8,2.1-6.6,5.5c0.1,2.8,2.6,5.7,6.1,6.2
			C33.3,221.5,35.7,219.9,35.3,216.7z M29.8,219.7c-1.7-0.3-3.1-1.5-3.1-2.9c-0.1-2.3,2.4-3,4-3.5c1.9-0.6,2.5,1.6,2.6,3
			C33.3,218.4,31.4,219,29.8,219.7z"/>
		<path class="st78" d="M54.4,247.4c-0.9,0.8-2.8,1.9-1.4,3.3c1.5,1.6,2.5-0.5,3.1-1.5c1.7-2.6,3.7-3.6,7-2.8
			c-2.4-2.1-4.8-4.1-7.2-6.2C57.7,243.4,56.8,245.4,54.4,247.4z"/>
		<path class="st79" d="M50.9,239.7c-1.7,1.6-3,3-4.2,4.2C48,242.7,49.3,241.4,50.9,239.7z"/>
		<polygon class="st79" points="45.5,245.1 45.5,245.1 45.5,245.1 45.5,245.1 		"/>
		<path class="st79" d="M50.9,239.7c-1.6,1.7-3,3-4.2,4.2c-0.4,0.4-0.7,0.7-1,1.1c3.9-0.8,5.7-4,7.8-6.9c0-0.1-1-1.1-1.1-1
			c-2.9,2.1-6.2,3.9-6.8,7.9c0.4-0.3,0.7-0.7,1.1-1C47.9,242.7,49.3,241.4,50.9,239.7z"/>
		<path class="st79" d="M45.7,245.1c0.3-0.4,0.7-0.7,1-1.1C46.3,244.3,46,244.7,45.7,245.1c-0.1,0-0.1,0-0.1,0
			C45.6,245.1,45.6,245.1,45.7,245.1z"/>
		<path class="st79" d="M45.6,245.1c0,0-0.1,0-0.1,0l0,0c0,0,0,0,0,0c0,0,0.1,0.1,0.1,0.1C45.6,245.2,45.6,245.2,45.6,245.1z"/>
		<path class="st80" d="M269.6,213.7c-2.8-1.2-2.4-3-1.8-5.4c-2.7,2.2-4.3,4.8-5.2,8.1c2-1.6,3.7-2.7,6.1-0.6c1,0.9,2.9,3.5,4.2,1.1
			C274,215,271,214.3,269.6,213.7z"/>
		<path class="st78" d="M259.4,228.3c2.2,1,0.4-1.5,1.3-1.8c0-0.1,0.1-0.2,0.1-0.2c-0.2,0.2-0.4,0.3-0.7,0.5
			c-1.4,0.5-2.7,0.2-3.9-0.4C257.1,227.2,258.3,227.8,259.4,228.3z"/>
		<path class="st78" d="M260.1,226.6c0.2-0.1,0.5-0.3,0.7-0.5c0,0,0-0.1,0-0.1c-0.3,0-0.7,0-1,0c0,0,0,0,0,0l0,0
			c-1.9,0.6-2.8-1.8-4.6-1.4c0.2,0.7,0.6,1.2,1,1.7C257.5,226.8,258.7,227.1,260.1,226.6z"/>
		<path class="st78" d="M260.8,226.2c0,0.1-0.1,0.2-0.1,0.2c-0.8,0.4,0.9,2.9-1.3,1.8c-1.1-0.5-2.3-1.1-3.2-2
			c-0.3-0.2-0.7-0.3-1-0.5c-0.1-0.1-0.3-0.2-0.4-0.3c-0.4,1.4,1.1,2,2,2.7c1.9,1.2,3.6,4.4,5.5,3.3c3.2-1.9-3.3-2.9-1.2-5.4
			c-0.1,0-0.2,0-0.3,0C260.8,226.1,260.8,226.1,260.8,226.2z"/>
		<path class="st78" d="M255.2,225.7c0.3,0.2,0.7,0.4,1,0.5c-0.4-0.5-0.8-1-1-1.7c-0.2,0.3-0.3,0.6-0.4,0.9
			C255,225.5,255.1,225.7,255.2,225.7z"/>
		<path class="st78" d="M260.8,226.1c0,0,0,0.1,0,0.1C260.8,226.1,260.8,226.1,260.8,226.1C260.8,226.1,260.8,226.1,260.8,226.1z"/>
		<path class="st81" d="M265.2,223.5c-1-0.6-2-1.3-3-2.2c0,1-0.1,1.9-0.2,2.7C262.8,223.3,264,223.4,265.2,223.5z"/>
		<path class="st81" d="M260.9,225.8c0.3-0.8,0.6-1.4,1.1-1.8c0.2-0.8,0.2-1.7,0.2-2.7c1,0.8,2,1.6,3,2.2c1,0.1,2,0.3,2.9,0.2
			c-3.1-1-4.7-5.2-9.5-4.5c2.6,2.3,3.1,4.5,1.2,6.7C260.2,225.7,260.5,225.6,260.9,225.8z"/>
		<path class="st81" d="M265.2,223.5c-1.2-0.2-2.4-0.2-3.3,0.5c-0.2,0.7-0.5,1.4-1,1.9c0.1,0,0.1,0.1,0.2,0.1c1.3-0.6,2-3.2,4.1-1
			c1.6,1.6,2.4,0.9,2.7-0.6c0,0-0.1,0-0.1,0C266.9,224.3,266.1,224,265.2,223.5z"/>
		<path class="st81" d="M265.2,223.5c0.8,0.5,1.7,0.8,2.7,0.9c0,0,0.1,0,0.1,0c0.1-0.2,0.1-0.4,0.1-0.7
			C267.2,223.9,266.2,223.7,265.2,223.5z"/>
		<path class="st81" d="M262,224.1c-0.4,0.4-0.8,0.9-1.1,1.8c0,0,0.1,0.1,0.1,0.1C261.5,225.4,261.8,224.8,262,224.1z"/>
		<path class="st81" d="M260.8,226.1c0-0.1,0-0.2,0.1-0.2c-0.3-0.2-0.7-0.1-1,0.2c0,0,0,0,0,0C260.1,226,260.5,226.1,260.8,226.1z"
			/>
		<path class="st81" d="M260.9,226.1c0.1,0,0.2,0,0.3,0c-0.1-0.1-0.1-0.1-0.2-0.1C260.9,226,260.9,226,260.9,226.1z"/>
		<path class="st81" d="M261,225.9c0,0-0.1-0.1-0.1-0.1c0,0.1,0,0.1-0.1,0.2c0,0,0,0,0.1,0C260.9,226,260.9,226,261,225.9z"/>
		<path class="st82" d="M248.3,240.7c2.2,1.8,4.4,1.4,6.4-0.2c1.9-1.6,4.2-3.4,3.3-6.3c-0.6-2-2.2-2.7-4.1-1
			c1.1,0.7-4.7,2.6,0.5,2.5c2.6-0.1,1.1,1.4,0.6,2c-0.9,1.3-2.2,2.3-4,1.6c-1.4-0.5-2.5-1.6-2.4-3c0.2-2.4,1.8-3.8,4.3-4l0,0
			c0.6-0.6,1.1-1.8,0.4-1.9c-3.3-0.6-5,1.7-6.4,4.1C245.5,236.9,246.2,239,248.3,240.7z"/>
		<path class="st83" d="M235.4,252.9c1.9,0.5,2.6-1,3.7-2c1.2-1,1.2-1.8,0.3-2.9c-0.5-0.6-1.2-1.3-1.9-0.7c-0.8,0.7-0.4,1.8-0.6,2.8
			c0,0.1-0.1,0.2-0.2,0.3C237.9,251.8,236.2,252.2,235.4,252.9z"/>
		<path class="st83" d="M236.9,250.1c0.2-0.9-0.2-2.1,0.6-2.8c0.7-0.6,1.4,0.1,1.9,0.7c0.9,1.1,0.9,1.9-0.3,2.9
			c-1.1,1-1.8,2.5-3.7,2c-0.2,0.1-0.3,0.3-0.3,0.5c1.5,1.2,3.9,3.9,4.3,0c0.3-2.6,0.1-2.6,2-1.5c0.9,0.5,1.9,0.1,1.8-0.6
			c-0.6-2.8-3-4.4-4.6-6.6c-0.6-0.9-1.5-1.1-2.5-0.3c-2.5,2-0.7,3.8,0.2,5.7c0.2,0.2,0.3,0.3,0.4,0.4
			C236.8,250.3,236.8,250.2,236.9,250.1z"/>
		<path class="st84" d="M234.9,253.1c-0.4-1.1,1.6-1.4,1.6-2.4c-0.8,1.3-2.1,1.2-3.5,0.7c-1.8-0.7-3.2-0.1-4.6,0.8
			c2.6,0.6,4.3,2.2,5.5,4.2C233.5,255.2,233,254,234.9,253.1z"/>
		<path class="st84" d="M234,256.4c0.4,0.6,0.7,1.3,1,2l0,0c1.3-1.3,0.5-2.3-0.5-3.3c-0.9-0.9-0.9-1.6,0.6-1.8
			c-0.1-0.1-0.1-0.2-0.1-0.3C233,254,233.5,255.2,234,256.4z"/>
		<path class="st84" d="M228.5,252.2c1.4-0.9,2.8-1.5,4.6-0.8c1.3,0.5,2.7,0.6,3.5-0.7c0-0.2-0.1-0.4-0.3-0.7
			c-1.6,2.6-2.5-0.1-3.5-0.6c-3.1-1.5-4.3-0.3-4.4,2.8c0,0,0,0,0,0C228.5,252.2,228.5,252.2,228.5,252.2z"/>
		<path class="st84" d="M228.5,252.2C228.5,252.2,228.5,252.2,228.5,252.2c2.5,1.5,3.2,4.9,6.1,6.1c0-0.6-0.3-1.2-0.6-1.8
			C232.8,254.3,231.2,252.8,228.5,252.2z"/>
		<path class="st84" d="M234,256.4c0.3,0.6,0.6,1.2,0.6,1.8c0.1,0.1,0.2,0.1,0.4,0.2C234.7,257.7,234.4,257,234,256.4z"/>
		<path class="st84" d="M228.4,252.1C228.4,252.1,228.4,252.1,228.4,252.1L228.4,252.1C228.4,252.2,228.5,252.2,228.4,252.1
			c0.1,0.1,0.1,0,0.1,0C228.5,252.2,228.5,252.2,228.4,252.1z"/>
		<path class="st84" d="M234.9,253.1c0.1-0.1,0.3-0.1,0.4-0.2c0,0,0,0,0,0c0.8-0.7,2.5-1.1,1.3-2.5c0,0.1-0.1,0.2-0.1,0.3
			C236.6,251.7,234.6,251.9,234.9,253.1z"/>
		<path class="st84" d="M235.4,252.9C235.4,252.9,235.4,252.9,235.4,252.9c-0.2,0.1-0.3,0.1-0.4,0.2c0,0.1,0.1,0.2,0.1,0.3
			C235.1,253.2,235.2,253,235.4,252.9z"/>
		<path class="st84" d="M236.7,250.4c-0.1-0.1-0.2-0.3-0.4-0.4c0.2,0.3,0.3,0.5,0.3,0.7C236.6,250.6,236.7,250.5,236.7,250.4z"/>
		<path class="st85" d="M252.1,237.9c-1.3-2.4-0.2-3.7,1.7-4.7c-0.3-0.3-0.6-0.6-1-0.9l0,0C252,234,248.8,235.4,252.1,237.9z"/>
		<path class="st85" d="M248.6,236.2c-0.1,1.4,1,2.5,2.4,3c1.8,0.7,3.1-0.3,4-1.6c0.4-0.6,2-2-0.6-2c-5.1,0.1,0.7-1.8-0.5-2.5
			c-2,1-3.1,2.4-1.7,4.7c-3.3-2.5-0.1-3.9,0.8-5.6l0,0l0,0C250.4,232.5,248.8,233.8,248.6,236.2z"/>
		<path class="st76" d="M247.7,247.6c0.2,0,0.8-1,0.4-1.5c-1.8-2.3-3.8-4.4-5.8-6.5c-0.7-0.7-1.4,0.1-1.7,0.9
			C240.3,241.6,245.8,247.6,247.7,247.6z"/>
		<path class="st86" d="M38.6,224.9c-2-0.1-3.5,1.2-3.5,3.2c-0.1,2,1.3,3.5,3.2,3.6c1.9,0.1,3.2-1.2,3.6-3.2
			C41.7,226.5,40.7,225,38.6,224.9z"/>
		<path class="st87" d="M30.6,213.3c-1.6,0.5-4.1,1.2-4,3.5c0.1,1.4,1.4,2.6,3.1,2.9c1.6-0.7,3.6-1.3,3.4-3.4
			C33.1,214.9,32.5,212.7,30.6,213.3z"/>
	</g>
</g>
</svg>
