<?xml version="1.0" encoding="utf-8"?>
<!-- Generator: Adobe Illustrator 24.2.0, SVG Export Plug-In . SVG Version: 6.00 Build 0)  -->
<svg version="1.1" id="Layer_1" xmlns="http://www.w3.org/2000/svg" xmlns:xlink="http://www.w3.org/1999/xlink" x="0px" y="0px"
	 viewBox="0 0 309 309" style="enable-background:new 0 0 309 309;" xml:space="preserve">
<style type="text/css">
	.st0{fill:none;stroke:#F48931;stroke-width:0.5;stroke-miterlimit:10;}
</style>
<g>
	<circle class="st0" cx="154" cy="155" r="3"/>
	<circle class="st0" cx="154" cy="155" r="6.6"/>
	<circle class="st0" cx="154" cy="155" r="10.2"/>
	<circle class="st0" cx="154" cy="155" r="13.9"/>
	<circle class="st0" cx="154" cy="155" r="17.5"/>
	<circle class="st0" cx="154" cy="155" r="21.1"/>
	<circle class="st0" cx="154" cy="155" r="24.7"/>
	<circle class="st0" cx="154" cy="155" r="28.4"/>
	<circle class="st0" cx="154" cy="155" r="32"/>
	<circle class="st0" cx="154" cy="155" r="35.6"/>
	<circle class="st0" cx="154" cy="155" r="39.2"/>
	<circle class="st0" cx="154" cy="155" r="42.8"/>
	<circle class="st0" cx="154" cy="155" r="46.5"/>
	<circle class="st0" cx="154" cy="155" r="50.1"/>
	<circle class="st0" cx="154" cy="155" r="53.7"/>
	<circle class="st0" cx="154" cy="155" r="57.3"/>
	<circle class="st0" cx="154" cy="155" r="60.9"/>
	<circle class="st0" cx="154" cy="155" r="64.6"/>
	<circle class="st0" cx="154" cy="155" r="68.2"/>
	<circle class="st0" cx="154" cy="155" r="71.8"/>
	<circle class="st0" cx="154" cy="155" r="75.4"/>
	<circle class="st0" cx="154" cy="155" r="79.1"/>
	<circle class="st0" cx="154" cy="155" r="82.7"/>
	<circle class="st0" cx="154" cy="155" r="86.3"/>
	<circle class="st0" cx="154" cy="155" r="89.9"/>
	<circle class="st0" cx="154" cy="155" r="93.5"/>
	<circle class="st0" cx="154" cy="155" r="97.2"/>
	<circle class="st0" cx="154" cy="155" r="100.8"/>
	<circle class="st0" cx="154" cy="155" r="104.4"/>
	<circle class="st0" cx="154" cy="155" r="108"/>
	<circle class="st0" cx="154" cy="155" r="111.6"/>
	<circle class="st0" cx="154" cy="155" r="115.3"/>
	<circle class="st0" cx="154" cy="155" r="118.9"/>
	<circle class="st0" cx="154" cy="155" r="122.5"/>
	<circle class="st0" cx="154" cy="155" r="126.1"/>
	<circle class="st0" cx="154" cy="155" r="129.8"/>
	<circle class="st0" cx="154" cy="155" r="133.4"/>
	<circle class="st0" cx="154" cy="155" r="137"/>
	<circle class="st0" cx="154" cy="155" r="140.6"/>
	<circle class="st0" cx="154" cy="155" r="144.2"/>
	<circle class="st0" cx="154" cy="155" r="147.9"/>
	<circle class="st0" cx="154" cy="155" r="151.5"/>
</g>
</svg>
