<svg xmlns="http://www.w3.org/2000/svg" id="Layer_1" data-name="Layer 1" viewBox="0 0 185 185"><defs><style>.cls-1,.cls-2{fill:none;}.cls-2{stroke:#828282;stroke-miterlimit:10;}.cls-3{fill:#44c639;}</style></defs><path class="cls-1" d="M72.91,59.83a2.26,2.26,0,1,0-4.51,0,2.26,2.26,0,0,0,4.51,0Z"></path><path class="cls-1" d="M94.41,132.57a2.22,2.22,0,0,0,2.36-2.19A2.28,2.28,0,0,0,94.55,128a2.32,2.32,0,0,0-2.31,2.28A2.26,2.26,0,0,0,94.41,132.57Z"></path><path class="cls-1" d="M128.27,51.12a2.25,2.25,0,0,0,2.24-2.19,2.22,2.22,0,0,0-2.21-2.34A2.28,2.28,0,0,0,126,48.83,2.32,2.32,0,0,0,128.27,51.12Z"></path><path class="cls-1" d="M46.76,128a2.28,2.28,0,0,0-2.21,2.36,2.2,2.2,0,0,0,2.36,2.18,2.26,2.26,0,0,0,2.16-2.26A2.32,2.32,0,0,0,46.76,128Z"></path><path class="cls-1" d="M70.89,132.81a2.27,2.27,0,1,0,2,2.39A2.24,2.24,0,0,0,70.89,132.81Z"></path><path class="cls-1" d="M105.19,72.71a2.29,2.29,0,0,0-2.31-2.26,2.26,2.26,0,0,0,0,4.52A2.29,2.29,0,0,0,105.19,72.71Z"></path><path class="cls-1" d="M83.58,70.45A2.26,2.26,0,0,0,83.47,75a2.26,2.26,0,1,0,.11-4.52Z"></path><path class="cls-1" d="M70.69,87.89a2.28,2.28,0,0,0,2.22-2.35,2.26,2.26,0,0,0-4.51.08A2.27,2.27,0,0,0,70.69,87.89Z"></path><path class="cls-1" d="M93.38,97.78a2.26,2.26,0,1,0,.1-4.52,2.22,2.22,0,0,0-2.27,2.27A2.24,2.24,0,0,0,93.38,97.78Z"></path><path class="cls-1" d="M114.62,30.87A2.29,2.29,0,0,0,117,28.71a2.34,2.34,0,0,0-2.23-2.38,2.29,2.29,0,0,0-2.32,2.26A2.24,2.24,0,0,0,114.62,30.87Z"></path><path class="cls-1" d="M70.63,12.62a2.24,2.24,0,0,0,2.28-2.14,2.26,2.26,0,1,0-4.51-.19A2.24,2.24,0,0,0,70.63,12.62Z"></path><path class="cls-1" d="M46.78,12.85a2.22,2.22,0,0,0-2.24,2.31,2.3,2.3,0,0,0,2.35,2.23,2.33,2.33,0,0,0,2.18-2.28A2.24,2.24,0,0,0,46.78,12.85Z"></path><path class="cls-1" d="M94.52,17.39a2.28,2.28,0,0,0,2.25-2.33,2.21,2.21,0,0,0-2.33-2.21,2.24,2.24,0,0,0-2.19,2.23A2.32,2.32,0,0,0,94.52,17.39Z"></path><path class="cls-1" d="M26.69,114.55a2.28,2.28,0,0,0-2.4,2.17,2.33,2.33,0,0,0,2.22,2.37,2.29,2.29,0,0,0,2.32-2.26A2.23,2.23,0,0,0,26.69,114.55Z"></path><path class="cls-1" d="M26.72,26.33a2.33,2.33,0,0,0-2.43,2.16,2.29,2.29,0,0,0,2.06,2.38,2.25,2.25,0,0,0,2.48-2.07A2.32,2.32,0,0,0,26.72,26.33Z"></path><path class="cls-1" d="M13,46.59a2.21,2.21,0,0,0-2.21,2.33A2.25,2.25,0,0,0,13,51.12a2.33,2.33,0,0,0,2.32-2.28A2.29,2.29,0,0,0,13,46.59Z"></path><path class="cls-1" d="M13,94.3a2.24,2.24,0,0,0-2.23,2.19A2.21,2.21,0,0,0,13,98.83a2.28,2.28,0,0,0,2.34-2.24A2.32,2.32,0,0,0,13,94.3Z"></path><path class="cls-1" d="M8.37,70.45a2.26,2.26,0,1,0,2.21,2.35A2.27,2.27,0,0,0,8.37,70.45Z"></path><path class="cls-1" d="M47.88,52.16a2.26,2.26,0,1,0-2.29-2.26A2.24,2.24,0,0,0,47.88,52.16Z"></path><path class="cls-1" d="M57.77,70.45A2.26,2.26,0,0,0,57.68,75a2.26,2.26,0,1,0,.09-4.52Z"></path><path class="cls-1" d="M70.7,38.17a2.28,2.28,0,0,0-2.3,2.27,2.26,2.26,0,1,0,4.52,0A2.3,2.3,0,0,0,70.7,38.17Z"></path><path class="cls-1" d="M36.12,72.68A2.3,2.3,0,0,0,38.41,75a2.26,2.26,0,0,0,.06-4.52A2.3,2.3,0,0,0,36.12,72.68Z"></path><path class="cls-1" d="M70.71,107.25a2.28,2.28,0,0,0,2.2-2.37,2.26,2.26,0,0,0-4.51.1A2.28,2.28,0,0,0,70.71,107.25Z"></path><path class="cls-2" d="M119.28,70.71H117.8c-.17-1.87-.33-3.54-.48-5.22l2-.4c.65-.14,1.31-.27,2-.42,1.49-.32,2.23-1.29,1.94-2.51s-1.32-1.7-2.76-1.42l-3.93.76c-.53-1.75-1-3.36-1.49-5,2.48-1,4.85-2,7.16-3a1.84,1.84,0,0,1,2.25.28,6.14,6.14,0,0,0,7.58.11,6.3,6.3,0,1,0-10-5.82c-.07.48-.21,1.2-.53,1.34-2.63,1.18-5.31,2.25-8,3.37-.46-.9-.84-1.65-1.23-2.4L111,48.18c1.19-.81,2.27-1.51,3.33-2.25s1.53-2,.89-3-1.86-1.17-3.16-.33c-1.12.72-2.22,1.45-3.34,2.19l-3.23-4a2.4,2.4,0,0,1,.2-.33c1.77-1.77,3.56-3.52,5.29-5.32a1.74,1.74,0,0,1,2.07-.55A6.09,6.09,0,0,0,120,32.12a6.31,6.31,0,0,0-8-9.18,6.35,6.35,0,0,0-3.28,7.45c.12.45.19,1.16-.06,1.42-2,2.08-4,4.08-6,6.14l-4.07-3.33c.77-1.17,1.52-2.27,2.24-3.39s.65-2.41-.34-3.07a2.06,2.06,0,0,0-3,.81c-1,1.47-2,3-3,4.45-1.17,1.76-1,2.54.68,3.79,13.2,9.84,19.56,22.63,18.42,38.31A35.94,35.94,0,0,1,119.28,70.71Zm9-24.12a2.22,2.22,0,0,1,2.21,2.34,2.25,2.25,0,0,1-2.24,2.19,2.32,2.32,0,0,1-2.3-2.29A2.28,2.28,0,0,1,128.3,46.59ZM114.8,26.33A2.34,2.34,0,0,1,117,28.71a2.29,2.29,0,0,1-2.41,2.16,2.24,2.24,0,0,1-2.14-2.28A2.29,2.29,0,0,1,114.8,26.33Z"></path><path class="cls-2" d="M62.11,115A43,43,0,0,1,27.73,69.17a41.09,41.09,0,0,1,17.64-31.3C58,28.78,71.85,27.22,86.46,32.56c2.08.76,2.79.49,3.63-1.54,1.15-2.76,2.32-5.51,3.41-8.3a1.91,1.91,0,0,1,1.78-1.4,6.28,6.28,0,0,0,0-12.46A6,6,0,0,0,89,12.06,6.12,6.12,0,0,0,89.54,19c.28.39.72,1,.59,1.32-1,2.69-2.17,5.34-3.29,8l-5-1.52c.27-1.35.53-2.65.78-3.95s-.31-2.49-1.47-2.73S79,20.6,78.7,22s-.56,2.67-.85,4l-5.18-.53c0-2.76,0-5.43,0-8.1a1.48,1.48,0,0,1,.93-1.54,6.22,6.22,0,0,0,3.08-7.41A6.31,6.31,0,0,0,70.49,4a6.4,6.4,0,0,0-5.92,4.63,6.42,6.42,0,0,0,3,7.16c.46.28,1,.83,1.07,1.27.1,2.54.07,5.09,0,7.64a1.16,1.16,0,0,1-.69.86c-1.45.21-2.91.3-4.47.44-.28-1.36-.54-2.66-.82-4s-1.2-2.15-2.4-1.94-1.82,1.3-1.53,2.8c.25,1.29.5,2.59.76,3.91l-5,1.5c-1-2.48-2-4.91-3.07-7.31a1.64,1.64,0,0,1,.27-2,6.16,6.16,0,0,0,.25-7.59,6.29,6.29,0,1,0-6.39,9.82c.62.13,1.6.18,1.78.56,1.23,2.65,2.3,5.38,3.43,8.1l-4.63,2.44c-.82-1.23-1.54-2.36-2.31-3.45a2.06,2.06,0,0,0-2.89-.79c-1,.64-1.19,1.84-.42,3.06s1.51,2.29,2.28,3.47L38.71,38c-1.88-1.9-3.67-3.78-5.55-5.56a1.88,1.88,0,0,1-.56-2.19,6.27,6.27,0,1,0-12.15-.15,6.3,6.3,0,0,0,8,4.58c.41-.12,1.06-.19,1.3,0,2.1,2,4.13,4.06,6.19,6.11l-3.34,4c-1.2-.8-2.31-1.55-3.43-2.27S26.73,42,26.09,43s-.32,2.14.87,3l3.37,2.28-2.47,4.59c-2.46-1-4.84-2-7.24-3a1.79,1.79,0,0,1-1.34-1.68A6.29,6.29,0,1,0,8,52.66a6.35,6.35,0,0,0,9,1.13c.38-.29,1-.67,1.33-.54,2.66,1,5.28,2.14,8,3.27-.52,1.69-1,3.3-1.47,4.85a1.65,1.65,0,0,1-.37.07l-3.68-.71a2.07,2.07,0,0,0-2.69,1.52c-.23,1.2.48,2.11,1.9,2.42s2.67.56,4,.84c-.19,1.8-.35,3.44-.52,5a2,2,0,0,1-.47.14c-2.55,0-5.1,0-7.64,0a1.48,1.48,0,0,1-1.54-.94,6.2,6.2,0,0,0-7.52-3.06A6.31,6.31,0,0,0,2,73a6.38,6.38,0,0,0,4.73,5.84,6.4,6.4,0,0,0,7-3c.26-.42.66-1,1-1.06,2.88-.09,5.77,0,8.72,0,.18,1.81.34,3.44.51,5.17l-4,.83c-1.43.29-2.15,1.18-1.95,2.39s1.3,1.82,2.8,1.53l3.92-.76c.52,1.76,1,3.36,1.48,5-2.52,1-4.92,2-7.29,3a1.63,1.63,0,0,1-2-.27,6.17,6.17,0,0,0-7.69-.18,6.3,6.3,0,1,0,10,5.94c.1-.52.23-1.3.57-1.46,2.63-1.19,5.31-2.25,8-3.37l2.45,4.62c-1.22.82-2.34,1.55-3.44,2.31a2,2,0,1,0,2.24,3.33c1.16-.74,2.3-1.51,3.47-2.29l3.32,4.06c-1.89,1.88-3.76,3.67-5.54,5.55a1.82,1.82,0,0,1-2.18.55A6.27,6.27,0,1,0,32.6,115c-.12-.42-.2-1.07,0-1.31,2-2.1,4.06-4.12,6.12-6.19l4,3.33c-.79,1.2-1.54,2.3-2.26,3.43s-.62,2.41.38,3.06,2.14.33,3-.86,1.49-2.21,2.28-3.38l4.59,2.47c-1,2.42-2,4.75-2.91,7.12A2,2,0,0,1,46,124.12a6.28,6.28,0,1,0,4.64,11.22,6.35,6.35,0,0,0,1.13-9c-.29-.38-.67-1-.54-1.33,1-2.66,2.15-5.27,3.28-8l5,1.51c-.28,1.4-.55,2.7-.79,4a2.07,2.07,0,0,0,1.52,2.69c1.2.23,2.11-.49,2.42-1.91s.56-2.67.84-4c1.46.13,2.75.29,4,.34.94,0,1.18.45,1.16,1.34,0,2.23,0,4.47,0,6.7a1.79,1.79,0,0,1-1.09,1.87,5.86,5.86,0,0,0-3.18,5.76,6.07,6.07,0,0,0,3.86,5.5l1.07.49H72l.94-.44a6.06,6.06,0,0,0,4-5.55,5.84,5.84,0,0,0-3.18-5.76,1.8,1.8,0,0,1-1.09-1.87c.06-2.23.06-4.47,0-6.7,0-.88.21-1.31,1.16-1.34,1.29,0,2.58-.21,4-.34.27,1.32.54,2.65.83,4s1.22,2.14,2.42,1.92a2.08,2.08,0,0,0,1.53-2.69c-.25-1.3-.52-2.61-.8-4l5-1.51c1.12,2.7,2.25,5.31,3.27,8,.13.33-.24,1-.53,1.33a6.31,6.31,0,1,0,10,7.65,6.25,6.25,0,0,0-4.38-9.92,1.82,1.82,0,0,1-1.69-1.33c-.94-2.41-2-4.79-3-7.26l4.59-2.46c.78,1.15,1.52,2.26,2.28,3.35s2,1.53,3,.89,1.17-1.87.33-3.17c-.7-1.08-1.42-2.15-2.22-3.35.68-.53,1.34-1,2-1.57s1.29-1.09,2.05-1.74l1.74,1.73a36.32,36.32,0,0,1-1-8.26A43.29,43.29,0,0,1,62.11,115ZM94.44,12.85a2.21,2.21,0,0,1,2.33,2.21,2.28,2.28,0,0,1-2.25,2.33,2.32,2.32,0,0,1-2.27-2.31A2.24,2.24,0,0,1,94.44,12.85Zm-26-2.56a2.26,2.26,0,1,1,4.51.19,2.26,2.26,0,0,1-4.51-.19Zm-21.51,7.1a2.3,2.3,0,0,1-2.35-2.23,2.22,2.22,0,0,1,2.24-2.31,2.24,2.24,0,0,1,2.29,2.26A2.33,2.33,0,0,1,46.89,17.39ZM26.35,30.87a2.29,2.29,0,0,1-2.06-2.38,2.28,2.28,0,1,1,4.54.31A2.25,2.25,0,0,1,26.35,30.87ZM13,51.12a2.25,2.25,0,0,1-2.22-2.2A2.21,2.21,0,0,1,13,46.59a2.29,2.29,0,0,1,2.33,2.25A2.33,2.33,0,0,1,13,51.12ZM8.18,75a2.26,2.26,0,0,1,.19-4.52A2.26,2.26,0,1,1,8.18,75ZM13,98.83a2.21,2.21,0,0,1-2.2-2.34A2.24,2.24,0,0,1,13,94.3a2.32,2.32,0,0,1,2.31,2.29A2.28,2.28,0,0,1,13,98.83Zm13.5,20.26a2.33,2.33,0,0,1-2.22-2.37,2.28,2.28,0,0,1,2.4-2.17,2.23,2.23,0,0,1,2.14,2.28A2.29,2.29,0,0,1,26.51,119.09Zm20.4,13.48a2.2,2.2,0,0,1-2.36-2.18A2.28,2.28,0,0,1,46.76,128a2.32,2.32,0,0,1,2.31,2.28A2.26,2.26,0,0,1,46.91,132.57Zm26,2.63a2.26,2.26,0,1,1-2-2.39A2.26,2.26,0,0,1,72.91,135.2ZM94.55,128a2.28,2.28,0,0,1,2.22,2.35,2.22,2.22,0,0,1-2.36,2.19,2.26,2.26,0,0,1-2.17-2.26A2.32,2.32,0,0,1,94.55,128Z"></path><path class="cls-2" d="M93.46,101.82a6.3,6.3,0,1,0-6.29-6.31A6.31,6.31,0,0,0,93.46,101.82Zm0-8.56a2.26,2.26,0,1,1-2.27,2.27A2.23,2.23,0,0,1,93.48,93.26Z"></path><path class="cls-2" d="M47.91,56.19A6.3,6.3,0,1,0,41.55,50,6.26,6.26,0,0,0,47.91,56.19Zm-.15-8.55a2.26,2.26,0,1,1-2.17,2.26A2.25,2.25,0,0,1,47.76,47.64Z"></path><path class="cls-2" d="M70.5,91.93A6.32,6.32,0,0,0,77,85.77a6.3,6.3,0,0,0-12.59-.32A6.34,6.34,0,0,0,70.5,91.93Zm0-8.56a2.21,2.21,0,0,1,2.36,2.17,2.26,2.26,0,1,1-4.51.08A2.21,2.21,0,0,1,70.55,83.37Z"></path><path class="cls-2" d="M89.87,72.73A6.3,6.3,0,1,0,83.54,79,6.32,6.32,0,0,0,89.87,72.73ZM83.47,75a2.26,2.26,0,0,1,.11-4.52A2.26,2.26,0,1,1,83.47,75Z"></path><path class="cls-2" d="M77,60a6.3,6.3,0,1,0-12.59-.31A6.3,6.3,0,0,0,77,60Zm-8.55-.12a2.26,2.26,0,1,1,4.51,0,2.26,2.26,0,0,1-4.51,0Z"></path><path class="cls-2" d="M64,72.77a6.26,6.26,0,0,0-6.22-6.36A6.3,6.3,0,1,0,57.69,79,6.27,6.27,0,0,0,64,72.77ZM57.68,75a2.26,2.26,0,0,1,.09-4.52A2.26,2.26,0,1,1,57.68,75Z"></path><path class="cls-2" d="M70.63,34.13a6.34,6.34,0,0,0-6.27,6.35,6.3,6.3,0,0,0,12.6,0A6.34,6.34,0,0,0,70.63,34.13Zm.05,8.57a2.22,2.22,0,0,1-2.28-2.26,2.26,2.26,0,0,1,4.52,0A2.23,2.23,0,0,1,70.68,42.7Z"></path><path class="cls-2" d="M70.68,111.29A6.34,6.34,0,0,0,77,104.94a6.3,6.3,0,0,0-12.59,0A6.34,6.34,0,0,0,70.68,111.29Zm-.14-8.57a2.2,2.2,0,0,1,2.37,2.16,2.26,2.26,0,1,1-4.51.1A2.21,2.21,0,0,1,70.54,102.72Z"></path><path class="cls-2" d="M32.08,72.77A6.36,6.36,0,0,0,38.46,79a6.31,6.31,0,0,0-.11-12.61A6.37,6.37,0,0,0,32.08,72.77Zm8.58,0A2.22,2.22,0,0,1,38.41,75a2.26,2.26,0,1,1,.06-4.52A2.22,2.22,0,0,1,40.66,72.81Z"></path><path class="cls-2" d="M109.23,72.75A6.34,6.34,0,0,0,103,66.41a6.3,6.3,0,0,0-.08,12.6A6.35,6.35,0,0,0,109.23,72.75Zm-8.57-.11a2.22,2.22,0,0,1,2.22-2.19,2.26,2.26,0,1,1,0,4.52A2.22,2.22,0,0,1,100.66,72.64Z"></path><path class="cls-2" d="M48.52,101.87a21,21,0,0,0,3.22-1.45,2,2,0,0,0,.73-3.08c-.73-1-1.81-1-3.07-.15A2.28,2.28,0,0,1,46.19,94c.85-1.25.79-2.34-.17-3.07s-2.17-.52-3.11.73a6.05,6.05,0,0,0-.75,6.55C43.25,100.54,45.21,101.69,48.52,101.87Z"></path><path class="cls-2" d="M95,51.57a2.28,2.28,0,0,1-3.24-3.21c.86-1.26.81-2.34-.14-3.08s-2.17-.53-3.11.71a6,6,0,0,0-.71,6.67c1.13,2.34,3.1,3.47,6.44,3.57a21,21,0,0,0,3.08-1.41,2,2,0,0,0,.75-3.08C97.36,50.78,96.27,50.72,95,51.57Z"></path><path class="cls-2" d="M83.08,40.92a2,2,0,0,0-2,2,1.92,1.92,0,0,0,1.91,2,2,2,0,0,0,2.06-2A2,2,0,0,0,83.08,40.92Z"></path><path class="cls-2" d="M83.43,83.64a1.92,1.92,0,0,0-1.87,2,2,2,0,1,0,4-.08A2,2,0,0,0,83.43,83.64Z"></path><path class="cls-2" d="M83.12,100.54a1.94,1.94,0,0,0-2.1,1.92,2,2,0,0,0,1.87,2.05,2,2,0,0,0,2.11-2A2,2,0,0,0,83.12,100.54Z"></path><path class="cls-2" d="M40.9,87A1.94,1.94,0,0,0,42.84,85a1.92,1.92,0,0,0-2-1.88,2,2,0,1,0,.06,4Z"></path><path class="cls-2" d="M81.56,59.72a2,2,0,0,0,4,.18,2,2,0,0,0-2-2.09A2,2,0,0,0,81.56,59.72Z"></path><path class="cls-2" d="M58.21,44.89A1.94,1.94,0,0,0,60.3,43a2,2,0,1,0-4-.08A1.93,1.93,0,0,0,58.21,44.89Z"></path><path class="cls-2" d="M59.73,85.73a1.92,1.92,0,0,0-1.92-2.09,2,2,0,0,0-2.05,1.85,2,2,0,0,0,2,2.12A2,2,0,0,0,59.73,85.73Z"></path><path class="cls-2" d="M102.47,85.06a2,2,0,0,0-1.94-2,2,2,0,0,0-.13,4A2,2,0,0,0,102.47,85.06Z"></path><path class="cls-2" d="M100.5,58.39a2,2,0,0,0-.08,4,2,2,0,1,0,.08-4Z"></path><path class="cls-2" d="M57.71,61.78a1.9,1.9,0,0,0,2-1.86,2,2,0,0,0-1.92-2.11,2,2,0,0,0-2,1.89A2,2,0,0,0,57.71,61.78Z"></path><path class="cls-2" d="M38.88,60.42a2,2,0,0,0,2,1.94,2,2,0,0,0,2-2,1.93,1.93,0,0,0-2-1.93A2,2,0,0,0,38.88,60.42Z"></path><path class="cls-2" d="M58.34,104.52a2,2,0,0,0,2-2.08,2,2,0,0,0-4,.15A2,2,0,0,0,58.34,104.52Z"></path><path class="cls-2" d="M75.52,158q8.58-8,17.17-15.92c2.11-2,4.17-4,6.38-5.79,7.46-6.16,16-7.86,24.47-3.31,6.9,3.72,13.88,3.51,21.09,3.46a3.39,3.39,0,0,0,1.72-.64c.86-.57,1.63-1.27,2.44-1.91,4.68-3.68,7.94-3.76,12.93-.17l7-5.57c4.21-3.34,9.52-3,12.58.8s2.51,9.11-1.68,12.49q-13.12,10.59-26.38,21a20,20,0,0,1-12.71,4.12c-10.21,0-20.43-.08-30.64.08a12.94,12.94,0,0,0-5.8,1.63c-4.17,2.33-8.17,5-12.18,7.57-1.92,1.24-3.33.92-4.7-.86C83.38,170,79.44,165,75.52,159.93Zm15,12.41c3.73-2.33,7.35-4.51,10.88-6.82a14,14,0,0,1,8.11-2.36c10.13.08,20.27,0,30.41,0a16.89,16.89,0,0,0,11.26-3.93c2.63-2.19,5.36-4.28,8-6.42q8.43-6.7,16.84-13.43c2.58-2.07,2.5-5.22-.27-6a5.13,5.13,0,0,0-3.83,1c-5.82,4.47-11.52,9.1-17.22,13.72a9,9,0,0,0-2,2.33,8,8,0,0,1-6.79,4.22c-3.66.22-7.32.49-11,.7l-21,1.18c-1.77.1-3-.54-3.11-2.47s1-2.75,2.82-2.85l8.6-.49,23.18-1.4c1.78-.11,2.87-1,2.87-2.82s-1.26-2.66-2.95-2.82a18.33,18.33,0,0,0-2.87,0c-7.57.4-14.7-.4-21.66-4.23-6.25-3.44-12.76-1.9-18.24,2.74-3.59,3-7,6.32-10.46,9.5l-10.25,9.43Zm62.38-29.56,4.47-3.6c-2.83-1.77-4.26.13-6,1.58Z"></path><path class="cls-3" d="M137.55,127.12a26.15,26.15,0,1,0,.31-52.29c-14.19-.06-26.14,11.63-26.25,25.67A26.2,26.2,0,0,0,137.55,127.12Zm.21-47.07a21,21,0,0,1,21,21.12c0,11.2-9.52,20.78-20.63,20.79a21,21,0,1,1-.32-41.91Z"></path><path class="cls-3" d="M136,103.39c.78.18,1.61.18,2.4.33a2.38,2.38,0,0,1,2,2.39,2.47,2.47,0,0,1-1.77,2.62c-1.24.45-2.51.15-2.93-1-.65-1.7-1.84-1.45-3.09-1.43a8,8,0,0,1-1.3,0c-1.22-.19-1.45.34-1.22,1.43a7.93,7.93,0,0,0,4.2,5.45c.48.27.89.41.94,1.12.18,2.4.22,2.4,2.67,2.4a6.19,6.19,0,0,1,1.14,0c1.13.19,1.46-.36,1.3-1.37a2.15,2.15,0,0,1,1.39-2.5,7.6,7.6,0,0,0,3.66-8.45,7.9,7.9,0,0,0-6.92-5.91A10,10,0,0,1,137,98.3a2.41,2.41,0,0,1-1.9-2.51,2.54,2.54,0,0,1,2.06-2.59A2.24,2.24,0,0,1,140,94.5c.42,1.19,1.08,1.27,2.05,1.22a12.29,12.29,0,0,1,2.27,0c1.22.15,1.31-.42,1.12-1.4a7.82,7.82,0,0,0-4.14-5.48c-.46-.25-1-.36-1-1.1s.41-1.89-.22-2.29-1.67-.14-2.53-.17a7.81,7.81,0,0,1-1,0c-1.12-.18-1.62.23-1.41,1.39s-.27,1.87-1.41,2.48a7.47,7.47,0,0,0-3.7,8A7.86,7.86,0,0,0,136,103.39Z"></path></svg>