<svg xmlns="http://www.w3.org/2000/svg" id="Layer_1" data-name="Layer 1" viewBox="0 0 185 185"><defs><style>.cls-1,.cls-2{fill:none;}.cls-2{stroke:#828282;stroke-miterlimit:10;}.cls-3{fill:#828282;}.cls-4{fill:#44c639;}</style></defs><path class="cls-1" d="M20.53,97.41h8.86V94H20.53Z"></path><path class="cls-1" d="M44.38,110.24h3.39V94H44.38Z"></path><path class="cls-1" d="M59,110.26h3.4V94H59Z"></path><path class="cls-1" d="M81.08,110.27h3.4V94h-3.4Z"></path><path class="cls-1" d="M45.83,77.45c.05-.59-.92-1.8-1.48-1.82-4.29-.15-8.59-.08-12.94-.08v3.6c4.37,0,8.53.07,12.69-.07A2.43,2.43,0,0,0,45.83,77.45Z"></path><path class="cls-1" d="M30.23,82.84c-1.7,0-2.57-.68-2.55-2.43,0-2.06,0-4.12,0-6.18,0-1.77.87-2.46,2.56-2.41,1.51,0,3,0,4.7,0-.51-3.66-2.34-5.38-5.6-5.5-1.07,0-2.14,0-3.21,0a5.49,5.49,0,0,0-5.77,5.74c-.06,3.74,0,7.47,0,11.21V90H34.9V82.84C33.25,82.84,31.74,82.8,30.23,82.84Z"></path><path class="cls-1" d="M53.22,79.12V59c-3-.26-5.83.09-8.69-1.65-1.87-1.14-5-.22-7.07-.22L34.4,64a9.66,9.66,0,0,1,4.38,7.5c2.7.29,5.4.15,7.79.94,2.9,1,3.37,3.8,3.1,6.64Z"></path><path class="cls-1" d="M59,110.26h3.4V94H59Z"></path><path class="cls-1" d="M38.89,90.06H66.12V83H38.89Z"></path><path class="cls-1" d="M84.48,94h-3.4v16.31h3.4Z"></path><path class="cls-1" d="M27.69,62.63a5.54,5.54,0,0,0,5.5-5.32,5.93,5.93,0,0,0-5.6-5.67,5.5,5.5,0,0,0,.1,11Z"></path><path class="cls-1" d="M20.53,97.41h8.86V94H20.53Z"></path><path class="cls-1" d="M44.38,110.24h3.39V94H44.38Z"></path><path class="cls-1" d="M115.79,51.64a5.58,5.58,0,0,0-5.47,5.59,5.49,5.49,0,1,0,5.47-5.59Z"></path><path class="cls-1" d="M114,46.21c0-12.23,0-24.46,0-36.7,0-.58-.09-1.17-.14-1.77H29.53v2c0,11.93,0,23.85,0,35.78,0,1.8.26,3,2.25,3.51a4.27,4.27,0,0,1,2.51,1.87c1.31,2.59,3.41,2.87,5.89,2.6a13.5,13.5,0,0,1,3,0c1.37.14,1.85-.42,2-1.75C45.7,48,46.39,44.35,47,40.67c.82-4.7,4-7.35,8.74-7.39h2.74c-2.16-6.39-1.53-10,2.13-12.78,3.21-2.46,7.77-2.76,10.83-.1a11.59,11.59,0,0,1,3.64,5.79c.47,2.17-.42,4.64-.74,7.12a18,18,0,0,0,1.92-1c3.45-2.26,6.87-4.57,10.31-6.85,3.27-2.15,6.4-1.86,8.33.76,2.44,3.29,2.06,6.43-1.15,9-3.86,3.12-7.75,6.21-11.63,9.31-3.29,2.64-3.9,4.63-2.65,8.9,8.84,0,17.7,0,26.57-.05.66,0,1.37-.64,2-1.11,1.47-1.16,2.73-2.68,4.36-3.53A2.39,2.39,0,0,0,114,46.21ZM99.46,11.4h3.31v3.47H99.46Zm3.32,18H99.47V26h3.31Zm0-7.31H99.37v-3.4h3.45Z"></path><path class="cls-1" d="M92.1,28.61c-1-1.44-2.18-1-3.37-.18-3.42,2.3-6.92,4.5-10.26,6.91A8.67,8.67,0,0,1,72.94,37c-5.73-.1-11.46,0-17.19,0-2.21,0-4.16.78-4.65,2.95C50,44.92,49.17,50,48.23,55.15H54c.43-3.12.85-6.1,1.27-9.17l3.75.37c-2.16,11-2.27,21.81-1.85,32.69h7.25V62.75h3.66V79.06h7.31c0-10.58,0-20.89,0-31.2a4.73,4.73,0,0,1,2-4.25c4.78-3.68,9.43-7.53,14.18-11.26A2.38,2.38,0,0,0,92.1,28.61Z"></path><path class="cls-1" d="M71.74,27.79a5.5,5.5,0,1,0-5.35,5.47A5.55,5.55,0,0,0,71.74,27.79Z"></path><path class="cls-2" d="M122.2,63.9c4.36-6,3.2-12.54-2.64-15-1.74-.73-2-1.65-2-3.24,0-12.77,0-25.54,0-38.31,0-3.17-.24-3.41-3.4-3.41H29.13c-3,0-3.27.3-3.27,3.31,0,12.77,0,25.55,0,38.32,0,1.7-.32,2.66-2.08,3.39a7.84,7.84,0,0,0-5.16,7.71c.08,2.45,1.23,4.87,2,7.63-3.49,3.19-4,4.27-4,9.88v39.78H20.4V101.31h9.15v12.55h3.73V94h7.26c0,5.37-.09,10.56.08,15.75,0,1.22.8,3.26,1.56,3.44a17.83,17.83,0,0,0,7.3.28c2.22-.47,2.1-2.85,2.09-4.82,0-4.87,0-9.74,0-14.67h3.67V102c0,2.68,0,5.35,0,8s1.38,3.94,3.95,4.06c.91,0,1.83,0,2.75,0,3-.06,4.27-1.38,4.3-4.41s0-5.81,0-8.72V94c3.52-.27,3.66-.41,3.67-3.59,0-2.49,0-5,0-7.39h3.67c0,2.5,0,4.86,0,7.21,0,3.38.08,3.48,3.67,3.79,0,5.34,0,10.53,0,15.72,0,3,1.35,4.29,4.36,4.34.91,0,1.83,0,2.75,0,2.45-.12,3.79-1.42,3.87-3.89,0-1,0-1.93,0-2.9a34.35,34.35,0,0,1-.74-7.4,31.87,31.87,0,0,1,1.61-9.78H77.44V83h15a35.14,35.14,0,0,1,11-11.18h-2.8c-4.92,0-6.9,2.05-6.76,7.18H79.22V57.23H106.1c1,2.3,2,4.49,3,6.81A9.62,9.62,0,0,0,104.82,71a34.42,34.42,0,0,1,4.66-2.24c1.5-2.22,4.43-3,8.89-2.34.23,0,.45.1.67.16.82-.06,1.63-.1,2.46-.1h.13a31.71,31.71,0,0,1,3.53.2A8.55,8.55,0,0,0,122.2,63.9ZM81.08,94h3.4v16.31h-3.4ZM27.59,51.64a5.93,5.93,0,0,1,5.6,5.67,5.5,5.5,0,1,1-5.6-5.67Zm1.8,45.77H20.53V94h8.86ZM34.9,90H20.35V83.27c0-3.74,0-7.47,0-11.21a5.49,5.49,0,0,1,5.77-5.74c1.07,0,2.14,0,3.21,0,3.26.12,5.09,1.84,5.6,5.5-1.67,0-3.19,0-4.7,0-1.69,0-2.59.64-2.56,2.41,0,2.06,0,4.12,0,6.18,0,1.75.85,2.48,2.55,2.43,1.51,0,3,0,4.67,0ZM46.57,72.48c-2.39-.79-5.09-.65-7.79-.94A9.66,9.66,0,0,0,34.4,64l3.06-6.87c2.07,0,5.2-.92,7.07.22,2.86,1.74,5.64,1.39,8.69,1.65V79.12H49.67C49.94,76.28,49.47,73.45,46.57,72.48ZM31.41,79.15v-3.6c4.35,0,8.65-.07,12.94.08.56,0,1.53,1.23,1.48,1.82a2.43,2.43,0,0,1-1.73,1.63C39.94,79.22,35.78,79.15,31.41,79.15Zm16.36,31.09H44.38V94h3.39Zm14.65,0H59V94h3.4Zm3.7-20.2H38.89V83H66.12ZM77.39,43.61a4.73,4.73,0,0,0-2,4.25c.09,10.31,0,20.62,0,31.2H68.11V62.75H64.45V79H57.2c-.42-10.88-.31-21.73,1.85-32.69L55.3,46c-.42,3.07-.84,6.05-1.27,9.17h-5.8C49.17,50,50,44.92,51.1,39.9c.49-2.17,2.44-3,4.65-2.95,5.73,0,11.46-.07,17.19,0a8.67,8.67,0,0,0,5.53-1.64c3.34-2.41,6.84-4.61,10.26-6.91,1.19-.79,2.34-1.26,3.37.18a2.38,2.38,0,0,1-.53,3.74C86.82,36.08,82.17,39.93,77.39,43.61ZM60.75,27.85a5.5,5.5,0,1,1,5.64,5.41A5.53,5.53,0,0,1,60.75,27.85ZM108,52.29c-.59.47-1.3,1.11-2,1.11-8.87.08-17.73.05-26.57.05-1.25-4.27-.64-6.26,2.65-8.9,3.88-3.1,7.77-6.19,11.63-9.31,3.21-2.6,3.59-5.74,1.15-9-1.93-2.62-5.06-2.91-8.33-.76C83.17,27.73,79.75,30,76.3,32.3a18,18,0,0,1-1.92,1c.32-2.48,1.21-4.95.74-7.12a11.59,11.59,0,0,0-3.64-5.79c-3.06-2.66-7.62-2.36-10.83.1-3.66,2.8-4.29,6.39-2.13,12.78H55.78C51,33.32,47.86,36,47,40.67c-.65,3.68-1.34,7.36-1.88,11.06-.19,1.33-.67,1.89-2,1.75a13.5,13.5,0,0,0-3,0c-2.48.27-4.58,0-5.89-2.6A4.27,4.27,0,0,0,31.74,49c-2-.53-2.26-1.71-2.25-3.51.07-11.93,0-23.85,0-35.78v-2h84.29c.05.6.14,1.19.14,1.77,0,12.24,0,24.47,0,36.7a2.39,2.39,0,0,1-1.58,2.55C110.77,49.61,109.51,51.13,108,52.29Zm7.68,10.34a5.52,5.52,0,0,1-5.4-5.4,5.49,5.49,0,1,1,11-.06A5.53,5.53,0,0,1,115.72,62.63Z"></path><path class="cls-3" d="M102.77,11.4H99.46v3.47h3.31Z"></path><path class="cls-3" d="M99.37,22.14h3.45v-3.4H99.37Z"></path><path class="cls-3" d="M99.47,29.45h3.31V26H99.47Z"></path><path class="cls-2" d="M60.6,160.44q8.79-8.16,17.59-16.32c2.16-2,4.27-4.06,6.54-5.93,7.64-6.32,16.41-8.06,25.08-3.39,7.07,3.81,14.23,3.59,21.62,3.55a3.52,3.52,0,0,0,1.75-.66c.88-.58,1.68-1.3,2.51-2,4.79-3.77,8.13-3.85,13.25-.17l7.21-5.71c4.31-3.43,9.76-3.08,12.9.82s2.57,9.33-1.72,12.8q-13.46,10.85-27,21.53a20.48,20.48,0,0,1-13,4.22c-10.47,0-20.93-.08-31.4.08A13.15,13.15,0,0,0,89.92,171c-4.27,2.39-8.37,5.09-12.48,7.75-2,1.28-3.42,1-4.82-.88-4-5.17-8-10.3-12-15.44ZM76,173.15c3.82-2.38,7.53-4.62,11.15-7a14.37,14.37,0,0,1,8.3-2.42c10.39.08,20.78,0,31.18,0a17.33,17.33,0,0,0,11.53-4c2.7-2.26,5.49-4.39,8.24-6.58,5.76-4.59,11.53-9.16,17.27-13.77,2.64-2.12,2.56-5.35-.29-6.12a5.23,5.23,0,0,0-3.92,1c-6,4.59-11.81,9.33-17.65,14.07a9.26,9.26,0,0,0-2,2.39,8.22,8.22,0,0,1-7,4.32c-3.76.22-7.51.5-11.26.72L100,157.05c-1.81.1-3.1-.55-3.18-2.53s1.06-2.82,2.89-2.93c2.94-.17,5.88-.32,8.82-.5l23.75-1.43c1.83-.11,2.94-1,2.94-2.89s-1.29-2.72-3-2.89a20.6,20.6,0,0,0-2.94,0c-7.76.42-15.07-.41-22.2-4.33-6.41-3.52-13.08-1.94-18.69,2.81-3.68,3.12-7.16,6.47-10.72,9.73s-6.94,6.39-10.51,9.68Zm63.93-30.28,4.57-3.7c-2.9-1.81-4.36.13-6.13,1.62Z"></path><path class="cls-4" d="M124.17,128.78a26.8,26.8,0,1,0,.31-53.59c-14.54-.06-26.79,11.92-26.9,26.31A26.85,26.85,0,0,0,124.17,128.78Zm.21-48.24a21.56,21.56,0,0,1,21.47,21.64c0,11.48-9.75,21.3-21.15,21.31a21.48,21.48,0,1,1-.32-42.95Z"></path><path class="cls-4" d="M122.52,104.46c.81.19,1.65.19,2.47.33a2.44,2.44,0,0,1,2.08,2.46,2.51,2.51,0,0,1-1.8,2.68c-1.28.46-2.58.15-3-1-.66-1.75-1.89-1.49-3.17-1.46a8.42,8.42,0,0,1-1.33,0c-1.25-.19-1.49.35-1.25,1.47a8.17,8.17,0,0,0,4.31,5.59c.48.27.91.42,1,1.14.18,2.46.23,2.46,2.74,2.46a6.41,6.41,0,0,1,1.16,0c1.16.2,1.5-.37,1.33-1.4a2.21,2.21,0,0,1,1.43-2.56,7.81,7.81,0,0,0,3.75-8.67,8.09,8.09,0,0,0-7.09-6.05,9.11,9.11,0,0,1-1.48-.22,2.46,2.46,0,0,1-1.94-2.57A2.59,2.59,0,0,1,123.79,94a2.3,2.3,0,0,1,2.9,1.33c.42,1.22,1.11,1.3,2.1,1.25a13,13,0,0,1,2.33,0c1.25.15,1.34-.43,1.14-1.43A8,8,0,0,0,128,89.56c-.47-.26-1-.37-1-1.12s.43-1.94-.22-2.35-1.71-.15-2.59-.18a8.3,8.3,0,0,1-1,0c-1.15-.18-1.66.24-1.45,1.42s-.27,1.92-1.43,2.55a7.64,7.64,0,0,0-3.8,8.17A8.05,8.05,0,0,0,122.52,104.46Z"></path></svg>