<?xml version="1.0" encoding="utf-8"?>
<!-- Generator: Adobe Illustrator 24.2.0, SVG Export Plug-In . SVG Version: 6.00 Build 0)  -->
<svg version="1.1" id="Layer_1" xmlns="http://www.w3.org/2000/svg" xmlns:xlink="http://www.w3.org/1999/xlink" x="0px" y="0px"
	 viewBox="0 0 214 195" style="enable-background:new 0 0 214 195;" xml:space="preserve">
<style type="text/css">
	.st0{fill:#383735;}
</style>
<g>
	<g>
		<path class="st0" d="M176,75.6c-2,2.7-3.6,6.1-6.1,8.2c-10.7,8.9-21.8,17.5-32.7,26.2c-5.3,4.3-11.4,6.2-18.2,6.2
			c-13.1,0-26.3,0.1-39.3-0.1c-3.6-0.1-6.8,0.8-9.8,2.8c-4.9,3.3-10,6.3-15,9.5c-2.6,1.7-4.4,1.2-6.2-1.1
			c-5.2-6.7-10.3-13.3-15.6-20c0-0.8,0-1.7,0-2.5c7.6-7,15.2-14.1,22.8-21.2c2.9-2.7,5.7-5.4,8.7-7.9c9.9-8,21.1-10.2,32.2-4.2
			c9.1,4.9,18.4,4.7,28,4.6c0.8,0,1.6-0.4,2.3-0.8c1.2-0.8,2.3-1.9,3.5-2.7c6-4.7,10.4-4.8,17-0.1c2.5-2,5.2-4.1,7.8-6.1
			c9-7.1,16-5.6,20.8,4.7C176,72.6,176,74.1,176,75.6z M52.9,121.3c4.9-3.1,9.5-5.8,14-8.8c3.6-2.3,7.4-3.5,11.6-3.4
			c13.2,0.2,26.5,0,39.7,0.1c5.7,0,10.7-1.6,15.2-5.3c4.4-3.7,9.1-7.3,13.7-10.9c6.5-5.2,13-10.2,19.3-15.5c1.2-1.1,2.3-3.2,2.1-4.8
			c-0.1-1.2-1.9-2.9-3.3-3.2c-1.4-0.2-3.2,0.6-4.4,1.6c-7.6,5.9-15.1,12-22.5,18c-1.1,0.9-2,2.1-2.8,3.3c-2.1,3.4-5.1,5.3-9,5.5
			c-4.8,0.2-9.5,0.6-14.2,0.9c-9.3,0.6-18.6,1.1-27.9,1.6c-2.5,0.2-4.3-0.6-4.3-3.4c0-2.7,1.8-3.6,4.2-3.6c3.6-0.2,7.2-0.4,10.7-0.6
			c10.3-0.6,20.5-1.2,30.8-1.9c2.3-0.2,3.9-1.2,4-3.6c0.1-2.7-1.6-3.7-4-3.9c-1.4-0.1-2.7-0.1-4.1,0c-9.9,0.6-19.1-0.6-28.1-5.6
			c-7.9-4.4-16.6-3-23.4,2.9c-9.7,8.2-18.8,17-28.4,25.8C45.3,111.4,49,116.3,52.9,121.3z M133.6,79.4c0.7,0.9,1.4,1.7,2.1,2.7
			c2-1.6,3.8-3.1,5.8-4.7C138.3,75.7,137.8,75.8,133.6,79.4z"/>
	</g>
	<g id="xLu0EG.tif_9_">
		<g>
			<path class="st0" d="M117.3,69.1c0-1.5,0-2.9,0-4c-3.9-1.1-7.6-2.3-11.5-3.4c0.9-3.2,1.7-5.8,2.4-8.5c3,0.8,5.8,1.7,8.7,2.2
				c1.6,0.3,3.4,0.1,5.1-0.1c1.3-0.2,2.6-0.9,2.7-2.3c0.2-1.6-1-2.5-2.3-3.1c-1.5-0.6-3.2-1.1-4.7-1.7c-1.9-0.8-3.9-1.5-5.7-2.5
				c-7.8-4.4-8.1-14.1-0.7-19.1c1.4-1,3.1-1.6,4.6-2.2c0.9-0.3,1.2-0.6,1.2-1.6c-0.1-1.2,0-2.4,0-3.8c2.4,0,4.8,0,7.1,0
				c0,1.5,0,2.9,0,4.4c3.3,0.6,6.5,1.3,10,2c-0.6,3-1.3,5.7-1.9,8.6c-2.2-0.6-4.3-1.3-6.5-1.6c-1.7-0.3-3.4-0.3-5.1-0.2
				c-1.4,0.1-2.7,0.6-3.1,2.2c-0.2,1.6,0.9,2.5,2.2,3.1c2.2,1.1,4.5,1.9,6.6,2.9c1.9,1,4,2,5.6,3.4c6.1,5,5.5,14.1-1.4,18.1
				c-1.9,1.1-4.1,1.7-6.5,2.7c0,1.3,0,2.8,0,4.5C122.1,69.1,119.9,69.1,117.3,69.1z"/>
		</g>
	</g>
</g>
<g>
	<path class="st0" d="M32.1,145.7v21.8h-4.7v-21.8H32.1z"/>
	<path class="st0" d="M36.1,145.7h4.3l7.5,11.5c0.5,0.8,1,1.5,1.4,2.3c0.4,0.7,0.7,1.3,0.9,1.7h0.1c-0.1-1.5-0.2-3-0.2-4.5
		s0-3,0-4.5v-6.5h4.4v21.8h-4.3l-7-10.6c-0.3-0.5-0.6-0.9-0.9-1.4c-0.3-0.5-0.6-1-0.8-1.4c-0.3-0.5-0.5-0.9-0.7-1.3
		c-0.2-0.4-0.3-0.7-0.4-1h-0.1c0.1,1.6,0.2,3.1,0.2,4.6s0,3,0,4.5v6.6h-4.4V145.7z"/>
	<path class="st0" d="M65.4,145.7H73c1.3,0,2.4,0.1,3.4,0.4c1,0.3,1.9,0.7,2.6,1.3s1.3,1.3,1.7,2.1c0.4,0.8,0.6,1.8,0.6,2.8
		c0,1.2-0.2,2.3-0.7,3.2s-1.1,1.6-1.9,2.2c-0.8,0.6-1.7,1-2.8,1.3c-1.1,0.3-2.2,0.4-3.4,0.4H70v7.9h-4.7v-21.6H65.4z M70.1,155.9H72
		c0.6,0,1.2-0.1,1.7-0.2c0.5-0.1,1-0.3,1.4-0.6s0.7-0.6,0.9-1c0.2-0.4,0.3-1,0.3-1.6c0-1.1-0.4-2-1.1-2.5c-0.8-0.5-1.7-0.8-2.9-0.8
		H70L70.1,155.9L70.1,155.9z"/>
	<path class="st0" d="M83.9,145.7H98v3.7h-9.4v5h8.5v3.6h-8.5v5.8h9.5v3.7H83.9V145.7z"/>
	<path class="st0" d="M100.9,145.7h8.3c1.2,0,2.3,0.2,3.2,0.5s1.7,0.8,2.3,1.4c0.6,0.6,1.1,1.3,1.4,2.1s0.5,1.7,0.5,2.6
		c0,0.9-0.1,1.7-0.4,2.3c-0.3,0.7-0.6,1.3-1,1.8s-0.9,0.9-1.3,1.2s-1,0.6-1.4,0.8l5.3,8.8h-5.4l-4.2-8h-2.5v8H101v-21.5H100.9z
		 M105.6,155.8h1.9c1.2,0,2.3-0.3,3.1-0.8c0.8-0.5,1.2-1.3,1.2-2.5c0-1-0.3-1.8-1-2.4c-0.6-0.6-1.6-0.8-2.8-0.8h-2.4
		C105.6,149.3,105.6,155.8,105.6,155.8z"/>
	<path class="st0" d="M126.8,145.3c1.4,0,2.6,0.1,3.7,0.4c1.1,0.3,2,0.6,2.9,1.1l-1.1,3.5c-0.9-0.5-1.9-0.8-2.7-1.1
		c-0.9-0.2-1.7-0.4-2.6-0.4c-1.1,0-2,0.2-2.6,0.7s-0.9,1-0.9,1.8s0.3,1.3,0.8,1.7s1.4,0.8,2.6,1.1l2.1,0.7c1.7,0.6,3.1,1.4,4.1,2.5
		s1.5,2.4,1.5,3.9c0,0.9-0.2,1.8-0.5,2.6s-0.9,1.5-1.6,2.1c-0.7,0.6-1.6,1.1-2.6,1.4c-1,0.3-2.2,0.5-3.6,0.5c-2.6,0-5-0.5-7.1-1.6
		l1.1-3.5c1,0.5,2,0.9,2.9,1.1c0.9,0.3,1.9,0.4,3,0.4c1.2,0,2.1-0.2,2.8-0.7c0.6-0.4,0.9-1.1,0.9-1.9c0-0.3-0.1-0.5-0.2-0.8
		c-0.1-0.3-0.3-0.5-0.6-0.8c-0.3-0.2-0.7-0.5-1.1-0.7c-0.5-0.2-1.1-0.5-1.8-0.7l-1.8-0.6c-0.8-0.3-1.5-0.6-2.2-1s-1.2-0.8-1.7-1.3
		s-0.8-1.1-1.1-1.7c-0.3-0.7-0.4-1.4-0.4-2.3c0-0.9,0.2-1.8,0.5-2.6s0.9-1.5,1.5-2.1c0.7-0.6,1.5-1,2.5-1.3S125.5,145.3,126.8,145.3
		z"/>
	<path class="st0" d="M147.2,145.3c1.5,0,3,0.3,4.3,0.8s2.4,1.2,3.4,2.2c0.9,1,1.7,2.1,2.2,3.5s0.8,3,0.8,4.8s-0.3,3.3-0.8,4.7
		c-0.6,1.4-1.3,2.6-2.3,3.5c-1,1-2.1,1.7-3.4,2.2c-1.3,0.5-2.8,0.8-4.3,0.8s-3-0.2-4.3-0.7s-2.4-1.2-3.4-2.2s-1.7-2.1-2.2-3.5
		s-0.8-3-0.8-4.8s0.3-3.3,0.8-4.7c0.6-1.4,1.3-2.6,2.3-3.6s2.1-1.7,3.4-2.2C144.2,145.6,145.7,145.3,147.2,145.3z M141.4,156.6
		c0,1.3,0.2,2.4,0.5,3.4s0.7,1.7,1.3,2.4c0.5,0.6,1.1,1.1,1.8,1.4c0.7,0.3,1.5,0.5,2.3,0.5s1.5-0.2,2.2-0.5s1.3-0.8,1.8-1.4
		c0.5-0.6,0.9-1.4,1.2-2.4s0.4-2.1,0.4-3.4c0-1.3-0.2-2.5-0.5-3.5s-0.7-1.8-1.3-2.4s-1.1-1.1-1.8-1.4c-0.7-0.3-1.5-0.4-2.3-0.4
		s-1.6,0.2-2.2,0.5c-0.7,0.3-1.3,0.8-1.8,1.4c-0.5,0.6-0.9,1.4-1.2,2.4C141.5,154.2,141.4,155.3,141.4,156.6z"/>
	<path class="st0" d="M160.8,145.7h4.3l7.5,11.5c0.5,0.8,1,1.5,1.4,2.3c0.4,0.7,0.7,1.3,0.9,1.7h0.1c-0.1-1.5-0.2-3-0.2-4.5
		s0-3,0-4.5v-6.5h4.4v21.8h-4.3l-7-10.6c-0.3-0.5-0.6-0.9-0.9-1.4s-0.6-1-0.8-1.4s-0.5-0.9-0.7-1.3s-0.3-0.7-0.4-1H165
		c0.1,1.6,0.2,3.1,0.2,4.6s0,3,0,4.5v6.6h-4.4V145.7z"/>
</g>
</svg>
