<?xml version="1.0" encoding="utf-8"?>
<!-- Generator: Adobe Illustrator 24.2.0, SVG Export Plug-In . SVG Version: 6.00 Build 0)  -->
<svg version="1.1" id="Layer_1" xmlns="http://www.w3.org/2000/svg" xmlns:xlink="http://www.w3.org/1999/xlink" x="0px" y="0px"
	 viewBox="0 0 100 84" style="enable-background:new 0 0 100 84;" xml:space="preserve">
<style type="text/css">
	.st0{fill:#E6E6E6;}
</style>
<g>
	<path class="st0" d="M98.5,7.5c-18.4,9.9-27.6,21.7-27.6,35.6c0,4.3,0.9,6.5,2.7,6.5l1.8-0.4c1.5-0.5,2.6-0.7,3.5-0.7
		c5.2,0,9.5,1.6,13.1,4.8c3.6,3.2,5.4,7.2,5.4,11.9c0,4.5-1.9,8.4-5.7,11.5c-3.8,3.2-8.4,4.7-13.8,4.7c-7.5,0-13.7-2.6-18.6-7.8
		c-4.9-5.2-7.3-11.7-7.3-19.5c0-8.9,2.1-17.1,6.3-24.5c4.2-7.4,10.5-14,19-19.8c8.5-5.8,13.9-8.7,16.2-8.7c1.6,0,2.9,0.6,3.9,1.9
		c1,1.3,1.5,2.4,1.5,3.3L98.5,7.5z M47.9,7.5c-18.4,9.9-27.6,21.7-27.6,35.6c0,4.3,0.9,6.5,2.7,6.5l1.9-0.4c1.5-0.5,2.6-0.7,3.5-0.7
		c5.3,0,9.7,1.6,13.2,4.8c3.5,3.2,5.3,7.2,5.3,11.9c0,4.5-1.9,8.4-5.7,11.5c-3.8,3.2-8.4,4.7-13.8,4.7c-7.5,0-13.7-2.6-18.6-7.8
		C3.9,68.5,1.5,62,1.5,54.2c0-8.8,2.1-16.9,6.2-24.3c4.1-7.3,10.5-14,19-19.9c8.5-5.9,14-8.9,16.3-8.9c1.6,0,2.9,0.6,3.9,1.9
		c1,1.3,1.5,2.4,1.5,3.3L47.9,7.5z"/>
</g>
</svg>
