<?xml version="1.0" standalone="no"?>
<!DOCTYPE svg PUBLIC "-//W3C//DTD SVG 20010904//EN"
 "http://www.w3.org/TR/2001/REC-SVG-20010904/DTD/svg10.dtd">
<svg version="1.0" xmlns="http://www.w3.org/2000/svg"
 width="256.000000pt" height="256.000000pt" viewBox="0 0 256.000000 256.000000"
 preserveAspectRatio="xMidYMid meet">
<metadata>
Created by potrace 1.11, written by Peter Selinger 2001-2013
</metadata>
<g transform="translate(0.000000,256.000000) scale(0.100000,-0.100000)"
fill="#000000" stroke="none">
<path d="M190 1822 c-19 -8 -51 -16 -70 -17 -27 -2 -36 -7 -38 -23 -4 -24 17
-37 73 -47 22 -4 54 -12 72 -18 31 -10 32 -11 12 -25 -11 -8 -38 -15 -60 -15
l-39 -1 0 -254 c0 -214 3 -259 16 -288 30 -63 133 -131 269 -179 69 -24 84
-23 176 13 15 6 30 9 33 6 3 -2 4 -1 1 2 -2 4 21 19 53 34 49 24 140 100 143
119 0 3 3 15 5 26 4 16 8 464 5 512 -1 6 -10 9 -23 5 -13 -3 -19 -1 -15 5 4 6
26 14 50 17 77 12 117 75 60 97 -14 5 -33 9 -40 7 -16 -3 -18 -22 -3 -24 6 -1
15 -2 21 -3 8 -1 7 -6 -2 -17 -10 -13 -24 -15 -64 -10 -56 6 -137 21 -205 36
-95 22 -167 29 -225 24 -45 -4 -74 -1 -115 14 -50 17 -58 18 -90 4z m595 -143
c2 -3 -7 -6 -20 -7 -13 -1 -27 2 -30 7 -5 9 41 9 50 0z"/>
<path d="M1030 1680 c0 -21 14 -27 53 -25 l27 2 0 -117 c0 -89 3 -119 13 -123
27 -10 33 10 32 120 -1 88 2 114 13 118 8 3 18 3 23 0 13 -9 49 14 43 28 -3 8
-34 12 -104 13 -89 1 -100 -1 -100 -16z"/>
<path d="M1279 1697 c-1 -1 -2 -62 -3 -135 -1 -104 2 -136 13 -145 8 -7 17
-11 20 -10 3 2 8 40 11 85 5 80 6 83 33 92 38 14 44 2 42 -89 -1 -74 9 -96 37
-79 15 9 5 178 -11 198 -15 18 -58 21 -81 6 -12 -8 -16 -2 -20 32 -4 29 -10
42 -22 44 -10 1 -18 2 -19 1z"/>
<path d="M1526 1604 c-14 -15 -26 -34 -27 -43 -5 -84 6 -113 52 -137 27 -13
42 -14 107 -4 1 0 2 9 2 20 0 17 -6 19 -41 15 -30 -3 -45 1 -60 16 -37 37 -30
42 59 41 49 0 52 1 52 24 0 32 -25 80 -45 88 -35 13 -73 5 -99 -20z m92 -35
c2 -13 -5 -17 -32 -17 -34 0 -47 14 -29 32 13 13 58 1 61 -15z"/>
<path d="M1037 1387 c-9 -6 -9 -10 1 -14 15 -6 18 -253 2 -253 -5 0 -10 -6
-10 -13 0 -11 25 -14 74 -8 5 1 2 8 -5 17 -9 11 -14 48 -15 110 0 52 1 94 2
94 2 0 47 -127 49 -140 5 -29 20 -50 35 -50 20 0 22 3 61 120 l28 85 1 -107
c0 -62 -4 -109 -10 -113 -21 -13 1 -22 47 -19 26 1 50 2 52 3 2 1 -3 8 -10 17
-19 23 -20 241 -2 256 7 6 13 13 13 17 0 5 -73 6 -100 2 -3 -1 -17 -37 -30
-81 -22 -70 -40 -102 -40 -69 0 6 -11 43 -25 83 l-26 71 -40 0 c-23 0 -46 -4
-52 -8z"/>
<path d="M1399 1390 c-19 -5 -20 -7 -7 -18 12 -10 15 -35 13 -125 -1 -61 -5
-121 -9 -132 -7 -20 -4 -21 46 -19 65 2 63 1 45 19 -11 11 -15 41 -14 130 0
64 4 118 9 121 4 3 8 11 8 17 0 12 -51 16 -91 7z"/>
<path d="M1626 1389 c-65 -18 -97 -75 -91 -163 5 -87 39 -126 114 -131 63 -4
86 7 87 43 0 39 -19 42 -42 7 -21 -32 -47 -32 -73 1 -16 21 -21 41 -21 90 0
78 12 111 46 126 24 11 29 10 50 -17 26 -33 38 -28 40 16 1 23 -3 29 -20 30
-11 1 -30 2 -41 4 -11 1 -33 -2 -49 -6z"/>
<path d="M1865 1392 c-80 -18 -117 -132 -77 -234 25 -63 132 -84 186 -37 66
57 62 223 -7 257 -26 13 -75 20 -102 14z m58 -34 c9 -7 21 -26 26 -43 12 -43
4 -143 -12 -169 -20 -30 -61 -32 -75 -3 -43 83 -22 227 33 227 6 0 19 -6 28
-12z"/>
<path d="M80 1240 l-13 -31 -25 23 -25 23 7 -45 c14 -97 91 -214 180 -274 21
-14 36 -26 32 -26 -4 0 -2 -9 4 -19 13 -25 104 -59 164 -62 25 -2 46 -6 46
-10 0 -12 -59 -38 -62 -28 -5 15 -58 21 -58 7 -1 -7 -7 -2 -15 12 l-14 25 -2
-25 c-1 -19 -3 -20 -6 -7 -3 12 -11 17 -22 14 -9 -2 -23 2 -30 10 -7 8 -23 12
-35 9 -12 -3 -28 -1 -36 5 -12 8 -10 9 8 4 33 -9 27 12 -8 30 l-31 16 -15 -37
c-15 -36 -13 -64 5 -64 5 0 11 7 15 15 6 18 36 9 36 -11 0 -18 37 -37 57 -29
9 3 20 0 24 -6 4 -7 22 -14 41 -15 18 -1 33 -3 33 -4 0 -1 12 -4 28 -6 15 -1
27 2 27 8 0 6 8 4 18 -5 21 -20 62 -23 62 -5 0 9 3 9 12 0 15 -15 48 -16 48
-2 0 7 6 7 18 1 11 -6 29 -9 40 -8 19 1 22 7 22 42 0 23 -4 45 -10 51 -6 6 0
10 18 12 65 5 161 56 162 85 1 7 24 30 52 51 61 48 102 109 128 195 27 87 26
101 -5 71 l-24 -23 -10 27 c-14 36 -31 33 -31 -6 0 -74 -87 -198 -169 -241
-21 -11 -31 -22 -27 -32 8 -23 -66 -39 -179 -39 -115 0 -177 15 -207 50 -12
13 -27 24 -34 24 -20 0 -110 93 -132 136 -11 22 -24 58 -27 79 -12 63 -20 71
-35 35z m490 -428 c0 -16 -41 -33 -55 -22 -7 6 -19 8 -27 5 -9 -4 -18 1 -21 9
-5 13 3 16 48 16 30 0 55 -3 55 -8z m-340 -12 c0 -5 -5 -10 -11 -10 -5 0 -7 5
-4 10 3 6 8 10 11 10 2 0 4 -4 4 -10z m350 -40 c0 -5 -5 -10 -11 -10 -5 0 -7
5 -4 10 3 6 8 10 11 10 2 0 4 -4 4 -10z"/>
<path d="M1040 1050 c-14 -8 -9 -179 5 -183 6 -1 11 13 12 31 2 44 5 48 53 51
11 0 20 8 20 17 0 9 -8 14 -17 13 -42 -4 -53 1 -53 24 0 21 4 23 40 22 32 -1
40 2 38 14 -3 16 -76 25 -98 11z"/>
<path d="M1189 1034 c-17 -18 -22 -35 -22 -75 2 -90 66 -128 122 -71 24 24 28
35 26 76 -5 83 -76 123 -126 70z m84 -25 c29 -40 7 -119 -33 -119 -25 0 -38
20 -43 63 -7 65 44 103 76 56z"/>
<path d="M1355 1054 c-6 -2 -9 -37 -8 -81 1 -66 4 -80 23 -95 28 -23 52 -23
80 0 19 16 23 29 25 88 2 79 -2 95 -19 88 -8 -3 -12 -25 -11 -63 1 -72 -8
-101 -34 -101 -29 0 -35 16 -34 92 1 68 -3 79 -22 72z"/>
<path d="M1519 1058 c-1 -1 -3 -44 -4 -95 -2 -71 0 -93 11 -97 16 -6 17 -1 15
72 -1 28 1 52 4 52 3 0 19 -28 36 -63 26 -56 58 -83 60 -53 6 86 2 177 -8 180
-18 7 -21 -3 -19 -67 0 -31 -1 -57 -4 -57 -3 0 -18 28 -35 62 -25 51 -50 82
-56 66z"/>
<path d="M1686 1051 c-3 -4 -4 -47 -4 -97 l0 -91 45 3 c64 3 88 29 87 95 -1
62 -22 87 -82 93 -23 2 -44 1 -46 -3z m84 -43 c11 -12 20 -32 20 -45 0 -33
-28 -72 -48 -68 -9 2 -20 4 -24 4 -5 1 -8 28 -8 60 0 48 3 60 18 64 9 3 18 5
19 6 1 0 11 -9 23 -21z"/>
<path d="M1892 1031 c-33 -86 -51 -156 -43 -164 6 -6 16 3 25 22 22 42 61 43
78 1 9 -19 17 -27 25 -22 9 6 5 28 -16 89 -16 45 -27 84 -24 86 2 3 -5 7 -16
10 -14 3 -22 -2 -29 -22z m37 -73 c1 -5 -6 -8 -14 -8 -16 0 -19 9 -8 36 6 16
7 16 14 -2 4 -10 8 -22 8 -26z"/>
<path d="M2010 1038 c0 -10 3 -17 8 -17 37 6 41 -1 44 -78 4 -99 22 -102 25
-4 2 80 3 81 30 85 10 2 18 9 18 17 0 10 -16 14 -62 14 -54 1 -63 -2 -63 -17z"/>
<path d="M2248 1033 c-24 -26 -29 -99 -8 -138 16 -29 54 -40 91 -24 47 19 58
123 17 166 -27 29 -71 27 -100 -4z m83 -19 c16 -20 15 -89 -1 -109 -32 -39
-80 1 -74 62 5 59 45 83 75 47z"/>
<path d="M2409 1037 c-2 -26 -2 -147 0 -164 1 -7 7 -10 15 -7 10 4 13 22 12
65 -2 32 0 59 3 59 4 0 19 -29 34 -64 23 -52 32 -63 48 -59 17 5 19 15 19 94
0 54 -4 90 -11 95 -18 11 -25 -11 -24 -76 2 -69 -3 -67 -35 12 -24 60 -59 85
-61 45z"/>
<path d="M2165 960 c0 -74 3 -90 15 -90 13 0 15 16 15 90 0 74 -2 90 -15 90
-12 0 -15 -16 -15 -90z"/>
<path d="M826 858 c-9 -12 -16 -17 -16 -10 0 16 -25 15 -42 0 -7 -7 -27 -13
-45 -12 -18 1 -30 -3 -26 -9 3 -5 -3 -7 -14 -3 -26 8 -62 -28 -40 -41 7 -4 16
-16 20 -25 8 -23 37 -23 37 -1 0 13 3 14 12 5 15 -15 58 -16 58 -2 0 6 10 8
23 5 27 -7 53 17 41 37 -4 8 0 7 12 -3 21 -17 50 -15 57 5 7 18 -29 76 -47 76
-8 0 -22 -10 -30 -22z m-24 -54 c6 -8 1 -11 -17 -10 -28 1 -31 10 -12 30 8 10
13 11 16 3 2 -7 8 -17 13 -23z m-97 -3 c3 -5 1 -12 -5 -16 -5 -3 -10 1 -10 9
0 18 6 21 15 7z"/>
</g>
</svg>
