<?xml version="1.0" encoding="utf-8"?>
<!-- Generator: Adobe Illustrator 24.2.0, SVG Export Plug-In . SVG Version: 6.00 Build 0)  -->
<svg version="1.1" id="Layer_1" xmlns="http://www.w3.org/2000/svg" xmlns:xlink="http://www.w3.org/1999/xlink" x="0px" y="0px"
	 viewBox="0 0 615 304" style="enable-background:new 0 0 615 304;" xml:space="preserve">
<style type="text/css">
	.st0{fill:#E2DED5;}
	.st1{fill:#FFFFFF;}
</style>
<g id="VZRgyI.tif_2_">
	<g>
		<polygon class="st0" points="184.8,47.3 184.8,47.3 184.8,47.3 		"/>
		<path class="st0" d="M98.3,23.4c-0.1-0.1-0.1-0.2-0.2-0.3c0,0.1,0,0.2,0,0.3C98.1,23.3,98.2,23.3,98.3,23.4z"/>
		<path class="st0" d="M125.2,23.8C125.2,23.8,125.2,23.7,125.2,23.8C125.1,23.7,125.1,23.8,125.2,23.8
			C125.1,23.8,125.2,23.8,125.2,23.8z"/>
		<path class="st0" d="M105.8,26.3c0,0,0-0.1,0-0.1C105.8,26.2,105.8,26.2,105.8,26.3C105.8,26.3,105.8,26.3,105.8,26.3z"/>
		<path class="st0" d="M52.8,47c-0.1,0.1-0.1,0.3-0.2,0.4C52.6,47.3,52.7,47.2,52.8,47z"/>
		<path class="st0" d="M39.8,50c0.3-0.5,0.6-0.8,1.1-1.1C40.3,49.1,40,49.4,39.8,50z"/>
		<path class="st0" d="M74.3,42.3c-0.2-0.2-0.4-0.2-0.6-0.3C73.9,42.1,74.1,42.2,74.3,42.3z"/>
		<path class="st0" d="M138.5,181.9c0.2-0.2,0.4-0.4,0.6-0.5C138.8,181.4,138.6,181.6,138.5,181.9z"/>
		<path class="st0" d="M176.9,145.7c0.3,0.5,0.6,1,0.9,1.6C177.8,146.5,177.4,146.1,176.9,145.7z"/>
		<path class="st0" d="M136.8,18.4c-2.9-0.7-3.5,1.2-4.5,2.7c-0.6,0.9,0.3,1.6,1,2c1.4,0.7,1-0.6,1.4-1.2c1.4-2.3,0.8,0.4,1.2,0.5
			c0.9-3.5,3.4-3.1,6-2.5c1.3,0.3,1.6,1.8,0.4,2c-4.9,1.1-4.8,5.8-6.9,8.9c-0.5,0.7-1.1,1.2-1.7,1.8c-1.1,1.5-2.7,2.1-4.5,2.3
			c-0.7-2.6,3.3-2.7,2.2-5.2c-1.9,1.3-3.6,1-5.6-0.6c0.9-1.7,2.5-1.1,3.8-1.2c-1.9-1-3.7-2-4.3-4.2c0,0-0.1,0-0.1,0
			c-1.5,1.9-3,3.8-5.6,4.3c-1.7,0.6-3.2,0.4-4.5-0.8c0.9,1.9-0.4,2.5-1.8,2.4c-1.1-0.1-3.4,1.5-3.1-1.5c-0.8,0.3-1.6,0.6-2.4,0.9
			c-2.2,0.6-5.1,6.2-6.1-0.9c-1-0.9-0.7-2.1-0.7-3.2c0-0.6,0-1.3-0.1-1.9c-0.9,1.1-1.8,1.8-2.6,0.3c-0.1,0-0.1,0-0.2-0.1
			c0.1,2.3-1.3,3.5-3.3,3.9c-1.5,0.3-2.6-0.3-2.4-2.2c-1.9,4-4.7,1-6.9,0.6c-1.5-0.3-2.7-2.3-4-3.5c-1.3-0.1-2.7-0.2-4-0.3
			c-0.4,1.4,0.8,3.2-1.4,4c-2.2,1-4,3.4-6.9,2.6c-1.6,0.5-3.1,1.2-4.8,0.4c1.6-2.4,7.3-0.5,5.9-5.8c-5.3-2.5-10.4-1.3-15.4,1
			c0.5,0,1.1-0.2,1.5,0.1c1,0.7,0.1,1.1-0.4,1.2c-3.2,0.6-6,0.1-8.1-2.6c-2.7-2.9-6.4-0.4-9.4-1.7c0.2,0.9-0.4,2.6-0.8,1.6
			c-1.9-4.9-6.4-3-9.6-4.5c-0.4-0.2-0.5-0.8-0.8-1.2c-4.3-3.4-3.5,1.7-5,3c0.5,5.3,4.4,6.2,8.7,7.3c8.2,2.1,16.9,1.3,24.8,5
			c4.6,2.2,9.2,4.4,14.3,5.2c1.4,0.2,1.1,0.9,0.8,1.8c4-0.2,7.8-1.7,11.6-2.8c0.6-0.2,1.4-0.9,1.6-0.1c0.4,1.5,0,3.2-1.7,3.7
			c-2.7,0.9-5.4,1.5-8.2,2.2c-3.1,1.1-6.5,1.5-8.7,4.4c-0.2,0.3-1,0.6-1-0.1c-0.1-0.6,0.4-1.2,0.6-1.8c-0.4-1-0.7-2.1-1.1-3.1
			c-4.3,0.6-7,4.8-11.4,5.3c-0.1,0.1-0.1,0.3-0.2,0.4c-1.4,2.2-3.8,1.1-5.7,1.2c-3.2,0.1-5,0-6,0.3c-0.5,0.3-0.8,0.6-1.1,1.1
			c-0.3,1-0.2,2.8-0.2,6.1c0,37.5,0,74.9,0,112.4c0,2,0.7,4.1-0.9,5.9c0.4,9.8,5.3,17.3,12.3,23.7c20.2,18.2,44.4,28.5,70.2,35.6
			c2,0.6,3.9,1.9,6.3,1.2c25.7-6.7,50-16.3,70.7-33.5c5.9-4.9,11.5-10.1,14-17.7c-0.9-0.8-1-1.9-0.7-2.8c2.5-7.3,1.9-14.8,1.9-22.2
			c0-34.7-0.1-69.5,0.1-104.2c0-4.5-1.1-6-5.7-5.7c-6.1,0.4-12.3,0.1-18.4,0.1c-1.6,0-3.5,0.7-4.6-1.3c0,0,0,0,0,0l0,0l0,0l0,0
			c0.6-2.5,0.7-4.4-2.9-3.7c-1.5,0.3-3,0.1-4.5,0.1c0.8,1.3,2.3,1.7,3.6,2.6c-5.5,0-10.8,1.8-17.3,0c4.4-1.5,8.1-1,11.3-2.6
			c0,0,0,0,0,0c0.8-1.8-0.4-5.8,3.6-4.5c13.1,4.3,26.3,4.2,39.5,1.1c5.3-1.2,10.9-1.7,15.4-5.5c3.4-2.9,5.9-6,5.6-10.8
			c-0.3-4.2-3.8-4.9-6.6-6.7c-4.8-3.1-8.9-0.6-13.5,0.2c1,2,2.7,1.9,4,1.2c4.2-2.3,5.4,1.9,7.3,3.5c2.2,1.9-1.4,3.2-1.8,5.1
			c-0.6,2.7-3.4,1.7-4.9,2.9c1,0,2,0.1,3.4,0.2c-8.9,3.5-19.1,3.9-27.9,1.2c-0.6-0.2-1.6-0.9-1.7-0.8c-3.1,3.5-8.2-0.5-11.7,3.4
			c-1.1,1.2-5.8,1.1-8-1.8c-1.5-0.2-1.1-1.2-1-2.1c-0.7-3.3-3.1-1.3-3.8-0.7c-6.7,5.8-11.8,2.7-16.7-2.5c-0.9,0.9-1.9,1.8-2.8,2.7
			c1.4-2.9,1.7-6.7,5.7-7.5c0-0.4,0.1-0.8,0.1-1.2c-3.9-0.6-7.7-1.4-11.3-3.1C144.2,19.4,140.4,19.3,136.8,18.4z M138.7,30.4
			c0.7-0.3,1.6-0.2,1.9,0.8c-0.3,1.5-1.3,2.2-2.6,2.6c-0.7,0.2-1.2-0.2-1.3-1C136.5,31.2,137.7,30.8,138.7,30.4z M57,116.2
			c-0.2-0.5-0.6-1.3-0.5-1.3c3.4-1.6,2.5-5.2,3.5-7.8c-1.7-0.4-2.4-1.4-2.5-3.7c3.2,2.5,6.3,1,9.5,0.6c0.4,0,2.4-2.6,1.5,0.5
			c-0.4,1.3,5.8,3.3-0.4,3.7c1.2,0.9,2.4,1.9,0,2.8c6.8,9.5,5.1,17.7-5.4,23.8c-0.8-3.5,1.6-5.7,3.8-8.3c-1.5,0.3-2.3,0.5-3.1,0.7
			c0,0,0,0,0,0h0c-5.9,2.4-5.2-4.1-7.8-6.1C54.3,120,53.5,117,57,116.2z M122.2,156.3c-0.1,0.2-0.2,0.3-0.2,0.5
			c-23.3,0-46.5,0-69.8,0c0-0.2,0-0.3,0-0.5C75.5,156.3,98.9,156.3,122.2,156.3z M83.6,123.2L83.6,123.2c-0.3-1.1-1.7-1.7-1-3.3
			c2.5,0.6,4.9,2,7.9,0.3c1.6-0.9,4.4,1,4.2,4c-0.7,1-1.3,2.1-2,3.1c8.5,8.4,2.6,17.8-3.3,22.7c-0.7,0.6-1.4,1.1-2.2,0.3
			c-1.2-1.2,0.7-1.6,0.7-2.1c0-2.4,2.2-3.3,3.1-4.9c-0.6-1.6-1.8-0.1-2.6-0.6c-0.8-0.5-2.2-0.7-1.9-1.8c0.2-0.9,1.4-1.5,2.5-1.4
			c0.8,0.1,1.7,1.8,2.4,0.2c0.4-1.1-0.9-1.6-1.7-2.2c-0.5,0.9-1.4,1-2.3,1c-2,0.7-4.4,2.3-3.9-2c-0.3-0.3-0.7-0.5-1-0.8
			c-1.1-0.3-1.9-1-1.3-2c0.6-1.1,1.1-2.9,3.2-2C82.9,129,81.8,126.2,83.6,123.2z M111.4,124.9c0.1-2.1,2.9-0.9,5.2-0.7
			c-1.4-2.1-2.7-3.8-3.6-5.6c-0.8-1.6-3.3-2.7-1.9-5.2c2.3-0.3,2,3.3,4.7,2.6c-0.1-1.9-2.5-3.3-1.6-5.4c6.3,1.8,9,7.2,6.8,14.1
			c-1.2,3.6-3.6,6.5-6.5,8.9c-0.8,0.7-1.7,1.5-2.6,0.6c-1.3-1.1,0.5-1.5,0.7-2.2c0.6-2.1,2.1-3.6,4.1-5.2
			C114.4,126.1,111.2,127.7,111.4,124.9z M109.6,123.5c-0.4,0.1-1.3-1.1-1.5-1.7c-0.3-1.4,1.1-1.4,2-1.7c1,0,1.8,0.5,1.9,1.3
			C112,122.7,110.8,123.3,109.6,123.5z M119.3,107.9c-3.8-1.3-8-0.3-11.6-2.2c-0.4-0.2-0.4-0.9-1.3-2.9c3.9,2.5,6.8,2.2,9.5,0.9
			c3.4-1.5,2.1,3.2,4.4,3.1C119.9,107.2,119.4,108,119.3,107.9z M108.2,115.6c0.6,0.1,1.1,1.2,1.5,1.8c-0.4,1.4-1.5,1.9-2.6,2.1
			c-1.1,0.2-1.5-0.8-1.2-1.6C106.4,116.9,106.8,115.5,108.2,115.6z M123.2,224.2c-0.1,0.1-0.2,0.1-0.3,0.2
			c-16.4-6.4-32.8-13-48.4-21.4c-14.5-7.8-22.8-19.5-23.9-36c-0.1-2,0.1-4.1,0.2-6.1c0.1-2.2,1-3.2,3.5-3.2c23,0.2,46,0.3,69,0.4
			c1.9,1.1,1.2,3,1.2,4.6c0,19,0,37.9,0,56.9C124.4,221.2,125.1,223.1,123.2,224.2z M139.5,192.4c-0.3,0.1-0.8-0.5-1.2-0.8
			c0,0,0,0,0,0c-1.2-0.2-1.8-1.2-1.5-2.2c0.7-2.9,0.1-5.2-2.5-6.9c-2-1.3-1.7-3.5-1.4-5.5l0,0c-0.6-1.4,0.7-2.2,0.9-3.4
			c-0.3-1.6,0.2-2.6,1.8-3.3c1.5-0.7,1.6,0.2,2.1,1c1.9-0.7,2.1,2,3.8,1.9c1.5-1.6-2.5-3.7,0.2-4.7c2.2-0.8,3.7,1.4,4.8,3
			C151.1,177.6,146.9,190.1,139.5,192.4z M133.9,161.3c3.7,1.4,3.7,1.4,11.4-0.4c0.4,4.3-2.5,4.2-5.3,4.3
			C137.2,165.2,134.2,165.6,133.9,161.3z M166.1,207.3c-0.7,0.5-1.2,2-2.4,0.9c-1.3-1.2,0.2-1.9,0.4-2.8c0.5-2.2,2.8-2.8,3.8-5
			c-2-0.5-4.6,0.8-5.6-1.9c0,0,0,0,0,0c0,0,0,0,0,0c0-0.5-0.1-0.9-0.1-1.4l0,0l0,0c-1.3,0.1-2.6-0.6-2.4-1.8
			c0.3-1.6,1.8-2.1,3.4-1.6c-0.6-0.9-1.5-1-2.4-1c0,0,0,0,0,0c-1.1-0.3-2.1,1.5-3.2,0.1c-0.8-1.1,0.4-1.8,0.5-2.8
			c1.7-8.3,1.7-8.3,10.3-8.5c-1.8-1.3-3.9-0.9-5.8-0.8c-2.1,0.1-3.6-0.4-4-3.2c2.8,0.7,5.5,1.8,8.4,0.1c1.8-1,2.8,2.6,4.9,2.6
			c-0.3,1.6-1.4,1.7-2.7,1.5c1.4,1.7,3.1,3.3,2.3,5.9C174.7,195.8,172.9,202,166.1,207.3z M190.8,191.5c-0.8,0.6-1.5,1.5-2.5,0.3
			c-0.9-1.1,0.1-1.5,0.6-2.3c0.9-1.9,2.4-3.2,3.9-4.7c-1.3-1.7-5.5,1.2-4.9-3c0-0.4-0.1-0.8-0.1-1.1c-0.4,0.2-0.7,0.4-1.1,0.6
			c-1.2,4.5-3.1,0.2-3.9-0.1c-2-0.7-2.5-2.5,0.1-3.8h0c-0.9-2.6-0.1-4.1,2.9-3.9c-2.8-2.6-1-5.7-0.9-8.7l0,0c-0.5-1-1.6-1.8-1.1-3.6
			c2.7,0.8,5.2,2.1,8.4,0.2c3-1.7,2.2,2.9,3.9,3.9c-1.8,2,1.5,3.9,0.2,5.9C199.6,179,197.5,186.8,190.8,191.5z M197.8,100.8
			c3.3,0,4.4,0.7,4.3,4.1c-0.2,14.3-0.1,28.6-0.2,42.8c0,1.6,0.1,3.2,0.1,4.8l0,0l0,0c-0.9,1.8-2.6,1.3-4,1.3c-19.8,0-39.6,0-59.4,0
			c-1.5,0-3.1,0.4-3.9-1.4c-0.1-0.9-0.2-1.8-0.3-2.7c-0.3-0.8-0.8-1.5-0.8-2.3c0-14.4,0-28.8,0-43.2c0-1.3-0.2-2.8,1.5-3.4
			C156,100.9,176.9,100.9,197.8,100.8z M156.6,35.2c2.5,1.7,4.1,3.9,7.1,5c-3.9,2.6-8.2,1.6-11.6,4C151.9,40,162.7,42.6,156.6,35.2z
			 M159,63.8c1.3,0.1,2.2,0.5,2.6,1.8c2.2,7.1,4.3,14.2,6.5,21.3c0.2,0.7-0.1,1.3-0.8,1.7l0,0c0.7,1.4,1.4,2.8-1.1,3
			c0.5,0.5,1.4,1,1.3,1.4c-0.2,1.3-1.3,0.7-2,0.5c-7.2-1.7-14.5-0.7-21.8-1c-2.4-0.1-4.6,2.7-7,0.2l0,0c-1.5-1.5-3.7,0.9-5.2-0.9
			c-0.9,0.4-2.4,0.7-1.9,1.8c1.9,4-2,3.1-3.3,3.7c-1.8,0.8-3.6,0.1-4.1-2.2c0-0.1,0.8-0.4,1.2-0.6l0,0c0,0,0,0,0,0
			c5.6-2.9,1.9-8,2.4-12.1c-0.6,2.7-1.2,5.4-2.1,9.4c-0.3-2.1-0.4-2.9-0.5-3.7c-0.2,3.8-2.5,3.4-5,2.5c-1.8,1.7-3.6,1.2-5.3,0
			c0.1,1-0.2,1.6-1.3,1.5c-9.1-1-18,0.5-26.9,1.6c-0.8,0.5-2.1,0.7-1.9-0.3c0.6-4.5,2.2-8.7,5.8-11.9c0.6-2.4,1.3-4.8,4.4-5
			c0.9-1.8,2.3-3.6,2.6-5.5c0.8-6.7,5.4-6.7,10.4-6.4c3.7,0.2,7.4,0.7,11,1.9c7.8,2.7,7.8,2.8,7.6,11.6c1.6-1.9,0.6-4.2,1-6.3
			c0.3-1.7,1-2,2.2-0.5v0v0C137.3,65.3,147.7,62.9,159,63.8z M131.8,44.7C131.8,44.7,131.8,44.7,131.8,44.7c0,2.7-1.5,3.2-3.9,3.1
			c-15.9-0.1-31.8,0-47.9,0c0.7-2,2.8-0.9,3.8-2.1c0,0,0,0,0,0h0c-0.3-0.3-2-1-0.6-1c4.3-0.1,8.6-1.4,12.9-0.4
			c-0.7-0.4-1.4-0.8-2.1-1.2c1.7-1.5,3.7-4.5,5-4.3c14.1,2.7,28.2,3.4,42.4,1.5c0.7-0.1,1.3,0,2.7,0C140,43.3,135.1,41.6,131.8,44.7
			z"/>
		<path class="st0" d="M184.6,135.3c0,0-0.1-0.1-0.1-0.1C184.5,135.3,184.5,135.4,184.6,135.3C184.5,135.4,184.6,135.4,184.6,135.3z
			"/>
		<path class="st0" d="M162.4,187.7C162.4,187.7,162.5,187.6,162.4,187.7C162.5,187.6,162.4,187.6,162.4,187.7
			C162.4,187.6,162.4,187.7,162.4,187.7z"/>
		<path class="st0" d="M165.7,185.4c0.5-0.6,0.9-1,1.2-1.3c-0.3-0.1-0.6-0.1-0.9-0.1C165.8,184.5,165.7,185,165.7,185.4z"/>
		<path class="st0" d="M187.6,171.6c-0.8,0.8-0.6,1.6-0.1,2.4c0.2-0.6,0.8-1.3,1.5-2.4C188.7,171.2,188.2,171,187.6,171.6z"/>
		<path class="st0" d="M61.1,113.4C61.1,113.4,61.1,113.4,61.1,113.4c0,0,0.1,0,0.1,0C61.2,113.4,61.2,113.4,61.1,113.4z"/>
		<path class="st0" d="M81.5,22.1c-0.3-0.1-0.6-0.2-0.8-0.4C80.9,21.9,81.2,22,81.5,22.1z"/>
		<path class="st0" d="M37.5,20c0.1,0,0.1,0,0.2,0C37.6,20,37.6,20,37.5,20C37.6,20,37.5,20,37.5,20z"/>
		<path class="st0" d="M192.8,237.9c-1.1,0.3-1.7,1.2-2.1,2.2c2.1,3.4,0.7,5.2-2.4,7.1c-15.8,9.4-33.2,12.8-51.2,13.6
			c-20.9,1-41.5-0.7-60.9-9.4c-12.8-5.8-12.7-5.9-6.9-18.2c0.4-0.8,0.8-1.5,0.8-1.6c35.2,17,70.7,17.7,106.8,4.4
			c0.9-0.3,1.8-1,2.7-1.5c-0.8-0.6-1.5-1.3-2.3-1.9c-33.3,12.5-66.4,11.9-99.2-0.9c2.6-1.7,3.8-2.5,3.8-3.5c0-2.1-1.7-2.8-3.1-3.7
			c-1.5-0.8-3.1-1.4-4.6-2.2c-24.9-13.7-40.9-33.7-44.5-62.6c-0.5-3.7-1.3-7.4-3.1-10.7c-0.5-1-1-2.5-2.4-2.2c-1.7,0.4-0.8,2-0.8,3
			c0.1,6.4-1.7,12.4-4.2,18.2c-1,2.3-1.8,2.4-3.7,0.9c-3.7-3-7.6-5.8-12.3-9.3c1.8,7.5,3.6,13.6,6.2,19.5
			c10.7,24.5,28.3,43,50.6,57.2c2.5,1.6,3.6,2.9,1.7,5.4c-2,2.5-1.1,3.9,1.3,5.6c6.6,4.7,13.6,8.4,21.3,10.7c21,6.3,42.5,7.6,64.2,5
			c15.3-1.9,30.1-5.4,43.2-14.2c4-2.7,5.5-5.1,2-9.1C193.4,239.1,193.1,238.5,192.8,237.9C192.8,237.9,192.8,237.9,192.8,237.9z
			 M62.4,234.2c-8.1-5.7-16.7-10.8-22.8-18.9c-4.2-2-6.7-6-9.6-9.4c-9.4-10.9-16.6-23.1-21.2-38c3.3,2.5,5.9,4.2,8.3,6.2
			c1.8,1.5,2.6,1.5,3.4-0.9c1.5-4.5,3.3-8.8,5.5-14.5c4.4,31.8,21.7,53.2,48.4,68.1c-5.3-0.4-8.1,1.8-9.4,6.5
			C64.7,234.7,63.7,235.1,62.4,234.2z"/>
		<path class="st0" d="M27.4,15.7c0.8,0.6,1.6,1.1,2.5,1.4c4.6,0.1,9.2-0.3,13.7,1.1c1.1-0.2,1.6-2,3.1-1.2c5.7,3.1,12,1.7,17.9,2.6
			c2.7,0.4,5.3,1,7.1,3.4c2.1,2.6,0.3,3.4-1.2,4.4c1.8-0.6,3.4-1.5,4.9-2.5c0.2-0.2,0.3-0.3,0.4-0.5c-0.8-2.2-3-4-2.4-6.6
			c2.9-0.4,4.3,1.8,6.2,3.3c0.5,0,1,0.1,1.4,0.2c3.7,1.6,6.5,6.2,11.6,3.6c0.1,0,0.1,0.1,0.2,0.1c1.6-1,2.7-3.6,5.3-1.9
			c0.1,0.1,0.1,0.2,0.2,0.3c0.9,0.4,1.9,0.1,2.8-0.4c0,0,0,0,0,0c1.8-0.6,3.7-1.2,5.5-1.7c1.6-0.4,1.5,0.8,1.6,1.8
			c0.3,0,0.6,0,0.9,0c2-0.2,4-1.4,7,0.5c-3,0.4-4.1,4.3-7.2,1.5c-1,0.4-2,0.7-3.1,1.1c0,0,0,0.1,0,0.1c0.4,0.6,0.9,1.2,1.3,1.9
			c0.1,0,0.2-0.1,0.3-0.1c0.9-0.3,1.8-0.5,2.7-0.3c0.1,0.1,0.2,0.1,0.2,0.2c1.4-0.9,2.9-1.1,4.5-0.8c0.1-0.1,0.3-0.2,0.4-0.3
			c1.1,1.7,2.4,1.1,3.6,0.1c0.2,0,0.4-0.1,0.6-0.1c-0.3-5,0.6-5.2,5.7-3.2c0,0,0,0.1,0,0.1c0.1,0,0.3,0,0.4,0
			c1.4,1.3,3.7,1.9,3.9,4.3c0.5,0.5,0.9,1,1.4,1.4c0.1,0.1,0.3,0.1,0.4,0.2c0.5,0.4,0.7,1,0.7,1.7c0,0.4-0.5,1.1-0.3,1.1
			c0.7,0.1,0.8-0.7,1.3-1.1c0.2-0.2,0.3-0.4,0.5-0.6c0.4-2.9,3-5.3,2.3-8.4c-1,0.5-1.4,2.7-3.2,1.2c-1-0.8-1.6-1.8-1.1-3.1
			c0.7-1.8,1.7-3.4,4-3.3c4.1,0.2,8.2,0.8,12.4,0.8c-8.3-3.2-17.1-2.3-25.7-3.6c-10-1.5-19.9,0.7-29.9,0.3
			c-3.7-0.1-7.5,1.3-11.2-0.4c-6.5-3-13.4-4.8-20.2-6.8C58.2,6.7,56,6.8,53.4,8c-8.7,4.1-17.5,8.1-27.7,6.3
			c-4.3-0.7-4.5,2.4-3.4,5.6C22.8,17.1,22.8,13.6,27.4,15.7z M126.9,19.3c0.1-1.5,1.6-1.5,2.7-1.8c0.9-0.2,1.8,0.3,1.9,1.2
			c0.2,1.2-0.8,1.8-1.7,2.2c-1.1,0.4-1.7,1-1.4,2.3c0.5,0,1,0,1.5,0c1.5-0.1,3.1,0.4,2.6,2c-0.7,2.4-2,0-3-0.1c-0.8,0-1.7,0-2.1-1
			C125.9,22.7,126.8,20.9,126.9,19.3z M121,17c1.2,0.1,2.3,0.2,2.6,1.7c-0.4,2.3-2.6,2.3-4.1,3c-1.3,0.6-1.6-0.9-1.6-1.8
			C117.8,17.8,119,16.9,121,17z M112.2,16.3c1.3-0.1,2,0.5,2,1.7c0,1.8-1.2,2.7-2.9,2.9c-1.5,0.2-2.8-0.7-2.9-2.2
			C108.4,16.1,111.1,17.4,112.2,16.3z M100.3,17c1.5,0,3.5-0.2,3.3,1.9c-0.2,2.6-2.6,1.9-4.2,2.2c-1.2-0.3-3.2,0.6-3.2-1.5
			C96.3,17.3,98.3,16.9,100.3,17z M85.1,19c1.3-2.4,3.8-0.8,6-1c0.2-0.1,0.5-0.2,0.9-0.2c-0.3,0.1-0.6,0.2-0.9,0.2
			c-1.9,1-0.6,5.8-4.3,4.4C85.5,21.9,84.7,19.7,85.1,19z M54.9,14c0.6-1.5,1.2-4.1,2.6-3.8c2,0.3,1.8,3.1,2.4,4.9
			c-4.7,1.6-6.1,1.5-9.4-0.9C51.9,13.1,53.4,14.3,54.9,14z"/>
		<path class="st0" d="M81.5,22.1c1.3,1.2,2.5,3.2,4,3.5c2.2,0.4,5,3.5,6.9-0.6c0.1-0.1,0.3-0.1,0.4-0.2c-0.1,0-0.1-0.1-0.2-0.1
			c-5,2.6-7.8-1.9-11.6-3.6c-0.5-0.1-1-0.2-1.4-0.2c0.3,0.3,0.7,0.5,1.1,0.7C80.9,21.9,81.2,22,81.5,22.1z"/>
		<path class="st0" d="M100.9,23.1c0.1,0,0.1,0,0.2-0.1c0,0,0,0,0,0c-0.9,0.5-1.9,0.8-2.8,0.4C99.1,24.8,100,24.1,100.9,23.1z"/>
		<path class="st0" d="M129.5,28C129.5,28,129.6,28.1,129.5,28c-0.2-2.3-2.5-2.9-3.9-4.2c-0.2,0-0.3,0-0.4,0
			C125.8,26,127.7,27,129.5,28z"/>
		<path class="st0" d="M110.1,28.2c0.1-0.1,0.2-0.1,0.3-0.2c-0.1-0.1-0.2-0.1-0.2-0.2c-0.9-0.2-1.8,0-2.7,0.3c-0.1,0-0.2,0-0.3,0.1
			c0.2,0.3,0.4,0.6,0.6,0.9C108.5,28.8,109.3,28.5,110.1,28.2z"/>
		<path class="st0" d="M27.3,17c0.9,0.1,1.7,0.1,2.6,0.1c-0.9-0.4-1.7-0.8-2.5-1.4c-4.6-2-4.6,1.5-5.1,4.3
			C23.8,18.7,23,13.6,27.3,17z"/>
		<path class="st0" d="M119.5,28.1c0-0.4-0.1-0.8-0.1-1.2c-0.2,0.1-0.4,0.1-0.6,0.1c-1.2,1-2.5,1.5-3.6-0.1
			c-0.1,0.1-0.3,0.2-0.4,0.3c0,0,0.1,0,0.1,0C116.3,28.4,117.9,28.7,119.5,28.1z"/>
		<path class="st0" d="M131.5,20.6c-0.5,1.3,0.1,2.3,1.1,3.1c1.8,1.5,2.2-0.7,3.2-1.2c0,0,0,0,0,0c-0.4-0.1,0.2-2.8-1.2-0.5
			c-0.4,0.6,0,1.9-1.4,1.2c-0.7-0.4-1.6-1.1-1-2c1-1.6,1.6-3.5,4.5-2.7c3.6,0.9,7.4,1.1,11.1-0.3c-4.2,0-8.3-0.6-12.4-0.8
			C133.3,17.1,132.2,18.7,131.5,20.6z"/>
		<path class="st0" d="M69.2,28.5c2.9,0.7,4.6-1.6,6.9-2.6c0-0.5-0.1-1-0.3-1.5c-0.1,0.2-0.3,0.4-0.4,0.5c-1.6,1-3.2,1.9-4.9,2.5
			C69.9,27.7,69.5,28,69.2,28.5z"/>
		<path class="st0" d="M129.1,35c1.8-0.2,3.4-0.8,4.5-2.3c-0.1-0.6-0.1-1.2,0-1.8c-0.2,0.2-0.3,0.4-0.5,0.6
			c-0.4,0.4-0.6,1.3-1.3,1.1c-0.3-0.1,0.2-0.7,0.3-1.1c0.1-0.7-0.2-1.2-0.7-1.7c-0.1-0.1-0.3-0.2-0.4-0.2c0.1,0.1,0.2,0.2,0.3,0.3
			C132.4,32.3,128.4,32.4,129.1,35z"/>
		<path class="st0" d="M192.7,237.6c0,0.1,0.1,0.2,0.1,0.3c0,0,0,0,0,0c0,0,0,0,0,0c0.3,0.6,0.5,1.3,0.8,1.9
			C193.2,239.1,193.6,237.9,192.7,237.6z"/>
		<path class="st0" d="M159.2,22.4C159.2,22.5,159.2,22.5,159.2,22.4c2.9,3.8-2,2.8-2.9,4.2c0.1,0,0.1,0.1,0.1,0.1
			c1.4,0.4,2.4,1.2,3.5,2.1c3.3,2.7,6.7,3.5,10.6,0.8c2-1.3,4.6-3.8,7-0.2c0,0.1,0.1,0.2,0.1,0.3c1.1-1.1,2-3.1,4-0.6
			c2.6-3.4,6.4-1.4,9.6-2.2c-10-0.6-19.8-2.3-29.2-6.2c-0.8-0.3-1.9,0.2-2.9,0.4C159.4,21.6,159.4,22,159.2,22.4z"/>
		<path class="st0" d="M159.1,22.5C159.2,22.5,159.2,22.5,159.1,22.5c0.3-0.5,0.3-1,0-1.4c0,0.4-0.1,0.8-0.1,1.2
			C159.1,22.4,159.1,22.5,159.1,22.5z"/>
		<path class="st0" d="M177.5,29.5c-2.4-3.6-5-1.1-7,0.2c-4,2.7-7.3,1.9-10.6-0.8c-1.1-0.9-2.1-1.7-3.5-2.1c0-0.1-0.1-0.1-0.1-0.1
			c-0.1,0.1-0.2,0.3-0.2,0.5c4.9,5.2,10.1,8.3,16.7,2.5c0.6-0.6,3.1-2.6,3.8,0.7c0.4-0.1,0.7-0.3,1-0.6
			C177.6,29.7,177.5,29.6,177.5,29.5z"/>
		<path class="st0" d="M184.8,47.3c1.2,1.5,2.9,0.7,4.3,0.8c6.8,0.1,13.6,0.2,20.4,0c3.1-0.1,4.5,0.5,4.5,4.1
			c-0.1,39.8-0.1,79.6-0.1,119.4c0,4.1-1.9,7.9-1.7,12c3.2-7.6,2.4-15.7,2.4-23.7c0-36.1,0-72.2,0.1-108.4c0-3.4-0.6-4.5-4.3-4.3
			C201.8,47.6,193.3,47.3,184.8,47.3L184.8,47.3C184.8,47.3,184.8,47.3,184.8,47.3z"/>
		<path class="st0" d="M213.9,52.2c0-3.6-1.4-4.2-4.5-4.1c-6.8,0.2-13.6,0.1-20.4,0c-1.4,0-3.1,0.7-4.3-0.8c1.1,1.9,3,1.2,4.6,1.3
			c6.1,0.1,12.3,0.3,18.4-0.1c4.6-0.3,5.7,1.3,5.7,5.7c-0.2,34.7-0.1,69.5-0.1,104.2c0,7.5,0.6,15-1.9,22.2c-0.3,1-0.2,2,0.7,2.8
			c-0.1-4.1,1.8-7.9,1.7-12C213.8,131.8,213.8,92,213.9,52.2z"/>
		<polygon class="st0" points="184.8,47.3 184.8,47.3 184.8,47.3 		"/>
		<path class="st0" d="M179.9,29.9c-0.5,0.5-0.8,1.2-1.3,1.8c0,0.1,0.1,0.1,0.1,0.2c1.5,1.5,4,1.8,5.2,1c3.6-2.4,7.7-1,11.3-2.4
			c3.5-1.3,7,0.6,10.3,1.3c6.3,1.4,12.3,1.8,18.3-0.8c0.4-0.2,0.8-0.2,1.2,0c-0.5-0.4-1.3,0-1.6-0.7c-6.9,2.4-13.7,2.1-20.6-0.1
			c-3.8-1.2-7.8-2.1-11.6-3.1c-2.3,2.5-5.9,1.1-8.5,2.6C181.8,29.5,180.8,29.7,179.9,29.9z"/>
		<path class="st0" d="M225.1,30.9c-0.4-0.1-0.8-0.1-1.2,0c-6,2.6-12,2.2-18.3,0.8c-3.3-0.7-6.9-2.7-10.3-1.3
			c-3.7,1.4-7.8,0-11.3,2.4c-1.2,0.8-3.7,0.5-5.2-1c-0.1,0-0.1-0.1-0.1-0.2c-0.3,0.4-0.6,0.7-1.1,0.8c2.2,2.9,6.9,3,8,1.8
			c3.4-3.9,8.6,0,11.7-3.4c0.1-0.1,1.1,0.6,1.7,0.8c8.8,2.7,19.1,2.3,27.9-1.2c-1.4-0.1-2.4-0.1-3.4-0.2
			C223.9,30.8,224.7,30.4,225.1,30.9z"/>
		<path class="st0" d="M181.6,29.2c-0.8,0-1.3,0.3-1.7,0.7c0.9-0.2,1.9-0.4,2.9-0.4c2.6-1.5,6.1-0.1,8.5-2.6
			C188.1,27.8,184.2,25.8,181.6,29.2z"/>
		<path class="st0" d="M39,160.2c0.1-34.2,0.1-68.4,0.1-102.6c0-4,0-6.3,0.7-7.6c0.2-0.6,0.5-0.9,1.1-1.1c1.3-0.7,3.5-0.8,7.4-0.8
			c1.4,0,3.2,0.9,4.3-0.7c0.1-0.1,0.1-0.2,0.2-0.4c-3.4,0.1-6.8,0.6-10.2,0.2c-4-0.5-4.6,1-4.6,4.7c0.2,35.7,0.1,71.5,0.1,107.2
			c0,5.1-0.6,10.2,0.5,15.3C39.6,169.6,39,164.9,39,160.2z"/>
		<path class="st0" d="M39.5,168.5c0-37.5,0-74.9,0-112.4c0-3.3-0.1-5.1,0.2-6.1c-0.7,1.3-0.7,3.6-0.7,7.6
			c0,34.2,0.1,68.4-0.1,102.6c0,4.7,0.6,9.5-0.4,14.2C40.3,172.6,39.5,170.4,39.5,168.5z"/>
		<path class="st0" d="M48.3,48.1c-3.9,0.1-6.1,0.1-7.4,0.8c1-0.4,2.8-0.3,6-0.3c1.9,0,4.3,1.1,5.7-1.2C51.4,49,49.7,48,48.3,48.1z"
			/>
		<path class="st0" d="M179.8,234.3c6.3-3.3,6.4-3.2,9.6,3.6c0.2,0.5,0.5,0.9,0.8,1.4c0.3-0.8,0.9-1.4,1.9-1.8c0.1,0,0.2,0,0.3,0
			c-1.3-1.1-0.6-2.1,0.2-3c-0.3,0-0.5-0.1-0.5-0.2c-1.6-4.6-4.1-8-9.6-7.4c0-0.2,0.1-0.4,0.1-0.6c-1.4-0.4-2.9-0.7-2.9-2.6
			c-6.1,2.9-6.1,2.9-1.8,7.6c0.1,0.1-0.4,0.8-0.6,1.3C179,232.2,179.7,232.9,179.8,234.3z"/>
		<path class="st0" d="M192.2,237.5c-1,0.3-1.6,1-1.9,1.8c0.2,0.3,0.3,0.5,0.5,0.8l0,0c0.4-1,1-1.9,2.1-2.2
			c-0.2-0.1-0.3-0.2-0.4-0.3C192.3,237.5,192.3,237.5,192.2,237.5z"/>
		<path class="st0" d="M179.8,234.3c-0.1-1.4-0.8-2.1-2.5-1.8c0.8,0.6,1.5,1.3,2.3,1.9C179.7,234.4,179.7,234.4,179.8,234.3z"/>
		<path class="st0" d="M192.4,237.5c0.1,0,0.2,0,0.3,0.1c-0.7-1.3,0.6-2,1.2-2.9c-0.4-0.1-0.9-0.1-1.3-0.1
			C191.8,235.5,191.1,236.4,192.4,237.5z"/>
		<path class="st0" d="M182.6,226.3c0-0.3,0.1-0.5,0.1-0.8h0c-1-0.6-2-1.2-3.1-1.9C179.7,225.6,181.2,225.9,182.6,226.3z"/>
		<path class="st0" d="M192.8,237.9C192.8,237.9,192.8,237.9,192.8,237.9c-0.1-0.1-0.1-0.2-0.1-0.3c-0.1,0-0.2,0-0.3-0.1
			C192.5,237.6,192.7,237.8,192.8,237.9z"/>
		<path class="st0" d="M66,43.8c0.2,0,0.4-0.1,0.7-0.1c1.6-1.2,3.3-2.2,5.5-2.3c3-1.6,6.9-1.2,9.5-3.7c-3.4,1.9-6.9,2.9-10.7,1.6
			c-2.6-0.1-4.5,1.6-6.8,2.4C65.2,42,65.7,42.8,66,43.8z"/>
		<path class="st0" d="M81.6,37.7c0.3-0.3,0.7-0.7,0.9-1.2c-3.8,1.1-7.6,2.6-11.6,2.8C74.7,40.6,78.2,39.5,81.6,37.7z"/>
		<path class="st0" d="M66.6,43.7c-0.2,0-0.4,0.1-0.7,0.1c-0.2-1-0.8-1.8-1.8-2.1c0.4,1,0.7,2.1,1.1,3.1
			C65.7,44.5,66.1,44.1,66.6,43.7z"/>
		<path class="st0" d="M189.1,177.9c-1.6-2-2-2.8-1.6-3.9c-0.5-0.8-0.8-1.5,0.1-2.4c0.6-0.6,1-0.5,1.4,0c0.2-0.2,0.3-0.5,0.5-0.8
			c0.9-1.3,0.1-3.8,2.9-3.2c1.8,0.4,3.5,1.3,3.7,3.6c1.3-2-2-3.9-0.2-5.9c-3.7-0.3-7.4-1.2-11.2-0.6c-0.2,2.9-1.9,6,0.9,8.7
			c1,2.7-0.7,3.5-2.9,3.9l0,0h0c-2.6,1.3-2,3.1-0.1,3.8c0.8,0.3,2.7,4.6,3.9,0.1c-1.2-0.6-2.6-1.1-1.6-2.9c0.6-0.9,1.6-1.4,2.6-0.6
			c1.2,0.9,1.3,1.9,0.1,2.9l0,0c0,0.4,0.1,0.8,0.1,1.1C188.3,180.5,191.2,180.4,189.1,177.9z"/>
		<path class="st0" d="M192.5,167.6c-2.8-0.6-2,1.9-2.9,3.2c-0.2,0.3-0.4,0.5-0.5,0.8c0.7,0.8,1.3,2.5,2.9,2c0.4-2-2.2-3.4-1.1-5.8
			c2.2,0.6,3.9,1.9,5.4,3.4C196,169,194.3,168,192.5,167.6z"/>
		<path class="st0" d="M193.6,182.1c-1.7-2.3-3.2-3.8-4-5.5c-0.4-0.9-1.4-1.7-2.1-2.6c-0.4,1.1,0,1.9,1.6,3.9c2,2.5-0.8,2.6-1.3,3.9
			C189.5,180.6,191.2,181.8,193.6,182.1z"/>
		<path class="st0" d="M57,116.2C57,116.3,57,116.3,57,116.2C57.1,116.2,57.1,116.2,57,116.2C57.1,116.2,57,116.2,57,116.2z"/>
		<path class="st0" d="M55.7,121.1c2.6,2,1.9,8.5,7.8,6.1h0c-2.4-0.4-4.7-1.7-1.7-3.6c3.1-1.9,1-3,0.3-4.5c-0.9-1.9-3.3-4.9-1.1-5.7
			c0,0,0.1,0,0.1,0c0,0,0,0,0-0.1c0,0,0.1,0,0.1,0c2.5-1.1,1.3-3.6,2.9-4.3c1.9-0.8,3.3,0.1,4,1.9c2.4-1,1.2-1.9,0-2.8
			c-2.6-1.5-5.3-1.7-8.2-1.1c-1,2.6-0.1,6.2-3.5,7.8c0,0,0.3,0.9,0.5,1.3c0,0,0,0,0,0c0,0,0,0,0,0c0,0,0,0,0,0c0,0,0,0,0,0
			c0,0,0,0,0,0c1-0.7,1.9-1.3,2.7,0.4c0.4,0.9,0.5,1.7-0.4,2.1c-0.8,0.4-1.6,1.4-2.7,0.6c-1.4-1.2,0-2,0.4-3c0,0,0,0,0,0
			c0,0,0,0,0,0C53.5,117,54.3,120,55.7,121.1z M60.5,120c1.2-0.2,2.1,0.6,2,1.6c-0.1,0.9-1,1.7-1.1,1.9c-2.3,0-3-1-3.1-1.8
			C58.3,120.6,59.5,120.1,60.5,120z"/>
		<path class="st0" d="M57.1,116.2C57.1,116.2,57.1,116.2,57.1,116.2C57.1,116.2,57.1,116.2,57.1,116.2
			C57.1,116.2,57.1,116.2,57.1,116.2C57.1,116.2,57.1,116.2,57.1,116.2z"/>
		<path class="st0" d="M57.1,116.2C57.1,116.2,57,116.2,57.1,116.2C57,116.2,57,116.2,57.1,116.2C57,116.2,57.1,116.2,57.1,116.2z"
			/>
		<path class="st0" d="M64.2,109.1c-1.6,0.7-0.4,3.2-2.9,4.3c2.5,0.2,2.2,3.3,4.9,2.6c-0.4-2.2-2.9-4-1.7-6.4c1.5-0.3,2.4,1,3.7,1.4
			C67.4,109.1,66,108.2,64.2,109.1z"/>
		<path class="st0" d="M61.4,124.8c1.1-2.1,3.6-0.5,5.5-0.8c-2-3.5-5.5-6.1-5.8-10.5c0,0-0.1,0-0.1,0c-2.2,0.8,0.2,3.8,1.1,5.7
			c0.7,1.5,2.8,2.5-0.3,4.5c-3,1.8-0.7,3.2,1.7,3.6C63.1,126.1,60.7,126.1,61.4,124.8z"/>
		<path class="st0" d="M164.1,89.5c-11-1.8-21.7,0.3-32.5,2.3c1.5,1.8,3.7-0.6,5.2,0.9c3.4-0.8,6.6-2.3,10.2-1.9c3.6,0,7.3,0,10.9,0
			c2.8,0.3,5.5,0.6,8.3,0.9h0c2.5-0.2,1.8-1.6,1.1-3l0,0l0,0C166.4,89.5,165.2,89.7,164.1,89.5z"/>
		<path class="st0" d="M131.6,91.8c10.7-2,21.5-4,32.5-2.3c1.2,0.2,2.4,0,3.3-0.9l0,0c-1.8-0.2-3.7-0.7-5.5-0.7
			C151.6,87.6,141.2,86.8,131.6,91.8z"/>
		<path class="st0" d="M91.4,90.1c-3.3,0.2-3.9-1.5-3.1-4.1c0.9-3.4,1.9-6.9,4.6-9.4c-3.1,0.2-3.8,2.6-4.4,5c0,0,0,0,0,0
			c-0.5,3.7-2.8,6.6-4,10c9.5-0.2,18.9-2.2,28.4-0.9v0c1.8,1.2,3.5,1.8,5.3,0l0,0C109.3,89.7,100.4,89.6,91.4,90.1z"/>
		<path class="st0" d="M89.2,88.9c0.2-4.6,2.8-8.2,3.7-12.3c-2.7,2.6-3.7,6-4.6,9.4c-0.7,2.6-0.1,4.3,3.1,4.1
			c8.9-0.5,17.9-0.4,26.8,0.6l0,0l0,0C108.8,87.3,99,87.8,89.2,88.9z"/>
		<path class="st0" d="M166.4,196.2c-2-1.2-2.4-3.3-3.7-4.9c-1-1.2-1.8-2.7-0.3-3.6c0,0,0,0,0,0c0,0,0.1,0,0.1,0
			c0.3-0.2,0.7-0.3,1.2-0.4c0.3-0.1,0.7-0.1,0.9-0.4c0.4-0.5,0.8-1,1.1-1.4c0-0.4,0-0.9,0.4-1.5c0.3,0,0.6,0.1,0.9,0.1
			c1.7-1.5,2.5-0.5,4.7,3.5c0.8-2.6-0.9-4.2-2.3-5.9c-0.2-0.3-0.5-0.4-0.8-0.3l0,0c-8.6,0.2-8.6,0.2-10.3,8.5
			c3.6-1.8,3.2,0.4,2.7,2.7c0.9,0.1,1.8,0.2,2.4,1c1.1,1.6,0.1,2.5-1,3.4l0,0c0,0.5,0.1,0.9,0.1,1.4c0,0,0,0,0,0
			C162.9,196.4,164.6,196.3,166.4,196.2z"/>
		<path class="st0" d="M168.7,198.1c-2.6-3.8-5.7-6.4-6.3-10.4c-1.4,0.9-0.6,2.4,0.3,3.6c1.2,1.6,1.7,3.7,3.7,4.9
			c-1.8,0.1-3.5,0.2-4,2.3C164,196.8,166.1,197.3,168.7,198.1z"/>
		<path class="st0" d="M163.7,187.2c-0.5,0.1-0.9,0.3-1.2,0.4c2.4-0.6,2.4,2.6,4.5,2c0.5-1.5-1.2-2.7-1.3-4.2
			c-0.3,0.4-0.7,0.8-1.1,1.4C164.4,187.1,164.1,187.1,163.7,187.2z"/>
		<path class="st0" d="M167,184.1c2,0.5,3.3,2.1,4.7,3.5C169.5,183.7,168.7,182.6,167,184.1z"/>
		<path class="st0" d="M137.5,189.7c1.1-2.1,4.5-4,0.2-6.3c-0.3-0.1-0.3-0.8,0-0.9c0.3-0.2,0.6-0.4,0.8-0.6c0.1-0.3,0.3-0.4,0.6-0.5
			c2.3-2.7-1.3-4.9-2-7.3c-0.3-1-0.3-2,0.6-2.8c-0.5-0.8-0.7-1.6-2.1-1c-1.7,0.8-2.1,1.7-1.8,3.3c1.7-1.1,2.8,0.1,2.7,1.4
			c-0.1,2.1-1.8,2.4-3.6,2c-0.3,2.1-0.6,4.2,1.4,5.5c2.7,1.7,3.3,4,2.5,6.9c-0.3,1.1,0.3,2,1.5,2.2
			C137.2,191.3,137.1,190.6,137.5,189.7z M137,181c-1.3,0-1.9-0.9-1.9-1.9c0.1-1,1.1-1.7,2.2-1.7c0.9,0,1.6,0.7,1.6,1.6
			C139,180.3,138,180.7,137,181z"/>
		<path class="st0" d="M137.1,174c0.6,2.4,4.3,4.7,2,7.3c1-0.4,3,0.5,4.4,0.5c-1.8-4-5.7-6.4-5.8-10.6
			C136.8,172,136.8,173,137.1,174z"/>
		<path class="st0" d="M143.2,184.5c-1.8-0.9-5.1,0.8-4.8-1.9c0-0.3,0.1-0.5,0.2-0.7c-0.2,0.2-0.5,0.4-0.8,0.6
			c-0.2,0.2-0.2,0.8,0,0.9c4.3,2.3,0.9,4.2-0.2,6.3c-0.4,0.9-0.3,1.6,0.7,1.9c0,0,0,0,0,0C138.6,188.5,141.3,186.9,143.2,184.5z"/>
		<path class="st0" d="M82.5,135.8c0.3,0.3,0.7,0.5,1,0.8c2-0.8,3.9-1.3,3.9,2c0.9,0.1,1.8,0,2.3-1c-2.7-0.7-3.5-2.9-4.2-5.1
			c-0.5-1.6-1-3.6,1.9-3.3c0.9,0.1,1,0,1.1-0.9c0.7-3.9,2.5-2.5,4.2-0.8c0.7-1,1.3-2.1,2-3.1c-3.6-0.9-7.3-1.6-11.1-1l0,0l0,0
			c-1.8,3-0.7,5.8,0.8,8.5C85.5,133.9,84,134.8,82.5,135.8z"/>
		<path class="st0" d="M122,156.7c0.1-0.2,0.2-0.3,0.2-0.5c-23.3,0-46.7,0-70,0c0,0.2,0,0.3,0,0.5C75.4,156.7,98.7,156.7,122,156.7z
			"/>
		<path class="st0" d="M127.5,90.1c0.6-4.8-1.3-9.3-1.1-14c0.1-1.6-0.5-3.5,1.2-4.6v0c-1.1-1.4-1.9-1.2-2.2,0.5
			c-0.4,2.1,0.7,4.4-1,6.3c0.7,3.5,0.1,6.8-1.3,10c0.1,0.8,0.2,1.6,0.5,3.7c0.9-4,1.5-6.7,2.1-9.4c-0.6,4.1,3.2,9.2-2.4,12.1
			c0,0,0,0,0,0C126.7,94.8,127.2,92.8,127.5,90.1z"/>
		<path class="st0" d="M128.2,90.2c0.2-6.2-0.3-12.5-0.5-18.8c-1.7,1.2-1.1,3-1.2,4.6c-0.3,4.7,1.6,9.2,1.1,14
			c-0.3,2.7-0.8,4.7-4.1,4.4C128.9,97.5,128.1,92.3,128.2,90.2z"/>
		<path class="st0" d="M124.5,78.2c-1.1,3.2-1.4,6.6-1.3,10C124.6,85,125.2,81.7,124.5,78.2z"/>
		<path class="st0" d="M198.8,153.4c-20.3,0-40.6,0-61,0c-1.1,0-2.4,0.6-3.1-0.9c0.8,1.9,2.5,1.4,3.9,1.4c19.8,0,39.6,0,59.4,0
			c1.4,0,3.1,0.5,4-1.3l0,0C201.2,153.9,199.9,153.4,198.8,153.4z"/>
		<path class="st0" d="M196.1,153c-3.5-0.4-7,0-10.4-0.1c-1.7,0-3.4,0-5.1,0c-4.6,0-9.3-0.1-13.9-0.1c-9.1,0.3-18.2-0.1-27.4,0.1
			c-1,0-1.8-0.1-2.5-0.4c-0.7,0-1.4,0-2.1,0c0.7,1.5,2.1,0.9,3.1,0.9c20.3,0,40.6,0,61,0c1.1,0,2.4,0.5,3.3-0.8c-0.8,0-1.6,0-2.5,0
			C198.7,153,197.5,153.1,196.1,153z"/>
		<path class="st0" d="M139.3,152.9c9.1-0.2,18.2,0.2,27.4-0.1c-10-0.1-19.9-0.2-29.9-0.3C137.5,152.8,138.3,152.9,139.3,152.9z"/>
		<path class="st0" d="M196.1,153c1.4,0.1,2.6,0,3.4-0.3c-4.6,0.1-9.2,0.2-13.9,0.2C189.2,153,192.7,152.6,196.1,153z"/>
		<path class="st0" d="M124.4,162.7c0-1.6,0.7-3.5-1.2-4.6c1.1,0.9,0.7,2.2,0.7,3.3c0,19.8,0,39.7,0,59.5c0,1.1,0.6,2.5-0.7,3.3
			c1.9-1.1,1.2-3.1,1.2-4.7C124.4,200.6,124.4,181.6,124.4,162.7z"/>
		<path class="st0" d="M123.8,220.9c0.1-19.8,0-39.7,0-59.5c0-1.1,0.4-2.4-0.7-3.3c0,13.6,0.2,27.2,0,40.9c-0.1,8.5,0.6,17-0.4,25.5
			c0.1-0.1,0.2-0.1,0.3-0.2C124.5,223.4,123.8,222,123.8,220.9z"/>
		<path class="st0" d="M87.7,45.1c3.1,0.1,6.1,0.1,9.2,0c-0.3-0.2-0.6-0.5-0.8-0.8c0,0,0,0,0,0c-4.3-1-8.6,0.3-12.9,0.4
			c-1.4,0,0.3,0.6,0.6,1h0C84.9,44.6,86.4,45,87.7,45.1z"/>
		<path class="st0" d="M96.9,45.1c10.1-0.2,20.2-1.2,30.3-0.1c0.8,0.1,1.7,0,2.5-0.4c-11.2-1.9-22.4-0.3-33.6-0.2c0,0,0,0,0,0
			c0,0,0,0,0,0C96.3,44.7,96.6,44.9,96.9,45.1z"/>
		<path class="st0" d="M103.7,45.7c7.1,0,14.2,0,21.4,0c1.1,0,2.3,0.3,3.3,0C120.1,44.7,111.9,44.7,103.7,45.7z"/>
		<path class="st0" d="M96.9,45.1c-3.1,0.1-6.1,0.1-9.2,0c-1.3-0.1-2.7-0.5-3.9,0.6c4.7,0,9.5,0,14.2,0
			C97.6,45.6,97.3,45.4,96.9,45.1z"/>
		<path class="st0" d="M127.2,45c-10.1-1.1-20.2-0.2-30.3,0.1c0.4,0.3,0.7,0.5,1.1,0.6c1.9,0,3.8,0,5.6,0c8.2-1,16.5-1,24.7-0.1
			c0.5-0.2,0.9-0.5,1.3-1.1C128.9,45.1,128.1,45.1,127.2,45z"/>
		<path class="st0" d="M134.4,144.3c-0.1-0.4-0.2-0.7-0.3-1.1c-0.1-12.9,0-25.9,0-38.8c0-1.2-0.8-2.8,0.9-3.6
			c-1.7,0.6-1.5,2.1-1.5,3.4c0,14.4,0,28.8,0,43.2c0,0.8,0.5,1.5,0.8,2.3C134.1,148,133.7,146.1,134.4,144.3z"/>
		<path class="st0" d="M134.2,104.5c0,12.9-0.1,25.8,0,38.8c0.1,0.4,0.2,0.7,0.3,1.1c0.1-0.2,0.2-0.5,0.3-0.7
			c0-14.3-0.5-28.5,0.3-42.8C133.4,101.7,134.2,103.3,134.2,104.5z"/>
		<path class="st0" d="M134.4,144.3c-0.7,1.8-0.3,3.6,0,5.4c0.1-1.2,0.1-2.4,0.2-3.6C134.6,145.5,134.6,144.9,134.4,144.3z"/>
		<path class="st0" d="M134.6,146.2c0-0.8,0.1-1.7,0.1-2.5c-0.1,0.2-0.3,0.5-0.3,0.7C134.6,144.9,134.6,145.5,134.6,146.2z"/>
		<path class="st0" d="M49.5,21.5c-1.1-0.6-2.2-0.9-3.4-1c0.7,0.3,1.4,0.9,2,1.8C48.5,21.5,49,21.4,49.5,21.5z"/>
		<path class="st0" d="M38.8,20.7c0.1,0,0.2,0,0.2,0c-0.2,0-0.3-0.1-0.5-0.1C38.7,20.6,38.7,20.6,38.8,20.7z"/>
		<path class="st0" d="M46.1,20.5c-0.8-0.1-1.7-0.1-2.7-0.1c-1.4,0.1-2.9,0.6-4.3,0.3c-0.1,0-0.2,0-0.2,0c-0.1-0.1-0.2-0.1-0.2-0.2
			c-0.3-0.1-0.6-0.3-0.9-0.5c-0.1,0-0.1,0-0.2,0c0.4,0.2,0.7,0.6,1,1c3,1.3,6.7-1.2,9.4,1.7c0.1-0.2,0.1-0.3,0.2-0.5
			C47.5,21.3,46.8,20.8,46.1,20.5z"/>
		<path class="st0" d="M51.8,22.3c0.3-0.2,0.5-0.3,0.7-0.5c0.1-0.1,0.2-0.4,0.1-0.5c-4.7-3-9.8-1.4-14.8-1.3
			c0.3,0.2,0.5,0.3,0.8,0.5c0.2,0.1,0.3,0.1,0.5,0.1c2.4-0.3,4.9-1.2,7-0.2c1.2,0.2,2.3,0.5,3.4,1C50.2,21.7,51.1,22.6,51.8,22.3z"
			/>
		<path class="st0" d="M39.1,20.7c1.4,0.3,2.9-0.2,4.3-0.3c0.9-0.1,1.8,0,2.7,0.1C43.9,19.5,41.4,20.4,39.1,20.7z"/>
		<path class="st0" d="M37.7,20c0.3,0.2,0.6,0.4,0.9,0.5c-0.2-0.2-0.5-0.4-0.8-0.5C37.8,20,37.7,20,37.7,20z"/>
		<path class="st0" d="M37.5,20c0,0.7,0.3,0.9,1,1C38.3,20.6,37.9,20.3,37.5,20z"/>
		<path class="st0" d="M84.4,91.7C84.4,91.6,84.3,91.6,84.4,91.7c-0.7-0.1-1.2,0.1-1.2,0.8c-0.1,1,0.5,1.5,1.5,1.3
			C83.3,93.2,83.2,92.5,84.4,91.7z"/>
		<path class="st0" d="M77.3,21.7c-0.6-0.6-1.1-1.1-1.7-1.7c-0.2-0.1-0.4-0.1-0.6-0.2c0.1,1.2,0.9,2.2,1.4,3.2
			C76.6,22.6,76.9,22.1,77.3,21.7z"/>
		<path class="st0" d="M76.4,23.1c0.3,0.8,0.4,1.7-0.3,2.8c2.2-0.7,1-2.6,1.4-4c0,0-0.1-0.1-0.1-0.1C76.9,22.1,76.6,22.6,76.4,23.1z
			"/>
		<path class="st0" d="M75.1,19.8c0.2,0.1,0.4,0.1,0.6,0.2c-0.7-0.8-1.5-1.5-2.2-2.3c-0.6,2.7,1.6,4.4,2.4,6.6
			c0.3-0.4,0.4-0.8,0.6-1.3C76,22,75.2,21,75.1,19.8z"/>
		<path class="st0" d="M76.4,23.1c-0.2,0.4-0.4,0.9-0.6,1.3c0.2,0.5,0.3,1,0.3,1.5C76.8,24.8,76.7,23.9,76.4,23.1z"/>
		<path class="st0" d="M106.3,25.6c-0.4,0.2-0.8,0.3-1.2,0.3c0.2,0.1,0.5,0.2,0.7,0.4c0,0,0.1,0,0.1,0c0-0.1,0.1-0.2,0.1-0.4
			C106.1,25.7,106.2,25.6,106.3,25.6z"/>
		<path class="st0" d="M103.1,25.6c-0.4-0.1-0.7-0.2-1.1-0.3c0.1,0.4,0.1,0.7,0.2,1.1C102.5,26,102.8,25.7,103.1,25.6z"/>
		<path class="st0" d="M107,25.1c0.6-0.3,1.3-0.5,2-0.5c0-0.2,0-0.4,0.1-0.6c-0.3-0.1-0.7-0.2-1-0.3C107.7,24.3,107.4,24.7,107,25.1
			z"/>
		<path class="st0" d="M102,25.3c-0.4-0.1-0.7-0.2-1.1-0.3c0,1.1-0.3,2.3,0.7,3.2c0.1-0.7,0.3-1.3,0.6-1.7
			C102.2,26,102.1,25.7,102,25.3z"/>
		<path class="st0" d="M107,25.1c-0.2,0.2-0.5,0.4-0.7,0.5c-0.1,0.1-0.2,0.2-0.3,0.3c-0.1,0.1-0.1,0.3-0.1,0.4c1-0.4,2-0.7,3.1-1.1
			c0-0.2,0-0.4,0.1-0.6C108.2,24.6,107.6,24.8,107,25.1z"/>
		<path class="st0" d="M109,24c0-0.3,0.1-0.6,0.1-0.9c-0.3,0-0.6,0-0.9,0c-0.1,0.2-0.2,0.4-0.3,0.6C108.3,23.8,108.7,23.9,109,24z"
			/>
		<path class="st0" d="M102.2,26.4c0.1,0.3,0.1,0.6,0.2,0.9c0.9-0.8,2-1.2,3.3-1c-0.2-0.2-0.5-0.3-0.7-0.4c-0.6,0-1.2-0.1-1.9-0.2
			C102.8,25.7,102.5,26,102.2,26.4z"/>
		<path class="st0" d="M102.4,27.3c-0.1-0.3-0.1-0.6-0.2-0.9c-0.3,0.4-0.5,1-0.6,1.7C101.9,27.8,102.2,27.5,102.4,27.3z"/>
		<path class="st0" d="M102,25c0,0.1,0,0.2,0.1,0.3c0.4,0.1,0.7,0.2,1.1,0.3c0.5-0.2,1.1-0.1,1.9,0.2c0.4,0,0.9-0.1,1.2-0.3
			c0.2-0.2,0.5-0.3,0.7-0.5c0.4-0.3,0.7-0.8,1-1.4c0,0-0.1,0-0.1,0c0,0,0,0-0.1,0C106.3,25.4,104.1,25.1,102,25z"/>
		<path class="st0" d="M102,25c-0.4,0-0.7,0-1.1,0c0.4,0.1,0.7,0.2,1.1,0.3C102,25.2,102,25.1,102,25z"/>
		<path class="st0" d="M107.9,23.6C107.9,23.6,108,23.6,107.9,23.6c0.2-0.2,0.3-0.3,0.3-0.6C108.1,23.3,108,23.4,107.9,23.6
			C107.9,23.6,107.9,23.6,107.9,23.6z"/>
		<path class="st0" d="M107,25.1c-0.2,0.1-0.5,0.3-0.7,0.5C106.5,25.4,106.8,25.3,107,25.1z"/>
		<path class="st0" d="M103.1,25.6c0.7,0.2,1.3,0.3,1.9,0.2C104.3,25.5,103.6,25.4,103.1,25.6z"/>
		<path class="st0" d="M57.5,10.1c-1.4-0.2-2,2.3-2.6,3.8c1.5,1.1,3.3,0.8,5,1C59.4,13.2,59.6,10.5,57.5,10.1z"/>
		<path class="st0" d="M106.4,196.9c1.8-1.3,3.3-2.9,4.3-5c-0.5,0-1-0.1-1.5-0.1c-0.1,0.1-0.2,0.3-0.4,0.3c-0.1,0.1-0.4,0.1-0.5,0
			c-1.2-3-3.4-5.3-5.2-7.9c-1-1.4-6.6-5.2,1.1-5.4c0.3,0,0.6-0.6,0.7-1c1.5-3.9,2.7-7.9,2.1-12.1c-0.4-3-1.4-4.9-5.1-5.4
			c-6-0.9-10.8,2.8-16.4,3.2c-0.7,0.1-3.1,2.2-1,4.5c0.7,0.8,2.6,1.3,1.7,3.2c-3.1,0.3-6-0.1-8.1-2.8c-0.9-1.2-2.2-1.5-3.6-1.5
			c-1,0-2.2,0.1-2.3,1.4c-0.1,1.3,1,1,1.8,1.1c4.3,0.6,6.5,4.1,9.7,6.7c-2.9,0.9-5.2,0.2-7.4-0.7c-1.5-0.6-3.4-1.2-3.7,0.8
			c-0.3,2,1.9,1.2,3.1,1.5c7.5,2,13.7,5.8,19.1,13.2c-5.5-1.4-9.1-1.1-10.2,4.1c-0.7,3.3-2.5,2-3.9,0.5c-1.5-1.5-2.8-3.3-5.2-1.1
			c1.3,0.7,2.9,1.1,3.4,2.1c2.4,4,4.6,4.5,8.2,1c1.8-1.7,6.4-1.8,7.1,0.2c1.1,3.3,3.2,4,5.7,5c1.2,0.5,2.2,1.1,1.6,2.6
			c-0.4,1.1-1.2,1.5-2.4,1.2c-1.8-0.5-3.5-0.5-4.6,1.7c2.2,1.1,4.2,0.8,6.2,0.8c4.3,0,7-4.7,4.8-8.4
			C104.4,198.7,105,197.9,106.4,196.9z"/>
		<path class="st0" d="M67.8,175.9c-0.8,4.1-2.7,5.9-6.7,6c3.3,1.5,3.7,3.7,1.6,7.1c3.8-2,6.7-2.7,9.8-0.4c-1.6-3.6,0.9-5.1,3.1-7.4
			C71.1,182.5,69.8,179.3,67.8,175.9z"/>
		<path class="st0" d="M113.6,201.4c-0.3,4-2.4,5.4-5.8,5.6c0.4,2.1,3.3,2.2,2.4,4c-1.4,2.8-0.5,2.9,1.7,1.8
			c1.5-0.7,2.9-0.9,4.3,0.2c0.5,0.4,1.2,0.6,2.4,1.2c-1.5-3.6,0.5-5.5,3.1-7.9C117,207.8,115.9,204.3,113.6,201.4z"/>
		<path class="st0" d="M110.6,191.9c2.6-3.8,3-8.1,2.7-12.6c-0.2-1.8-0.5-3.6,1.8-4.5c1-0.4,2.2-1.7,1.2-2.8c-1-1-2.5-0.5-3.7,0.2
			c-1.6,1-1.2,2.6-1.2,4.1c-0.2,5.2,0,10.5-2.2,15.5C109.7,191.3,110.2,191.4,110.6,191.9z"/>
		<path class="st0" d="M109.2,191.8c0.5,0,1,0.1,1.5,0.1C110.2,191.4,109.7,191.3,109.2,191.8z"/>
		<path class="st0" d="M180.8,144.7c-0.1-0.2-0.1-0.4-0.2-0.5c-1.9-4.8,2-6.4,4.6-8.6c-0.1,0-0.1,0-0.2,0c0,0-0.1,0.1-0.1,0.1
			c-0.1-0.1-0.1-0.1-0.2-0.2c-0.1,0-0.1,0-0.2,0c0-0.1,0-0.1-0.1-0.2c-3.9-2.9-6-7.2-8.4-11.2c-0.7-1.2-0.1-2.5,1.3-3.4
			c3.6-2.5,5.9-9.4,4.5-13.3c-1.1-2.9-3.5-3.4-6.2-3.2c-5.5,0.5-10.4,2.7-15.7,4.6c1.4,1.4,3.5,2.5,3.4,4.8
			c-0.1,1.4-1.6,1.5-2.8,1.5c-0.2,0-0.4-0.1-0.5-0.1c-0.2,0.5-0.3,1-0.5,1.4c0.1,0.1,0.3,0.3,0.4,0.4c0.5,0.9,1,1.7,0.3,2.7
			c-0.2,0.1-0.3,0.2-0.4,0.2c0,0.9,0.7,1.8,0.7,2.7c3,1.8,6,3.5,8.3,6.2c1.2,1.4,2.4,2.8,1.9,4.9c-0.2,0-0.5,0.1-0.7,0.1
			c-0.8,1.2-2.2,0.9-3.5,0.9c-1,0.4-2,0.9-2.9,1.6c0,1.6,1.4,1.4,2.5,1.5c1.4,0.2,3-0.5,4.6,0.8c-0.8,0.1-1.6,0.1-2.4,0.2
			c3.9,1.1,6.5,3.8,8.6,7.2c0.5,0.3,0.9,0.8,0.9,1.6c0.1,0.1,0.1,0.2,0.2,0.3C178.9,146.6,179.9,145.7,180.8,144.7z"/>
		<path class="st0" d="M163.6,135.9c0,0.1,0,0.1,0,0.2c0.9-0.7,1.9-1.2,2.9-1.6c-0.2,0-0.4,0-0.6,0
			C164.9,134.6,163.7,134.5,163.6,135.9z"/>
		<path class="st0" d="M177.8,147.3c0,0.1,0,0.3,0,0.5c0.1-0.1,0.1-0.1,0.2-0.2C177.9,147.5,177.8,147.4,177.8,147.3z"/>
		<path class="st0" d="M168.3,138.5c-1.2,0.1-2.3,0.2-3.4,0.3c2.4,1.4,6.9-0.5,7.1,4.6c0,0.6,2.2,1.2,3.4,1.7c0.5,0.2,1,0.4,1.4,0.7
			C174.8,142.3,172.2,139.6,168.3,138.5z"/>
		<path class="st0" d="M170.6,133.5c0.4-2.1-0.7-3.5-1.9-4.9c-2.3-2.7-5.3-4.4-8.3-6.2c0,0.3-0.1,0.6-0.3,0.8
			c3.7,2.9,8,5.2,10.1,9.7c-0.1,0.2-0.2,0.4-0.3,0.6C170.2,133.6,170.4,133.5,170.6,133.5z"/>
		<path class="st0" d="M184.9,135.6c0,0,0.1-0.1,0.1-0.1c-0.1,0-0.2,0-0.3,0C184.8,135.5,184.9,135.6,184.9,135.6z"/>
		<path class="st0" d="M160.1,119.5c0.7-1,0.2-1.9-0.3-2.7c-0.1-0.1-0.2-0.3-0.4-0.4c-0.1,0.3-0.2,0.6-0.3,0.8
			c0.3,0.5,0.6,1.1,0.9,1.6c-0.3,0.3-0.4,0.6-0.4,0.9C159.8,119.6,160,119.6,160.1,119.5z"/>
		<path class="st0" d="M160.4,115c1.2,0,2.8-0.1,2.8-1.5c0.1-2.3-2-3.4-3.4-4.8c5.3-1.9,10.2-4.1,15.7-4.6c2.7-0.2,5.2,0.3,6.2,3.2
			c1.4,3.8-0.9,10.8-4.5,13.3c-1.3,0.9-2,2.2-1.3,3.4c2.4,4.1,4.5,8.3,8.4,11.2c-1-3.8-4-6.4-6.2-9.4c-0.9-1.2-2-4.4-0.8-4.1
			c4.9,1.2,4-3.1,4.7-4.8c1.7-4.2,2.7-9.1-0.8-12.7c-2.5-2.5-6.3-1.1-9.7-0.7c-5.4,0.6-9.8,5.3-15.9,3.1c1,3.4,4.3,3,5.9,5.1
			c2.6,3.4-0.5,2-1.6,2.4c-0.1,0.2-0.2,0.5-0.3,0.7C160.1,114.9,160.3,115,160.4,115z"/>
		<path class="st0" d="M180.6,144.1c0.1,0.2,0.2,0.4,0.2,0.5c0.4-0.4,0.7-0.7,1.1-1.1c-0.8-1.2-2.1-2.4,0-3.7
			c1.7-1.1,3.3-2.3,4.1-4.3c-0.3,0-0.5-0.1-0.8-0.1C182.6,137.8,178.7,139.4,180.6,144.1z"/>
		<path class="st0" d="M185,143c2.9,1.3,5,2.7,2.8,6c3.3-2.1,6.1-1.2,9.3,0.2c-3.2-4.3,1.9-4.9,2.9-7.7c-4.1,1.3-6-1.1-8.2-5.2
			C192,142,188.1,141.4,185,143z"/>
		<path class="st0" d="M143.6,137c-0.3,4.1-2.9,5.2-6.8,5.5c3.2,1.6,3.9,3.6,1.6,7.2c3.8-2.1,6.6-2.5,10-0.5c-2.6-4.2,1.7-4.9,3-7.7
			C147.1,142.7,145.2,140.5,143.6,137z"/>
		<path class="st0" d="M169.8,133.6c-0.6,0.1-1.2,0.3-1.8,0.4C168.6,134.2,169.2,134.1,169.8,133.6z"/>
		<path class="st0" d="M162.8,136.7c-0.8,0.8-1.5,1.7-2,3c-1.5,3.1-3.3-0.9-4.8-1.4c1.8,3.4,4.1,4,7,0.7c0.5-0.6,1.4-0.8,2.2-0.9
			C164.1,138.1,163.1,137.8,162.8,136.7z"/>
		<path class="st0" d="M168,138.1c-0.8,0-1.6,0-2.5,0c0.2,0,0.5,0,0.7,0.1C166.8,138.1,167.5,138.2,168,138.1z"/>
		<path class="st0" d="M166.2,138.1c-0.2,0-0.5,0-0.7-0.1c0,0-0.1,0-0.1,0c-0.1,0-0.1,0-0.2,0c-0.8,0.1-1.7,0.3-2.2,0.9
			c-2.9,3.3-5.3,2.8-7-0.7c1.5,0.5,3.4,4.6,4.8,1.4c0.6-1.3,1.3-2.2,2-3c0-0.1-0.1-0.2-0.1-0.4c-0.2-1.8,1.1-2.1,2.5-2.5
			c0.8-0.3,1.8,0.1,2.7,0.2c0.6-0.2,1.2-0.3,1.8-0.4c0.2-0.2,0.3-0.4,0.5-0.6c-5.7-1-9.5,0.9-10.3,7.3c-2.8-2.1-4.3-5.5-8.1-3.5
			c3.5,1.1,4.8,4.1,6.5,7c2.3-1.8,4.4-3.4,6.5-5.1C165.3,138.3,165.7,138.2,166.2,138.1z"/>
		<path class="st0" d="M165.2,138.1c0.1,0,0.1,0,0.2,0c0.1,0,0.1,0,0.1,0c0.9,0,1.7,0,2.5,0c-0.6,0.2-1.2,0-1.8,0.1
			c0.8,0.1,1.5,0.2,2.1,0.4c0.8-0.1,1.5-0.1,2.4-0.2c-1.6-1.3-3.2-0.6-4.6-0.8c-1.1-0.2-2.5,0-2.5-1.5c-0.3,0.2-0.5,0.4-0.7,0.7
			C163.1,137.8,164.1,138.1,165.2,138.1z"/>
		<path class="st0" d="M167.9,134c-0.5,0.1-1,0.3-1.4,0.4c1.3,0,2.6,0.4,3.5-0.9c-0.1,0-0.1,0-0.2,0
			C169.2,134.1,168.6,134.2,167.9,134z"/>
		<path class="st0" d="M165.2,133.8c-1.4,0.5-2.7,0.8-2.5,2.5c0,0.1,0,0.3,0.1,0.4c0.2-0.2,0.5-0.5,0.7-0.7c0-0.1,0-0.1,0-0.2
			c0.1-1.3,1.3-1.2,2.3-1.4c0.2,0,0.4,0,0.6,0c0.5-0.2,0.9-0.3,1.4-0.4C167,133.9,166.1,133.5,165.2,133.8z"/>
		<path class="st0" d="M165.2,138.1c0.1,0,0.1,0,0.2,0c0,0,0.1,0,0.1,0c-0.1,0-0.1,0-0.1,0C165.3,138.1,165.2,138.1,165.2,138.1z"/>
		<path class="st0" d="M170,133.6c0.1-0.2,0.2-0.4,0.3-0.6c-0.2,0.3-0.3,0.5-0.5,0.6C169.8,133.6,169.9,133.6,170,133.6z"/>
		<path class="st0" d="M166.2,138.1c-0.5,0-0.9,0.2-1.3,0.7c1.1-0.1,2.2-0.2,3.4-0.3C167.6,138.3,166.9,138.2,166.2,138.1z"/>
		<path class="st0" d="M185.5,135.2C185.5,135.2,185.5,135.2,185.5,135.2c3.6-5.7,2.8-12.2,3.5-18.4c-1.1,6.1,0.3,12.9-3.7,18.3
			C185.3,135.2,185.4,135.2,185.5,135.2z"/>
		<path class="st0" d="M184.6,135.4C184.6,135.4,184.6,135.4,184.6,135.4C184.6,135.4,184.5,135.4,184.6,135.4
			C184.6,135.4,184.6,135.4,184.6,135.4z"/>
		<path class="st0" d="M185.3,135.1c4-5.5,2.6-12.2,3.7-18.3c-0.7,6.2,0.1,12.7-3.4,18.4c0,0,0,0-0.1,0.1c0.2,0.1,0.3,0.2,0.5,0.4
			c3.5-4,3.9-8.8,3.5-13.8c-0.1-1.7-0.6-3.2,1.6-4.2c1-0.4,2.1-1.4,1.6-2.8c-0.1-0.4-1.1-0.6-1.7-0.6c-1.3,0.2-2.8,0.4-3.2,1.9
			c-0.2,1,0.1,2-0.1,3c-0.9,5.4,0.1,11.2-3.1,16.1c0,0,0,0,0,0C184.8,135.2,185.1,135.1,185.3,135.1z"/>
		<path class="st0" d="M185.3,135.1c-0.1,0.1-0.2,0.2-0.3,0.3c0.1,0,0.1,0,0.2,0c0.1-0.1,0.2-0.2,0.3-0.3
			C185.4,135.2,185.3,135.2,185.3,135.1z"/>
		<path class="st0" d="M184.5,135.4c0.1,0,0.1,0,0.2,0C184.7,135.4,184.7,135.4,184.5,135.4C184.6,135.4,184.6,135.4,184.5,135.4z"
			/>
		<path class="st0" d="M185.2,135.5c0.3,0,0.5,0.1,0.8,0.1c-0.2-0.2-0.3-0.3-0.5-0.4C185.4,135.3,185.3,135.4,185.2,135.5z"/>
		<path class="st0" d="M184.6,135.4c0,0,0.1,0.1,0.1,0.1c0.1,0,0.2,0,0.3,0c0.1-0.1,0.2-0.2,0.3-0.3
			C185.1,135.1,184.8,135.2,184.6,135.4z"/>
		<path class="st0" d="M180.9,146.5c-0.6,0.7-1.5,1.2-2.8,1.2c0,0.1,0.1,0.2,0.1,0.2c-0.5,0.8-1.2,1.3-1.9,1.7c1.3,0,2.7,0.3,4,1.1
			C180,149.4,180.6,147.9,180.9,146.5z"/>
		<path class="st0" d="M176.2,149.6c0.8-0.3,1.4-0.8,1.9-1.7c0-0.1-0.1-0.2-0.1-0.2c-0.1,0-0.2,0-0.3,0c-1.2,1.8-3,0.8-4.5,1
			c-1.5,0.1-2.6,0.3-1.9,2.2C173,150.1,174.6,149.6,176.2,149.6z"/>
		<path class="st0" d="M180.3,150.7c0.1,0.1,0.3,0.1,0.4,0.2c1.1-2.3,2.5-4.6,1.2-7.3c-0.1,1.2-0.4,2.2-1,2.9
			C180.6,147.9,180,149.4,180.3,150.7z"/>
		<path class="st0" d="M176.2,149.6c-1.2,0.6-2.7,0.7-3.9,1.3c2.7,0,5.3,0,8,0c0-0.1,0-0.1,0-0.2C178.9,150,177.6,149.7,176.2,149.6
			z"/>
		<path class="st0" d="M180.3,150.9c0.1,0,0.2,0,0.3,0c-0.1-0.1-0.3-0.1-0.4-0.2C180.3,150.8,180.3,150.9,180.3,150.9z"/>
		<path class="st0" d="M176.2,149.6c-1.6,0-3.2,0.5-4.9,1.3c0.3,0,0.6,0,0.9,0C173.6,150.4,175,150.2,176.2,149.6z"/>
		<path class="st0" d="M180.9,146.5c0.1-0.6,0.1-1.2,0-1.8c-1,1-1.9,1.9-2.9,2.9c0,0.1,0.1,0.1,0.1,0.2
			C179.3,147.7,180.2,147.3,180.9,146.5z"/>
		<path class="st0" d="M178,147.6c-0.1,0.1-0.1,0.1-0.2,0.2c0.1,0,0.2,0,0.3,0C178,147.7,178,147.6,178,147.6z"/>
		<path class="st0" d="M180.9,146.5c0.6-0.7,0.9-1.7,1-2.9c-0.4,0.4-0.7,0.7-1.1,1.1C181,145.3,181,145.9,180.9,146.5z"/>
		<path class="st0" d="M159.3,114.7c-2.4-0.7-4.4-2.2-6.5-3.6c2,1.7,4.3,2.9,6.2,4.7C158.9,115.4,159,115,159.3,114.7z"/>
		<path class="st0" d="M152.7,111.1c2.1,1.4,4.1,2.9,6.5,3.6c0.2-0.2,0.5-0.4,0.9-0.6c-4-0.4-6.4-6.6-11.5-3.3
			c4.6,0.4,6.8,4.5,10.4,6.3c-0.1-0.5-0.2-0.9-0.2-1.3C157.1,114,154.7,112.8,152.7,111.1z"/>
		<path class="st0" d="M158.9,115.8c0.2,0.2,0.3,0.3,0.5,0.5c0.2-0.5,0.3-1,0.5-1.4c-0.2,0-0.4-0.1-0.6-0.1
			C159,115,158.9,115.4,158.9,115.8z"/>
		<path class="st0" d="M158.9,115.8c0,0.4,0.1,0.9,0.2,1.3c0.1-0.3,0.2-0.6,0.3-0.8C159.2,116.1,159.1,116,158.9,115.8z"/>
		<path class="st0" d="M159.3,114.7c0.2,0.1,0.4,0.1,0.6,0.1c0.1-0.2,0.2-0.5,0.3-0.7C159.8,114.3,159.5,114.5,159.3,114.7z"/>
		<path class="st0" d="M159.2,119.9c-3.6,1.4-6.6-1.3-10.3-1.5c3.8,0.8,7.2,1.9,10.4,3.5C159,121.2,159,120.5,159.2,119.9z"/>
		<path class="st0" d="M148.9,118.4c3.7,0.2,6.8,2.9,10.3,1.5c0.2-0.4,0.4-0.8,0.8-1.1c-3.1,1-5.9,0.1-8.7-1.2
			c-1.4-0.7-2.4,0.1-2.7,1.3c-0.3,1.4,1.1,1.5,2,1.4c3.6-0.2,6.2,2.3,9.4,3c-0.4-0.5-0.7-1-0.9-1.4
			C156.1,120.2,152.7,119.2,148.9,118.4z"/>
		<path class="st0" d="M159.3,121.8c0.4,0.2,0.7,0.4,1.1,0.6c0,0,0,0,0,0c0-0.9-0.8-1.8-0.7-2.7c-0.1,0.1-0.3,0.1-0.4,0.2
			C159,120.5,159,121.2,159.3,121.8z"/>
		<path class="st0" d="M159.7,119.7c0-0.3,0.1-0.6,0.4-0.9c-0.4,0.4-0.6,0.8-0.8,1.1C159.4,119.8,159.5,119.8,159.7,119.7z"/>
		<path class="st0" d="M160.4,122.4c-0.4-0.2-0.7-0.4-1.1-0.6c0.2,0.5,0.5,1,0.9,1.4C160.3,123,160.4,122.7,160.4,122.4
			C160.4,122.4,160.4,122.4,160.4,122.4z"/>
		<path class="st0" d="M96.4,250.4c-1-1.5,0.6-3.8-1.7-4.5c-2.5-0.8-2.4,2.6-4.3,2.9c-1.5-1,0.8-3.9-2.8-4.4c0.8,2.9-1.2,6.2,1.5,8
			c2.1,1.4,2.5-2.6,4.4-3.2c1.6,1.3-0.2,5.3,2.6,4.7c2.7-0.6,4.1-3.7,4.7-6.8C98.1,247,98.4,249.6,96.4,250.4z"/>
		<path class="st0" d="M47.2,217.2c-0.8,0.6-2.4,1.6-1.2,2.8c1.3,1.3,2.1-0.4,2.6-1.3c1.5-2.2,3.2-3.1,6-2.4
			c-2.1-1.8-4.1-3.5-6.2-5.3C50,213.8,49.2,215.5,47.2,217.2z"/>
		<path class="st0" d="M202.4,221.9c1.6,0.4,2.2-0.9,3.2-1.7c1-0.9,1-1.6,0.3-2.5c-0.4-0.5-1-1.1-1.6-0.6c-0.7,0.6-0.3,1.6-0.5,2.4
			c0,0.1-0.1,0.2-0.1,0.3C204.6,221,203.1,221.3,202.4,221.9z"/>
		<path class="st0" d="M203.7,219.5c0.2-0.8-0.1-1.8,0.5-2.4c0.6-0.5,1.2,0.1,1.6,0.6c0.8,0.9,0.7,1.6-0.3,2.5
			c-1,0.9-1.6,2.2-3.2,1.7c-0.1,0.1-0.2,0.2-0.3,0.4c1.3,1,3.3,3.4,3.7,0c0.2-2.2,0.1-2.2,1.8-1.3c0.8,0.4,1.6,0.1,1.5-0.5
			c-0.5-2.4-2.6-3.8-3.9-5.7c-0.5-0.8-1.3-0.9-2.1-0.3c-2.2,1.7-0.6,3.3,0.2,4.9c0.1,0.1,0.3,0.3,0.4,0.4
			C203.6,219.6,203.7,219.6,203.7,219.5z"/>
		<path class="st0" d="M202,222c-0.3-1,1.4-1.2,1.4-2c-0.7,1.1-1.8,1.1-3,0.6c-1.6-0.6-2.7,0-3.9,0.7c2.2,0.5,3.7,1.9,4.7,3.6
			C200.8,223.9,200.4,222.8,202,222z"/>
		<path class="st0" d="M201.3,224.9c0.3,0.5,0.6,1.1,0.8,1.7l0,0c1.1-1.1,0.4-2-0.4-2.8c-0.7-0.7-0.8-1.4,0.5-1.5
			c-0.1-0.1-0.1-0.2-0.1-0.2C200.4,222.8,200.8,223.9,201.3,224.9z"/>
		<path class="st0" d="M196.6,221.3c1.2-0.7,2.4-1.3,3.9-0.7c1.1,0.5,2.3,0.5,3-0.6c0-0.2-0.1-0.4-0.2-0.6c-1.4,2.2-2.1,0-3-0.5
			c-2.7-1.3-3.6-0.3-3.7,2.4c0,0,0,0,0,0C196.5,221.3,196.5,221.3,196.6,221.3z"/>
		<path class="st0" d="M196.6,221.3C196.5,221.3,196.5,221.3,196.6,221.3c2.1,1.3,2.7,4.2,5.2,5.2c0-0.5-0.3-1-0.5-1.6
			C200.2,223.1,198.8,221.8,196.6,221.3z"/>
		<path class="st0" d="M201.3,224.9c0.2,0.5,0.5,1.1,0.5,1.6c0.1,0,0.2,0.1,0.3,0.1C201.8,226,201.6,225.5,201.3,224.9z"/>
		<path class="st0" d="M196.4,221.2C196.4,221.2,196.4,221.2,196.4,221.2L196.4,221.2C196.5,221.3,196.5,221.3,196.4,221.2
			c0.1,0,0.1,0,0.1,0C196.5,221.3,196.5,221.3,196.4,221.2z"/>
		<path class="st0" d="M202,222c0.1-0.1,0.2-0.1,0.4-0.2c0,0,0,0,0,0c0.7-0.6,2.2-0.9,1.1-2.1c0,0.1-0.1,0.2-0.1,0.3
			C203.4,220.8,201.7,221.1,202,222z"/>
		<path class="st0" d="M202.4,221.9C202.4,221.9,202.4,221.9,202.4,221.9c-0.2,0-0.3,0.1-0.4,0.2c0,0.1,0.1,0.2,0.1,0.2
			C202.2,222.1,202.3,222,202.4,221.9z"/>
		<path class="st0" d="M203.6,219.7c-0.1-0.1-0.2-0.2-0.4-0.4c0.2,0.2,0.2,0.4,0.2,0.6C203.5,219.9,203.5,219.8,203.6,219.7z"/>
		<path class="st0" d="M213,217.4c0.2,0,0.7-0.8,0.3-1.3c-1.6-1.9-3.2-3.8-5-5.5c-0.6-0.6-1.2,0.1-1.4,0.8
			C206.6,212.2,211.3,217.4,213,217.4z"/>
		<g>
			<path class="st0" d="M47.2,217.2c-0.8,0.6-2.4,1.6-1.2,2.8c1.3,1.3,2.1-0.4,2.6-1.3c1.5-2.2,3.2-3.1,6-2.4
				c-2.1-1.8-4.1-3.5-6.2-5.3C50,213.8,49.2,215.5,47.2,217.2z"/>
			<path class="st0" d="M96.4,250.4c-1-1.5,0.6-3.8-1.7-4.5c-2.5-0.8-2.4,2.6-4.3,2.9c-1.5-1,0.8-3.9-2.8-4.4c0.8,2.9-1.2,6.2,1.5,8
				c2.1,1.4,2.5-2.6,4.4-3.2c1.6,1.3-0.2,5.3,2.6,4.7c2.7-0.6,4.1-3.7,4.7-6.8C98.1,247,98.4,249.6,96.4,250.4z"/>
			<path class="st0" d="M213,217.4c0.2,0,0.7-0.8,0.3-1.3c-1.6-1.9-3.2-3.8-5-5.5c-0.6-0.6-1.2,0.1-1.4,0.8
				C206.6,212.2,211.3,217.4,213,217.4z"/>
			<path class="st0" d="M237.6,175.3c-0.2,0-0.5-0.1-0.7-0.2c0.1,0.2,0.1,0.4,0.2,0.5C237.3,175.6,237.4,175.5,237.6,175.3z"/>
			<path class="st0" d="M241.8,168.3c-2.8,2.5-3.6,1.4-4.8-1.4c-2-4.6-2.9-9.4-3.9-14.2c-0.5-2.1,1.6-5.5-0.8-5.8
				c-2.6-0.3-3.1,3.5-3.9,5.8c-0.8,2.4-1.4,4.9-1.6,7.4c-0.4,4.8-1.4,9.4-2.9,13.9c-7.6,22.9-23,38.9-44.3,49.5c1,0.6,2,1.2,3.1,1.9
				c4.2-1.1,7.3-4.4,11.2-6.1c8.9-6.8,16.9-14.4,23.3-23.6c6.8-11,11.8-22.7,13.6-36c2,5,3.9,10.1,6,15.4c0.2,0.1,0.5,0.2,0.7,0.2
				c3.2-2.4,6.2-4.6,10-7.4c-3.3,10.7-7.5,19.9-13.8,28.1c0,0,0,0,0,0c-8.2,12.5-18.5,22.9-30.7,31.6c-3.1,2.4-6.2,4.7-9.3,7.1
				c-0.6,0.9-1.9,1.6-1.2,2.9c0.9,0.3,0.5,1.5,0.9,2.2c-0.3-2.6,2.1-2.8,3.5-3.7c13.4-8.7,25.2-19.1,35-31.7
				c10.2-13.1,17.2-27.7,21.2-44.7C249.1,162.8,245.2,165.3,241.8,168.3z"/>
			<path class="st0" d="M119,249.3c-1.1,5.2-1.1,5.2,0.3,7.8c2.5-4.3,3.4-4.2,6.9,1.2c0.6-3.1,1-5.6,0-9
				C123.6,254.4,121.2,253.9,119,249.3z"/>
			<path class="st0" d="M163.4,244.2c-2,3.6-4.3,5-8,3c1.8,2.3,4.8,3,5.6,5.9c0.1,0.2,0.9,0.5,1.2,0.3c0.3-0.2,0.8-1,0.7-1.2
				C161,249.7,164,247.6,163.4,244.2z"/>
			<path class="st0" d="M110.5,256.7c2.3-0.8,1.8-2.7,1.9-3.9c0.2-2.4,2.4-1.6,4.7-3.3c-3.8-0.4-6.4-0.7-8.9-1
				C112.6,250.2,108.8,254.4,110.5,256.7z"/>
			<path class="st0" d="M153.1,248.4c-2.7-1.7-0.5,2.7-2.5,2.8c-0.6,0-1.2,0.5-1.8,0.8c0.4,0.3,0.7,0.6,1.1,0.9
				c1.7-0.2,2.2,0.8,2.8,2.1c0.6,1.3,2,1.1,2-0.2C154.7,252.6,154.9,249.6,153.1,248.4z"/>
			<path class="st0" d="M138.1,255.2c0.1,0.9,0,2.3,1.5,2c1.2-0.2,0.9-1.3,0.6-2c-0.8-2.5-0.5-4.4,2.2-5.8c-2.5,0.3-5,0.6-7.5,0.9
				C138.2,250.6,137.8,253.1,138.1,255.2z"/>
			<path class="st0" d="M148.8,252c-1.8,0.1-1.5-4.4-3.1-2.4c-1.3,1.6-0.6,5.2,1.8,7.3c1.6-1.2-0.3-3.9,2.4-4
				C149.4,252.8,149.1,252.4,148.8,252z"/>
			<path class="st0" d="M149.9,252.9c-0.4-0.3-0.7-0.6-1.1-0.9C149.1,252.4,149.4,252.8,149.9,252.9z"/>
			<path class="st0" d="M103.9,248c-1.6,1.8-1.7,4.2-2,6.4c0,0.2,0.3,0.5,1.1,1.8c1.6-2.9,2-5.2,2-7.6
				C105,248.4,104,247.9,103.9,248z"/>
			<path class="st0" d="M33,195.7c-2.6-0.1-4.4,1.6-4.4,4c0,3.2,2,5.6,5.2,6c2.8,0.4,4.2-1.7,4.8-4.6
				C37.6,198.6,36.5,195.9,33,195.7z M33.4,203.7c-1.6-0.1-2.8-1.4-2.8-3.1c0.1-1.7,1.3-2.8,3-2.7c1.7,0.1,2.6,1.3,2.8,3
				C36.2,202.7,35,203.8,33.4,203.7z"/>
			<path class="st0" d="M30.8,190.8c-0.3-2.4-1.4-5.7-4-5.4c-2.1,0.3-5.8,1.8-5.7,4.7c0.1,2.4,2.2,4.9,5.2,5.4
				C29.1,195,31.2,193.6,30.8,190.8z M26,193.4c-1.5-0.2-2.6-1.3-2.7-2.5c-0.1-2,2.1-2.6,3.4-3c1.6-0.5,2.1,1.4,2.2,2.6
				C29.1,192.3,27.4,192.8,26,193.4z"/>
			<path class="st0" d="M44.2,210.6c-1.4,1.4-2.6,2.5-3.6,3.6C41.7,213.2,42.8,212,44.2,210.6z"/>
			<polygon class="st0" points="39.5,215.2 39.5,215.2 39.5,215.2 			"/>
			<path class="st0" d="M44.2,210.6c-1.4,1.4-2.5,2.6-3.6,3.6c-0.3,0.3-0.6,0.6-0.9,1c3.3-0.7,4.9-3.4,6.7-5.9
				c0-0.1-0.9-0.9-0.9-0.9c-2.5,1.8-5.3,3.3-5.9,6.7c0.3-0.3,0.6-0.6,1-0.9C41.6,213.1,42.8,212,44.2,210.6z"/>
			<path class="st0" d="M39.7,215.2c0.3-0.3,0.6-0.6,0.9-1C40.3,214.5,39.9,214.8,39.7,215.2C39.6,215.2,39.6,215.2,39.7,215.2
				C39.6,215.2,39.7,215.2,39.7,215.2z"/>
			<path class="st0" d="M39.6,215.2C39.6,215.2,39.5,215.2,39.6,215.2C39.5,215.2,39.5,215.2,39.6,215.2c-0.1,0,0,0.1,0,0.1
				C39.6,215.3,39.6,215.3,39.6,215.2z"/>
			<path class="st0" d="M231.8,188.2c-2.4-1-2-2.6-1.6-4.6c-2.3,1.9-3.7,4.2-4.4,7c1.8-1.4,3.2-2.3,5.2-0.5c0.9,0.8,2.5,3,3.6,1
				C235.5,189.4,233,188.8,231.8,188.2z"/>
			<path class="st0" d="M220.3,199c0.8,0.8,1.8,1.3,2.7,1.7c1.9,0.9,0.4-1.3,1.1-1.6c0-0.1,0-0.1,0.1-0.2c-0.2,0.1-0.4,0.3-0.6,0.4
				C222.4,199.8,221.4,199.5,220.3,199z"/>
			<path class="st0" d="M223.6,199.4c0.2-0.1,0.4-0.2,0.6-0.4c0,0,0-0.1,0-0.1c-0.3,0-0.6,0-0.8,0c-1.6,0.6-2.4-1.5-3.9-1.2
				c0.2,0.6,0.5,1.1,0.9,1.4C221.4,199.5,222.4,199.8,223.6,199.4z"/>
			<path class="st0" d="M224.2,199c0,0.1,0,0.1-0.1,0.2c-0.7,0.3,0.8,2.5-1.1,1.6c-0.9-0.4-2-0.9-2.7-1.7c-0.3-0.1-0.6-0.3-0.9-0.4
				c-0.1-0.1-0.2-0.2-0.3-0.3c-0.3,1.2,0.9,1.7,1.8,2.3c1.6,1,3.1,3.8,4.7,2.9c2.8-1.6-2.8-2.5-1.1-4.6
				C224.4,198.9,224.4,198.9,224.2,199C224.2,198.9,224.2,198.9,224.2,199z"/>
			<path class="st0" d="M220.3,199c-0.4-0.4-0.7-0.9-0.9-1.4c-0.2,0.3-0.3,0.5-0.4,0.7c0.1,0.1,0.2,0.2,0.3,0.3
				C219.7,198.8,220,198.9,220.3,199z"/>
			<path class="st0" d="M224.2,199C224.2,198.9,224.2,198.9,224.2,199C224.3,198.9,224.2,198.9,224.2,199
				C224.2,198.9,224.2,198.9,224.2,199z"/>
			<path class="st0" d="M225.2,197.2c0.8-0.6,1.8-0.6,2.8-0.4c-0.9-0.5-1.7-1.1-2.6-1.8C225.4,195.7,225.4,196.5,225.2,197.2z"/>
			<path class="st0" d="M224.3,198.7c0.2-0.7,0.6-1.2,0.9-1.5c0.2-0.7,0.2-1.5,0.2-2.3c0.9,0.7,1.7,1.4,2.6,1.8
				c0.8,0.1,1.7,0.3,2.5,0.2c-2.7-0.9-4-4.4-8.2-3.9c2.3,2,2.7,3.8,1,5.8C223.7,198.6,224,198.5,224.3,198.7z"/>
			<path class="st0" d="M228,196.7c-1-0.1-2-0.2-2.8,0.4c-0.1,0.6-0.4,1.2-0.8,1.6c0,0,0.1,0.1,0.1,0.1c1.1-0.5,1.7-2.8,3.5-0.8
				c1.3,1.4,2,0.7,2.4-0.5c0,0-0.1,0-0.1,0C229.5,197.4,228.7,197.1,228,196.7z"/>
			<path class="st0" d="M228,196.7c0.7,0.4,1.4,0.7,2.3,0.8c0,0,0.1,0,0.1,0c0-0.2,0.1-0.4,0.1-0.6C229.7,197,228.9,196.8,228,196.7
				z"/>
			<path class="st0" d="M224.4,198.8c0.4-0.5,0.7-1,0.8-1.6c-0.4,0.3-0.7,0.8-0.9,1.5C224.3,198.7,224.3,198.7,224.4,198.8z"/>
			<path class="st0" d="M224.3,198.7c-0.3-0.2-0.6-0.1-0.9,0.2l0,0c0.3,0,0.6,0,0.8,0C224.2,198.8,224.3,198.8,224.3,198.7z"/>
			<path class="st0" d="M224.3,198.9c0.1,0,0.2,0,0.3,0c0-0.1-0.1-0.1-0.1-0.1C224.3,198.8,224.3,198.8,224.3,198.9z"/>
			<path class="st0" d="M224.2,198.9C224.2,198.9,224.3,198.9,224.2,198.9c0.1,0,0.1-0.1,0.2-0.1c0,0-0.1-0.1-0.1-0.1
				C224.3,198.8,224.2,198.8,224.2,198.9z"/>
			<path class="st0" d="M213.5,211.5c1.9,1.6,3.8,1.2,5.5-0.2c1.7-1.4,3.6-2.9,2.8-5.4c-0.5-1.7-1.9-2.3-3.5-0.9
				c1,0.6-4,2.2,0.4,2.1c2.2-0.1,0.9,1.2,0.5,1.7c-0.8,1.1-1.9,2-3.4,1.4c-1.2-0.4-2.1-1.4-2-2.6c0.2-2.1,1.6-3.2,3.7-3.4
				c0.5-0.5,0.9-1.5,0.3-1.6c-2.8-0.6-4.3,1.4-5.5,3.5C211.1,208.2,211.7,210,213.5,211.5z"/>
		</g>
	</g>
</g>
<g>
	<g>
		<path class="st1" d="M270.7,23.8h-14.4v-6.3h35.8v6.3h-14.4V82h-7.1V23.8z"/>
		<path class="st1" d="M304.4,14.4v25.3c1.7-3.9,5.4-6.7,11.5-6.7c7.1,0,12.1,4.4,12.1,14.7V82h-7V49.2c0-5.9-1.7-10-7.6-10
			c-6.6,0-9,5.4-9,13.9v29h-7V14.4H304.4z"/>
		<path class="st1" d="M344,59.2c0,9.4,1.6,17.7,9.3,17.7c7.6,0,8.5-7.2,8.8-8.6h6.8c-0.1,1.2-1.5,14.6-15.7,14.6
			c-14.2,0-16.2-13-16.2-25c0-15.2,5.2-24.9,16.5-24.9c12.7,0,15.7,10.4,15.7,22.5c0,0.9,0,2.5-0.1,3.7H344z M362.3,53.8
			c0-8.3-1.8-14.8-8.8-14.8c-8.8,0-9.2,11.5-9.4,14.8H362.3z"/>
	</g>
	<g>
		<path class="st1" d="M313.6,142c0-13.3,0.2-27.8,0.4-36.1h-0.3c-2.7,13.9-7.8,41.3-13.1,65.6H290c-3.9-22.1-9.3-51.4-11.8-65.8
			h-0.4c0.4,8.8,0.8,24.9,0.8,37.9v27.9h-10.8V96.1h17.5c4.7,21.8,9,45.5,10.6,56.1h0.1c1.5-9.5,7.1-35.2,11.8-56.1h17.1v75.4h-11.3
			V142z"/>
		<path class="st1" d="M350.2,96.1v75.4h-11.7V96.1H350.2z"/>
		<path class="st1" d="M406.5,149.9c-0.3,4-1.9,22.8-22,22.8c-21,0-23.1-19.6-23.1-39.2c0-23.6,6.7-38.6,24-38.6
			c19.4,0,20.7,17.1,21,22.7h-11.6c-0.2-2.6-0.5-12.6-9.6-12.6c-9.6,0-11.6,12.4-11.6,28.8c0,14.8,1.5,29.1,11.2,29.1
			c8.7,0,9.7-9.7,10-12.9H406.5z"/>
		<path class="st1" d="M461.3,133.2c0,26.9-7,39.5-24,39.5c-16,0-23.4-12.3-23.4-39.6c0-26.7,8.6-38.2,23.9-38.2
			C454,94.9,461.3,107.2,461.3,133.2z M425.9,133c0,19.1,3.3,29.8,11.7,29.8c8.8,0,11.7-10.1,11.7-29.8c0-19-3.1-28.1-11.7-28.1
			C429.1,104.9,425.9,114.9,425.9,133z"/>
	</g>
	<g>
		<path class="st1" d="M266.2,188.5h25.1v5.4h-19.2V212h18v5.3h-18v25.7h-6V188.5z"/>
		<path class="st1" d="M328.5,215.3c0,18.6-4.4,28.6-16.3,28.6c-11.2,0-15.9-9.6-15.9-28.5c0-18.6,5.5-27.7,16.2-27.7
			C323.9,187.7,328.5,196.8,328.5,215.3z M302.6,215.3c0,15.6,3.1,23.4,9.9,23.4c7,0,9.9-7.6,9.9-23.3c0-15.9-3.1-22.4-9.9-22.4
			C305.8,192.9,302.6,200.4,302.6,215.3z"/>
		<path class="st1" d="M343,188.5v38.3c0,6,1.7,11.9,9,11.9c7.2,0,9-5,9-12v-38.3h6v38.4c0,9.9-3.6,17.1-15.1,17.1
			c-11.1,0-14.8-6.7-14.8-16.7v-38.7H343z"/>
		<path class="st1" d="M377.1,243.1v-54.6h7.4c15.1,37.8,17.2,42.9,17.9,45.3h0.1c-0.4-7.3-0.5-15.6-0.5-24.4v-20.9h5.6v54.6h-7.1
			c-15.7-39.7-17.6-44.7-18.2-46.9h-0.1c0.4,6.8,0.5,15.8,0.5,25.6v21.3H377.1z"/>
		<path class="st1" d="M418.4,188.5h12.1c12.6,0,18.2,8.8,18.2,25.9c0,18.5-5.1,28.7-19.1,28.7h-11.3V188.5z M424.4,237.9h5
			c10,0,13.2-7.9,13.2-23.4c0-14.5-3.7-20.9-13.1-20.9h-5.1V237.9z"/>
		<path class="st1" d="M462.7,225.7l-4,17.3h-6l13.2-54.6h7.8l13.6,54.6h-6.4l-4-17.3H462.7z M475.6,220.4
			c-3.2-13.4-5.2-22-5.9-26.3h-0.2c-0.7,4.8-3,14.6-5.7,26.3H475.6z"/>
		<path class="st1" d="M495.9,193.8h-12.2v-5.4H514v5.4h-12.2v49.3h-6V193.8z"/>
		<path class="st1" d="M525.9,188.5v54.6h-6v-54.6H525.9z"/>
		<path class="st1" d="M566.8,215.3c0,18.6-4.4,28.6-16.3,28.6c-11.2,0-15.9-9.6-15.9-28.5c0-18.6,5.5-27.7,16.2-27.7
			C562.1,187.7,566.8,196.8,566.8,215.3z M540.8,215.3c0,15.6,3.1,23.4,9.9,23.4c7,0,9.9-7.6,9.9-23.3c0-15.9-3.1-22.4-9.9-22.4
			C544,192.9,540.8,200.4,540.8,215.3z"/>
		<path class="st1" d="M575.5,243.1v-54.6h7.4c15.1,37.8,17.2,42.9,17.9,45.3h0.1c-0.4-7.3-0.5-15.6-0.5-24.4v-20.9h5.6v54.6h-7.1
			c-15.7-39.7-17.6-44.7-18.2-46.9h-0.1c0.4,6.8,0.5,15.8,0.5,25.6v21.3H575.5z"/>
	</g>
</g>
</svg>
