<?xml version="1.0" standalone="no"?>
<!DOCTYPE svg PUBLIC "-//W3C//DTD SVG 1.1//EN" "http://www.w3.org/Graphics/SVG/1.1/DTD/svg11.dtd" >
<svg xmlns="http://www.w3.org/2000/svg">
<metadata></metadata>
<defs>
<font id="replica_std_regularregular" horiz-adv-x="1187" >
<font-face units-per-em="2048" ascent="1597" descent="-451" />
<missing-glyph horiz-adv-x="532" />
<glyph horiz-adv-x="0" />
<glyph horiz-adv-x="0" />
<glyph horiz-adv-x="682" />
<glyph unicode="&#xd;" horiz-adv-x="0" />
<glyph unicode=" "  horiz-adv-x="532" />
<glyph unicode="&#x09;" horiz-adv-x="532" />
<glyph unicode="&#xa0;" horiz-adv-x="532" />
<glyph unicode="!" horiz-adv-x="737" d="M246 20v205l20 21h205l21 -21v-205l-21 -20h-205zM266 901v512l21 21h164l20 -21v-512l-41 -471l-20 -20h-82l-21 20z" />
<glyph unicode="&#x22;" horiz-adv-x="942" d="M164 819v594l20 21h164l21 -21v-594l-21 -20h-164zM573 819v594l21 21h164l20 -21v-594l-20 -20h-164z" />
<glyph unicode="#" horiz-adv-x="1331" d="M61 430v123l21 20h205l20 21l62 246l-21 20h-164l-20 21v123l20 20h226l20 20l102 369l21 21h102l21 -21v-143l-62 -226l21 -20h246l20 20l103 369l20 21h102l21 -21v-143l-62 -226l21 -20h143l21 -20v-123l-21 -21h-205l-20 -20l-61 -246l20 -21h164l20 -20v-123 l-20 -20h-225l-21 -21l-102 -369l-21 -20h-102l-21 20v144l62 225l-21 21h-245l-21 -21l-102 -369l-21 -20h-102l-21 20v144l62 225l-21 21h-143zM492 594l20 -21h246l20 21l62 246l-21 20h-246l-20 -20z" />
<glyph unicode="$" horiz-adv-x="1228" d="M82 451l20 20h164l21 -20q0 -122 49 -197.5t176 -89.5l20 20v451l-20 20q-205 47 -307.5 146t-102.5 264q0 151 97 255.5t313 133.5l20 21v122l21 21h123l20 -21v-122l21 -21q180 -15 284.5 -135.5t104.5 -294.5l-21 -20h-163l-21 20q0 96 -47.5 164t-136.5 82l-21 -21 v-409l21 -21q430 -86 430 -430q0 -47 -11 -94t-41 -100t-76 -95t-124 -75t-178 -45l-21 -21v-123l-20 -20h-123l-21 20v123l-20 21q-225 30 -327.5 148t-102.5 323zM307 1065q0 -172 205 -205l20 21v368l-20 21q-112 -14 -158.5 -72.5t-46.5 -132.5zM696 184l21 -20 q107 15 166 74t59 151q0 188 -225 225l-21 -20v-410z" />
<glyph unicode="%" horiz-adv-x="1843" d="M82 1065q0 178 85.5 283.5t262.5 105.5t262.5 -105.5t85.5 -283.5t-85.5 -283.5t-262.5 -105.5t-262.5 105.5t-85.5 283.5zM266 1065q0 -112 37.5 -168.5t126.5 -56.5t126.5 56.5t37.5 168.5t-37.5 168.5t-126.5 56.5t-126.5 -56.5t-37.5 -168.5zM451 20v144l819 1249 l20 21h82l21 -21v-143l-820 -1250l-20 -20h-82zM1065 369q0 178 85.5 283.5t262.5 105.5t262.5 -105.5t85.5 -283.5t-85.5 -283.5t-262.5 -105.5t-262.5 105.5t-85.5 283.5zM1249 369q0 -113 37.5 -169.5t126.5 -56.5t126.5 56.5t37.5 169.5q0 112 -37.5 168.5t-126.5 56.5 t-126.5 -56.5t-37.5 -168.5z" />
<glyph unicode="&#x26;" horiz-adv-x="1536" d="M164 410q0 82 21 146.5t62 112.5t89 82t115 68v21q-56 56 -89.5 122.5t-33.5 163.5q0 57 21 112t62.5 105t115.5 80.5t169 30.5t165.5 -27t109 -73.5t56 -98t17.5 -108.5q0 -226 -245 -348v-21l307 -307h20q42 57 52 121.5t10 206.5l20 20h164l21 -20q0 -79 -2 -120 t-13 -104.5t-37.5 -122t-70.5 -124.5v-21l143 -143v-144l-20 -20h-82l-41 20l-123 123h-21q-100 -83 -206 -123t-265 -40q-238 0 -364.5 119t-126.5 311zM369 410q0 -119 79 -182.5t207 -63.5q205 0 328 123v20l-389 389h-21q-118 -59 -161 -124t-43 -162zM532 1126 q0 -39 16 -73.5t36 -57t71 -73.5h21q164 82 164 204q0 144 -144 144q-84 0 -124 -44.5t-40 -99.5z" />
<glyph unicode="'" horiz-adv-x="532" d="M164 819v594l20 21h164l21 -21v-594l-21 -20h-164z" />
<glyph unicode="(" horiz-adv-x="860" d="M164 512q0 133 1 201t21.5 151.5t36.5 120t80 118t114.5 133t176.5 177.5l41 21h41l20 -21v-143l-84.5 -84.5t-67 -70.5t-55.5 -63t-40 -57.5t-32 -58t-20.5 -60t-15.5 -69t-7 -80.5t-5 -98v-117v-117t5 -98t7 -80.5t15.5 -69t20.5 -60t32 -58t40 -57.5t55.5 -63 t67 -70.5l84.5 -84.5v-143l-20 -21h-41l-41 21q-126 126 -176.5 177.5t-114.5 133t-80 118t-36.5 120t-21.5 151.5t-1 201z" />
<glyph unicode=")" horiz-adv-x="860" d="M164 -246q94 94 132.5 133.5t87.5 103.5t61 96.5t28.5 104.5t17.5 136.5t1 183.5t-1 183.5t-17.5 136.5t-28.5 104.5t-61 96.5t-87.5 103.5t-132.5 133.5v143l20 21h41l41 -21q126 -126 176.5 -177.5t114.5 -133t80 -118t36.5 -120t21.5 -151.5t1 -201t-1 -201 t-21.5 -151.5t-36.5 -120t-80 -118t-114.5 -133t-176.5 -177.5l-41 -21h-41l-20 21v143z" />
<glyph unicode="*" horiz-adv-x="1208" d="M164 983v21l20 20h328v20l-225 226v20l20 21h21l225 -226h20v328l21 21h20l21 -21v-328h20l226 226h20l21 -21v-20l-226 -226v-20h328l20 -20v-21l-20 -20h-328v-21l226 -225v-21l-21 -20h-20l-226 225h-20v-328l-21 -20h-20l-21 20v328h-20l-225 -225h-21l-20 20v21 l225 225v21h-328z" />
<glyph unicode="+" horiz-adv-x="1208" d="M123 451v143l20 20h349l20 21v348l20 21h144l20 -21v-348l21 -21h348l20 -20v-143l-20 -21h-348l-21 -20v-349l-20 -20h-144l-20 20v349l-20 20h-349z" />
<glyph unicode="," horiz-adv-x="573" d="M143 -225l123 184v21l-20 20h-62l-20 20v205l20 21h205l21 -21v-225l-21 -61l-123 -164l-41 -21h-82v21z" />
<glyph unicode="-" horiz-adv-x="839" d="M123 451v143l20 20h553l21 -20v-143l-21 -21h-553z" />
<glyph unicode="." horiz-adv-x="573" d="M164 20v205l20 21h205l21 -21v-205l-21 -20h-205z" />
<glyph unicode="/" horiz-adv-x="1044" d="M82 20v144l737 1249l21 21h102l21 -21v-143l-738 -1250l-20 -20h-103z" />
<glyph unicode="0" d="M82 717q0 162 26 288.5t71.5 210t111 138t140 77.5t163.5 23t163.5 -23t140 -77.5t111 -138t71.5 -210t26 -288.5t-26 -288.5t-71.5 -210t-111 -138t-140 -77.5t-163.5 -23t-163.5 23t-140 77.5t-111 138t-71.5 210t-26 288.5zM287 717q0 -150 21.5 -258.5t63 -172 t96.5 -93t126 -29.5t126 29.5t96.5 93t63 172t21.5 258.5t-21.5 258.5t-63 172t-96.5 93t-126 29.5t-126 -29.5t-96.5 -93t-63 -172t-21.5 -258.5z" />
<glyph unicode="1" horiz-adv-x="778" d="M82 942v164l307 307l41 21h164l20 -21v-1393l-20 -20h-164l-20 20v1147h-21l-246 -245h-41z" />
<glyph unicode="2" horiz-adv-x="1126" d="M82 20v164l20 41l410 328q109 87 167.5 150.5t89 136.5t30.5 164q0 118 -58.5 192t-187.5 74q-134 0 -200 -69.5t-66 -196.5l-21 -21h-164l-20 21q0 205 123 327.5t348 122.5q95 0 172.5 -25t128.5 -67t85.5 -98.5t49.5 -116t15 -123.5q0 -97 -21.5 -177t-67 -149 t-100.5 -124.5t-139 -122.5l-307 -246v-21h655l20 -20v-144l-20 -20h-922z" />
<glyph unicode="3" horiz-adv-x="1126" d="M61 389l21 21h164l20 -21q0 -40 16 -78.5t47.5 -72t84 -54t118.5 -20.5q150 0 229 82.5t79 224.5q0 137 -71.5 212t-195.5 75q-45 0 -86 -15.5t-59 -30.5l-18 -16h-62l-20 21v143l389 369v20h-574l-20 21v143l20 21h799l21 -21v-164l-21 -41l-307 -286v-21q12 2 41 2 q65 0 126.5 -23.5t117.5 -72t90 -135.5t34 -201q0 -228 -139.5 -359.5t-372.5 -131.5q-210 0 -340.5 118t-130.5 291z" />
<glyph unicode="4" horiz-adv-x="1126" d="M41 430v164l20 41l656 778l41 21h184l21 -21v-1393l-21 -20h-164l-20 20v369l-21 21h-676zM266 594h471l21 20v553h-21l-471 -553v-20z" />
<glyph unicode="5" d="M123 389l20 21h164l21 -21q9 -53 22 -88.5t41 -69t78.5 -50.5t124.5 -17q287 0 287 328q0 148 -60.5 227.5t-206.5 79.5q-57 0 -105.5 -17t-77 -41t-48.5 -48t-27 -41l-8 -17l-41 -21l-143 21l-21 20l41 758l21 21h799l20 -21v-143l-20 -21h-615l-20 -20l-21 -369h21 q3 5 10 13.5t32 29.5t55 37t81 29.5t108 13.5q111 0 196 -38.5t135 -105.5t74.5 -149.5t24.5 -177.5q0 -270 -127 -401t-364 -131q-222 0 -338.5 108.5t-132.5 300.5z" />
<glyph unicode="6" horiz-adv-x="1167" d="M102 696q0 169 24.5 298.5t68.5 216t111 141.5t147.5 78.5t181.5 23.5q187 0 301 -90.5t129 -257.5l-21 -21h-163l-21 21q-15 89 -74.5 126.5t-171.5 37.5q-59 0 -106 -19.5t-76.5 -47t-50.5 -71.5t-31 -79t-15.5 -84.5t-6 -72t-0.5 -56.5h20q3 4 10 11t32 24.5t55 31 t81.5 24.5t108.5 11q213 0 331.5 -126.5t118.5 -344.5q0 -229 -127 -360t-344 -131q-96 0 -171.5 21t-141 72t-108.5 132t-67 204.5t-24 286.5zM328 471q0 -147 76 -227t190 -80q138 0 212.5 74.5t74.5 212.5q0 148 -60.5 227.5t-206.5 79.5q-138 0 -212 -74.5t-74 -212.5z " />
<glyph unicode="7" horiz-adv-x="1044" d="M82 1270v143l20 21h861l20 -21v-164l-594 -1229l-20 -20h-103l-20 20v164l512 1045v20h-656z" />
<glyph unicode="8" horiz-adv-x="1146" d="M82 410q0 73 20 134t52.5 102.5t65 67.5t67.5 44v20q-164 110 -164 287q0 79 28 148t81.5 123.5t141.5 86t199 31.5t199 -31.5t142 -86t82 -123.5t28 -148q0 -177 -164 -287v-20q35 -18 67.5 -44t65 -67.5t52.5 -102.5t20 -134q0 -86 -31.5 -162.5t-91 -136.5t-155 -95.5 t-214.5 -35.5t-214.5 35.5t-155 95.5t-90.5 136.5t-31 162.5zM287 410q0 -103 71.5 -174.5t214.5 -71.5t215 72t72 174q0 116 -71 191t-216 75t-215.5 -74.5t-70.5 -191.5zM328 1065q0 -97 63.5 -161t181.5 -64t182 64t64 161q0 87 -59 146t-187 59t-186.5 -59t-58.5 -146z " />
<glyph unicode="9" horiz-adv-x="1167" d="M82 983q0 223 132 347t339 124q128 0 219.5 -34.5t159 -113.5t100.5 -215t33 -333q0 -213 -34 -363t-102.5 -241t-165.5 -132.5t-231 -41.5q-172 0 -283 91t-126 257l20 20h164l21 -20q14 -88 71 -126t154 -38q59 0 106 19.5t76.5 47t51 72.5t31.5 81t15.5 88t6 77.5 t0.5 64.5h-21q-3 -4 -10 -11t-32 -24.5t-55 -31t-81.5 -24.5t-108.5 -11q-201 0 -325.5 128.5t-124.5 342.5zM287 983q0 -137 71 -212t195 -75q138 0 212.5 74.5t74.5 212.5q0 147 -78 217t-209 70q-124 0 -195 -75t-71 -212z" />
<glyph unicode=":" horiz-adv-x="573" d="M164 20v205l20 21h205l21 -21v-205l-21 -20h-205zM164 799v205l20 20h205l21 -20v-205l-21 -21h-205z" />
<glyph unicode=";" horiz-adv-x="573" d="M143 -225l123 184v21l-20 20h-62l-20 20v205l20 21h205l21 -21v-225l-21 -61l-123 -164l-41 -21h-82v21zM164 799v205l20 20h205l21 -20v-205l-21 -21h-205z" />
<glyph unicode="&#x3c;" d="M143 451v122l21 41l799 410h41l20 -20v-123l-20 -41l-635 -308v-40l635 -308l20 -41v-123l-20 -20h-41l-799 410z" />
<glyph unicode="=" horiz-adv-x="1228" d="M164 246v143l20 21h860l21 -21v-143l-21 -21h-860zM164 635v143l20 21h860l21 -21v-143l-21 -21h-860z" />
<glyph unicode="&#x3e;" d="M164 20v123l20 41l635 308v40l-635 308l-20 41v123l20 20h41l799 -410l20 -41v-122l-20 -41l-799 -410h-41z" />
<glyph unicode="?" horiz-adv-x="1228" d="M164 1004q0 207 113.5 328.5t336.5 121.5q203 0 327 -103.5t124 -285.5q0 -74 -13.5 -131t-44.5 -103.5t-62 -78t-85 -76.5q-53 -44 -78.5 -68.5t-48.5 -56t-30 -63.5t-7 -78l-20 -21h-164l-20 21q0 122 35 196.5t128 151.5q103 86 134 121q71 80 71 186q0 87 -59 146 t-187 59q-132 0 -188.5 -68t-56.5 -198l-21 -21h-164zM471 20v205l21 21h204l21 -21v-205l-21 -20h-204z" />
<glyph unicode="@" horiz-adv-x="1884" d="M123 512q0 244 101.5 435t288.5 298t429 107t429 -107t288.5 -298t101.5 -435q0 -237 -93.5 -354t-254.5 -117q-84 0 -136 33.5t-89 89.5h-21q-30 -30 -51 -47t-74.5 -36.5t-119.5 -19.5q-79 0 -148 28t-123.5 82t-86.5 142t-32 199t31.5 199.5t84.5 142t117.5 81.5 t135.5 28q40 0 76 -8.5t58.5 -20.5t39.5 -24t24 -20l7 -9h20v41l21 20h164l20 -20v-594q0 -71 26 -97t77 -26q73 0 97.5 71t24.5 236q0 107 -22 202t-70.5 178.5t-119 144t-173.5 95.5t-229 35q-149 0 -268 -53t-193.5 -144.5t-113.5 -208t-39 -249.5q0 -112 24 -210 t74 -180t122.5 -141t173 -91.5t220.5 -32.5q101 0 189.5 24t138.5 58h41l20 -21v-143q-63 -47 -166 -75t-223 -28q-242 0 -429 107t-288.5 298t-101.5 435zM737 512q0 -146 53 -206t152 -60q96 0 140 58.5t44 207.5t-44 207.5t-140 58.5q-99 0 -152 -60t-53 -206z" />
<glyph unicode="A" horiz-adv-x="1290" d="M41 20v144l491 1249l21 21h184l21 -21l491 -1249v-144l-20 -20h-123l-21 20l-122 308l-41 20h-553l-41 -20l-123 -308l-21 -20h-123zM410 553l20 -21h430l21 21l-226 573h-20z" />
<glyph unicode="B" horiz-adv-x="1310" d="M164 20v1393l20 21h574q88 0 162.5 -21t136 -65.5t96.5 -122t35 -181.5q0 -103 -51.5 -178.5t-132.5 -107.5v-21q100 -33 162.5 -115t62.5 -212q0 -111 -35 -193t-96.5 -128t-135.5 -67.5t-163 -21.5h-615zM369 205l20 -21h389q126 0 186 53t60 173q0 136 -65.5 190.5 t-221.5 54.5h-348l-20 -20v-430zM369 860l20 -20h348q130 0 188 43t58 161q0 119 -61 162t-205 43h-328l-20 -20v-369z" />
<glyph unicode="C" horiz-adv-x="1413" d="M82 717q0 216 78.5 381.5t232.5 260.5t365 95q239 0 390 -119.5t183 -310.5l-20 -20h-164l-21 20q-32 112 -126 179t-242 67q-225 0 -348 -150.5t-123 -402.5t123 -402.5t348 -150.5q292 0 368 266l21 21h164l20 -21q-16 -95 -58.5 -174.5t-112 -142t-172.5 -98 t-230 -35.5q-211 0 -365 95t-232.5 260.5t-78.5 381.5z" />
<glyph unicode="D" horiz-adv-x="1372" d="M164 20v1393l20 21h430q151 0 266.5 -34t192.5 -94.5t126 -151t70 -197.5t21 -240t-21 -240t-70 -197.5t-126 -151t-192.5 -94.5t-266.5 -34h-430zM369 205l20 -21h205q116 0 200.5 22.5t140.5 64.5t89.5 109t47 147.5t13.5 189.5q0 137 -22.5 231t-77 164.5t-151 103.5 t-240.5 33h-205l-20 -20v-1024z" />
<glyph unicode="E" horiz-adv-x="1249" d="M164 20v1393l20 21h922l20 -21v-143l-20 -21h-717l-20 -20v-389l20 -21h676l20 -20v-144l-20 -20h-676l-20 -21v-409l20 -21h717l20 -20v-144l-20 -20h-922z" />
<glyph unicode="F" horiz-adv-x="1167" d="M164 20v1393l20 21h881l20 -21v-143l-20 -21h-676l-20 -20v-410l20 -20h635l20 -21v-143l-20 -21h-635l-20 -20v-574l-21 -20h-164z" />
<glyph unicode="G" horiz-adv-x="1474" d="M82 717q0 216 78.5 381.5t232.5 260.5t365 95q113 0 207 -25.5t158.5 -66.5t113 -98t75.5 -116t40 -124l-21 -20h-164l-20 20q-32 113 -129.5 179.5t-259.5 66.5q-225 0 -348 -150.5t-123 -402.5q0 -251 119 -402t331 -151q111 0 193 31.5t128 87t67.5 122.5t21.5 148 l-21 20h-409l-21 21v143l21 21h614l21 -21v-717l-21 -20h-123l-20 20l-21 123h-20q-163 -163 -410 -163q-201 0 -350.5 94.5t-227 261t-77.5 381.5z" />
<glyph unicode="H" horiz-adv-x="1454" d="M164 20v1393l20 21h164l21 -21v-573l20 -21h676l20 21v573l21 21h164l20 -21v-1393l-20 -20h-164l-21 20v594l-20 21h-676l-20 -21v-594l-21 -20h-164z" />
<glyph unicode="I" horiz-adv-x="532" d="M164 20v1393l20 21h164l21 -21v-1393l-21 -20h-164z" />
<glyph unicode="J" horiz-adv-x="1044" d="M41 369v41l20 20h164l21 -20v-41q0 -205 205 -205q111 0 168 53t57 172v1024l20 21h164l21 -21v-1024q0 -87 -24.5 -159.5t-74.5 -129t-134.5 -88.5t-196.5 -32q-99 0 -175.5 27.5t-119.5 68t-70.5 95.5t-36 102t-8.5 96z" />
<glyph unicode="K" horiz-adv-x="1269" d="M164 20v1393l20 21h164l21 -21v-676h20l676 676l41 21h61l21 -21v-143l-451 -451v-20l492 -635v-144l-21 -20h-82l-41 20l-491 635h-21l-184 -184l-20 -41v-410l-21 -20h-164z" />
<glyph unicode="L" horiz-adv-x="1105" d="M164 20v1393l20 21h164l21 -21v-1208l20 -21h676l20 -20v-144l-20 -20h-881z" />
<glyph unicode="M" horiz-adv-x="1822" d="M164 20v1393l20 21h226l20 -21l471 -1147h21l471 1147l20 21h225l21 -21v-1393l-21 -20h-163l-21 20v984h-20l-410 -984l-20 -20h-185l-20 20l-410 984h-20v-984l-21 -20h-164z" />
<glyph unicode="N" horiz-adv-x="1495" d="M164 20v1393l20 21h185l41 -21l696 -1065h20v1065l21 21h164l20 -21v-1393l-20 -20h-185l-41 20l-696 1065h-20v-1065l-21 -20h-164z" />
<glyph unicode="O" horiz-adv-x="1515" d="M82 717q0 216 78.5 381.5t232.5 260.5t365 95t365 -95t232.5 -260.5t78.5 -381.5t-78.5 -381.5t-232.5 -260.5t-365 -95t-365 95t-232.5 260.5t-78.5 381.5zM287 717q0 -252 123 -402.5t348 -150.5t348 150.5t123 402.5t-123 402.5t-348 150.5t-348 -150.5t-123 -402.5z " />
<glyph unicode="P" horiz-adv-x="1331" d="M164 20v1393l20 21h635q223 0 347 -100.5t124 -309.5q0 -105 -36 -185t-100.5 -128.5t-148.5 -72.5t-186 -24h-430l-20 -20v-574l-21 -20h-164zM369 819l20 -20h430q140 0 203 52t63 173t-63 173t-203 52h-430l-20 -20v-410z" />
<glyph unicode="Q" horiz-adv-x="1515" d="M82 717q0 216 78.5 381.5t232.5 260.5t365 95t365 -95t232.5 -260.5t78.5 -381.5q0 -162 -29 -268t-94 -203v-21l61 -61v-144l-20 -20h-103l-82 82h-20q-78 -47 -181 -74.5t-208 -27.5q-211 0 -365 95t-232.5 260.5t-78.5 381.5zM287 717q0 -252 123 -402.5t348 -150.5 q155 0 246 61v21l-144 143l-41 21h-164l-20 20v123l20 20h287l41 -20l164 -164h20q62 124 62 328q0 252 -123 402.5t-348 150.5t-348 -150.5t-123 -402.5z" />
<glyph unicode="R" horiz-adv-x="1372" d="M164 20v1393l20 21h635q223 0 347 -100.5t124 -309.5q0 -163 -81.5 -260t-225.5 -129v-21l287 -450v-144l-21 -20h-82l-41 20l-368 574l-41 20h-328l-20 -20v-574l-21 -20h-164zM369 819l20 -20h430q140 0 203 52t63 173t-63 173t-203 52h-430l-20 -20v-410z" />
<glyph unicode="S" horiz-adv-x="1290" d="M82 451l20 20h164l21 -20q0 -149 99 -218t290 -69q149 0 238.5 54.5t89.5 170.5q0 55 -16 94.5t-44.5 66.5t-82 47t-113.5 32.5t-154 25.5q-471 67 -471 410q0 72 29 139t87.5 124t160.5 91.5t235 34.5q118 0 213 -24.5t167.5 -75t112 -134.5t39.5 -196l-20 -20h-164 l-20 20q0 128 -78 187t-271 59q-136 0 -211 -55.5t-75 -149.5q0 -118 81.5 -166t307.5 -80q91 -13 162 -33t134.5 -53.5t105 -79.5t65.5 -113t24 -151q0 -87 -32.5 -159.5t-97.5 -129t-173 -88.5t-250 -32q-266 0 -419.5 122.5t-153.5 348.5z" />
<glyph unicode="T" horiz-adv-x="1228" d="M41 1270v143l20 21h1106l21 -21v-143l-21 -21h-430l-20 -20v-1209l-21 -20h-164l-20 20v1209l-20 20h-431z" />
<glyph unicode="U" horiz-adv-x="1433" d="M164 512v901l20 21h164l21 -21v-901q0 -162 85.5 -255t262.5 -93t262.5 93t85.5 255v901l20 21h164l21 -21v-901q0 -247 -146.5 -389.5t-406.5 -142.5t-406.5 142.5t-146.5 389.5z" />
<glyph unicode="V" horiz-adv-x="1290" d="M61 1270v143l21 21h123l20 -21l410 -1126h20l410 1126l20 21h123l21 -21v-143l-471 -1250l-21 -20h-184l-21 20z" />
<glyph unicode="W" horiz-adv-x="1904" d="M82 1270v143l20 21h123l21 -21l266 -1044h20l308 1044l20 21h184l21 -21l307 -1044h21l266 1044l20 21h123l21 -21v-143l-328 -1250l-20 -20h-185l-20 20l-307 1086h-21l-307 -1086l-21 -20h-184l-20 20z" />
<glyph unicode="X" horiz-adv-x="1331" d="M82 20v144l450 573v21l-430 512v143l21 21h82l41 -21l409 -512h21l409 512l41 21h82l21 -21v-143l-430 -512v-21l450 -573v-144l-20 -20h-82l-41 20l-430 574h-21l-430 -574l-41 -20h-82z" />
<glyph unicode="Y" d="M61 1270v143l21 21h82l41 -21l368 -614h41l369 614l41 21h82l20 -21v-143l-430 -697v-553l-20 -20h-164l-20 20v553z" />
<glyph unicode="Z" horiz-adv-x="1228" d="M102 20v164l21 41l717 1004v20h-697l-20 21v143l20 21h922l20 -21v-164l-20 -41l-717 -1003v-21h758l20 -20v-144l-20 -20h-983z" />
<glyph unicode="[" horiz-adv-x="757" d="M164 -389v1802l20 21h389l21 -21v-143l-21 -21h-184l-20 -20v-1434l20 -20h184l21 -21v-143l-21 -21h-389z" />
<glyph unicode="\" horiz-adv-x="1044" d="M82 1270v143l20 21h103l20 -21l738 -1249v-144l-21 -20h-102l-21 20z" />
<glyph unicode="]" horiz-adv-x="757" d="M164 -246l20 21h185l20 20v1434l-20 20h-185l-20 21v143l20 21h389l21 -21v-1802l-21 -21h-389l-20 21v143z" />
<glyph unicode="^" d="M143 492v143l349 778l20 21h164l20 -21l348 -778v-143l-20 -21h-82l-41 21l-287 675h-41l-286 -675l-41 -21h-82z" />
<glyph unicode="_" d="M82 -20l20 20h983l21 -20v-144l-21 -20h-983l-20 20v144z" />
<glyph unicode="`" horiz-adv-x="1024" d="M205 1372v41l20 21h144l41 -21l184 -205v-41l-21 -20h-102l-41 20z" />
<glyph unicode="a" horiz-adv-x="1024" d="M61 307q0 163 121.5 245.5t329.5 82.5q45 0 91 -5.5t69 -10.5l24 -5l21 21v41q0 104 -47 144t-158 40q-106 0 -155.5 -30.5t-49.5 -92.5l-20 -20h-164l-21 20q0 57 21.5 109t67.5 97.5t128.5 73t192.5 27.5q225 0 317.5 -107t92.5 -343v-574l-21 -20h-143l-21 20l-20 82 h-21q-3 -5 -10 -13t-32 -29t-55 -37.5t-81 -29.5t-108 -13q-168 0 -258.5 86t-90.5 241zM266 307q0 -75 45.5 -109t139.5 -34q122 0 194 56t72 149v61l-21 21q-62 20 -164 20q-266 0 -266 -164z" />
<glyph unicode="b" horiz-adv-x="1126" d="M123 20v1393l20 21h164l21 -21v-491h20q3 5 10 13t31 29t52 37.5t74.5 29.5t98.5 13q202 0 326.5 -144.5t124.5 -387.5q0 -231 -126.5 -381.5t-324.5 -150.5q-52 0 -98 12.5t-75.5 30.5t-51.5 36t-31 31l-10 12h-20l-21 -82l-20 -20h-144zM328 512q0 -348 266 -348 q124 0 195 90.5t71 257.5t-71 257.5t-195 90.5q-266 0 -266 -348z" />
<glyph unicode="c" horiz-adv-x="1064" d="M61 512q0 247 131 389.5t361 142.5q104 0 188 -28t138 -77t85.5 -110.5t39.5 -132.5l-21 -20h-164l-20 20q-40 164 -246 164q-138 0 -212.5 -90t-74.5 -258t74.5 -258t212.5 -90q206 0 246 164l20 20h164l21 -20q-8 -71 -39.5 -132.5t-85.5 -110.5t-138 -77t-188 -28 q-230 0 -361 142.5t-131 389.5z" />
<glyph unicode="d" horiz-adv-x="1126" d="M61 512q0 154 52 273.5t155.5 189t243.5 69.5q52 0 98 -12.5t75.5 -30.5t51.5 -36t31 -31l10 -12h21v491l20 21h164l21 -21v-1393l-21 -20h-143l-21 20l-20 82h-21q-3 -5 -10 -13t-31 -29t-52 -37.5t-74.5 -29.5t-98.5 -13q-140 0 -243.5 69.5t-155.5 189t-52 273.5z M266 512q0 -167 71 -257.5t195 -90.5q267 0 267 348t-267 348q-124 0 -195 -90.5t-71 -257.5z" />
<glyph unicode="e" horiz-adv-x="1064" d="M61 512q0 110 28 204.5t84 168.5t148 116.5t211 42.5t211.5 -42.5t148 -116.5t84 -168.5t28.5 -204.5v-61l-21 -21h-676l-20 -20q0 -14 3 -32.5t11 -49t27 -57.5t46.5 -52t74 -40t104.5 -15q156 0 205 123l20 20h164l21 -20q-16 -130 -125 -218.5t-285 -88.5 q-238 0 -365 146.5t-127 385.5zM287 614l20 -20h451l20 20q0 24 -3.5 49.5t-18.5 63t-40 65t-72.5 48t-111.5 20.5t-111.5 -20.5t-72 -48t-39.5 -65t-18.5 -63t-3.5 -49.5z" />
<glyph unicode="f" horiz-adv-x="757" d="M61 860v144l21 20h143l21 20v82q0 88 42.5 150t105.5 89.5t138 27.5h164l21 -21v-143l-21 -21h-164q-35 0 -58 -20t-23 -62v-82l20 -20h205l20 -20v-144l-20 -20h-205l-20 -21v-799l-21 -20h-164l-20 20v799l-21 21h-143z" />
<glyph unicode="g" horiz-adv-x="1126" d="M61 512q0 154 52 273.5t155.5 189t243.5 69.5q52 0 98 -12.5t75.5 -30.5t51.5 -36t31 -31l10 -12h21l20 82l21 20h143l21 -20v-881q0 -119 -25.5 -214.5t-69.5 -158t-105 -103.5t-128.5 -59t-143.5 -18q-179 0 -286 79.5t-123 207.5l20 20h164l21 -20q30 -59 76.5 -81 t127.5 -22q267 0 267 348h-21q-3 -5 -10 -13t-31 -29t-52 -37.5t-74.5 -29.5t-98.5 -13q-140 0 -243.5 69.5t-155.5 189t-52 273.5zM266 512q0 -167 71 -257.5t195 -90.5q267 0 267 348t-267 348q-124 0 -195 -90.5t-71 -257.5z" />
<glyph unicode="h" horiz-adv-x="1126" d="M123 20v1393l20 21h164l21 -21v-491h20q3 5 10 13t31 29t52 37.5t74.5 29.5t98.5 13q89 0 158 -23.5t112 -62.5t70.5 -95.5t38.5 -117t11 -131.5v-594l-21 -20h-164l-20 20v594q0 246 -205 246q-130 0 -198 -75.5t-68 -252.5v-512l-21 -20h-164z" />
<glyph unicode="i" horiz-adv-x="450" d="M123 20v984l20 20h164l21 -20v-984l-21 -20h-164zM123 1208v164l20 21h164l21 -21v-164l-21 -20h-164z" />
<glyph unicode="j" horiz-adv-x="450" d="M-82 -205l21 21h102q35 0 58.5 20t23.5 62v1106l20 20h164l21 -20v-1106q0 -66 -24.5 -118.5t-65.5 -84t-91.5 -48t-105.5 -16.5h-102l-21 21v143zM123 1208v164l20 21h164l21 -21v-164l-21 -20h-164z" />
<glyph unicode="k" horiz-adv-x="1024" d="M123 20v1393l20 21h164l21 -21v-881h20l471 472l41 20h62l20 -20v-144l-287 -287v-20l308 -389v-144l-21 -20h-82l-41 20l-307 390h-20l-144 -144l-20 -41v-205l-21 -20h-164z" />
<glyph unicode="l" horiz-adv-x="450" d="M123 20v1393l20 21h164l21 -21v-1393l-21 -20h-164z" />
<glyph unicode="m" horiz-adv-x="1658" d="M123 20v984l20 20h144l20 -20l21 -82h20q82 122 266 122q58 0 104 -12.5t77 -37t48.5 -44t37.5 -49.5h20q49 65 127 104t180 39q84 0 146.5 -21.5t100.5 -57t61 -89.5t31.5 -111.5t8.5 -129.5v-615l-20 -20h-164l-20 20v615q0 52 -6 88t-24.5 69.5t-57 50.5t-97.5 17 q-106 0 -165.5 -71t-59.5 -195v-574l-20 -20h-164l-21 20v615q0 53 -6 88.5t-24 69t-56.5 50.5t-97.5 17q-41 0 -78.5 -13.5t-71.5 -42t-54.5 -83t-20.5 -127.5v-574l-21 -20h-164z" />
<glyph unicode="n" horiz-adv-x="1105" d="M123 20v984l20 20h144l20 -20l21 -82h20q3 5 10 13t31 29t52 37.5t74.5 29.5t98.5 13q105 0 181.5 -32t121.5 -91t66 -135t21 -172v-594l-21 -20h-164l-20 20v594q0 36 -3.5 65.5t-16 64.5t-33.5 59t-60 40.5t-92 16.5q-139 0 -202.5 -82.5t-63.5 -265.5v-492l-21 -20 h-164z" />
<glyph unicode="o" horiz-adv-x="1105" d="M61 512q0 247 131 389.5t361 142.5q229 0 360 -142.5t131 -389.5t-131 -389.5t-360 -142.5q-230 0 -361 142.5t-131 389.5zM266 512q0 -168 74.5 -258t212.5 -90t212.5 90t74.5 258t-74.5 258t-212.5 90t-212.5 -90t-74.5 -258z" />
<glyph unicode="p" horiz-adv-x="1126" d="M123 -389v1393l20 20h144l20 -20l21 -82h20q3 5 10 13t31 29t52 37.5t74.5 29.5t98.5 13q140 0 243.5 -69.5t155.5 -189t52 -273.5t-52 -273.5t-155.5 -189t-243.5 -69.5q-52 0 -98 12.5t-75.5 30.5t-51.5 36t-31 31l-10 12h-20v-491l-21 -21h-164zM328 512 q0 -348 266 -348q124 0 195 90.5t71 257.5t-71 257.5t-195 90.5q-266 0 -266 -348z" />
<glyph unicode="q" horiz-adv-x="1126" d="M61 512q0 154 52 273.5t155.5 189t243.5 69.5q52 0 98 -12.5t75.5 -30.5t51.5 -36t31 -31l10 -12h21l20 82l21 20h143l21 -20v-1393l-21 -21h-164l-20 21v491h-21q-3 -5 -10 -13t-31 -29t-52 -37.5t-74.5 -29.5t-98.5 -13q-140 0 -243.5 69.5t-155.5 189t-52 273.5z M266 512q0 -167 71 -257.5t195 -90.5q267 0 267 348t-267 348q-124 0 -195 -90.5t-71 -257.5z" />
<glyph unicode="r" horiz-adv-x="757" d="M123 20v984l20 20h144l20 -20l21 -82h20q52 52 109.5 77t156.5 25h82l21 -20v-144l-21 -20h-102q-65 0 -111.5 -14t-82.5 -47.5t-54 -95t-18 -151.5v-512l-21 -20h-164z" />
<glyph unicode="s" horiz-adv-x="942" d="M61 328l21 20h164l20 -20q0 -164 205 -164q106 0 155.5 30.5t49.5 92.5q0 31 -9 52.5t-25 37t-51 28.5t-73.5 22.5t-107.5 23.5q-163 33 -245.5 104t-82.5 203q0 56 21 105.5t65 91t122 65.5t181 24q175 0 282 -79t107 -228l-20 -20h-164l-21 20q0 53 -42.5 88t-141.5 35 q-86 0 -135 -22.5t-49 -79.5q0 -31 11.5 -53t29 -37t57.5 -28.5t78 -22.5t110 -23q159 -32 233.5 -102.5t74.5 -204.5q0 -63 -24.5 -117.5t-72.5 -97.5t-128.5 -67.5t-184.5 -24.5q-199 0 -304.5 89.5t-105.5 258.5z" />
<glyph unicode="t" horiz-adv-x="778" d="M41 860v144l20 20h144l20 20v185l21 20h164l20 -20v-185l21 -20h225l20 -20v-144l-20 -20h-225l-21 -21v-553q0 -42 23.5 -62t58.5 -20h164l20 -20v-144l-20 -20h-164q-118 0 -202.5 68.5t-84.5 197.5v553l-20 21h-144z" />
<glyph unicode="u" horiz-adv-x="1085" d="M102 410v594l21 20h164l20 -20v-594q0 -246 205 -246q113 0 179.5 85.5t66.5 262.5v492l20 20h164l21 -20v-984l-21 -20h-143l-21 20l-20 82h-21q-3 -5 -9.5 -13t-29.5 -29t-49 -37.5t-68.5 -29.5t-88.5 -13q-104 0 -181.5 35t-122 96.5t-65.5 136t-21 162.5z" />
<glyph unicode="v" horiz-adv-x="1044" d="M61 860v144l21 20h123l20 -20l287 -717h20l287 717l21 20h123l20 -20v-144l-348 -840l-21 -20h-184l-20 20z" />
<glyph unicode="w" horiz-adv-x="1536" d="M82 860v144l20 20h123l21 -20l184 -697h21l204 697l21 20h184l21 -20l204 -697h21l184 697l21 20h123l20 -20v-144l-246 -840l-20 -20h-184l-21 20l-205 717h-20l-205 -717l-21 -20h-184l-20 20z" />
<glyph unicode="x" horiz-adv-x="1003" d="M61 20v144l308 348v20l-287 328v144l20 20h62l41 -20l287 -328h20l287 328l41 20h61l21 -20v-144l-287 -328v-20l307 -348v-144l-20 -20h-62l-41 20l-307 349h-20l-308 -349l-41 -20h-61z" />
<glyph unicode="y" horiz-adv-x="1044" d="M61 860v144l21 20h123l20 -20l287 -758h20l287 758l21 20h123l20 -20v-144l-328 -819q-38 -96 -71 -157t-69 -105t-81.5 -66t-98.5 -31.5t-130 -9.5h-41l-21 21v143l21 21h41q82 0 129 25t76 98v20z" />
<glyph unicode="z" horiz-adv-x="1024" d="M82 20v164l20 41l553 594v21h-532l-21 20v144l21 20h778l21 -20v-164l-21 -41l-553 -594v-21h574l20 -20v-144l-20 -20h-820z" />
<glyph unicode="{" horiz-adv-x="901" d="M164 451v122l20 21q78 0 111 36.5t33 127.5v368q0 147 88 227.5t219 80.5h82l20 -21v-143l-20 -21h-82q-47 0 -75 -31.5t-28 -91.5v-389q0 -77 -28 -133.5t-74 -71.5v-40q46 -15 74 -71.5t28 -133.5v-389q0 -60 28 -91.5t75 -31.5h82l20 -21v-143l-20 -21h-82 q-131 0 -219 80.5t-88 227.5v368q0 91 -33 127.5t-111 36.5z" />
<glyph unicode="|" horiz-adv-x="696" d="M246 -389v1802l20 21h164l21 -21v-1802l-21 -21h-164z" />
<glyph unicode="}" horiz-adv-x="901" d="M164 -246l20 21h82q47 0 75 31.5t28 91.5v389q0 77 28 133.5t74 71.5v40q-46 15 -74 71.5t-28 133.5v389q0 60 -28 91.5t-75 31.5h-82l-20 21v143l20 21h82q131 0 219 -80.5t88 -227.5v-368q0 -91 33 -127.5t111 -36.5l20 -21v-122l-20 -21q-78 0 -111 -36.5t-33 -127.5 v-368q0 -147 -88 -227.5t-219 -80.5h-82l-20 21v143z" />
<glyph unicode="~" horiz-adv-x="1269" d="M123 369q0 80 16.5 144.5t52 116t96 79.5t142.5 28q51 0 95 -12.5t81.5 -37.5t58.5 -43.5t52 -49.5q38 -38 58 -55.5t48.5 -32t57.5 -14.5q58 0 80 40t22 123l21 21h122l21 -21q0 -80 -16.5 -144.5t-52 -116t-96 -79.5t-142.5 -28q-51 0 -95 12.5t-81.5 37.5t-58.5 43.5 t-52 49.5q-38 38 -58 55.5t-48.5 32t-57.5 14.5q-58 0 -80 -40t-22 -123l-21 -21h-123z" />
<glyph unicode="&#xaa;" horiz-adv-x="1146" d="M164 1065q0 189 100 289t248 100q67 0 114.5 -19.5t69.5 -41.5h21v20l20 21h144l20 -21v-491q0 -29 12.5 -45.5t28.5 -16.5h21l20 -20v-123l-20 -21h-62q-81 0 -143 62h-21q-82 -82 -225 -82q-157 0 -252.5 103.5t-95.5 285.5zM205 553v20l20 21h717l21 -21v-20l-21 -21 h-717zM348 1065q0 -109 46.5 -167t137.5 -58t138 58.5t47 166.5t-47 166.5t-138 58.5t-137.5 -58t-46.5 -167z" />
<glyph unicode="&#xac;" d="M123 451v143l20 20h861l20 -20v-389l-20 -21h-144l-20 21v205l-21 20h-676z" />
<glyph unicode="&#xad;" horiz-adv-x="839" d="M123 451v143l20 20h553l21 -20v-143l-21 -21h-553z" />
<glyph unicode="&#xb1;" d="M143 20v144l21 20h880l21 -20v-144l-21 -20h-880zM143 594v143l21 21h328l20 20v226l20 20h144l20 -20v-226l21 -20h327l21 -21v-143l-21 -21h-327l-21 -20v-225l-20 -21h-144l-20 21v225l-20 20h-328z" />
<glyph unicode="&#xb5;" d="M164 -389v1393l20 20h164l21 -20v-533q0 -152 58 -229.5t167 -77.5t167 77.5t58 229.5v533l21 20h164l20 -20v-984l-20 -20h-144l-20 20l-21 41h-20q-9 -9 -26 -22.5t-70.5 -36t-108.5 -22.5q-34 0 -68 8.5t-57.5 20t-42.5 23.5t-28 20l-9 9h-20v-450l-21 -21h-164z" />
<glyph unicode="&#xba;" horiz-adv-x="1064" d="M164 1065q0 175 94.5 282t273.5 107t274 -107t95 -282t-95 -282t-274 -107t-273.5 107t-94.5 282zM205 553v20l20 21h615l20 -21v-20l-20 -21h-615zM348 1065q0 -109 46.5 -167t137.5 -58t138 58.5t47 166.5t-47 166.5t-138 58.5t-137.5 -58t-46.5 -167z" />
<glyph unicode="&#xf7;" horiz-adv-x="1228" d="M123 451v143l20 20h942l21 -20v-143l-21 -21h-942zM492 41v205l20 20h205l20 -20v-205l-20 -21h-205zM492 799v205l20 20h205l20 -20v-205l-20 -21h-205z" />
<glyph unicode="&#x3a9;" horiz-adv-x="1556" d="M102 819q0 158 50.5 280t142 199t213.5 116.5t270 39.5t270 -39.5t213.5 -116.5t142 -199t50.5 -280q0 -85 -13.5 -155.5t-34.5 -124.5t-63.5 -113t-83.5 -104.5t-112 -116.5v-21h246l20 -20v-144l-20 -20h-471l-21 20v164l21 41q56 56 83.5 84.5t70 75t62.5 76t46 73 t37 81t19.5 85t8.5 99.5q0 239 -124 355t-347 116t-347 -116t-124 -355q0 -52 8.5 -99.5t19.5 -85t37.5 -81.5t46 -72.5t62.5 -76t70 -75t84 -84.5l20 -41v-164l-20 -20h-471l-21 20v144l21 20h246v21q-71 71 -112 116.5t-84 104.5t-64 113t-34.5 124.5t-13.5 155.5z" />
<glyph unicode="&#x3c0;" d="M102 860v144l21 20h942l20 -20v-144l-20 -20h-143l-21 -21v-614l21 -21h122l21 -20v-144l-21 -20h-327l-21 20v799l-20 21h-184l-21 -21v-799l-20 -20h-164l-21 20v799l-20 21h-123z" />
<glyph unicode="&#x2000;" horiz-adv-x="809" />
<glyph unicode="&#x2001;" horiz-adv-x="1618" />
<glyph unicode="&#x2002;" horiz-adv-x="809" />
<glyph unicode="&#x2003;" horiz-adv-x="1618" />
<glyph unicode="&#x2004;" horiz-adv-x="539" />
<glyph unicode="&#x2005;" horiz-adv-x="404" />
<glyph unicode="&#x2006;" horiz-adv-x="269" />
<glyph unicode="&#x2007;" horiz-adv-x="269" />
<glyph unicode="&#x2008;" horiz-adv-x="202" />
<glyph unicode="&#x2009;" horiz-adv-x="323" />
<glyph unicode="&#x200a;" horiz-adv-x="89" />
<glyph unicode="&#x2010;" horiz-adv-x="839" d="M123 451v143l20 20h553l21 -20v-143l-21 -21h-553z" />
<glyph unicode="&#x2011;" horiz-adv-x="839" d="M123 451v143l20 20h553l21 -20v-143l-21 -21h-553z" />
<glyph unicode="&#x2012;" horiz-adv-x="839" d="M123 451v143l20 20h553l21 -20v-143l-21 -21h-553z" />
<glyph unicode="&#x2013;" horiz-adv-x="1269" d="M123 451v143l20 20h983l21 -20v-143l-21 -21h-983z" />
<glyph unicode="&#x2014;" horiz-adv-x="2293" d="M123 451v143l20 20h2007l21 -20v-143l-21 -21h-2007z" />
<glyph unicode="&#x2018;" horiz-adv-x="573" d="M143 963v225l21 61l123 164l41 21h82v-21l-123 -184v-21l20 -20h62l20 -21v-204l-20 -21h-205z" />
<glyph unicode="&#x2019;" horiz-adv-x="573" d="M164 942v21l123 184v20l-21 21h-61l-21 20v205l21 21h205l20 -21v-225l-20 -62l-123 -163l-41 -21h-82z" />
<glyph unicode="&#x201c;" horiz-adv-x="983" d="M143 963v225l21 61l123 164l41 21h82v-21l-123 -184v-21l20 -20h62l20 -21v-204l-20 -21h-205zM553 963v225l20 61l123 164l41 21h82v-21l-123 -184v-21l21 -20h61l21 -21v-204l-21 -21h-205z" />
<glyph unicode="&#x201d;" horiz-adv-x="983" d="M164 942v21l123 184v20l-21 21h-61l-21 20v205l21 21h205l20 -21v-225l-20 -62l-123 -163l-41 -21h-82zM573 942v21l123 184v20l-20 21h-62l-20 20v205l20 21h205l21 -21v-225l-21 -62l-123 -163l-41 -21h-82z" />
<glyph unicode="&#x2026;" horiz-adv-x="1474" d="M164 20v205l20 21h205l21 -21v-205l-21 -20h-205zM614 20v205l21 21h205l20 -21v-205l-20 -20h-205zM1065 20v205l20 21h205l21 -21v-205l-21 -20h-205z" />
<glyph unicode="&#x202f;" horiz-adv-x="323" />
<glyph unicode="&#x2030;" horiz-adv-x="2355" d="M82 1065q0 178 85.5 283.5t262.5 105.5t262.5 -105.5t85.5 -283.5t-85.5 -283.5t-262.5 -105.5t-262.5 105.5t-85.5 283.5zM266 1065q0 -112 37.5 -168.5t126.5 -56.5t126.5 56.5t37.5 168.5t-37.5 168.5t-126.5 56.5t-126.5 -56.5t-37.5 -168.5zM451 20v144l819 1249 l20 21h82l21 -21v-143l-820 -1250l-20 -20h-82zM1065 369q0 178 85.5 283.5t262.5 105.5q85 0 148 -35.5t98 -87.5h20q35 52 98 87.5t148 35.5q177 0 262.5 -105.5t85.5 -283.5t-85.5 -283.5t-262.5 -105.5q-85 0 -148 35t-98 87h-20q-35 -52 -98 -87t-148 -35 q-177 0 -262.5 105.5t-85.5 283.5zM1249 369q0 -113 37.5 -169.5t126.5 -56.5t126.5 56.5t37.5 169.5q0 112 -37.5 168.5t-126.5 56.5t-126.5 -56.5t-37.5 -168.5zM1761 369q0 -113 37.5 -169.5t126.5 -56.5t126.5 56.5t37.5 169.5q0 112 -37.5 168.5t-126.5 56.5 t-126.5 -56.5t-37.5 -168.5z" />
<glyph unicode="&#x2044;" horiz-adv-x="1269" d="M164 20v144l819 1249l21 21h81l21 -21v-143l-819 -1250l-21 -20h-82z" />
<glyph unicode="&#x205f;" horiz-adv-x="404" />
<glyph unicode="&#x2190;" horiz-adv-x="1761" d="M164 492v40l471 472l41 20h164l20 -20v-21l-368 -369v-20h1085l20 -21v-122l-20 -21h-1085v-20l368 -369v-21l-20 -20h-164l-41 20z" />
<glyph unicode="&#x2191;" horiz-adv-x="1351" d="M164 758v164l20 41l471 471h41l471 -471l21 -41v-164l-21 -21h-20l-369 369h-20v-1086l-21 -20h-123l-20 20v1086h-21l-368 -369h-21z" />
<glyph unicode="&#x2192;" horiz-adv-x="1761" d="M164 451v122l20 21h1086v20l-369 369v21l21 20h163l41 -20l471 -472v-40l-471 -472l-41 -20h-163l-21 20v21l369 369v20h-1086z" />
<glyph unicode="&#x2193;" horiz-adv-x="1351" d="M164 512v164l20 20h21l368 -368h21v1085l20 21h123l21 -21v-1085h20l369 368h20l21 -20v-164l-21 -41l-471 -471h-41l-471 471z" />
<glyph unicode="&#x2196;" horiz-adv-x="1413" d="M164 737v656l41 41h655l41 -21l103 -102v-21l-21 -20h-512v-21l778 -778v-20l-102 -103h-21l-778 778h-20v-512l-21 -20h-20l-103 102z" />
<glyph unicode="&#x2197;" horiz-adv-x="1413" d="M164 451v20l778 778v21h-512l-20 20v21l102 102l41 21h655l41 -41v-656l-20 -41l-103 -102h-20l-21 20v512h-20l-778 -778h-21z" />
<glyph unicode="&#x2198;" horiz-adv-x="1413" d="M164 963v20l102 102h21l778 -778h20v512l21 21h20l103 -103l20 -41v-655l-41 -41h-655l-41 20l-102 103v20l20 21h512v20z" />
<glyph unicode="&#x2199;" horiz-adv-x="1413" d="M164 41v655l20 41l103 103h20l21 -21v-512h20l778 778h21l102 -102v-20l-778 -779v-20h512l21 -21v-20l-103 -103l-41 -20h-655z" />
<glyph unicode="&#x2202;" d="M123 512q0 244 124 388t326 144q46 0 86 -8.5t64.5 -20t42.5 -23.5t26 -20l7 -9h20q-8 60 -29 112.5t-59.5 103.5t-105 81t-154.5 30q-55 0 -106 -10t-75 -20l-24 -11l-20 21v123l20 20q9 5 26 11.5t70.5 18t108.5 11.5q303 0 448.5 -237.5t145.5 -704.5 q0 -257 -126 -394.5t-345 -137.5q-95 0 -178 32t-149.5 95t-105 167t-38.5 238zM328 512q0 -96 21 -166t59 -108.5t83.5 -56t102.5 -17.5q266 0 266 348t-266 348t-266 -348z" />
<glyph unicode="&#x2206;" d="M61 20v144l410 1249l21 21h204l21 -21l409 -1249v-144l-20 -20h-1024zM266 184h656v21l-308 942h-41l-307 -942v-21z" />
<glyph unicode="&#x220f;" d="M82 1270v143l20 21h983l21 -21v-143l-21 -21h-143l-20 -20v-1618l-21 -21h-164l-20 21v1618l-21 20h-204l-21 -20v-1618l-20 -21h-164l-21 21v1618l-20 20h-144z" />
<glyph unicode="&#x2211;" d="M82 -225l20 41l492 696v20l-471 676l-21 41v164l21 21h942l20 -21v-307l-20 -21h-164l-20 21v123l-21 20h-512v-20l410 -594l20 -41v-143l-20 -41l-430 -615v-20h553l20 20v123l21 21h163l21 -21v-307l-21 -21h-983l-20 21v164z" />
<glyph unicode="&#x221a;" d="M82 860v144l20 20h123l21 -20l184 -697h21l327 1106l21 21h307l20 -21v-123l-20 -20h-164l-20 -21l-369 -1229l-21 -20h-184l-20 20z" />
<glyph unicode="&#x221e;" horiz-adv-x="1454" d="M82 532q0 121 81 194t206 73q50 0 100.5 -18.5t99.5 -55.5t76.5 -62t71.5 -69h20q44 44 71.5 69t76.5 62t99.5 55.5t100.5 18.5q125 0 206 -73t81 -194t-81 -193.5t-206 -72.5q-50 0 -100.5 18.5t-99.5 55.5t-76.5 62t-71.5 69h-20q-44 -44 -71.5 -69t-76.5 -62 t-99.5 -55.5t-100.5 -18.5q-125 0 -206 72.5t-81 193.5zM164 532q0 -92 56.5 -148t148.5 -56q44 0 86 15.5t85 48t68.5 55.5t67.5 65v41q-42 42 -67.5 65t-68.5 55.5t-85 48t-86 15.5q-92 0 -148.5 -56.5t-56.5 -148.5zM778 512q42 -42 67.5 -65t68.5 -55.5t85 -48t86 -15.5 q92 0 148.5 56t56.5 148t-56.5 148.5t-148.5 56.5q-44 0 -86 -15.5t-85 -48t-68.5 -55.5t-67.5 -65v-41z" />
<glyph unicode="&#x222b;" d="M184 -389l21 143l20 21h21q85 0 127.5 32t56.5 132l164 1146q15 105 48.5 175t85.5 107.5t112.5 52t142.5 14.5h82l20 -21l-20 -143l-21 -21h-61q-85 0 -127.5 -32t-56.5 -132l-164 -1146q-15 -105 -48.5 -175t-85.5 -107.5t-112.5 -52t-142.5 -14.5h-41z" />
<glyph unicode="&#x2248;" d="M82 123q0 80 16.5 145t52 116t96 79.5t142.5 28.5q51 0 95 -12.5t81.5 -38t58 -43.5t52.5 -50q38 -38 58 -55.5t48.5 -32t57.5 -14.5q58 0 80 40.5t22 123.5l21 20h122l21 -20q0 -80 -16.5 -145t-52 -116t-96 -79.5t-142.5 -28.5q-51 0 -95 12.5t-81.5 37.5t-58.5 43.5 t-52 49.5q-39 39 -58 56t-48 32t-58 15q-58 0 -80 -40.5t-22 -123.5l-21 -21h-123zM82 614q0 80 16.5 145t52 116t96 79.5t142.5 28.5q51 0 95 -12.5t81.5 -37.5t58.5 -43.5t52 -49.5q39 -39 58 -56t48 -32t58 -15q58 0 80 40.5t22 123.5l21 21h122l21 -21q0 -80 -16.5 -145 t-52 -116t-96 -79.5t-142.5 -28.5q-51 0 -95 12.5t-81.5 38t-58 43.5t-52.5 50q-38 38 -58 55.5t-48.5 32t-57.5 14.5q-58 0 -80 -40.5t-22 -123.5l-21 -20h-123z" />
<glyph unicode="&#x2260;" d="M143 246v143l21 21h307l21 20l102 164v20h-430l-21 21v143l21 21h553l20 20l103 164l20 21h41l21 -21v-41l-82 -123v-20h184l20 -21v-143l-20 -21h-307l-21 -20l-102 -164v-20h430l20 -21v-143l-20 -21h-553l-20 -20l-103 -164l-20 -21h-41l-21 21v41l82 123v20h-184z " />
<glyph unicode="&#x2264;" d="M123 20v144l20 20h881l20 -20v-144l-20 -20h-881zM123 553v205l20 20l676 246h205l20 -20v-82l-20 -21l-655 -225v-41l655 -225l20 -21v-82l-20 -20h-205l-676 245z" />
<glyph unicode="&#x2265;" d="M123 20v144l20 20h881l20 -20v-144l-20 -20h-881zM123 307v82l20 21l656 225v41l-656 225l-20 21v82l20 20h205l676 -246l20 -20v-205l-20 -21l-676 -245h-205z" />
<glyph unicode="&#xe000;" horiz-adv-x="1024" d="M0 0v1024h1024v-1024h-1024z" />
</font>
</defs>
</svg>
